<svg xmlns="http://www.w3.org/2000/svg" xmlns:xlink="http://www.w3.org/1999/xlink" version="1.1" class="marks" width="517" height="336" viewBox="0 0 517 336"><rect width="517" height="336" fill="white"/><g fill="none" stroke-miterlimit="10" transform="translate(64,51)"><g class="mark-group role-frame root" role="graphics-object" aria-roledescription="group mark container"><g transform="translate(0,0)"><path class="background" aria-hidden="true" d="M0.5,0.5h400v200h-400Z" stroke="#ddd"/><g><g class="mark-group role-axis" aria-hidden="true"><g transform="translate(0.5,200.5)"><path class="background" aria-hidden="true" d="M0,0h0v0h0Z" pointer-events="none"/><g><g class="mark-rule role-axis-grid" pointer-events="none"><line transform="translate(4,-200)" x2="0" y2="200" stroke="#ddd" stroke-width="1" opacity="1"/><line transform="translate(34,-200)" x2="0" y2="200" stroke="#ddd" stroke-width="1" opacity="1"/><line transform="translate(63,-200)" x2="0" y2="200" stroke="#ddd" stroke-width="1" opacity="1"/><line transform="translate(92,-200)" x2="0" y2="200" stroke="#ddd" stroke-width="1" opacity="1"/><line transform="translate(122,-200)" x2="0" y2="200" stroke="#ddd" stroke-width="1" opacity="1"/><line transform="translate(149,-200)" x2="0" y2="200" stroke="#ddd" stroke-width="1" opacity="1"/><line transform="translate(178,-200)" x2="0" y2="200" stroke="#ddd" stroke-width="1" opacity="1"/><line transform="translate(207,-200)" x2="0" y2="200" stroke="#ddd" stroke-width="1" opacity="1"/><line transform="translate(237,-200)" x2="0" y2="200" stroke="#ddd" stroke-width="1" opacity="1"/><line transform="translate(265,-200)" x2="0" y2="200" stroke="#ddd" stroke-width="1" opacity="1"/><line transform="translate(295,-200)" x2="0" y2="200" stroke="#ddd" stroke-width="1" opacity="1"/><line transform="translate(325,-200)" x2="0" y2="200" stroke="#ddd" stroke-width="1" opacity="1"/><line transform="translate(353,-200)" x2="0" y2="200" stroke="#ddd" stroke-width="1" opacity="1"/><line transform="translate(383,-200)" x2="0" y2="200" stroke="#ddd" stroke-width="1" opacity="1"/></g></g><path class="foreground" aria-hidden="true" d="" pointer-events="none" display="none"/></g></g><g class="mark-group role-axis" aria-hidden="true"><g transform="translate(0.5,0.5)"><path class="background" aria-hidden="true" d="M0,0h0v0h0Z" pointer-events="none"/><g><g class="mark-rule role-axis-grid" pointer-events="none"><line transform="translate(0,200)" x2="400" y2="0" stroke="#ddd" stroke-width="1" opacity="1"/><line transform="translate(0,156)" x2="400" y2="0" stroke="#ddd" stroke-width="1" opacity="1"/><line transform="translate(0,111)" x2="400" y2="0" stroke="#ddd" stroke-width="1" opacity="1"/><line transform="translate(0,67)" x2="400" y2="0" stroke="#ddd" stroke-width="1" opacity="1"/><line transform="translate(0,22)" x2="400" y2="0" stroke="#ddd" stroke-width="1" opacity="1"/></g></g><path class="foreground" aria-hidden="true" d="" pointer-events="none" display="none"/></g></g><g class="mark-group role-axis" role="graphics-symbol" aria-roledescription="axis" aria-label="X-axis titled 'Date de la recherche' for a time scale with values from September 2024 to November 2025"><g transform="translate(0.5,200.5)"><path class="background" aria-hidden="true" d="M0,0h0v0h0Z" pointer-events="none"/><g><g class="mark-rule role-axis-tick" pointer-events="none"><line transform="translate(4,0)" x2="0" y2="5" stroke="#888" stroke-width="1" opacity="1"/><line transform="translate(34,0)" x2="0" y2="5" stroke="#888" stroke-width="1" opacity="1"/><line transform="translate(63,0)" x2="0" y2="5" stroke="#888" stroke-width="1" opacity="1"/><line transform="translate(92,0)" x2="0" y2="5" stroke="#888" stroke-width="1" opacity="1"/><line transform="translate(122,0)" x2="0" y2="5" stroke="#888" stroke-width="1" opacity="1"/><line transform="translate(149,0)" x2="0" y2="5" stroke="#888" stroke-width="1" opacity="1"/><line transform="translate(178,0)" x2="0" y2="5" stroke="#888" stroke-width="1" opacity="1"/><line transform="translate(207,0)" x2="0" y2="5" stroke="#888" stroke-width="1" opacity="1"/><line transform="translate(237,0)" x2="0" y2="5" stroke="#888" stroke-width="1" opacity="1"/><line transform="translate(265,0)" x2="0" y2="5" stroke="#888" stroke-width="1" opacity="1"/><line transform="translate(295,0)" x2="0" y2="5" stroke="#888" stroke-width="1" opacity="1"/><line transform="translate(325,0)" x2="0" y2="5" stroke="#888" stroke-width="1" opacity="1"/><line transform="translate(353,0)" x2="0" y2="5" stroke="#888" stroke-width="1" opacity="1"/><line transform="translate(383,0)" x2="0" y2="5" stroke="#888" stroke-width="1" opacity="1"/></g><g class="mark-text role-axis-label" pointer-events="none"><text text-anchor="start" transform="translate(4.1766319998023524,7) rotate(45) translate(0,8)" font-family="sans-serif" font-size="10px" fill="#000" opacity="1">October 2024</text><text text-anchor="start" transform="translate(33.81975243912362,7) rotate(45) translate(0,8)" font-family="sans-serif" font-size="10px" fill="#000" opacity="0">November 2024</text><text text-anchor="start" transform="translate(62.50664318685387,7) rotate(45) translate(0,8)" font-family="sans-serif" font-size="10px" fill="#000" opacity="1">December 2024</text><text text-anchor="start" transform="translate(92.14976362617514,7) rotate(45) translate(0,8)" font-family="sans-serif" font-size="10px" fill="#000" opacity="0">January 2025</text><text text-anchor="start" transform="translate(121.7928840654964,7) rotate(45) translate(0,8)" font-family="sans-serif" font-size="10px" fill="#000" opacity="1">February 2025</text><text text-anchor="start" transform="translate(148.56731543004463,7) rotate(45) translate(0,8)" font-family="sans-serif" font-size="10px" fill="#000" opacity="0">March 2025</text><text text-anchor="start" transform="translate(178.2104358693659,7) rotate(45) translate(0,8)" font-family="sans-serif" font-size="10px" fill="#000" opacity="1">April 2025</text><text text-anchor="start" transform="translate(206.89732661709616,7) rotate(45) translate(0,8)" font-family="sans-serif" font-size="10px" fill="#000" opacity="0">May 2025</text><text text-anchor="start" transform="translate(236.5404470564174,7) rotate(45) translate(0,8)" font-family="sans-serif" font-size="10px" fill="#000" opacity="1">June 2025</text><text text-anchor="start" transform="translate(265.2273378041477,7) rotate(45) translate(0,8)" font-family="sans-serif" font-size="10px" fill="#000" opacity="0">July 2025</text><text text-anchor="start" transform="translate(294.87045824346893,7) rotate(45) translate(0,8)" font-family="sans-serif" font-size="10px" fill="#000" opacity="1">August 2025</text><text text-anchor="start" transform="translate(324.51357868279024,7) rotate(45) translate(0,8)" font-family="sans-serif" font-size="10px" fill="#000" opacity="0">September 2025</text><text text-anchor="start" transform="translate(353.20046943052046,7) rotate(45) translate(0,8)" font-family="sans-serif" font-size="10px" fill="#000" opacity="1">October 2025</text><text text-anchor="start" transform="translate(382.8435898698417,7) rotate(45) translate(0,8)" font-family="sans-serif" font-size="10px" fill="#000" opacity="0">November 2025</text></g><g class="mark-rule role-axis-domain" pointer-events="none"><line transform="translate(0,0)" x2="400" y2="0" stroke="#888" stroke-width="1" opacity="1"/></g><g class="mark-text role-axis-title" pointer-events="none"><text text-anchor="middle" transform="translate(200,77.38337257480673)" font-family="sans-serif" font-size="11px" font-weight="bold" fill="#000" opacity="1">Date de la recherche</text></g></g><path class="foreground" aria-hidden="true" d="" pointer-events="none" display="none"/></g></g><g class="mark-group role-axis" role="graphics-symbol" aria-roledescription="axis" aria-label="Y-axis titled 'Nombre de trajets' for a linear scale with values from 0 to 450,000"><g transform="translate(0.5,0.5)"><path class="background" aria-hidden="true" d="M0,0h0v0h0Z" pointer-events="none"/><g><g class="mark-rule role-axis-tick" pointer-events="none"><line transform="translate(0,200)" x2="-5" y2="0" stroke="#888" stroke-width="1" opacity="1"/><line transform="translate(0,156)" x2="-5" y2="0" stroke="#888" stroke-width="1" opacity="1"/><line transform="translate(0,111)" x2="-5" y2="0" stroke="#888" stroke-width="1" opacity="1"/><line transform="translate(0,67)" x2="-5" y2="0" stroke="#888" stroke-width="1" opacity="1"/><line transform="translate(0,22)" x2="-5" y2="0" stroke="#888" stroke-width="1" opacity="1"/></g><g class="mark-text role-axis-label" pointer-events="none"><text text-anchor="end" transform="translate(-7,203)" font-family="sans-serif" font-size="10px" fill="#000" opacity="1">0</text><text text-anchor="end" transform="translate(-7,158.55555555555557)" font-family="sans-serif" font-size="10px" fill="#000" opacity="1">100,000</text><text text-anchor="end" transform="translate(-7,114.11111111111111)" font-family="sans-serif" font-size="10px" fill="#000" opacity="1">200,000</text><text text-anchor="end" transform="translate(-7,69.66666666666667)" font-family="sans-serif" font-size="10px" fill="#000" opacity="1">300,000</text><text text-anchor="end" transform="translate(-7,25.222222222222232)" font-family="sans-serif" font-size="10px" fill="#000" opacity="1">400,000</text></g><g class="mark-rule role-axis-domain" pointer-events="none"><line transform="translate(0,200)" x2="0" y2="-200" stroke="#888" stroke-width="1" opacity="1"/></g><g class="mark-text role-axis-title" pointer-events="none"><text text-anchor="middle" transform="translate(-47.1474609375,100) rotate(-90) translate(0,-2)" font-family="sans-serif" font-size="11px" font-weight="bold" fill="#000" opacity="1">Nombre de trajets</text></g></g><path class="foreground" aria-hidden="true" d="" pointer-events="none" display="none"/></g></g><g class="mark-group role-scope pathgroup" role="graphics-object" aria-roledescription="group mark container"><g transform="translate(0,0)"><path class="background" aria-hidden="true" d="M0,0h400v200h-400Z"/><g><g class="mark-line role-mark marks" role="graphics-object" aria-roledescription="line mark container"><path aria-label="Date de la recherche: September 2024; Nombre de trajets: 91488; variable: disponible" role="graphics-symbol" aria-roledescription="line mark" d="M0,159.339L0.84,160.009L1.797,160.25L2.753,159.721L3.709,159.224L4.665,160.066L5.622,161.226L6.578,162.729L7.534,163.599L8.49,164.927L9.446,164.272L10.403,163.069L11.359,163.83L12.315,166.394L13.272,165.123L14.228,166.305L15.184,167.015L16.14,167.638L17.096,167.648L18.052,168.931L19.009,169.444L19.965,170.203L20.921,170.474L21.877,170.704L22.834,168.872L23.79,167.766L24.746,168.451L25.702,167.16L26.659,168.696L27.615,166.936L28.571,167.617L29.527,164.943L30.49,163.236L31.44,165.275L32.396,163.601L33.352,165.017L34.308,163.38L35.265,162.688L36.221,161.357L37.177,159.746L38.133,159.755L39.091,159.142L40.046,161.116L41.002,160.392L41.958,160.483L42.915,158.316L43.871,156.748L44.829,154.82L45.783,155.253L46.739,154.239L47.696,154.859L48.654,156.557L49.608,155.787L50.565,155.331L51.52,156.853L52.477,157.538L53.433,158.599L54.389,159.242L55.345,159.566L56.302,159.835L57.258,159.906L58.214,161.397L59.17,162.616L60.127,164.062L61.083,165.294L62.039,166.184L62.995,166.252L63.952,166.133L64.908,167.211L65.865,167.551L66.82,168.202L67.777,168.182L68.734,168.864L69.689,168.023L70.645,166.956L71.601,166.728L72.557,166.308L73.514,166.35L74.47,164.781L75.426,165.02L76.382,163.984L77.339,162.302L78.295,162.622L79.251,161.783L80.207,161.712L81.164,159.731L82.12,159.145L83.076,157.033L84.032,155.203L84.988,153.702L85.945,149.882L86.901,149.315L87.857,147.688L88.813,147.022L89.77,145.158L90.726,143.235L91.682,141.419L92.638,139.417L93.595,139.184L94.551,141.537L95.507,142.381L96.463,139.298L97.419,137.729L98.376,138.287L99.332,138.306L100.288,139.025L101.245,139.891L102.201,141.793L103.157,142.216L104.113,142.23L105.069,143.622L106.026,144.212L106.982,146.113L107.938,147.762L108.894,148.816L109.85,149.653L110.807,149.103L111.763,149.572L112.719,151.036L113.675,152.019L114.632,154.556L115.588,155.987L116.544,156.427L117.5,155.749L118.456,156.068L119.413,156.588L120.369,157.142L121.325,158.761L122.281,159.033L123.238,159.104L124.194,158.219L125.15,158.195L126.106,158.685L127.063,160.639L128.019,161.217L128.975,162.238L129.931,161.805L130.888,161.569L131.844,162.052L132.8,162.612L133.756,163.765L134.712,164.016L135.669,164.144L136.625,163.397L137.581,162.463L138.537,162.635L139.494,160.836L140.45,162.052L141.406,161.876L142.362,162.061L143.319,159.33L144.275,157.85L145.231,157.162L146.187,156.173L147.143,157.449L148.1,157.287L149.056,157.682L150.012,156.434L150.968,155.299L151.925,155.873L152.881,156.232L153.837,158.153L154.793,157.316L155.749,158.821L156.706,157.497L157.662,156.43L158.618,156.36L159.574,156.624L160.531,157.757L161.487,159.565L162.443,159.94L163.399,160.216L164.356,159.533L165.312,159.946L166.268,160.72L167.224,162.035L168.18,162.685L169.137,163.619L170.093,164.437L171.049,164.308L172.005,164.997L172.962,165.332L173.918,166.06L174.874,166.832L175.83,167.163L176.787,167.356L177.743,166.756L178.699,168.562L179.655,168.524L180.611,169.668L181.568,169.96L182.524,170.583L183.48,169.531L184.436,169.106L185.393,170.336L186.349,171.222L187.305,172.901L188.261,173.898L189.217,173.981L190.174,173.399L191.13,172.256L192.086,172.224L193.042,172.383L193.999,172.577L194.955,171.82L195.911,171.468L196.867,170.136L197.824,168.69L198.78,167.228L199.736,166.981L200.692,166.786L201.648,166.962L202.605,166.335L203.561,165.966L204.517,165.59L205.473,166.577L206.43,167.733L207.386,170.02L208.342,168.846L209.298,169.858L210.255,169.379L211.211,168.202L212.167,168.43L213.123,170.075L214.079,170.046L215.036,169.925L215.992,169.592L216.948,168.736L217.904,168.091L218.861,168.04L219.817,168.317L220.773,169.349L221.729,169.497L222.685,170.13L223.642,170.491L224.598,170.374L225.554,171.072L226.51,173.061L227.467,174.635L228.423,174.731L229.379,174.89L230.335,174.699L231.291,174.329L232.248,175.925L233.204,174.959L234.16,175.182L235.117,176.424L236.073,174.932L237.029,174.408L237.985,173.2L238.941,172.78L239.898,173.29L240.854,173.061L241.81,173.79L242.766,173.8L243.723,173.333L244.679,172.788L245.635,172.172L246.591,172.853L247.548,173.283L248.504,175.056L249.46,174.065L250.417,174.497L251.373,174.456L252.329,175.107L253.285,175.869L254.241,176.792L255.197,176.778L256.154,177.009L257.11,177.119L258.066,176.421L259.022,176.539L259.978,177.062L260.935,177.335L261.891,177.774L262.847,178.057L263.803,177.759L264.76,177.03L265.716,176.662L266.672,177.327L267.628,177.417L268.585,177.748L269.541,177.901L270.497,177.574L271.453,176.725L272.41,176.693L273.366,176.283L274.322,176.441L275.278,176.327L276.235,176.355L277.191,175.682L278.147,175.172L279.103,174.815L280.059,178.13L281.015,178.902L281.972,178.285L282.928,178.194L283.884,177.128L284.84,176.427L285.797,176.211L286.753,176.344L287.709,176.647L288.666,176.738L289.622,176.03L290.578,175.164L291.534,174.287L292.49,174.413L293.447,173.714L294.403,174.324L295.359,173.887L296.315,173.912L297.271,172.471L298.228,171.321L299.184,171.24L300.14,171.28L301.096,172.08L302.053,172.211L303.009,172.403L303.965,171.398L304.921,170.396L305.878,170.518L306.835,170.236L307.79,170.683L308.746,170.087L309.702,170.074L310.659,169.3L311.615,168.013L312.571,167.635L313.527,166.205L314.484,166.481L315.44,166.323L316.396,166.3L317.352,165.771L318.308,164.96L319.275,164.593L320.221,165.332L321.177,166.362L322.133,166.83L323.09,167.888L324.046,167.998L325.002,168.088L325.958,168.656L326.915,170.384L327.871,164.386L328.827,164.849L329.783,166.016L330.739,165.694L331.696,164.655L332.652,163.862L333.608,163.137L334.565,165.146L335.521,165.064L336.477,165.244L337.433,165.762L338.389,164.872L339.346,164.64L340.302,165.472L341.258,166.088L342.214,167.32L343.17,166.82L344.127,167.115L345.083,167.029L346.039,167.192L346.995,167.811L347.952,168.811L348.908,170.644L349.864,169.776L350.82,170.481L351.777,170.076L352.733,170.333L353.689,170.433L354.645,171.609L355.601,172.44L356.558,172.626L357.514,172.988L358.47,172.106L359.426,171.847L360.383,172.026L361.339,173.442L362.295,173.866L363.251,173.078L364.208,172.944L365.164,173.152L366.12,173.688L367.076,174.006L368.032,174.688L368.989,174.205L369.945,173.786L370.901,172.674L371.857,171.307L372.814,171.597L373.77,171.21L374.726,171.624L375.682,171.142L376.638,170.751L377.595,169.213L378.552,167.775L379.507,167.387L380.463,167.261L381.42,167.35L382.376,166.703L383.332,167.341L384.289,166.164L385.245,164.592L386.201,164.66L387.157,164.254L388.113,165.054L389.069,165.095L390.026,164.783L390.982,163.01L391.938,162.001L392.894,161.608L393.851,160.09L394.807,160.927L395.764,161.446L396.719,161.809L398.06,161.546L399.076,160.467L400,161.036" stroke="#4c78a8" stroke-width="2"/></g></g><path class="foreground" aria-hidden="true" d="" display="none"/></g><g transform="translate(0,0)"><path class="background" aria-hidden="true" d="M0,0h400v200h-400Z"/><g><g class="mark-line role-mark marks" role="graphics-object" aria-roledescription="line mark container"><path aria-label="Date de la recherche: September 2024; Nombre de trajets: 351801; variable: total" role="graphics-symbol" aria-roledescription="line mark" d="M0,43.644L0.84,43.23L1.797,43.532L2.753,43.471L3.709,43.523L4.665,42.888L5.622,42.975L6.578,43.715L7.534,43.55L8.49,43.967L9.446,43.883L10.403,43.916L11.359,43.705L12.315,43.343L13.272,45.168L14.228,47.57L15.184,49.451L16.14,50.78L17.096,51.056L18.052,51.055L19.009,50.496L19.965,50.482L20.921,50.263L21.877,50.547L22.834,50.55L23.79,50.929L24.746,51.131L25.702,50.923L26.659,51.584L27.615,51.856L28.571,52.263L29.527,52.39L30.49,52.759L31.44,52.836L32.396,52.374L33.352,53.093L34.308,53.62L35.265,53.032L36.221,52.105L37.177,52.092L38.133,52.091L39.091,51.462L40.046,51.622L41.002,41.063L41.958,40.994L42.915,38.53L43.871,35.785L44.829,33.752L45.783,31.452L46.739,31.196L47.696,31.976L48.654,32.224L49.608,32.1L50.565,32.214L51.52,43.381L52.477,42.648L53.433,31.545L54.389,31.141L55.345,31.16L56.302,30.515L57.258,30.687L58.214,30.67L59.17,41.943L60.127,41.649L61.083,29.061L62.039,29.416L62.995,28.902L63.952,29.519L64.908,29.164L65.865,28.757L66.82,28.1L67.777,27.722L68.734,26.185L69.689,25.875L70.645,25.729L71.601,25.856L72.557,25.331L73.514,37.198L74.47,25.074L75.426,25.668L76.382,25.804L77.339,25.909L78.295,26.032L79.251,25.492L80.207,25.271L81.164,25.142L82.12,25.764L83.076,26.482L84.032,26.828L84.988,27.121L85.945,26.415L86.901,25.957L87.857,26.279L88.813,27.016L89.77,27.544L90.726,27.983L91.682,28.387L92.638,27.747L93.595,27.414L94.551,27.669L95.507,28.387L96.463,28.939L97.419,29.468L98.376,29.973L99.332,29.508L100.288,29.126L101.245,29.288L102.201,30.003L103.157,30.398L104.113,30.824L105.069,31.144L106.026,30.97L106.982,41.714L107.938,30.252L108.894,30.988L109.85,31.619L110.807,31.958L111.763,32.143L112.719,31.707L113.675,31.087L114.632,31.152L115.588,31.917L116.544,32.222L117.5,32.403L118.456,32.294L119.413,31.743L120.369,31.524L121.325,31.784L122.281,32.277L123.238,32.624L124.194,32.712L125.15,32.796L126.106,32.445L127.063,31.822L128.019,31.126L128.975,31.789L129.931,32.685L130.888,33.031L131.844,33.212L132.8,32.773L133.756,33.388L134.712,33.592L135.669,34.164L136.625,35.362L137.581,35.763L138.537,35.899L139.494,35.315L140.45,35.592L141.406,36.133L142.362,36.764L143.319,37.632L144.275,37.992L145.231,38.217L146.187,48.657L147.143,49.276L148.1,49.164L149.056,49.493L150.012,49.746L150.968,49.778L151.925,38.859L152.881,38.161L153.837,37.686L154.793,37.108L155.749,37.387L156.706,37.632L157.662,37.878L158.618,37.688L159.574,36.921L160.531,36.403L161.487,35.921L162.443,36.056L163.399,35.163L164.356,34.855L165.312,34.686L166.268,33.996L167.224,34.483L168.18,35.695L169.137,36.783L170.093,36.296L171.049,35.908L172.005,35.731L172.962,34.88L173.918,34.631L174.874,34.328L175.83,34.329L176.787,33.922L177.743,33.396L178.699,33.329L179.655,33.858L180.611,34.476L181.568,35.666L182.524,36.248L183.48,37.45L184.436,37.177L185.393,37.877L186.349,37.17L187.305,38.661L188.261,39.278L189.217,39.69L190.174,40.057L191.13,40.341L192.086,40.363L193.042,39.966L193.999,40.384L194.955,40.357L195.911,40.606L196.867,39.799L197.824,38.261L198.78,37.851L199.736,37.399L200.692,37.4L201.648,37.352L202.605,37.876L203.561,38.551L204.517,38.273L205.473,38.913L206.43,40.323L207.386,42.092L208.342,42.238L209.298,41.801L210.255,41.309L211.211,41.427L212.167,41.43L213.123,40.981L214.079,41.689L215.036,42.137L215.992,40.74L216.948,38.877L217.904,38.676L218.861,38.774L219.817,38.256L220.773,39.166L221.729,39.717L222.685,40.268L223.642,39.847L224.598,39.945L225.554,40.043L226.51,39.415L227.467,39.523L228.423,39.268L229.379,39.68L230.335,39.566L231.291,39.679L232.248,39.789L233.204,39.682L234.16,40.502L235.117,40.502L236.073,38.96L237.029,37.599L237.985,49.079L238.941,48.936L239.898,47.866L240.854,35.477L241.81,34.581L242.766,34.1L243.723,32.722L244.679,30.764L245.635,29.522L246.591,28.472L247.548,27.45L248.504,26.752L249.46,26.195L250.417,24.508L251.373,23.186L252.329,22.453L253.285,21.27L254.241,20.594L255.197,19.795L256.154,19.459L257.11,18.917L258.066,18.407L259.022,17.611L259.978,15.996L260.935,14.744L261.891,13.67L262.847,13.268L263.803,11.688L264.76,10.401L265.716,9.68L266.672,8.634L267.628,7.666L268.585,6.733L269.541,6.447L270.497,6.648L271.453,6.913L272.41,7.142L273.366,6.778L274.322,6.423L275.278,6.221L276.235,6.697L277.191,6.961L278.147,6.967L279.103,6.828L280.059,6.909L281.015,6.72L281.972,6.489L282.928,6.91L283.884,7.019L284.84,7.102L285.797,7.276L286.753,7L287.709,6.7L288.666,6.562L289.622,7.013L290.578,7.419L291.534,7.774L292.49,8.004L293.447,7.824L294.403,7.632L295.359,7.624L296.315,8.608L297.271,9.588L298.228,10.514L299.184,23.998L300.14,24.18L301.096,24.671L302.053,12.251L303.009,13.22L303.965,14.339L304.921,15.249L305.878,15.966L306.835,16.04L307.79,16.588L308.746,17.289L309.702,18.311L310.659,19.453L311.615,20.548L312.571,21.367L313.527,21.895L314.484,22.307L315.44,22.592L316.396,23.508L317.352,24.434L318.308,25.478L319.275,26.376L320.221,26.459L321.177,26.994L322.133,27.342L323.09,28.512L324.046,29.606L325.002,30.551L325.958,30.946L326.915,30.848L327.871,30.833L328.827,30.717L329.783,31.369L330.739,31.672L331.696,32.168L332.652,32.468L333.608,32.252L334.565,32.707L335.521,32.744L336.477,33.391L337.433,33.776L338.389,34.194L339.346,34.264L340.302,33.874L341.258,33.784L342.214,33.23L343.17,33.629L344.127,33.935L345.083,34.376L346.039,34.532L346.995,33.903L347.952,33.763L348.908,33.499L349.864,34.137L350.82,34.408L351.777,34.85L352.733,34.911L353.689,34.408L354.645,34.312L355.601,33.871L356.558,34.43L357.514,34.635L358.47,34.972L359.426,35.029L360.383,34.567L361.339,34.906L362.295,35.273L363.251,36.404L364.208,36.064L365.164,36.193L366.12,36.184L367.076,35.46L368.032,35.25L368.989,34.94L369.945,35.736L370.901,35.958L371.857,36.317L372.814,36.487L373.77,36.016L374.726,36.638L375.682,36.584L376.638,37.003L377.595,37.092L378.552,37.367L379.507,37.441L380.463,36.927L381.42,36.857L382.376,36.367L383.332,36.565L384.289,36.544L385.245,36.812L386.201,36.737L387.157,36.034L388.113,36.394L389.069,36.221L390.026,36.347L390.982,35.854L391.938,35.315L392.894,34.461L393.851,33.782L394.807,33.904L395.764,33.897L396.719,34.39L398.06,34.251L399.076,34.461L400,34.308" stroke="#f58518" stroke-width="2"/></g></g><path class="foreground" aria-hidden="true" d="" display="none"/></g></g><g class="mark-group role-legend" role="graphics-symbol" aria-roledescription="legend" aria-label="Symbol legend for stroke color with 2 values: disponible, total"><g transform="translate(0,-29)"><path class="background" aria-hidden="true" d="M0,0h108v11h-108Z" pointer-events="none"/><g><g class="mark-group role-legend-entry"><g transform="translate(0,0)"><path class="background" aria-hidden="true" d="M0,0h0v0h0Z" pointer-events="none"/><g><g class="mark-group role-scope" role="graphics-object" aria-roledescription="group mark container"><g transform="translate(0,0)"><path class="background" aria-hidden="true" d="M0,0h61.0341796875v11h-61.0341796875Z" pointer-events="none" opacity="1"/><g><g class="mark-symbol role-legend-symbol" pointer-events="none"><path transform="translate(6,6)" d="M-5,0L5,0" stroke="#4c78a8" stroke-width="1.5" opacity="1"/></g><g class="mark-text role-legend-label" pointer-events="none"><text text-anchor="start" transform="translate(16,9)" font-family="sans-serif" font-size="10px" fill="#000" opacity="1">disponible</text></g></g><path class="foreground" aria-hidden="true" d="" pointer-events="none" display="none"/></g><g transform="translate(73,0)"><path class="background" aria-hidden="true" d="M0,0h34.9013671875v11h-34.9013671875Z" pointer-events="none" opacity="1"/><g><g class="mark-symbol role-legend-symbol" pointer-events="none"><path transform="translate(6,6)" d="M-5,0L5,0" stroke="#f58518" stroke-width="1.5" opacity="1"/></g><g class="mark-text role-legend-label" pointer-events="none"><text text-anchor="start" transform="translate(16,9)" font-family="sans-serif" font-size="10px" fill="#000" opacity="1">total</text></g></g><path class="foreground" aria-hidden="true" d="" pointer-events="none" display="none"/></g></g></g><path class="foreground" aria-hidden="true" d="" pointer-events="none" display="none"/></g></g></g><path class="foreground" aria-hidden="true" d="" pointer-events="none" display="none"/></g></g><g class="mark-group role-title"><g transform="translate(200,-46)"><path class="background" aria-hidden="true" d="M0,0h0v0h0Z" pointer-events="none"/><g><g class="mark-text role-title-text" role="graphics-symbol" aria-roledescription="title" aria-label="Title text 'Historique du nombre de trajets MAXJEUNE et au total, disponibles chaque jour'" pointer-events="none"><text text-anchor="middle" transform="translate(0,10)" font-family="sans-serif" font-size="13px" font-weight="bold" fill="#000" opacity="1">Historique du nombre de trajets MAXJEUNE et au total, disponibles chaque jour</text></g></g><path class="foreground" aria-hidden="true" d="" pointer-events="none" display="none"/></g></g></g><path class="foreground" aria-hidden="true" d="" display="none"/></g></g></g></svg>