<svg xmlns="http://www.w3.org/2000/svg" xmlns:xlink="http://www.w3.org/1999/xlink" version="1.1" class="marks" width="517" height="332" viewBox="0 0 517 332"><rect width="517" height="332" fill="white"/><g fill="none" stroke-miterlimit="10" transform="translate(64,51)"><g class="mark-group role-frame root" role="graphics-object" aria-roledescription="group mark container"><g transform="translate(0,0)"><path class="background" aria-hidden="true" d="M0.5,0.5h400v200h-400Z" stroke="#ddd"/><g><g class="mark-group role-axis" aria-hidden="true"><g transform="translate(0.5,200.5)"><path class="background" aria-hidden="true" d="M0,0h0v0h0Z" pointer-events="none"/><g><g class="mark-rule role-axis-grid" pointer-events="none"><line transform="translate(4,-200)" x2="0" y2="200" stroke="#ddd" stroke-width="1" opacity="1"/><line transform="translate(30,-200)" x2="0" y2="200" stroke="#ddd" stroke-width="1" opacity="1"/><line transform="translate(55,-200)" x2="0" y2="200" stroke="#ddd" stroke-width="1" opacity="1"/><line transform="translate(81,-200)" x2="0" y2="200" stroke="#ddd" stroke-width="1" opacity="1"/><line transform="translate(107,-200)" x2="0" y2="200" stroke="#ddd" stroke-width="1" opacity="1"/><line transform="translate(130,-200)" x2="0" y2="200" stroke="#ddd" stroke-width="1" opacity="1"/><line transform="translate(157,-200)" x2="0" y2="200" stroke="#ddd" stroke-width="1" opacity="1"/><line transform="translate(182,-200)" x2="0" y2="200" stroke="#ddd" stroke-width="1" opacity="1"/><line transform="translate(208,-200)" x2="0" y2="200" stroke="#ddd" stroke-width="1" opacity="1"/><line transform="translate(233,-200)" x2="0" y2="200" stroke="#ddd" stroke-width="1" opacity="1"/><line transform="translate(259,-200)" x2="0" y2="200" stroke="#ddd" stroke-width="1" opacity="1"/><line transform="translate(285,-200)" x2="0" y2="200" stroke="#ddd" stroke-width="1" opacity="1"/><line transform="translate(310,-200)" x2="0" y2="200" stroke="#ddd" stroke-width="1" opacity="1"/><line transform="translate(336,-200)" x2="0" y2="200" stroke="#ddd" stroke-width="1" opacity="1"/><line transform="translate(361,-200)" x2="0" y2="200" stroke="#ddd" stroke-width="1" opacity="1"/><line transform="translate(387,-200)" x2="0" y2="200" stroke="#ddd" stroke-width="1" opacity="1"/></g></g><path class="foreground" aria-hidden="true" d="" pointer-events="none" display="none"/></g></g><g class="mark-group role-axis" aria-hidden="true"><g transform="translate(0.5,0.5)"><path class="background" aria-hidden="true" d="M0,0h0v0h0Z" pointer-events="none"/><g><g class="mark-rule role-axis-grid" pointer-events="none"><line transform="translate(0,200)" x2="400" y2="0" stroke="#ddd" stroke-width="1" opacity="1"/><line transform="translate(0,150)" x2="400" y2="0" stroke="#ddd" stroke-width="1" opacity="1"/><line transform="translate(0,100)" x2="400" y2="0" stroke="#ddd" stroke-width="1" opacity="1"/><line transform="translate(0,50)" x2="400" y2="0" stroke="#ddd" stroke-width="1" opacity="1"/><line transform="translate(0,0)" x2="400" y2="0" stroke="#ddd" stroke-width="1" opacity="1"/></g></g><path class="foreground" aria-hidden="true" d="" pointer-events="none" display="none"/></g></g><g class="mark-group role-axis" role="graphics-symbol" aria-roledescription="axis" aria-label="X-axis titled 'Date de la recherche' for a time scale with values from September 2024 to January 2026"><g transform="translate(0.5,200.5)"><path class="background" aria-hidden="true" d="M0,0h0v0h0Z" pointer-events="none"/><g><g class="mark-rule role-axis-tick" pointer-events="none"><line transform="translate(4,0)" x2="0" y2="5" stroke="#888" stroke-width="1" opacity="1"/><line transform="translate(30,0)" x2="0" y2="5" stroke="#888" stroke-width="1" opacity="1"/><line transform="translate(55,0)" x2="0" y2="5" stroke="#888" stroke-width="1" opacity="1"/><line transform="translate(81,0)" x2="0" y2="5" stroke="#888" stroke-width="1" opacity="1"/><line transform="translate(107,0)" x2="0" y2="5" stroke="#888" stroke-width="1" opacity="1"/><line transform="translate(130,0)" x2="0" y2="5" stroke="#888" stroke-width="1" opacity="1"/><line transform="translate(157,0)" x2="0" y2="5" stroke="#888" stroke-width="1" opacity="1"/><line transform="translate(182,0)" x2="0" y2="5" stroke="#888" stroke-width="1" opacity="1"/><line transform="translate(208,0)" x2="0" y2="5" stroke="#888" stroke-width="1" opacity="1"/><line transform="translate(233,0)" x2="0" y2="5" stroke="#888" stroke-width="1" opacity="1"/><line transform="translate(259,0)" x2="0" y2="5" stroke="#888" stroke-width="1" opacity="1"/><line transform="translate(285,0)" x2="0" y2="5" stroke="#888" stroke-width="1" opacity="1"/><line transform="translate(310,0)" x2="0" y2="5" stroke="#888" stroke-width="1" opacity="1"/><line transform="translate(336,0)" x2="0" y2="5" stroke="#888" stroke-width="1" opacity="1"/><line transform="translate(361,0)" x2="0" y2="5" stroke="#888" stroke-width="1" opacity="1"/><line transform="translate(387,0)" x2="0" y2="5" stroke="#888" stroke-width="1" opacity="1"/></g><g class="mark-text role-axis-label" pointer-events="none"><text text-anchor="start" transform="translate(3.668054414033374,7) rotate(45) translate(0,8)" font-family="sans-serif" font-size="10px" fill="#000" opacity="1">October 2024</text><text text-anchor="start" transform="translate(29.701609388070054,7) rotate(45) translate(0,8)" font-family="sans-serif" font-size="10px" fill="#000" opacity="0">November 2024</text><text text-anchor="start" transform="translate(54.89537226617007,7) rotate(45) translate(0,8)" font-family="sans-serif" font-size="10px" fill="#000" opacity="0">December 2024</text><text text-anchor="start" transform="translate(80.92892724020675,7) rotate(45) translate(0,8)" font-family="sans-serif" font-size="10px" fill="#000" opacity="0">January 2025</text><text text-anchor="start" transform="translate(106.96248221424342,7) rotate(45) translate(0,8)" font-family="sans-serif" font-size="10px" fill="#000" opacity="1">February 2025</text><text text-anchor="start" transform="translate(130.4766609004701,7) rotate(45) translate(0,8)" font-family="sans-serif" font-size="10px" fill="#000" opacity="0">March 2025</text><text text-anchor="start" transform="translate(156.5102158745068,7) rotate(45) translate(0,8)" font-family="sans-serif" font-size="10px" fill="#000" opacity="0">April 2025</text><text text-anchor="start" transform="translate(181.7039787526068,7) rotate(45) translate(0,8)" font-family="sans-serif" font-size="10px" fill="#000" opacity="0">May 2025</text><text text-anchor="start" transform="translate(207.73753372664348,7) rotate(45) translate(0,8)" font-family="sans-serif" font-size="10px" fill="#000" opacity="1">June 2025</text><text text-anchor="start" transform="translate(232.93129660474347,7) rotate(45) translate(0,8)" font-family="sans-serif" font-size="10px" fill="#000" opacity="0">July 2025</text><text text-anchor="start" transform="translate(258.96485157878016,7) rotate(45) translate(0,8)" font-family="sans-serif" font-size="10px" fill="#000" opacity="0">August 2025</text><text text-anchor="start" transform="translate(284.99840655281685,7) rotate(45) translate(0,8)" font-family="sans-serif" font-size="10px" fill="#000" opacity="0">September 2025</text><text text-anchor="start" transform="translate(310.19216943091686,7) rotate(45) translate(0,8)" font-family="sans-serif" font-size="10px" fill="#000" opacity="1">October 2025</text><text text-anchor="start" transform="translate(336.22572440495355,7) rotate(45) translate(0,8)" font-family="sans-serif" font-size="10px" fill="#000" opacity="0">November 2025</text><text text-anchor="start" transform="translate(361.41948728305357,7) rotate(45) translate(0,8)" font-family="sans-serif" font-size="10px" fill="#000" opacity="0">December 2025</text><text text-anchor="start" transform="translate(387.4530422570902,7) rotate(45) translate(0,8)" font-family="sans-serif" font-size="10px" fill="#000" opacity="0">January 2026</text></g><g class="mark-rule role-axis-domain" pointer-events="none"><line transform="translate(0,0)" x2="400" y2="0" stroke="#888" stroke-width="1" opacity="1"/></g><g class="mark-text role-axis-title" pointer-events="none"><text text-anchor="middle" transform="translate(200,73.06062994763117)" font-family="sans-serif" font-size="11px" font-weight="bold" fill="#000" opacity="1">Date de la recherche</text></g></g><path class="foreground" aria-hidden="true" d="" pointer-events="none" display="none"/></g></g><g class="mark-group role-axis" role="graphics-symbol" aria-roledescription="axis" aria-label="Y-axis titled 'Nombre de trajets' for a linear scale with values from 0 to 400,000"><g transform="translate(0.5,0.5)"><path class="background" aria-hidden="true" d="M0,0h0v0h0Z" pointer-events="none"/><g><g class="mark-rule role-axis-tick" pointer-events="none"><line transform="translate(0,200)" x2="-5" y2="0" stroke="#888" stroke-width="1" opacity="1"/><line transform="translate(0,150)" x2="-5" y2="0" stroke="#888" stroke-width="1" opacity="1"/><line transform="translate(0,100)" x2="-5" y2="0" stroke="#888" stroke-width="1" opacity="1"/><line transform="translate(0,50)" x2="-5" y2="0" stroke="#888" stroke-width="1" opacity="1"/><line transform="translate(0,0)" x2="-5" y2="0" stroke="#888" stroke-width="1" opacity="1"/></g><g class="mark-text role-axis-label" pointer-events="none"><text text-anchor="end" transform="translate(-7,203)" font-family="sans-serif" font-size="10px" fill="#000" opacity="1">0</text><text text-anchor="end" transform="translate(-7,153)" font-family="sans-serif" font-size="10px" fill="#000" opacity="1">100,000</text><text text-anchor="end" transform="translate(-7,103)" font-family="sans-serif" font-size="10px" fill="#000" opacity="1">200,000</text><text text-anchor="end" transform="translate(-7,53)" font-family="sans-serif" font-size="10px" fill="#000" opacity="1">300,000</text><text text-anchor="end" transform="translate(-7,3)" font-family="sans-serif" font-size="10px" fill="#000" opacity="1">400,000</text></g><g class="mark-rule role-axis-domain" pointer-events="none"><line transform="translate(0,200)" x2="0" y2="-200" stroke="#888" stroke-width="1" opacity="1"/></g><g class="mark-text role-axis-title" pointer-events="none"><text text-anchor="middle" transform="translate(-47.1474609375,100) rotate(-90) translate(0,-2)" font-family="sans-serif" font-size="11px" font-weight="bold" fill="#000" opacity="1">Nombre de trajets</text></g></g><path class="foreground" aria-hidden="true" d="" pointer-events="none" display="none"/></g></g><g class="mark-group role-scope pathgroup" role="graphics-object" aria-roledescription="group mark container"><g transform="translate(0,0)"><path class="background" aria-hidden="true" d="M0,0h400v200h-400Z"/><g><g class="mark-line role-mark marks" role="graphics-object" aria-roledescription="line mark container"><path aria-label="Date de la recherche: September 2024; Nombre de trajets: 90064; variable: disponible" role="graphics-symbol" aria-roledescription="line mark" d="M0,154.968L0.738,155.733L1.578,155.849L2.418,155.249L3.257,154.706L4.097,155.647L4.938,156.936L5.777,158.611L6.617,159.578L7.456,161.051L8.296,160.232L9.136,158.887L9.976,159.757L10.816,162.622L11.655,161.186L12.495,162.517L13.335,163.314L14.175,164.01L15.015,164.032L15.854,165.467L16.694,166.043L17.534,166.883L18.374,167.187L19.213,167.45L20.053,165.395L20.893,164.165L21.733,164.939L22.573,163.463L23.413,165.186L24.252,163.209L25.092,163.971L25.932,160.982L26.778,159.082L27.611,161.376L28.451,159.478L29.291,161.072L30.131,159.24L30.971,158.471L31.81,156.976L32.65,155.186L33.49,155.206L34.331,154.501L35.169,156.687L36.009,155.87L36.849,155.975L37.689,153.544L38.529,151.81L39.37,149.657L40.208,150.119L41.048,148.968L41.888,149.665L42.73,151.587L43.568,150.725L44.408,150.247L45.247,151.977L46.087,152.725L46.927,153.898L47.766,154.616L48.606,154.978L49.446,155.274L50.286,155.354L51.125,157.015L51.965,158.365L52.805,159.98L53.645,161.327L54.485,162.333L55.325,162.388L56.165,162.251L57.004,163.458L57.845,163.83L58.684,164.564L59.524,164.539L60.364,165.319L61.203,164.379L62.043,163.203L62.883,162.973L63.722,162.518L64.562,162.586L65.402,160.835L66.242,161.142L67.082,159.983L67.921,158.101L68.761,158.467L69.601,157.526L70.441,157.444L71.28,155.239L72.12,154.588L72.96,152.251L73.8,150.225L74.64,148.563L75.479,144.291L76.319,143.67L77.159,141.894L77.999,141.173L78.839,139.108L79.678,136.98L80.518,134.989L81.358,132.763L82.198,132.524L83.038,135.188L83.877,136.135L84.717,132.697L85.557,130.95L86.397,131.578L87.237,131.561L88.076,132.339L88.917,133.284L89.756,135.399L90.596,135.847L91.436,135.858L92.275,137.406L93.115,138.04L93.955,140.126L94.795,141.915L95.634,143.074L96.474,143.981L97.314,143.375L98.154,143.9L98.994,145.535L99.833,146.599L100.673,149.389L101.513,150.987L102.353,151.445L103.193,150.679L104.032,151.062L104.872,151.618L105.712,152.229L106.552,154.046L107.391,154.351L108.231,154.412L109.071,153.406L109.911,153.367L110.751,153.888L111.59,156.04L112.43,156.669L113.27,157.81L114.11,157.313L114.95,157.047L115.789,157.575L116.629,158.166L117.469,159.431L118.309,159.706L119.149,159.848L119.988,158.995L120.828,157.945L121.668,158.136L122.508,156.106L123.348,157.462L124.187,157.265L125.027,157.476L125.867,154.421L126.707,152.787L127.547,152.041L128.386,150.938L129.226,152.365L130.066,152.195L130.906,152.643L131.746,151.262L132.585,150.001L133.425,150.645L134.265,151.037L135.105,153.158L135.945,152.225L136.784,153.922L137.624,152.442L138.464,151.259L139.304,151.191L140.143,151.477L140.983,152.743L141.823,154.781L142.663,155.208L143.503,155.551L144.342,154.8L145.182,155.283L146.022,156.148L146.862,157.605L147.702,158.325L148.541,159.373L149.381,160.304L150.221,160.171L151.061,160.969L151.9,161.308L152.74,162.091L153.58,162.944L154.42,163.317L155.26,163.501L156.099,162.836L156.939,164.858L157.779,164.829L158.619,166.086L159.459,166.43L160.298,167.135L161.138,165.96L161.978,165.495L162.818,166.877L163.658,167.849L164.497,169.688L165.337,170.789L166.177,170.875L167.017,170.221L167.857,168.943L168.696,168.904L169.536,169.053L170.376,169.255L171.216,168.412L172.056,168.02L172.895,166.532L173.735,164.924L174.575,163.313L175.415,163.048L176.254,162.82L177.094,162.997L177.934,162.291L178.774,161.905L179.614,161.49L180.453,162.601L181.293,163.887L182.133,166.459L182.973,165.131L183.813,166.265L184.652,165.732L185.492,164.419L186.332,164.685L187.172,166.554L188.011,166.527L188.851,166.396L189.691,166.035L190.531,165.078L191.371,164.366L192.21,164.313L193.05,164.62L193.89,165.77L194.73,165.935L195.57,166.64L196.409,167.049L197.249,166.921L198.089,167.69L198.929,169.905L199.769,171.652L200.608,171.735L201.448,171.918L202.288,171.688L203.128,171.282L203.968,173.049L204.807,171.97L205.647,172.23L206.487,173.612L207.327,171.945L208.167,171.366L209.006,170.02L209.846,169.554L210.686,170.116L211.526,169.844L212.366,170.659L213.205,170.679L214.045,170.16L214.885,169.553L215.725,168.868L216.565,169.634L217.404,170.104L218.244,172.084L219.084,170.968L219.924,171.455L220.764,171.414L221.604,172.162L222.443,173L223.283,174.038L224.122,174.015L224.962,174.271L225.802,174.377L226.642,173.602L227.482,173.737L228.322,174.319L229.162,174.612L230.001,175.106L230.841,175.429L231.681,175.097L232.521,174.282L233.36,173.871L234.2,174.614L235.04,174.699L235.88,175.073L236.72,175.245L237.559,174.872L238.399,173.92L239.239,173.889L240.079,173.422L240.919,173.601L241.758,173.471L242.598,173.506L243.438,172.75L244.278,172.175L245.118,171.774L245.957,175.505L246.797,176.378L247.637,175.686L248.476,175.588L249.316,174.388L250.156,173.605L250.996,173.373L251.836,173.515L252.676,173.844L253.516,173.947L254.355,173.151L255.195,172.167L256.035,171.187L256.875,171.332L257.714,170.541L258.554,171.215L259.394,170.732L260.234,170.771L261.073,169.151L261.913,167.868L262.753,167.786L263.593,167.82L264.433,168.715L265.272,168.859L266.112,169.08L266.952,167.953L267.792,166.84L268.632,166.977L269.473,166.657L270.311,167.146L271.151,166.484L271.991,166.475L272.831,165.623L273.67,164.178L274.51,163.778L275.35,162.162L276.19,162.437L277.03,162.265L277.869,162.317L278.709,161.742L279.549,160.848L280.398,160.444L281.228,161.271L282.068,162.424L282.908,163.016L283.748,164.217L284.588,164.319L285.428,164.418L286.267,165.054L287.107,166.983L287.947,160.232L288.787,160.738L289.626,162.052L290.466,161.678L291.306,160.509L292.146,159.6L292.986,158.795L293.826,161.033L294.665,160.935L295.505,161.135L296.345,161.704L297.185,160.708L298.024,160.444L298.865,161.365L299.704,162.053L300.544,163.443L301.384,162.892L302.223,163.207L303.063,163.107L303.903,163.285L304.743,163.972L305.582,165.093L306.422,167.142L307.262,166.188L308.102,166.971L308.942,166.514L309.781,166.797L310.621,166.898L311.461,168.219L312.301,169.148L313.141,169.359L313.98,169.754L314.82,168.774L315.66,168.487L316.5,168.685L317.34,170.267L318.179,170.754L319.019,169.882L319.859,169.748L320.699,169.979L321.538,170.59L322.378,170.941L323.218,171.71L324.058,171.203L324.898,170.738L325.738,169.486L326.577,167.974L327.417,168.298L328.257,167.867L329.097,168.346L329.937,167.821L330.776,167.402L331.616,165.689L332.457,164.094L333.296,163.656L334.135,163.5L334.975,163.587L335.815,162.873L336.655,163.597L337.495,162.261L338.334,160.504L339.174,160.572L340.014,160.1L340.854,160.98L341.693,161.035L342.534,160.705L343.373,158.704L344.213,157.564L345.053,157.112L345.892,155.393L346.732,156.323L347.573,156.904L348.412,157.334L349.589,157.028L350.482,155.821L351.293,156.472L352.13,157.061L352.97,158.366L353.451,159.443L354.29,159.592L355.13,159.266L355.97,159.113L356.81,159.8L357.65,160.641L358.489,162.019L359.709,163.283L360.528,164.362L361.368,165.269L362.209,165.269L363.048,165.882L363.888,166.94L364.727,168.382L365.568,169.732L366.407,170.182L367.247,169.737L368.087,168.081L368.928,167.658L369.77,167.31L370.607,167.822L371.447,166.598L372.286,166.586L373.126,165.885L400,147.405" stroke="#4c78a8" stroke-width="2"/></g></g><path class="foreground" aria-hidden="true" d="" display="none"/></g><g transform="translate(0,0)"><path class="background" aria-hidden="true" d="M0,0h400v200h-400Z"/><g><g class="mark-line role-mark marks" role="graphics-object" aria-roledescription="line mark container"><path aria-label="Date de la recherche: September 2024; Nombre de trajets: 316947; variable: total" role="graphics-symbol" aria-roledescription="line mark" d="M0,41.527L0.738,41.049L1.578,41.365L2.418,41.288L3.257,41.358L4.097,40.661L4.938,40.8L5.777,41.647L6.617,41.43L7.456,41.781L8.296,41.611L9.136,41.656L9.976,41.43L10.816,41.03L11.655,43.01L12.495,45.596L13.335,47.643L14.175,49.087L15.015,49.384L15.854,49.365L16.694,48.839L17.534,48.832L18.374,48.585L19.213,48.91L20.053,48.899L20.893,49.331L21.733,49.564L22.573,49.321L23.413,50.066L24.252,50.34L25.092,50.805L25.932,50.942L26.778,51.354L27.611,51.45L28.451,50.957L29.291,51.726L30.131,52.334L30.971,51.669L31.81,50.57L32.65,50.564L33.49,50.562L34.331,49.876L35.169,50.093L36.009,38.228L36.849,38.143L37.689,35.371L38.529,32.326L39.37,30.021L40.208,27.456L41.048,27.215L41.888,28.117L42.73,28.444L43.568,28.367L44.408,28.557L45.247,41.151L46.087,40.42L46.927,28.041L47.766,27.611L48.606,27.705L49.446,27.039L50.286,27.306L51.125,27.371L51.965,40.039L52.805,39.766L53.645,25.754L54.485,26.212L55.325,25.675L56.165,26.382L57.004,26.069L57.845,25.719L58.684,25.039L59.524,24.65L60.364,23.12L61.203,22.817L62.043,22.71L62.883,22.94L63.722,22.407L64.562,35.535L65.402,22.16L66.242,22.744L67.082,22.89L67.921,23.04L68.761,23.195L69.601,22.626L70.441,22.355L71.28,22.304L72.12,22.991L72.96,23.55L73.8,24.107L74.64,24.576L75.479,23.818L76.319,23.341L77.159,23.676L77.999,24.5L78.839,25.115L79.678,25.657L80.518,26.126L81.358,25.436L82.198,24.98L83.038,25.17L83.877,25.974L84.717,26.597L85.557,27.242L86.397,27.815L87.237,27.286L88.076,26.791L88.917,26.904L89.756,27.712L90.596,28.178L91.436,28.689L92.275,29.084L93.115,28.919L93.955,40.807L94.795,28.083L95.634,28.901L96.474,29.61L97.314,30.048L98.154,30.29L98.994,29.815L99.833,29.11L100.673,28.935L101.513,29.696L102.353,30.018L103.193,30.221L104.032,30.265L104.872,29.649L105.712,29.249L106.552,29.627L107.391,30.194L108.231,30.682L109.071,30.869L109.911,31.018L110.751,30.63L111.59,29.898L112.43,29.063L113.27,29.787L114.11,30.791L114.95,31.233L115.789,31.43L116.629,30.925L117.469,31.398L118.309,31.486L119.149,32.116L119.988,33.46L120.828,33.938L121.668,34.14L122.508,33.49L123.348,33.675L124.187,34.13L125.027,34.822L125.867,35.822L126.707,36.272L127.547,36.531L128.386,48.092L129.226,48.7L130.066,48.537L130.906,48.953L131.746,49.309L132.585,49.441L133.425,37.403L134.265,36.658L135.105,36.172L135.945,35.573L136.784,35.953L137.624,36.352L138.464,36.749L139.304,36.606L140.143,35.803L140.983,35.27L141.823,34.746L142.663,34.945L143.503,34.238L144.342,34.09L145.182,33.953L146.022,33.214L146.862,33.749L147.702,35.042L148.541,36.193L149.381,35.709L150.221,35.329L151.061,35.163L151.9,34.246L152.74,33.944L153.58,33.472L154.42,33.717L155.26,33.352L156.099,32.816L156.939,32.633L157.779,33.048L158.619,33.438L159.459,34.651L160.298,35.16L161.138,36.488L161.978,36.186L162.818,36.929L163.658,35.987L164.497,37.685L165.337,38.249L166.177,38.674L167.017,39.089L167.857,39.408L168.696,39.365L169.536,38.758L170.376,39.11L171.216,38.964L172.056,39.274L172.895,38.372L173.735,36.711L174.575,36.258L175.415,35.788L176.254,35.793L177.094,35.479L177.934,35.973L178.774,36.414L179.614,36.152L180.453,36.902L181.293,38.521L182.133,40.467L182.973,40.691L183.813,40.384L184.652,40.043L185.492,40.336L186.332,40.649L187.172,40.256L188.011,41.172L188.851,41.592L189.691,40.08L190.531,38.132L191.371,38.1L192.21,38.331L193.05,37.88L193.89,38.948L194.73,39.611L195.57,40.357L196.409,40.06L197.249,40.349L198.089,40.586L198.929,40.189L199.769,40.399L200.608,40.158L201.448,40.715L202.288,40.699L203.128,40.983L203.968,41.231L204.807,41.256L205.647,42.185L206.487,42.09L207.327,40.438L208.167,39.02L209.006,52.049L209.846,51.912L210.686,50.752L211.526,36.969L212.366,35.983L213.205,35.548L214.045,34.173L214.885,32.211L215.725,30.981L216.565,29.89L217.404,28.866L218.244,28.1L219.084,27.683L219.924,25.971L220.764,24.683L221.604,23.962L222.443,22.735L223.283,22.033L224.122,21.19L224.962,20.884L225.802,20.419L226.642,19.985L227.482,19.168L228.322,17.456L229.162,16.19L230.001,15.035L230.841,14.634L231.681,13.064L232.521,11.864L233.36,11.148L234.2,10.03L235.04,9.048L235.88,8.079L236.72,7.898L237.559,8.097L238.399,8.432L239.239,8.631L240.079,8.218L240.919,7.851L241.758,7.582L242.598,8.117L243.438,8.381L244.278,8.445L245.118,8.299L245.957,8.35L246.797,8.168L247.637,7.874L248.476,8.324L249.316,8.467L250.156,8.599L250.996,8.763L251.836,8.411L252.676,8.105L253.516,7.916L254.355,8.394L255.195,8.785L256.035,9.192L256.875,9.444L257.714,9.189L258.554,8.868L259.394,8.691L260.234,9.589L261.073,10.45L261.913,11.298L262.753,26.241L263.593,26.255L264.433,26.615L265.272,12.424L266.112,13.281L266.952,14.295L267.792,15.142L268.632,15.736L269.473,15.622L270.311,16.027L271.151,16.613L271.991,17.571L272.831,18.592L273.67,19.595L274.51,20.28L275.35,21.004L276.19,21.29L277.03,21.409L277.869,22.259L278.709,23.083L279.549,24.075L280.398,24.892L281.228,24.815L282.068,25.244L282.908,25.441L283.748,26.561L284.588,27.699L285.428,28.712L286.267,29.141L287.107,29.038L287.947,28.923L288.787,28.652L289.626,29.351L290.466,29.653L291.306,30.2L292.146,30.52L292.986,30.271L293.826,30.71L294.665,30.667L295.505,31.361L296.345,31.769L297.185,32.228L298.024,32.306L298.865,31.876L299.704,31.782L300.544,31.17L301.384,31.611L302.223,31.946L303.063,32.459L303.903,32.654L304.743,31.981L305.582,31.844L306.422,31.574L307.262,32.295L308.102,32.595L308.942,33.111L309.781,33.202L310.621,32.672L311.461,32.566L312.301,32.081L313.141,32.709L313.98,33.048L314.82,33.56L315.66,33.638L316.5,33.176L317.34,33.573L318.179,33.975L319.019,35.29L319.859,34.936L320.699,35.158L321.538,35.173L322.378,34.383L323.218,34.136L324.058,33.757L324.898,34.643L325.738,34.921L326.577,35.372L327.417,35.572L328.257,35.004L329.097,35.725L329.937,35.591L330.776,36.046L331.616,36.129L332.457,36.411L333.296,36.495L334.135,35.929L334.975,35.871L335.815,35.301L336.655,35.509L337.495,35.509L338.334,35.814L339.174,35.738L340.014,34.966L340.854,35.394L341.693,35.18L342.534,35.303L343.373,34.746L344.213,34.16L345.053,33.165L345.892,32.445L346.732,32.579L347.573,32.374L348.412,32.739L349.589,32.449L350.482,32.556L351.293,32.219L352.13,31.284L352.97,30.231L353.451,29.282L354.29,29.126L355.13,27.921L355.97,27.676L356.81,27.879L357.65,27.284L358.489,26.502L359.709,25.553L360.528,25.661L361.368,24.935L362.209,25.109L363.048,39.657L363.888,25.119L364.727,24.443L365.568,23.78L366.407,24.181L367.247,23.443L368.087,23.422L368.928,23.494L369.77,22.861L370.607,22.395L371.447,21.859L372.286,22.405L373.126,22.175L400,24.935" stroke="#f58518" stroke-width="2"/></g></g><path class="foreground" aria-hidden="true" d="" display="none"/></g></g><g class="mark-group role-legend" role="graphics-symbol" aria-roledescription="legend" aria-label="Symbol legend for stroke color with 2 values: disponible, total"><g transform="translate(0,-29)"><path class="background" aria-hidden="true" d="M0,0h108v11h-108Z" pointer-events="none"/><g><g class="mark-group role-legend-entry"><g transform="translate(0,0)"><path class="background" aria-hidden="true" d="M0,0h0v0h0Z" pointer-events="none"/><g><g class="mark-group role-scope" role="graphics-object" aria-roledescription="group mark container"><g transform="translate(0,0)"><path class="background" aria-hidden="true" d="M0,0h61.0341796875v11h-61.0341796875Z" pointer-events="none" opacity="1"/><g><g class="mark-symbol role-legend-symbol" pointer-events="none"><path transform="translate(6,6)" d="M-5,0L5,0" stroke="#4c78a8" stroke-width="1.5" opacity="1"/></g><g class="mark-text role-legend-label" pointer-events="none"><text text-anchor="start" transform="translate(16,9)" font-family="sans-serif" font-size="10px" fill="#000" opacity="1">disponible</text></g></g><path class="foreground" aria-hidden="true" d="" pointer-events="none" display="none"/></g><g transform="translate(73,0)"><path class="background" aria-hidden="true" d="M0,0h34.9013671875v11h-34.9013671875Z" pointer-events="none" opacity="1"/><g><g class="mark-symbol role-legend-symbol" pointer-events="none"><path transform="translate(6,6)" d="M-5,0L5,0" stroke="#f58518" stroke-width="1.5" opacity="1"/></g><g class="mark-text role-legend-label" pointer-events="none"><text text-anchor="start" transform="translate(16,9)" font-family="sans-serif" font-size="10px" fill="#000" opacity="1">total</text></g></g><path class="foreground" aria-hidden="true" d="" pointer-events="none" display="none"/></g></g></g><path class="foreground" aria-hidden="true" d="" pointer-events="none" display="none"/></g></g></g><path class="foreground" aria-hidden="true" d="" pointer-events="none" display="none"/></g></g><g class="mark-group role-title"><g transform="translate(200,-46)"><path class="background" aria-hidden="true" d="M0,0h0v0h0Z" pointer-events="none"/><g><g class="mark-text role-title-text" role="graphics-symbol" aria-roledescription="title" aria-label="Title text 'Historique du nombre de trajets MAXJEUNE et au total, disponibles chaque jour'" pointer-events="none"><text text-anchor="middle" transform="translate(0,10)" font-family="sans-serif" font-size="13px" font-weight="bold" fill="#000" opacity="1">Historique du nombre de trajets MAXJEUNE et au total, disponibles chaque jour</text></g></g><path class="foreground" aria-hidden="true" d="" pointer-events="none" display="none"/></g></g></g><path class="foreground" aria-hidden="true" d="" display="none"/></g></g></g></svg>