<svg xmlns="http://www.w3.org/2000/svg" xmlns:xlink="http://www.w3.org/1999/xlink" version="1.1" class="marks" width="517" height="332" viewBox="0 0 517 332"><rect width="517" height="332" fill="white"/><g fill="none" stroke-miterlimit="10" transform="translate(64,51)"><g class="mark-group role-frame root" role="graphics-object" aria-roledescription="group mark container"><g transform="translate(0,0)"><path class="background" aria-hidden="true" d="M0.5,0.5h400v200h-400Z" stroke="#ddd"/><g><g class="mark-group role-axis" aria-hidden="true"><g transform="translate(0.5,200.5)"><path class="background" aria-hidden="true" d="M0,0h0v0h0Z" pointer-events="none"/><g><g class="mark-rule role-axis-grid" pointer-events="none"><line transform="translate(4,-200)" x2="0" y2="200" stroke="#ddd" stroke-width="1" opacity="1"/><line transform="translate(32,-200)" x2="0" y2="200" stroke="#ddd" stroke-width="1" opacity="1"/><line transform="translate(60,-200)" x2="0" y2="200" stroke="#ddd" stroke-width="1" opacity="1"/><line transform="translate(89,-200)" x2="0" y2="200" stroke="#ddd" stroke-width="1" opacity="1"/><line transform="translate(117,-200)" x2="0" y2="200" stroke="#ddd" stroke-width="1" opacity="1"/><line transform="translate(143,-200)" x2="0" y2="200" stroke="#ddd" stroke-width="1" opacity="1"/><line transform="translate(171,-200)" x2="0" y2="200" stroke="#ddd" stroke-width="1" opacity="1"/><line transform="translate(199,-200)" x2="0" y2="200" stroke="#ddd" stroke-width="1" opacity="1"/><line transform="translate(227,-200)" x2="0" y2="200" stroke="#ddd" stroke-width="1" opacity="1"/><line transform="translate(255,-200)" x2="0" y2="200" stroke="#ddd" stroke-width="1" opacity="1"/><line transform="translate(283,-200)" x2="0" y2="200" stroke="#ddd" stroke-width="1" opacity="1"/><line transform="translate(312,-200)" x2="0" y2="200" stroke="#ddd" stroke-width="1" opacity="1"/><line transform="translate(339,-200)" x2="0" y2="200" stroke="#ddd" stroke-width="1" opacity="1"/><line transform="translate(368,-200)" x2="0" y2="200" stroke="#ddd" stroke-width="1" opacity="1"/><line transform="translate(395,-200)" x2="0" y2="200" stroke="#ddd" stroke-width="1" opacity="1"/></g></g><path class="foreground" aria-hidden="true" d="" pointer-events="none" display="none"/></g></g><g class="mark-group role-axis" aria-hidden="true"><g transform="translate(0.5,0.5)"><path class="background" aria-hidden="true" d="M0,0h0v0h0Z" pointer-events="none"/><g><g class="mark-rule role-axis-grid" pointer-events="none"><line transform="translate(0,200)" x2="400" y2="0" stroke="#ddd" stroke-width="1" opacity="1"/><line transform="translate(0,156)" x2="400" y2="0" stroke="#ddd" stroke-width="1" opacity="1"/><line transform="translate(0,111)" x2="400" y2="0" stroke="#ddd" stroke-width="1" opacity="1"/><line transform="translate(0,67)" x2="400" y2="0" stroke="#ddd" stroke-width="1" opacity="1"/><line transform="translate(0,22)" x2="400" y2="0" stroke="#ddd" stroke-width="1" opacity="1"/></g></g><path class="foreground" aria-hidden="true" d="" pointer-events="none" display="none"/></g></g><g class="mark-group role-axis" role="graphics-symbol" aria-roledescription="axis" aria-label="X-axis titled 'Date de la recherche' for a time scale with values from September 2024 to December 2025"><g transform="translate(0.5,200.5)"><path class="background" aria-hidden="true" d="M0,0h0v0h0Z" pointer-events="none"/><g><g class="mark-rule role-axis-tick" pointer-events="none"><line transform="translate(4,0)" x2="0" y2="5" stroke="#888" stroke-width="1" opacity="1"/><line transform="translate(32,0)" x2="0" y2="5" stroke="#888" stroke-width="1" opacity="1"/><line transform="translate(60,0)" x2="0" y2="5" stroke="#888" stroke-width="1" opacity="1"/><line transform="translate(89,0)" x2="0" y2="5" stroke="#888" stroke-width="1" opacity="1"/><line transform="translate(117,0)" x2="0" y2="5" stroke="#888" stroke-width="1" opacity="1"/><line transform="translate(143,0)" x2="0" y2="5" stroke="#888" stroke-width="1" opacity="1"/><line transform="translate(171,0)" x2="0" y2="5" stroke="#888" stroke-width="1" opacity="1"/><line transform="translate(199,0)" x2="0" y2="5" stroke="#888" stroke-width="1" opacity="1"/><line transform="translate(227,0)" x2="0" y2="5" stroke="#888" stroke-width="1" opacity="1"/><line transform="translate(255,0)" x2="0" y2="5" stroke="#888" stroke-width="1" opacity="1"/><line transform="translate(283,0)" x2="0" y2="5" stroke="#888" stroke-width="1" opacity="1"/><line transform="translate(312,0)" x2="0" y2="5" stroke="#888" stroke-width="1" opacity="1"/><line transform="translate(339,0)" x2="0" y2="5" stroke="#888" stroke-width="1" opacity="1"/><line transform="translate(368,0)" x2="0" y2="5" stroke="#888" stroke-width="1" opacity="1"/><line transform="translate(395,0)" x2="0" y2="5" stroke="#888" stroke-width="1" opacity="1"/></g><g class="mark-text role-axis-label" pointer-events="none"><text text-anchor="start" transform="translate(4.013545373977609,7) rotate(45) translate(0,8)" font-family="sans-serif" font-size="10px" fill="#000" opacity="1">October 2024</text><text text-anchor="start" transform="translate(32.499178993393706,7) rotate(45) translate(0,8)" font-family="sans-serif" font-size="10px" fill="#000" opacity="0">November 2024</text><text text-anchor="start" transform="translate(60.06592120573187,7) rotate(45) translate(0,8)" font-family="sans-serif" font-size="10px" fill="#000" opacity="0">December 2024</text><text text-anchor="start" transform="translate(88.55155482514797,7) rotate(45) translate(0,8)" font-family="sans-serif" font-size="10px" fill="#000" opacity="0">January 2025</text><text text-anchor="start" transform="translate(117.03718844456405,7) rotate(45) translate(0,8)" font-family="sans-serif" font-size="10px" fill="#000" opacity="1">February 2025</text><text text-anchor="start" transform="translate(142.76614784274636,7) rotate(45) translate(0,8)" font-family="sans-serif" font-size="10px" fill="#000" opacity="0">March 2025</text><text text-anchor="start" transform="translate(171.25178146216246,7) rotate(45) translate(0,8)" font-family="sans-serif" font-size="10px" fill="#000" opacity="0">April 2025</text><text text-anchor="start" transform="translate(198.81852367450063,7) rotate(45) translate(0,8)" font-family="sans-serif" font-size="10px" fill="#000" opacity="0">May 2025</text><text text-anchor="start" transform="translate(227.3041572939167,7) rotate(45) translate(0,8)" font-family="sans-serif" font-size="10px" fill="#000" opacity="1">June 2025</text><text text-anchor="start" transform="translate(254.8708995062549,7) rotate(45) translate(0,8)" font-family="sans-serif" font-size="10px" fill="#000" opacity="0">July 2025</text><text text-anchor="start" transform="translate(283.356533125671,7) rotate(45) translate(0,8)" font-family="sans-serif" font-size="10px" fill="#000" opacity="0">August 2025</text><text text-anchor="start" transform="translate(311.84216674508707,7) rotate(45) translate(0,8)" font-family="sans-serif" font-size="10px" fill="#000" opacity="0">September 2025</text><text text-anchor="start" transform="translate(339.40890895742524,7) rotate(45) translate(0,8)" font-family="sans-serif" font-size="10px" fill="#000" opacity="1">October 2025</text><text text-anchor="start" transform="translate(367.89454257684133,7) rotate(45) translate(0,8)" font-family="sans-serif" font-size="10px" fill="#000" opacity="0">November 2025</text><text text-anchor="start" transform="translate(395.4612847891795,7) rotate(45) translate(0,8)" font-family="sans-serif" font-size="10px" fill="#000" opacity="0">December 2025</text></g><g class="mark-rule role-axis-domain" pointer-events="none"><line transform="translate(0,0)" x2="400" y2="0" stroke="#888" stroke-width="1" opacity="1"/></g><g class="mark-text role-axis-title" pointer-events="none"><text text-anchor="middle" transform="translate(200,73.06062994763117)" font-family="sans-serif" font-size="11px" font-weight="bold" fill="#000" opacity="1">Date de la recherche</text></g></g><path class="foreground" aria-hidden="true" d="" pointer-events="none" display="none"/></g></g><g class="mark-group role-axis" role="graphics-symbol" aria-roledescription="axis" aria-label="Y-axis titled 'Nombre de trajets' for a linear scale with values from 0 to 450,000"><g transform="translate(0.5,0.5)"><path class="background" aria-hidden="true" d="M0,0h0v0h0Z" pointer-events="none"/><g><g class="mark-rule role-axis-tick" pointer-events="none"><line transform="translate(0,200)" x2="-5" y2="0" stroke="#888" stroke-width="1" opacity="1"/><line transform="translate(0,156)" x2="-5" y2="0" stroke="#888" stroke-width="1" opacity="1"/><line transform="translate(0,111)" x2="-5" y2="0" stroke="#888" stroke-width="1" opacity="1"/><line transform="translate(0,67)" x2="-5" y2="0" stroke="#888" stroke-width="1" opacity="1"/><line transform="translate(0,22)" x2="-5" y2="0" stroke="#888" stroke-width="1" opacity="1"/></g><g class="mark-text role-axis-label" pointer-events="none"><text text-anchor="end" transform="translate(-7,203)" font-family="sans-serif" font-size="10px" fill="#000" opacity="1">0</text><text text-anchor="end" transform="translate(-7,158.55555555555557)" font-family="sans-serif" font-size="10px" fill="#000" opacity="1">100,000</text><text text-anchor="end" transform="translate(-7,114.11111111111111)" font-family="sans-serif" font-size="10px" fill="#000" opacity="1">200,000</text><text text-anchor="end" transform="translate(-7,69.66666666666667)" font-family="sans-serif" font-size="10px" fill="#000" opacity="1">300,000</text><text text-anchor="end" transform="translate(-7,25.222222222222232)" font-family="sans-serif" font-size="10px" fill="#000" opacity="1">400,000</text></g><g class="mark-rule role-axis-domain" pointer-events="none"><line transform="translate(0,200)" x2="0" y2="-200" stroke="#888" stroke-width="1" opacity="1"/></g><g class="mark-text role-axis-title" pointer-events="none"><text text-anchor="middle" transform="translate(-47.1474609375,100) rotate(-90) translate(0,-2)" font-family="sans-serif" font-size="11px" font-weight="bold" fill="#000" opacity="1">Nombre de trajets</text></g></g><path class="foreground" aria-hidden="true" d="" pointer-events="none" display="none"/></g></g><g class="mark-group role-scope pathgroup" role="graphics-object" aria-roledescription="group mark container"><g transform="translate(0,0)"><path class="background" aria-hidden="true" d="M0,0h400v200h-400Z"/><g><g class="mark-line role-mark marks" role="graphics-object" aria-roledescription="line mark container"><path aria-label="Date de la recherche: September 2024; Nombre de trajets: 91488; variable: disponible" role="graphics-symbol" aria-roledescription="line mark" d="M0,159.339L0.808,160.009L1.726,160.25L2.645,159.721L3.564,159.224L4.483,160.066L5.403,161.226L6.321,162.729L7.24,163.599L8.159,164.927L9.078,164.272L9.996,163.069L10.915,163.83L11.834,166.394L12.753,165.123L13.672,166.305L14.591,167.015L15.51,167.638L16.429,167.648L17.348,168.931L18.267,169.444L19.185,170.203L20.104,170.474L21.023,170.704L21.942,168.872L22.861,167.766L23.78,168.451L24.699,167.16L25.618,168.696L26.537,166.936L27.455,167.617L28.374,164.943L29.3,163.236L30.212,165.275L31.131,163.601L32.05,165.017L32.969,163.38L33.888,162.688L34.807,161.357L35.725,159.746L36.644,159.755L37.565,159.142L38.482,161.116L39.401,160.392L40.32,160.483L41.239,158.316L42.158,156.748L43.078,154.82L43.996,155.253L44.914,154.239L45.833,154.859L46.755,156.557L47.671,155.787L48.591,155.331L49.509,156.853L50.428,157.538L51.347,158.599L52.265,159.242L53.184,159.566L54.103,159.835L55.022,159.906L55.941,161.397L56.86,162.616L57.779,164.062L58.698,165.294L59.617,166.184L60.536,166.252L61.455,166.133L62.373,167.211L63.293,167.551L64.211,168.202L65.13,168.182L66.05,168.864L66.968,168.023L67.887,166.956L68.805,166.728L69.724,166.308L70.643,166.35L71.562,164.781L72.481,165.02L73.4,163.984L74.319,162.302L75.238,162.622L76.157,161.783L77.075,161.712L77.994,159.731L78.913,159.145L79.832,157.033L80.751,155.203L81.67,153.702L82.589,149.882L83.508,149.315L84.427,147.688L85.346,147.022L86.264,145.158L87.183,143.235L88.102,141.419L89.021,139.417L89.94,139.184L90.859,141.537L91.778,142.381L92.697,139.298L93.615,137.729L94.534,138.287L95.453,138.306L96.372,139.025L97.292,139.891L98.21,141.793L99.129,142.216L100.048,142.23L100.967,143.622L101.886,144.212L102.804,146.113L103.723,147.762L104.642,148.816L105.561,149.653L106.48,149.103L107.399,149.572L108.318,151.036L109.237,152.019L110.156,154.556L111.074,155.987L111.993,156.427L112.912,155.749L113.831,156.068L114.75,156.588L115.669,157.142L116.588,158.761L117.507,159.033L118.426,159.104L119.345,158.219L120.263,158.195L121.182,158.685L122.101,160.639L123.02,161.217L123.939,162.238L124.858,161.805L125.777,161.569L126.696,162.052L127.615,162.612L128.533,163.765L129.452,164.016L130.371,164.144L131.29,163.397L132.209,162.463L133.128,162.635L134.047,160.836L134.966,162.052L135.885,161.876L136.803,162.061L137.722,159.33L138.641,157.85L139.56,157.162L140.479,156.173L141.398,157.449L142.317,157.287L143.236,157.682L144.155,156.434L145.073,155.299L145.992,155.873L146.911,156.232L147.83,158.153L148.749,157.316L149.668,158.821L150.587,157.497L151.506,156.43L152.425,156.36L153.343,156.624L154.262,157.757L155.181,159.565L156.1,159.94L157.019,160.216L157.938,159.533L158.857,159.946L159.776,160.72L160.695,162.035L161.613,162.685L162.532,163.619L163.451,164.437L164.37,164.308L165.289,164.997L166.208,165.332L167.127,166.06L168.046,166.832L168.965,167.163L169.883,167.356L170.802,166.756L171.721,168.562L172.64,168.524L173.559,169.668L174.478,169.96L175.397,170.583L176.316,169.531L177.235,169.106L178.153,170.336L179.072,171.222L179.991,172.901L180.91,173.898L181.829,173.981L182.748,173.399L183.667,172.256L184.586,172.224L185.505,172.383L186.423,172.577L187.342,171.82L188.261,171.468L189.18,170.136L190.099,168.69L191.018,167.228L191.937,166.981L192.856,166.786L193.775,166.962L194.693,166.335L195.612,165.966L196.531,165.59L197.45,166.577L198.369,167.733L199.288,170.02L200.207,168.846L201.126,169.858L202.045,169.379L202.963,168.202L203.882,168.43L204.801,170.075L205.72,170.046L206.639,169.925L207.558,169.592L208.477,168.736L209.396,168.091L210.315,168.04L211.234,168.317L212.152,169.349L213.071,169.497L213.99,170.13L214.909,170.491L215.828,170.374L216.747,171.072L217.666,173.061L218.585,174.635L219.504,174.731L220.422,174.89L221.341,174.699L222.26,174.329L223.179,175.925L224.098,174.959L225.017,175.182L225.936,176.424L226.855,174.932L227.774,174.408L228.692,173.2L229.611,172.78L230.53,173.29L231.449,173.061L232.368,173.79L233.287,173.8L234.206,173.333L235.125,172.788L236.044,172.172L236.963,172.853L237.882,173.283L238.801,175.056L239.72,174.065L240.639,174.497L241.557,174.456L242.476,175.107L243.395,175.869L244.314,176.792L245.232,176.778L246.151,177.009L247.07,177.119L247.989,176.421L248.908,176.539L249.827,177.062L250.746,177.335L251.665,177.774L252.584,178.057L253.503,177.759L254.422,177.03L255.34,176.662L256.259,177.327L257.178,177.417L258.097,177.748L259.016,177.901L259.935,177.574L260.854,176.725L261.773,176.693L262.692,176.283L263.61,176.441L264.529,176.327L265.448,176.355L266.367,175.682L267.286,175.172L268.205,174.815L269.124,178.13L270.043,178.902L270.962,178.285L271.88,178.194L272.799,177.128L273.718,176.427L274.637,176.211L275.556,176.344L276.475,176.647L277.394,176.738L278.313,176.03L279.232,175.164L280.15,174.287L281.069,174.413L281.988,173.714L282.907,174.324L283.826,173.887L284.745,173.912L285.664,172.471L286.583,171.321L287.502,171.24L288.421,171.28L289.339,172.08L290.258,172.211L291.177,172.403L292.096,171.398L293.015,170.396L293.934,170.518L294.854,170.236L295.772,170.683L296.69,170.087L297.609,170.074L298.528,169.3L299.447,168.013L300.366,167.635L301.285,166.205L302.204,166.481L303.123,166.323L304.042,166.3L304.961,165.771L305.879,164.96L306.808,164.593L307.717,165.332L308.636,166.362L309.555,166.83L310.474,167.888L311.393,167.998L312.312,168.088L313.231,168.656L314.149,170.384L315.068,164.386L315.987,164.849L316.906,166.016L317.825,165.694L318.744,164.655L319.663,163.862L320.582,163.137L321.501,165.146L322.419,165.064L323.338,165.244L324.257,165.762L325.176,164.872L326.095,164.64L327.015,165.472L327.933,166.088L328.852,167.32L329.771,166.82L330.689,167.115L331.608,167.029L332.527,167.192L333.446,167.811L334.365,168.811L335.284,170.644L336.203,169.776L337.122,170.481L338.041,170.076L338.959,170.333L339.878,170.433L340.797,171.609L341.716,172.44L342.635,172.626L343.554,172.988L344.473,172.106L345.392,171.847L346.311,172.026L347.23,173.442L348.149,173.866L349.067,173.078L349.986,172.944L350.905,173.152L351.824,173.688L352.743,174.006L353.662,174.688L354.581,174.205L355.499,173.786L356.419,172.674L357.337,171.307L358.256,171.597L359.175,171.21L360.094,171.624L361.013,171.142L361.932,170.751L362.851,169.213L363.771,167.775L364.688,167.387L365.607,167.261L366.526,167.35L367.445,166.703L368.364,167.341L369.283,166.164L370.202,164.592L371.121,164.66L372.04,164.254L372.958,165.054L373.877,165.095L374.797,164.783L375.715,163.01L376.634,162.001L377.553,161.608L378.472,160.09L379.391,160.927L380.31,161.446L381.228,161.809L382.517,161.546L383.493,160.467L384.381,161.036L385.297,161.558L386.215,162.723L386.742,163.683L387.661,163.763L388.58,163.474L389.498,163.335L390.417,163.94L391.336,164.694L392.255,165.922L393.59,167.04L394.486,167.981L395.405,168.795L396.325,168.795L397.243,169.349L398.163,170.304L399.081,171.598L400,172.795" stroke="#4c78a8" stroke-width="2"/></g></g><path class="foreground" aria-hidden="true" d="" display="none"/></g><g transform="translate(0,0)"><path class="background" aria-hidden="true" d="M0,0h400v200h-400Z"/><g><g class="mark-line role-mark marks" role="graphics-object" aria-roledescription="line mark container"><path aria-label="Date de la recherche: September 2024; Nombre de trajets: 351801; variable: total" role="graphics-symbol" aria-roledescription="line mark" d="M0,43.644L0.808,43.23L1.726,43.532L2.645,43.471L3.564,43.523L4.483,42.888L5.403,42.975L6.321,43.715L7.24,43.55L8.159,43.967L9.078,43.883L9.996,43.916L10.915,43.705L11.834,43.343L12.753,45.168L13.672,47.57L14.591,49.451L15.51,50.78L16.429,51.056L17.348,51.055L18.267,50.496L19.185,50.482L20.104,50.263L21.023,50.547L21.942,50.55L22.861,50.929L23.78,51.131L24.699,50.923L25.618,51.584L26.537,51.856L27.455,52.263L28.374,52.39L29.3,52.759L30.212,52.836L31.131,52.374L32.05,53.093L32.969,53.62L33.888,53.032L34.807,52.105L35.725,52.092L36.644,52.091L37.565,51.462L38.482,51.622L39.401,41.063L40.32,40.994L41.239,38.53L42.158,35.785L43.078,33.752L43.996,31.452L44.914,31.196L45.833,31.976L46.755,32.224L47.671,32.1L48.591,32.214L49.509,43.381L50.428,42.648L51.347,31.545L52.265,31.141L53.184,31.16L54.103,30.515L55.022,30.687L55.941,30.67L56.86,41.943L57.779,41.649L58.698,29.061L59.617,29.416L60.536,28.902L61.455,29.519L62.373,29.164L63.293,28.757L64.211,28.1L65.13,27.722L66.05,26.185L66.968,25.875L67.887,25.729L68.805,25.856L69.724,25.331L70.643,37.198L71.562,25.074L72.481,25.668L73.4,25.804L74.319,25.909L75.238,26.032L76.157,25.492L77.075,25.271L77.994,25.142L78.913,25.764L79.832,26.482L80.751,26.828L81.67,27.121L82.589,26.415L83.508,25.957L84.427,26.279L85.346,27.016L86.264,27.544L87.183,27.983L88.102,28.387L89.021,27.747L89.94,27.414L90.859,27.669L91.778,28.387L92.697,28.939L93.615,29.468L94.534,29.973L95.453,29.508L96.372,29.126L97.292,29.288L98.21,30.003L99.129,30.398L100.048,30.824L100.967,31.144L101.886,30.97L102.804,41.714L103.723,30.252L104.642,30.988L105.561,31.619L106.48,31.958L107.399,32.143L108.318,31.707L109.237,31.087L110.156,31.152L111.074,31.917L111.993,32.222L112.912,32.403L113.831,32.294L114.75,31.743L115.669,31.524L116.588,31.784L117.507,32.277L118.426,32.624L119.345,32.712L120.263,32.796L121.182,32.445L122.101,31.822L123.02,31.126L123.939,31.789L124.858,32.685L125.777,33.031L126.696,33.212L127.615,32.773L128.533,33.388L129.452,33.592L130.371,34.164L131.29,35.362L132.209,35.763L133.128,35.899L134.047,35.315L134.966,35.592L135.885,36.133L136.803,36.764L137.722,37.632L138.641,37.992L139.56,38.217L140.479,48.657L141.398,49.276L142.317,49.164L143.236,49.493L144.155,49.746L145.073,49.778L145.992,38.859L146.911,38.161L147.83,37.686L148.749,37.108L149.668,37.387L150.587,37.632L151.506,37.878L152.425,37.688L153.343,36.921L154.262,36.403L155.181,35.921L156.1,36.056L157.019,35.163L157.938,34.855L158.857,34.686L159.776,33.996L160.695,34.483L161.613,35.695L162.532,36.783L163.451,36.296L164.37,35.908L165.289,35.731L166.208,34.88L167.127,34.631L168.046,34.328L168.965,34.329L169.883,33.922L170.802,33.396L171.721,33.329L172.64,33.858L173.559,34.476L174.478,35.666L175.397,36.248L176.316,37.45L177.235,37.177L178.153,37.877L179.072,37.17L179.991,38.661L180.91,39.278L181.829,39.69L182.748,40.057L183.667,40.341L184.586,40.363L185.505,39.966L186.423,40.384L187.342,40.357L188.261,40.606L189.18,39.799L190.099,38.261L191.018,37.851L191.937,37.399L192.856,37.4L193.775,37.352L194.693,37.876L195.612,38.551L196.531,38.273L197.45,38.913L198.369,40.323L199.288,42.092L200.207,42.238L201.126,41.801L202.045,41.309L202.963,41.427L203.882,41.43L204.801,40.981L205.72,41.689L206.639,42.137L207.558,40.74L208.477,38.877L209.396,38.676L210.315,38.774L211.234,38.256L212.152,39.166L213.071,39.717L213.99,40.268L214.909,39.847L215.828,39.945L216.747,40.043L217.666,39.415L218.585,39.523L219.504,39.268L220.422,39.68L221.341,39.566L222.26,39.679L223.179,39.789L224.098,39.682L225.017,40.502L225.936,40.502L226.855,38.96L227.774,37.599L228.692,49.079L229.611,48.936L230.53,47.866L231.449,35.477L232.368,34.581L233.287,34.1L234.206,32.722L235.125,30.764L236.044,29.522L236.963,28.472L237.882,27.45L238.801,26.752L239.72,26.195L240.639,24.508L241.557,23.186L242.476,22.453L243.395,21.27L244.314,20.594L245.232,19.795L246.151,19.459L247.07,18.917L247.989,18.407L248.908,17.611L249.827,15.996L250.746,14.744L251.665,13.67L252.584,13.268L253.503,11.688L254.422,10.401L255.34,9.68L256.259,8.634L257.178,7.666L258.097,6.733L259.016,6.447L259.935,6.648L260.854,6.913L261.773,7.142L262.692,6.778L263.61,6.423L264.529,6.221L265.448,6.697L266.367,6.961L267.286,6.967L268.205,6.828L269.124,6.909L270.043,6.72L270.962,6.489L271.88,6.91L272.799,7.019L273.718,7.102L274.637,7.276L275.556,7L276.475,6.7L277.394,6.562L278.313,7.013L279.232,7.419L280.15,7.774L281.069,8.004L281.988,7.824L282.907,7.632L283.826,7.624L284.745,8.608L285.664,9.588L286.583,10.514L287.502,23.998L288.421,24.18L289.339,24.671L290.258,12.251L291.177,13.22L292.096,14.339L293.015,15.249L293.934,15.966L294.854,16.04L295.772,16.588L296.69,17.289L297.609,18.311L298.528,19.453L299.447,20.548L300.366,21.367L301.285,21.895L302.204,22.307L303.123,22.592L304.042,23.508L304.961,24.434L305.879,25.478L306.808,26.376L307.717,26.459L308.636,26.994L309.555,27.342L310.474,28.512L311.393,29.606L312.312,30.551L313.231,30.946L314.149,30.848L315.068,30.833L315.987,30.717L316.906,31.369L317.825,31.672L318.744,32.168L319.663,32.468L320.582,32.252L321.501,32.707L322.419,32.744L323.338,33.391L324.257,33.776L325.176,34.194L326.095,34.264L327.015,33.874L327.933,33.784L328.852,33.23L329.771,33.629L330.689,33.935L331.608,34.376L332.527,34.532L333.446,33.903L334.365,33.763L335.284,33.499L336.203,34.137L337.122,34.408L338.041,34.85L338.959,34.911L339.878,34.408L340.797,34.312L341.716,33.871L342.635,34.43L343.554,34.635L344.473,34.972L345.392,35.029L346.311,34.567L347.23,34.906L348.149,35.273L349.067,36.404L349.986,36.064L350.905,36.193L351.824,36.184L352.743,35.46L353.662,35.25L354.581,34.94L355.499,35.736L356.419,35.958L357.337,36.317L358.256,36.487L359.175,36.016L360.094,36.638L361.013,36.584L361.932,37.003L362.851,37.092L363.771,37.367L364.688,37.441L365.607,36.927L366.526,36.857L367.445,36.367L368.364,36.565L369.283,36.544L370.202,36.812L371.121,36.737L372.04,36.034L372.958,36.394L373.877,36.221L374.797,36.347L375.715,35.854L376.634,35.315L377.553,34.461L378.472,33.782L379.391,33.904L380.31,33.897L381.228,34.39L382.517,34.251L383.493,34.461L384.381,34.308L385.297,33.611L386.215,32.839L386.742,32.159L387.661,32.164L388.58,31.195L389.498,31.053L390.417,31.379L391.336,30.967L392.255,30.417L393.59,29.717L394.486,27.828L395.405,26.715L396.325,26.84L397.243,39.755L398.163,26.792L399.081,26.18L400,25.597" stroke="#f58518" stroke-width="2"/></g></g><path class="foreground" aria-hidden="true" d="" display="none"/></g></g><g class="mark-group role-legend" role="graphics-symbol" aria-roledescription="legend" aria-label="Symbol legend for stroke color with 2 values: disponible, total"><g transform="translate(0,-29)"><path class="background" aria-hidden="true" d="M0,0h108v11h-108Z" pointer-events="none"/><g><g class="mark-group role-legend-entry"><g transform="translate(0,0)"><path class="background" aria-hidden="true" d="M0,0h0v0h0Z" pointer-events="none"/><g><g class="mark-group role-scope" role="graphics-object" aria-roledescription="group mark container"><g transform="translate(0,0)"><path class="background" aria-hidden="true" d="M0,0h61.0341796875v11h-61.0341796875Z" pointer-events="none" opacity="1"/><g><g class="mark-symbol role-legend-symbol" pointer-events="none"><path transform="translate(6,6)" d="M-5,0L5,0" stroke="#4c78a8" stroke-width="1.5" opacity="1"/></g><g class="mark-text role-legend-label" pointer-events="none"><text text-anchor="start" transform="translate(16,9)" font-family="sans-serif" font-size="10px" fill="#000" opacity="1">disponible</text></g></g><path class="foreground" aria-hidden="true" d="" pointer-events="none" display="none"/></g><g transform="translate(73,0)"><path class="background" aria-hidden="true" d="M0,0h34.9013671875v11h-34.9013671875Z" pointer-events="none" opacity="1"/><g><g class="mark-symbol role-legend-symbol" pointer-events="none"><path transform="translate(6,6)" d="M-5,0L5,0" stroke="#f58518" stroke-width="1.5" opacity="1"/></g><g class="mark-text role-legend-label" pointer-events="none"><text text-anchor="start" transform="translate(16,9)" font-family="sans-serif" font-size="10px" fill="#000" opacity="1">total</text></g></g><path class="foreground" aria-hidden="true" d="" pointer-events="none" display="none"/></g></g></g><path class="foreground" aria-hidden="true" d="" pointer-events="none" display="none"/></g></g></g><path class="foreground" aria-hidden="true" d="" pointer-events="none" display="none"/></g></g><g class="mark-group role-title"><g transform="translate(200,-46)"><path class="background" aria-hidden="true" d="M0,0h0v0h0Z" pointer-events="none"/><g><g class="mark-text role-title-text" role="graphics-symbol" aria-roledescription="title" aria-label="Title text 'Historique du nombre de trajets MAXJEUNE et au total, disponibles chaque jour'" pointer-events="none"><text text-anchor="middle" transform="translate(0,10)" font-family="sans-serif" font-size="13px" font-weight="bold" fill="#000" opacity="1">Historique du nombre de trajets MAXJEUNE et au total, disponibles chaque jour</text></g></g><path class="foreground" aria-hidden="true" d="" pointer-events="none" display="none"/></g></g></g><path class="foreground" aria-hidden="true" d="" display="none"/></g></g></g></svg>