<svg xmlns="http://www.w3.org/2000/svg" xmlns:xlink="http://www.w3.org/1999/xlink" version="1.1" class="marks" width="517" height="336" viewBox="0 0 517 336"><rect width="517" height="336" fill="white"/><g fill="none" stroke-miterlimit="10" transform="translate(64,51)"><g class="mark-group role-frame root" role="graphics-object" aria-roledescription="group mark container"><g transform="translate(0,0)"><path class="background" aria-hidden="true" d="M0.5,0.5h400v200h-400Z" stroke="#ddd"/><g><g class="mark-group role-axis" aria-hidden="true"><g transform="translate(0.5,200.5)"><path class="background" aria-hidden="true" d="M0,0h0v0h0Z" pointer-events="none"/><g><g class="mark-rule role-axis-grid" pointer-events="none"><line transform="translate(4,-200)" x2="0" y2="200" stroke="#ddd" stroke-width="1" opacity="1"/><line transform="translate(34,-200)" x2="0" y2="200" stroke="#ddd" stroke-width="1" opacity="1"/><line transform="translate(62,-200)" x2="0" y2="200" stroke="#ddd" stroke-width="1" opacity="1"/><line transform="translate(92,-200)" x2="0" y2="200" stroke="#ddd" stroke-width="1" opacity="1"/><line transform="translate(121,-200)" x2="0" y2="200" stroke="#ddd" stroke-width="1" opacity="1"/><line transform="translate(148,-200)" x2="0" y2="200" stroke="#ddd" stroke-width="1" opacity="1"/><line transform="translate(177,-200)" x2="0" y2="200" stroke="#ddd" stroke-width="1" opacity="1"/><line transform="translate(206,-200)" x2="0" y2="200" stroke="#ddd" stroke-width="1" opacity="1"/><line transform="translate(235,-200)" x2="0" y2="200" stroke="#ddd" stroke-width="1" opacity="1"/><line transform="translate(264,-200)" x2="0" y2="200" stroke="#ddd" stroke-width="1" opacity="1"/><line transform="translate(293,-200)" x2="0" y2="200" stroke="#ddd" stroke-width="1" opacity="1"/><line transform="translate(323,-200)" x2="0" y2="200" stroke="#ddd" stroke-width="1" opacity="1"/><line transform="translate(352,-200)" x2="0" y2="200" stroke="#ddd" stroke-width="1" opacity="1"/><line transform="translate(381,-200)" x2="0" y2="200" stroke="#ddd" stroke-width="1" opacity="1"/></g></g><path class="foreground" aria-hidden="true" d="" pointer-events="none" display="none"/></g></g><g class="mark-group role-axis" aria-hidden="true"><g transform="translate(0.5,0.5)"><path class="background" aria-hidden="true" d="M0,0h0v0h0Z" pointer-events="none"/><g><g class="mark-rule role-axis-grid" pointer-events="none"><line transform="translate(0,200)" x2="400" y2="0" stroke="#ddd" stroke-width="1" opacity="1"/><line transform="translate(0,156)" x2="400" y2="0" stroke="#ddd" stroke-width="1" opacity="1"/><line transform="translate(0,111)" x2="400" y2="0" stroke="#ddd" stroke-width="1" opacity="1"/><line transform="translate(0,67)" x2="400" y2="0" stroke="#ddd" stroke-width="1" opacity="1"/><line transform="translate(0,22)" x2="400" y2="0" stroke="#ddd" stroke-width="1" opacity="1"/></g></g><path class="foreground" aria-hidden="true" d="" pointer-events="none" display="none"/></g></g><g class="mark-group role-axis" role="graphics-symbol" aria-roledescription="axis" aria-label="X-axis titled 'Date de la recherche' for a time scale with values from September 2024 to November 2025"><g transform="translate(0.5,200.5)"><path class="background" aria-hidden="true" d="M0,0h0v0h0Z" pointer-events="none"/><g><g class="mark-rule role-axis-tick" pointer-events="none"><line transform="translate(4,0)" x2="0" y2="5" stroke="#888" stroke-width="1" opacity="1"/><line transform="translate(34,0)" x2="0" y2="5" stroke="#888" stroke-width="1" opacity="1"/><line transform="translate(62,0)" x2="0" y2="5" stroke="#888" stroke-width="1" opacity="1"/><line transform="translate(92,0)" x2="0" y2="5" stroke="#888" stroke-width="1" opacity="1"/><line transform="translate(121,0)" x2="0" y2="5" stroke="#888" stroke-width="1" opacity="1"/><line transform="translate(148,0)" x2="0" y2="5" stroke="#888" stroke-width="1" opacity="1"/><line transform="translate(177,0)" x2="0" y2="5" stroke="#888" stroke-width="1" opacity="1"/><line transform="translate(206,0)" x2="0" y2="5" stroke="#888" stroke-width="1" opacity="1"/><line transform="translate(235,0)" x2="0" y2="5" stroke="#888" stroke-width="1" opacity="1"/><line transform="translate(264,0)" x2="0" y2="5" stroke="#888" stroke-width="1" opacity="1"/><line transform="translate(293,0)" x2="0" y2="5" stroke="#888" stroke-width="1" opacity="1"/><line transform="translate(323,0)" x2="0" y2="5" stroke="#888" stroke-width="1" opacity="1"/><line transform="translate(352,0)" x2="0" y2="5" stroke="#888" stroke-width="1" opacity="1"/><line transform="translate(381,0)" x2="0" y2="5" stroke="#888" stroke-width="1" opacity="1"/></g><g class="mark-text role-axis-label" pointer-events="none"><text text-anchor="start" transform="translate(4.156794706868682,7) rotate(45) translate(0,8)" font-family="sans-serif" font-size="10px" fill="#000" opacity="1">October 2024</text><text text-anchor="start" transform="translate(33.65912245397988,7) rotate(45) translate(0,8)" font-family="sans-serif" font-size="10px" fill="#000" opacity="0">November 2024</text><text text-anchor="start" transform="translate(62.20976220924879,7) rotate(45) translate(0,8)" font-family="sans-serif" font-size="10px" fill="#000" opacity="1">December 2024</text><text text-anchor="start" transform="translate(91.71208995635999,7) rotate(45) translate(0,8)" font-family="sans-serif" font-size="10px" fill="#000" opacity="0">January 2025</text><text text-anchor="start" transform="translate(121.21441770347118,7) rotate(45) translate(0,8)" font-family="sans-serif" font-size="10px" fill="#000" opacity="1">February 2025</text><text text-anchor="start" transform="translate(147.86168147505552,7) rotate(45) translate(0,8)" font-family="sans-serif" font-size="10px" fill="#000" opacity="0">March 2025</text><text text-anchor="start" transform="translate(177.36400922216671,7) rotate(45) translate(0,8)" font-family="sans-serif" font-size="10px" fill="#000" opacity="1">April 2025</text><text text-anchor="start" transform="translate(205.91464897743563,7) rotate(45) translate(0,8)" font-family="sans-serif" font-size="10px" fill="#000" opacity="0">May 2025</text><text text-anchor="start" transform="translate(235.41697672454683,7) rotate(45) translate(0,8)" font-family="sans-serif" font-size="10px" fill="#000" opacity="1">June 2025</text><text text-anchor="start" transform="translate(263.9676164798157,7) rotate(45) translate(0,8)" font-family="sans-serif" font-size="10px" fill="#000" opacity="0">July 2025</text><text text-anchor="start" transform="translate(293.46994422692694,7) rotate(45) translate(0,8)" font-family="sans-serif" font-size="10px" fill="#000" opacity="1">August 2025</text><text text-anchor="start" transform="translate(322.9722719740381,7) rotate(45) translate(0,8)" font-family="sans-serif" font-size="10px" fill="#000" opacity="0">September 2025</text><text text-anchor="start" transform="translate(351.52291172930705,7) rotate(45) translate(0,8)" font-family="sans-serif" font-size="10px" fill="#000" opacity="1">October 2025</text><text text-anchor="start" transform="translate(381.0252394764182,7) rotate(45) translate(0,8)" font-family="sans-serif" font-size="10px" fill="#000" opacity="0">November 2025</text></g><g class="mark-rule role-axis-domain" pointer-events="none"><line transform="translate(0,0)" x2="400" y2="0" stroke="#888" stroke-width="1" opacity="1"/></g><g class="mark-text role-axis-title" pointer-events="none"><text text-anchor="middle" transform="translate(200,77.38337257480674)" font-family="sans-serif" font-size="11px" font-weight="bold" fill="#000" opacity="1">Date de la recherche</text></g></g><path class="foreground" aria-hidden="true" d="" pointer-events="none" display="none"/></g></g><g class="mark-group role-axis" role="graphics-symbol" aria-roledescription="axis" aria-label="Y-axis titled 'Nombre de trajets' for a linear scale with values from 0 to 450,000"><g transform="translate(0.5,0.5)"><path class="background" aria-hidden="true" d="M0,0h0v0h0Z" pointer-events="none"/><g><g class="mark-rule role-axis-tick" pointer-events="none"><line transform="translate(0,200)" x2="-5" y2="0" stroke="#888" stroke-width="1" opacity="1"/><line transform="translate(0,156)" x2="-5" y2="0" stroke="#888" stroke-width="1" opacity="1"/><line transform="translate(0,111)" x2="-5" y2="0" stroke="#888" stroke-width="1" opacity="1"/><line transform="translate(0,67)" x2="-5" y2="0" stroke="#888" stroke-width="1" opacity="1"/><line transform="translate(0,22)" x2="-5" y2="0" stroke="#888" stroke-width="1" opacity="1"/></g><g class="mark-text role-axis-label" pointer-events="none"><text text-anchor="end" transform="translate(-7,203)" font-family="sans-serif" font-size="10px" fill="#000" opacity="1">0</text><text text-anchor="end" transform="translate(-7,158.55555555555557)" font-family="sans-serif" font-size="10px" fill="#000" opacity="1">100,000</text><text text-anchor="end" transform="translate(-7,114.11111111111111)" font-family="sans-serif" font-size="10px" fill="#000" opacity="1">200,000</text><text text-anchor="end" transform="translate(-7,69.66666666666667)" font-family="sans-serif" font-size="10px" fill="#000" opacity="1">300,000</text><text text-anchor="end" transform="translate(-7,25.222222222222232)" font-family="sans-serif" font-size="10px" fill="#000" opacity="1">400,000</text></g><g class="mark-rule role-axis-domain" pointer-events="none"><line transform="translate(0,200)" x2="0" y2="-200" stroke="#888" stroke-width="1" opacity="1"/></g><g class="mark-text role-axis-title" pointer-events="none"><text text-anchor="middle" transform="translate(-47.1474609375,100) rotate(-90) translate(0,-2)" font-family="sans-serif" font-size="11px" font-weight="bold" fill="#000" opacity="1">Nombre de trajets</text></g></g><path class="foreground" aria-hidden="true" d="" pointer-events="none" display="none"/></g></g><g class="mark-group role-scope pathgroup" role="graphics-object" aria-roledescription="group mark container"><g transform="translate(0,0)"><path class="background" aria-hidden="true" d="M0,0h400v200h-400Z"/><g><g class="mark-line role-mark marks" role="graphics-object" aria-roledescription="line mark container"><path aria-label="Date de la recherche: September 2024; Nombre de trajets: 91488; variable: disponible" role="graphics-symbol" aria-roledescription="line mark" d="M0,159.339L0.836,160.009L1.788,160.25L2.74,159.721L3.692,159.224L4.643,160.066L5.596,161.226L6.547,162.729L7.498,163.599L8.45,164.927L9.402,164.272L10.353,163.069L11.305,163.83L12.257,166.394L13.208,165.123L14.16,166.305L15.112,167.015L16.063,167.638L17.015,167.648L17.967,168.931L18.919,169.444L19.87,170.203L20.822,170.474L21.773,170.704L22.725,168.872L23.677,167.766L24.629,168.451L25.58,167.16L26.532,168.696L27.484,166.936L28.435,167.617L29.387,164.943L30.346,163.236L31.29,165.275L32.242,163.601L33.194,165.017L34.145,163.38L35.098,162.688L36.049,161.357L37,159.746L37.952,159.755L38.906,159.142L39.856,161.116L40.807,160.392L41.759,160.483L42.711,158.316L43.662,156.748L44.616,154.82L45.566,155.253L46.517,154.239L47.469,154.859L48.423,156.557L49.373,155.787L50.325,155.331L51.276,156.853L52.227,157.538L53.179,158.599L54.131,159.242L55.083,159.566L56.034,159.835L56.986,159.906L57.938,161.397L58.889,162.616L59.841,164.062L60.793,165.294L61.744,166.184L62.696,166.252L63.649,166.133L64.6,167.211L65.552,167.551L66.503,168.202L67.455,168.182L68.407,168.864L69.358,168.023L70.31,166.956L71.261,166.728L72.213,166.308L73.165,166.35L74.116,164.781L75.068,165.02L76.02,163.984L76.971,162.302L77.923,162.622L78.875,161.783L79.826,161.712L80.778,159.731L81.73,159.145L82.681,157.033L83.633,155.203L84.585,153.702L85.536,149.882L86.488,149.315L87.44,147.688L88.392,147.022L89.343,145.158L90.295,143.235L91.247,141.419L92.198,139.417L93.15,139.184L94.102,141.537L95.053,142.381L96.005,139.298L96.957,137.729L97.908,138.287L98.86,138.306L99.812,139.025L100.764,139.891L101.716,141.793L102.667,142.216L103.619,142.23L104.57,143.622L105.522,144.212L106.474,146.113L107.425,147.762L108.377,148.816L109.329,149.653L110.28,149.103L111.232,149.572L112.184,151.036L113.135,152.019L114.087,154.556L115.039,155.987L115.99,156.427L116.942,155.749L117.894,156.068L118.846,156.588L119.797,157.142L120.749,158.761L121.701,159.033L122.652,159.104L123.604,158.219L124.556,158.195L125.507,158.685L126.459,160.639L127.411,161.217L128.362,162.238L129.314,161.805L130.266,161.569L131.218,162.052L132.169,162.612L133.121,163.765L134.073,164.016L135.024,164.144L135.976,163.397L136.928,162.463L137.879,162.635L138.831,160.836L139.783,162.052L140.735,161.876L141.686,162.061L142.638,159.33L143.59,157.85L144.541,157.162L145.493,156.173L146.445,157.449L147.396,157.287L148.348,157.682L149.3,156.434L150.251,155.299L151.203,155.873L152.155,156.232L153.106,158.153L154.058,157.316L155.01,158.821L155.961,157.497L156.913,156.43L157.865,156.36L158.817,156.624L159.768,157.757L160.72,159.565L161.672,159.94L162.623,160.216L163.575,159.533L164.527,159.946L165.478,160.72L166.43,162.035L167.382,162.685L168.333,163.619L169.285,164.437L170.237,164.308L171.188,164.997L172.14,165.332L173.092,166.06L174.043,166.832L174.995,167.163L175.947,167.356L176.899,166.756L177.85,168.562L178.802,168.524L179.754,169.668L180.705,169.96L181.657,170.583L182.609,169.531L183.56,169.106L184.512,170.336L185.464,171.222L186.415,172.901L187.367,173.898L188.319,173.981L189.27,173.399L190.222,172.256L191.174,172.224L192.125,172.383L193.077,172.577L194.029,171.82L194.981,171.468L195.932,170.136L196.884,168.69L197.836,167.228L198.787,166.981L199.739,166.786L200.691,166.962L201.642,166.335L202.594,165.966L203.546,165.59L204.497,166.577L205.449,167.733L206.401,170.02L207.353,168.846L208.304,169.858L209.256,169.379L210.208,168.202L211.159,168.43L212.111,170.075L213.063,170.046L214.014,169.925L214.966,169.592L215.918,168.736L216.869,168.091L217.821,168.04L218.773,168.317L219.724,169.349L220.676,169.497L221.628,170.13L222.58,170.491L223.531,170.374L224.483,171.072L225.435,173.061L226.386,174.635L227.338,174.731L228.29,174.89L229.241,174.699L230.193,174.329L231.145,175.925L232.096,174.959L233.048,175.182L234,176.424L234.952,174.932L235.903,174.408L236.855,173.2L237.807,172.78L238.758,173.29L239.71,173.061L240.662,173.79L241.613,173.8L242.565,173.333L243.517,172.788L244.468,172.172L245.42,172.853L246.372,173.283L247.324,175.056L248.275,174.065L249.227,174.497L250.179,174.456L251.131,175.107L252.082,175.869L253.033,176.792L253.985,176.778L254.937,177.009L255.888,177.119L256.84,176.421L257.792,176.539L258.744,177.062L259.696,177.335L260.647,177.774L261.599,178.057L262.55,177.759L263.502,177.03L264.454,176.662L265.406,177.327L266.357,177.417L267.309,177.748L268.261,177.901L269.212,177.574L270.164,176.725L271.116,176.693L272.067,176.283L273.019,176.441L273.971,176.327L274.923,176.355L275.874,175.682L276.826,175.172L277.778,174.815L278.729,178.13L279.681,178.902L280.633,178.285L281.584,178.194L282.536,177.128L283.488,176.427L284.44,176.211L285.391,176.344L286.343,176.647L287.295,176.738L288.246,176.03L289.198,175.164L290.149,174.287L291.101,174.413L292.053,173.714L293.005,174.324L293.956,173.887L294.908,173.912L295.86,172.471L296.811,171.321L297.763,171.24L298.715,171.28L299.666,172.08L300.618,172.211L301.57,172.403L302.521,171.398L303.473,170.396L304.425,170.518L305.378,170.236L306.328,170.683L307.28,170.087L308.231,170.074L309.183,169.3L310.135,168.013L311.087,167.635L312.038,166.205L312.99,166.481L313.942,166.323L314.893,166.3L315.845,165.771L316.797,164.96L317.758,164.593L318.7,165.332L319.652,166.362L320.603,166.83L321.555,167.888L322.507,167.998L323.459,168.088L324.41,168.656L325.362,170.384L326.314,164.386L327.265,164.849L328.217,166.016L329.169,165.694L330.12,164.655L331.072,163.862L332.024,163.137L332.976,165.146L333.927,165.064L334.879,165.244L335.83,165.762L336.782,164.872L337.734,164.64L338.686,165.472L339.637,166.088L340.589,167.32L341.541,166.82L342.492,167.115L343.444,167.029L344.396,167.192L345.347,167.811L346.299,168.811L347.251,170.644L348.202,169.776L349.154,170.481L350.106,170.076L351.057,170.333L352.009,170.433L352.961,171.609L353.913,172.44L354.864,172.626L355.816,172.988L356.768,172.106L357.719,171.847L358.671,172.026L359.623,173.442L360.574,173.866L361.526,173.078L362.478,172.944L363.429,173.152L364.381,173.688L365.333,174.006L366.284,174.688L367.236,174.205L368.188,173.786L369.14,172.674L370.091,171.307L371.043,171.597L371.995,171.21L372.946,171.624L373.898,171.142L374.85,170.751L375.801,169.213L376.754,167.775L377.705,167.387L378.656,167.261L379.608,167.35L380.56,166.703L381.511,167.341L382.463,166.164L383.415,164.592L384.366,164.66L385.318,164.254L386.27,165.054L387.222,165.095L388.174,164.783L389.125,163.01L390.077,162.001L391.028,161.608L391.98,160.09L392.932,160.927L393.884,161.446L394.835,161.809L396.17,161.546L397.181,160.467L398.1,161.036L399.049,161.558L400,162.723" stroke="#4c78a8" stroke-width="2"/></g></g><path class="foreground" aria-hidden="true" d="" display="none"/></g><g transform="translate(0,0)"><path class="background" aria-hidden="true" d="M0,0h400v200h-400Z"/><g><g class="mark-line role-mark marks" role="graphics-object" aria-roledescription="line mark container"><path aria-label="Date de la recherche: September 2024; Nombre de trajets: 351801; variable: total" role="graphics-symbol" aria-roledescription="line mark" d="M0,43.644L0.836,43.23L1.788,43.532L2.74,43.471L3.692,43.523L4.643,42.888L5.596,42.975L6.547,43.715L7.498,43.55L8.45,43.967L9.402,43.883L10.353,43.916L11.305,43.705L12.257,43.343L13.208,45.168L14.16,47.57L15.112,49.451L16.063,50.78L17.015,51.056L17.967,51.055L18.919,50.496L19.87,50.482L20.822,50.263L21.773,50.547L22.725,50.55L23.677,50.929L24.629,51.131L25.58,50.923L26.532,51.584L27.484,51.856L28.435,52.263L29.387,52.39L30.346,52.759L31.29,52.836L32.242,52.374L33.194,53.093L34.145,53.62L35.098,53.032L36.049,52.105L37,52.092L37.952,52.091L38.906,51.462L39.856,51.622L40.807,41.063L41.759,40.994L42.711,38.53L43.662,35.785L44.616,33.752L45.566,31.452L46.517,31.196L47.469,31.976L48.423,32.224L49.373,32.1L50.325,32.214L51.276,43.381L52.227,42.648L53.179,31.545L54.131,31.141L55.083,31.16L56.034,30.515L56.986,30.687L57.938,30.67L58.889,41.943L59.841,41.649L60.793,29.061L61.744,29.416L62.696,28.902L63.649,29.519L64.6,29.164L65.552,28.757L66.503,28.1L67.455,27.722L68.407,26.185L69.358,25.875L70.31,25.729L71.261,25.856L72.213,25.331L73.165,37.198L74.116,25.074L75.068,25.668L76.02,25.804L76.971,25.909L77.923,26.032L78.875,25.492L79.826,25.271L80.778,25.142L81.73,25.764L82.681,26.482L83.633,26.828L84.585,27.121L85.536,26.415L86.488,25.957L87.44,26.279L88.392,27.016L89.343,27.544L90.295,27.983L91.247,28.387L92.198,27.747L93.15,27.414L94.102,27.669L95.053,28.387L96.005,28.939L96.957,29.468L97.908,29.973L98.86,29.508L99.812,29.126L100.764,29.288L101.716,30.003L102.667,30.398L103.619,30.824L104.57,31.144L105.522,30.97L106.474,41.714L107.425,30.252L108.377,30.988L109.329,31.619L110.28,31.958L111.232,32.143L112.184,31.707L113.135,31.087L114.087,31.152L115.039,31.917L115.99,32.222L116.942,32.403L117.894,32.294L118.846,31.743L119.797,31.524L120.749,31.784L121.701,32.277L122.652,32.624L123.604,32.712L124.556,32.796L125.507,32.445L126.459,31.822L127.411,31.126L128.362,31.789L129.314,32.685L130.266,33.031L131.218,33.212L132.169,32.773L133.121,33.388L134.073,33.592L135.024,34.164L135.976,35.362L136.928,35.763L137.879,35.899L138.831,35.315L139.783,35.592L140.735,36.133L141.686,36.764L142.638,37.632L143.59,37.992L144.541,38.217L145.493,48.657L146.445,49.276L147.396,49.164L148.348,49.493L149.3,49.746L150.251,49.778L151.203,38.859L152.155,38.161L153.106,37.686L154.058,37.108L155.01,37.387L155.961,37.632L156.913,37.878L157.865,37.688L158.817,36.921L159.768,36.403L160.72,35.921L161.672,36.056L162.623,35.163L163.575,34.855L164.527,34.686L165.478,33.996L166.43,34.483L167.382,35.695L168.333,36.783L169.285,36.296L170.237,35.908L171.188,35.731L172.14,34.88L173.092,34.631L174.043,34.328L174.995,34.329L175.947,33.922L176.899,33.396L177.85,33.329L178.802,33.858L179.754,34.476L180.705,35.666L181.657,36.248L182.609,37.45L183.56,37.177L184.512,37.877L185.464,37.17L186.415,38.661L187.367,39.278L188.319,39.69L189.27,40.057L190.222,40.341L191.174,40.363L192.125,39.966L193.077,40.384L194.029,40.357L194.981,40.606L195.932,39.799L196.884,38.261L197.836,37.851L198.787,37.399L199.739,37.4L200.691,37.352L201.642,37.876L202.594,38.551L203.546,38.273L204.497,38.913L205.449,40.323L206.401,42.092L207.353,42.238L208.304,41.801L209.256,41.309L210.208,41.427L211.159,41.43L212.111,40.981L213.063,41.689L214.014,42.137L214.966,40.74L215.918,38.877L216.869,38.676L217.821,38.774L218.773,38.256L219.724,39.166L220.676,39.717L221.628,40.268L222.58,39.847L223.531,39.945L224.483,40.043L225.435,39.415L226.386,39.523L227.338,39.268L228.29,39.68L229.241,39.566L230.193,39.679L231.145,39.789L232.096,39.682L233.048,40.502L234,40.502L234.952,38.96L235.903,37.599L236.855,49.079L237.807,48.936L238.758,47.866L239.71,35.477L240.662,34.581L241.613,34.1L242.565,32.722L243.517,30.764L244.468,29.522L245.42,28.472L246.372,27.45L247.324,26.752L248.275,26.195L249.227,24.508L250.179,23.186L251.131,22.453L252.082,21.27L253.033,20.594L253.985,19.795L254.937,19.459L255.888,18.917L256.84,18.407L257.792,17.611L258.744,15.996L259.696,14.744L260.647,13.67L261.599,13.268L262.55,11.688L263.502,10.401L264.454,9.68L265.406,8.634L266.357,7.666L267.309,6.733L268.261,6.447L269.212,6.648L270.164,6.913L271.116,7.142L272.067,6.778L273.019,6.423L273.971,6.221L274.923,6.697L275.874,6.961L276.826,6.967L277.778,6.828L278.729,6.909L279.681,6.72L280.633,6.489L281.584,6.91L282.536,7.019L283.488,7.102L284.44,7.276L285.391,7L286.343,6.7L287.295,6.562L288.246,7.013L289.198,7.419L290.149,7.774L291.101,8.004L292.053,7.824L293.005,7.632L293.956,7.624L294.908,8.608L295.86,9.588L296.811,10.514L297.763,23.998L298.715,24.18L299.666,24.671L300.618,12.251L301.57,13.22L302.521,14.339L303.473,15.249L304.425,15.966L305.378,16.04L306.328,16.588L307.28,17.289L308.231,18.311L309.183,19.453L310.135,20.548L311.087,21.367L312.038,21.895L312.99,22.307L313.942,22.592L314.893,23.508L315.845,24.434L316.797,25.478L317.758,26.376L318.7,26.459L319.652,26.994L320.603,27.342L321.555,28.512L322.507,29.606L323.459,30.551L324.41,30.946L325.362,30.848L326.314,30.833L327.265,30.717L328.217,31.369L329.169,31.672L330.12,32.168L331.072,32.468L332.024,32.252L332.976,32.707L333.927,32.744L334.879,33.391L335.83,33.776L336.782,34.194L337.734,34.264L338.686,33.874L339.637,33.784L340.589,33.23L341.541,33.629L342.492,33.935L343.444,34.376L344.396,34.532L345.347,33.903L346.299,33.763L347.251,33.499L348.202,34.137L349.154,34.408L350.106,34.85L351.057,34.911L352.009,34.408L352.961,34.312L353.913,33.871L354.864,34.43L355.816,34.635L356.768,34.972L357.719,35.029L358.671,34.567L359.623,34.906L360.574,35.273L361.526,36.404L362.478,36.064L363.429,36.193L364.381,36.184L365.333,35.46L366.284,35.25L367.236,34.94L368.188,35.736L369.14,35.958L370.091,36.317L371.043,36.487L371.995,36.016L372.946,36.638L373.898,36.584L374.85,37.003L375.801,37.092L376.754,37.367L377.705,37.441L378.656,36.927L379.608,36.857L380.56,36.367L381.511,36.565L382.463,36.544L383.415,36.812L384.366,36.737L385.318,36.034L386.27,36.394L387.222,36.221L388.174,36.347L389.125,35.854L390.077,35.315L391.028,34.461L391.98,33.782L392.932,33.904L393.884,33.897L394.835,34.39L396.17,34.251L397.181,34.461L398.1,34.308L399.049,33.611L400,32.839" stroke="#f58518" stroke-width="2"/></g></g><path class="foreground" aria-hidden="true" d="" display="none"/></g></g><g class="mark-group role-legend" role="graphics-symbol" aria-roledescription="legend" aria-label="Symbol legend for stroke color with 2 values: disponible, total"><g transform="translate(0,-29)"><path class="background" aria-hidden="true" d="M0,0h108v11h-108Z" pointer-events="none"/><g><g class="mark-group role-legend-entry"><g transform="translate(0,0)"><path class="background" aria-hidden="true" d="M0,0h0v0h0Z" pointer-events="none"/><g><g class="mark-group role-scope" role="graphics-object" aria-roledescription="group mark container"><g transform="translate(0,0)"><path class="background" aria-hidden="true" d="M0,0h61.0341796875v11h-61.0341796875Z" pointer-events="none" opacity="1"/><g><g class="mark-symbol role-legend-symbol" pointer-events="none"><path transform="translate(6,6)" d="M-5,0L5,0" stroke="#4c78a8" stroke-width="1.5" opacity="1"/></g><g class="mark-text role-legend-label" pointer-events="none"><text text-anchor="start" transform="translate(16,9)" font-family="sans-serif" font-size="10px" fill="#000" opacity="1">disponible</text></g></g><path class="foreground" aria-hidden="true" d="" pointer-events="none" display="none"/></g><g transform="translate(73,0)"><path class="background" aria-hidden="true" d="M0,0h34.9013671875v11h-34.9013671875Z" pointer-events="none" opacity="1"/><g><g class="mark-symbol role-legend-symbol" pointer-events="none"><path transform="translate(6,6)" d="M-5,0L5,0" stroke="#f58518" stroke-width="1.5" opacity="1"/></g><g class="mark-text role-legend-label" pointer-events="none"><text text-anchor="start" transform="translate(16,9)" font-family="sans-serif" font-size="10px" fill="#000" opacity="1">total</text></g></g><path class="foreground" aria-hidden="true" d="" pointer-events="none" display="none"/></g></g></g><path class="foreground" aria-hidden="true" d="" pointer-events="none" display="none"/></g></g></g><path class="foreground" aria-hidden="true" d="" pointer-events="none" display="none"/></g></g><g class="mark-group role-title"><g transform="translate(200,-46)"><path class="background" aria-hidden="true" d="M0,0h0v0h0Z" pointer-events="none"/><g><g class="mark-text role-title-text" role="graphics-symbol" aria-roledescription="title" aria-label="Title text 'Historique du nombre de trajets MAXJEUNE et au total, disponibles chaque jour'" pointer-events="none"><text text-anchor="middle" transform="translate(0,10)" font-family="sans-serif" font-size="13px" font-weight="bold" fill="#000" opacity="1">Historique du nombre de trajets MAXJEUNE et au total, disponibles chaque jour</text></g></g><path class="foreground" aria-hidden="true" d="" pointer-events="none" display="none"/></g></g></g><path class="foreground" aria-hidden="true" d="" display="none"/></g></g></g></svg>