<svg xmlns="http://www.w3.org/2000/svg" xmlns:xlink="http://www.w3.org/1999/xlink" version="1.1" class="marks" width="517" height="332" viewBox="0 0 517 332"><rect width="517" height="332" fill="white"/><g fill="none" stroke-miterlimit="10" transform="translate(64,51)"><g class="mark-group role-frame root" role="graphics-object" aria-roledescription="group mark container"><g transform="translate(0,0)"><path class="background" aria-hidden="true" d="M0.5,0.5h400v200h-400Z" stroke="#ddd"/><g><g class="mark-group role-axis" aria-hidden="true"><g transform="translate(0.5,200.5)"><path class="background" aria-hidden="true" d="M0,0h0v0h0Z" pointer-events="none"/><g><g class="mark-rule role-axis-grid" pointer-events="none"><line transform="translate(4,-200)" x2="0" y2="200" stroke="#ddd" stroke-width="1" opacity="1"/><line transform="translate(33,-200)" x2="0" y2="200" stroke="#ddd" stroke-width="1" opacity="1"/><line transform="translate(60,-200)" x2="0" y2="200" stroke="#ddd" stroke-width="1" opacity="1"/><line transform="translate(89,-200)" x2="0" y2="200" stroke="#ddd" stroke-width="1" opacity="1"/><line transform="translate(118,-200)" x2="0" y2="200" stroke="#ddd" stroke-width="1" opacity="1"/><line transform="translate(144,-200)" x2="0" y2="200" stroke="#ddd" stroke-width="1" opacity="1"/><line transform="translate(172,-200)" x2="0" y2="200" stroke="#ddd" stroke-width="1" opacity="1"/><line transform="translate(200,-200)" x2="0" y2="200" stroke="#ddd" stroke-width="1" opacity="1"/><line transform="translate(229,-200)" x2="0" y2="200" stroke="#ddd" stroke-width="1" opacity="1"/><line transform="translate(257,-200)" x2="0" y2="200" stroke="#ddd" stroke-width="1" opacity="1"/><line transform="translate(285,-200)" x2="0" y2="200" stroke="#ddd" stroke-width="1" opacity="1"/><line transform="translate(314,-200)" x2="0" y2="200" stroke="#ddd" stroke-width="1" opacity="1"/><line transform="translate(342,-200)" x2="0" y2="200" stroke="#ddd" stroke-width="1" opacity="1"/><line transform="translate(370,-200)" x2="0" y2="200" stroke="#ddd" stroke-width="1" opacity="1"/><line transform="translate(398,-200)" x2="0" y2="200" stroke="#ddd" stroke-width="1" opacity="1"/></g></g><path class="foreground" aria-hidden="true" d="" pointer-events="none" display="none"/></g></g><g class="mark-group role-axis" aria-hidden="true"><g transform="translate(0.5,0.5)"><path class="background" aria-hidden="true" d="M0,0h0v0h0Z" pointer-events="none"/><g><g class="mark-rule role-axis-grid" pointer-events="none"><line transform="translate(0,200)" x2="400" y2="0" stroke="#ddd" stroke-width="1" opacity="1"/><line transform="translate(0,156)" x2="400" y2="0" stroke="#ddd" stroke-width="1" opacity="1"/><line transform="translate(0,111)" x2="400" y2="0" stroke="#ddd" stroke-width="1" opacity="1"/><line transform="translate(0,67)" x2="400" y2="0" stroke="#ddd" stroke-width="1" opacity="1"/><line transform="translate(0,22)" x2="400" y2="0" stroke="#ddd" stroke-width="1" opacity="1"/></g></g><path class="foreground" aria-hidden="true" d="" pointer-events="none" display="none"/></g></g><g class="mark-group role-axis" role="graphics-symbol" aria-roledescription="axis" aria-label="X-axis titled 'Date de la recherche' for a time scale with values from September 2024 to December 2025"><g transform="translate(0.5,200.5)"><path class="background" aria-hidden="true" d="M0,0h0v0h0Z" pointer-events="none"/><g><g class="mark-rule role-axis-tick" pointer-events="none"><line transform="translate(4,0)" x2="0" y2="5" stroke="#888" stroke-width="1" opacity="1"/><line transform="translate(33,0)" x2="0" y2="5" stroke="#888" stroke-width="1" opacity="1"/><line transform="translate(60,0)" x2="0" y2="5" stroke="#888" stroke-width="1" opacity="1"/><line transform="translate(89,0)" x2="0" y2="5" stroke="#888" stroke-width="1" opacity="1"/><line transform="translate(118,0)" x2="0" y2="5" stroke="#888" stroke-width="1" opacity="1"/><line transform="translate(144,0)" x2="0" y2="5" stroke="#888" stroke-width="1" opacity="1"/><line transform="translate(172,0)" x2="0" y2="5" stroke="#888" stroke-width="1" opacity="1"/><line transform="translate(200,0)" x2="0" y2="5" stroke="#888" stroke-width="1" opacity="1"/><line transform="translate(229,0)" x2="0" y2="5" stroke="#888" stroke-width="1" opacity="1"/><line transform="translate(257,0)" x2="0" y2="5" stroke="#888" stroke-width="1" opacity="1"/><line transform="translate(285,0)" x2="0" y2="5" stroke="#888" stroke-width="1" opacity="1"/><line transform="translate(314,0)" x2="0" y2="5" stroke="#888" stroke-width="1" opacity="1"/><line transform="translate(342,0)" x2="0" y2="5" stroke="#888" stroke-width="1" opacity="1"/><line transform="translate(370,0)" x2="0" y2="5" stroke="#888" stroke-width="1" opacity="1"/><line transform="translate(398,0)" x2="0" y2="5" stroke="#888" stroke-width="1" opacity="1"/></g><g class="mark-text role-axis-label" pointer-events="none"><text text-anchor="start" transform="translate(4.041404088883179,7) rotate(45) translate(0,8)" font-family="sans-serif" font-size="10px" fill="#000" opacity="1">October 2024</text><text text-anchor="start" transform="translate(32.72476143432292,7) rotate(45) translate(0,8)" font-family="sans-serif" font-size="10px" fill="#000" opacity="0">November 2024</text><text text-anchor="start" transform="translate(60.482849187974296,7) rotate(45) translate(0,8)" font-family="sans-serif" font-size="10px" fill="#000" opacity="0">December 2024</text><text text-anchor="start" transform="translate(89.16620653341404,7) rotate(45) translate(0,8)" font-family="sans-serif" font-size="10px" fill="#000" opacity="0">January 2025</text><text text-anchor="start" transform="translate(117.84956387885379,7) rotate(45) translate(0,8)" font-family="sans-serif" font-size="10px" fill="#000" opacity="1">February 2025</text><text text-anchor="start" transform="translate(143.75711244892838,7) rotate(45) translate(0,8)" font-family="sans-serif" font-size="10px" fill="#000" opacity="0">March 2025</text><text text-anchor="start" transform="translate(172.44046979436817,7) rotate(45) translate(0,8)" font-family="sans-serif" font-size="10px" fill="#000" opacity="0">April 2025</text><text text-anchor="start" transform="translate(200.1985575480195,7) rotate(45) translate(0,8)" font-family="sans-serif" font-size="10px" fill="#000" opacity="0">May 2025</text><text text-anchor="start" transform="translate(228.88191489345928,7) rotate(45) translate(0,8)" font-family="sans-serif" font-size="10px" fill="#000" opacity="1">June 2025</text><text text-anchor="start" transform="translate(256.64000264711063,7) rotate(45) translate(0,8)" font-family="sans-serif" font-size="10px" fill="#000" opacity="0">July 2025</text><text text-anchor="start" transform="translate(285.32335999255037,7) rotate(45) translate(0,8)" font-family="sans-serif" font-size="10px" fill="#000" opacity="0">August 2025</text><text text-anchor="start" transform="translate(314.00671733799015,7) rotate(45) translate(0,8)" font-family="sans-serif" font-size="10px" fill="#000" opacity="0">September 2025</text><text text-anchor="start" transform="translate(341.7648050916415,7) rotate(45) translate(0,8)" font-family="sans-serif" font-size="10px" fill="#000" opacity="1">October 2025</text><text text-anchor="start" transform="translate(370.44816243708124,7) rotate(45) translate(0,8)" font-family="sans-serif" font-size="10px" fill="#000" opacity="0">November 2025</text><text text-anchor="start" transform="translate(398.2062501907326,7) rotate(45) translate(0,8)" font-family="sans-serif" font-size="10px" fill="#000" opacity="0">December 2025</text></g><g class="mark-rule role-axis-domain" pointer-events="none"><line transform="translate(0,0)" x2="400" y2="0" stroke="#888" stroke-width="1" opacity="1"/></g><g class="mark-text role-axis-title" pointer-events="none"><text text-anchor="middle" transform="translate(200,73.06062994763117)" font-family="sans-serif" font-size="11px" font-weight="bold" fill="#000" opacity="1">Date de la recherche</text></g></g><path class="foreground" aria-hidden="true" d="" pointer-events="none" display="none"/></g></g><g class="mark-group role-axis" role="graphics-symbol" aria-roledescription="axis" aria-label="Y-axis titled 'Nombre de trajets' for a linear scale with values from 0 to 450,000"><g transform="translate(0.5,0.5)"><path class="background" aria-hidden="true" d="M0,0h0v0h0Z" pointer-events="none"/><g><g class="mark-rule role-axis-tick" pointer-events="none"><line transform="translate(0,200)" x2="-5" y2="0" stroke="#888" stroke-width="1" opacity="1"/><line transform="translate(0,156)" x2="-5" y2="0" stroke="#888" stroke-width="1" opacity="1"/><line transform="translate(0,111)" x2="-5" y2="0" stroke="#888" stroke-width="1" opacity="1"/><line transform="translate(0,67)" x2="-5" y2="0" stroke="#888" stroke-width="1" opacity="1"/><line transform="translate(0,22)" x2="-5" y2="0" stroke="#888" stroke-width="1" opacity="1"/></g><g class="mark-text role-axis-label" pointer-events="none"><text text-anchor="end" transform="translate(-7,203)" font-family="sans-serif" font-size="10px" fill="#000" opacity="1">0</text><text text-anchor="end" transform="translate(-7,158.55555555555557)" font-family="sans-serif" font-size="10px" fill="#000" opacity="1">100,000</text><text text-anchor="end" transform="translate(-7,114.11111111111111)" font-family="sans-serif" font-size="10px" fill="#000" opacity="1">200,000</text><text text-anchor="end" transform="translate(-7,69.66666666666667)" font-family="sans-serif" font-size="10px" fill="#000" opacity="1">300,000</text><text text-anchor="end" transform="translate(-7,25.222222222222232)" font-family="sans-serif" font-size="10px" fill="#000" opacity="1">400,000</text></g><g class="mark-rule role-axis-domain" pointer-events="none"><line transform="translate(0,200)" x2="0" y2="-200" stroke="#888" stroke-width="1" opacity="1"/></g><g class="mark-text role-axis-title" pointer-events="none"><text text-anchor="middle" transform="translate(-47.1474609375,100) rotate(-90) translate(0,-2)" font-family="sans-serif" font-size="11px" font-weight="bold" fill="#000" opacity="1">Nombre de trajets</text></g></g><path class="foreground" aria-hidden="true" d="" pointer-events="none" display="none"/></g></g><g class="mark-group role-scope pathgroup" role="graphics-object" aria-roledescription="group mark container"><g transform="translate(0,0)"><path class="background" aria-hidden="true" d="M0,0h400v200h-400Z"/><g><g class="mark-line role-mark marks" role="graphics-object" aria-roledescription="line mark container"><path aria-label="Date de la recherche: September 2024; Nombre de trajets: 91488; variable: disponible" role="graphics-symbol" aria-roledescription="line mark" d="M0,159.339L0.813,160.009L1.738,160.25L2.664,159.721L3.589,159.224L4.514,160.066L5.44,161.226L6.365,162.729L7.29,163.599L8.215,164.927L9.141,164.272L10.066,163.069L10.991,163.83L11.916,166.394L12.842,165.123L13.767,166.305L14.692,167.015L15.618,167.638L16.543,167.648L17.468,168.931L18.393,169.444L19.319,170.203L20.244,170.474L21.169,170.704L22.094,168.872L23.02,167.766L23.945,168.451L24.87,167.16L25.796,168.696L26.721,166.936L27.646,167.617L28.571,164.943L29.503,163.236L30.422,165.275L31.347,163.601L32.272,165.017L33.198,163.38L34.123,162.688L35.048,161.357L35.973,159.746L36.899,159.755L37.826,159.142L38.749,161.116L39.675,160.392L40.6,160.483L41.525,158.316L42.45,156.748L43.377,154.82L44.301,155.253L45.226,154.239L46.151,154.859L47.079,156.557L48.002,155.787L48.928,155.331L49.852,156.853L50.778,157.538L51.703,158.599L52.628,159.242L53.554,159.566L54.479,159.835L55.404,159.906L56.329,161.397L57.255,162.616L58.18,164.062L59.105,165.294L60.03,166.184L60.956,166.252L61.882,166.133L62.806,167.211L63.732,167.551L64.657,168.202L65.582,168.182L66.508,168.864L67.433,168.023L68.358,166.956L69.283,166.728L70.208,166.308L71.134,166.35L72.059,164.781L72.984,165.02L73.909,163.984L74.835,162.302L75.76,162.622L76.685,161.783L77.61,161.712L78.536,159.731L79.461,159.145L80.386,157.033L81.312,155.203L82.237,153.702L83.162,149.882L84.087,149.315L85.013,147.688L85.938,147.022L86.863,145.158L87.788,143.235L88.714,141.419L89.639,139.417L90.564,139.184L91.489,141.537L92.415,142.381L93.34,139.298L94.265,137.729L95.191,138.287L96.116,138.306L97.041,139.025L97.967,139.891L98.892,141.793L99.817,142.216L100.742,142.23L101.667,143.622L102.593,144.212L103.518,146.113L104.443,147.762L105.369,148.816L106.294,149.653L107.219,149.103L108.144,149.572L109.07,151.036L109.995,152.019L110.92,154.556L111.845,155.987L112.771,156.427L113.696,155.749L114.621,156.068L115.546,156.588L116.472,157.142L117.397,158.761L118.322,159.033L119.248,159.104L120.173,158.219L121.098,158.195L122.023,158.685L122.949,160.639L123.874,161.217L124.799,162.238L125.724,161.805L126.65,161.569L127.575,162.052L128.5,162.612L129.426,163.765L130.351,164.016L131.276,164.144L132.201,163.397L133.127,162.463L134.052,162.635L134.977,160.836L135.902,162.052L136.828,161.876L137.753,162.061L138.678,159.33L139.604,157.85L140.529,157.162L141.454,156.173L142.379,157.449L143.305,157.287L144.23,157.682L145.155,156.434L146.08,155.299L147.006,155.873L147.931,156.232L148.856,158.153L149.781,157.316L150.707,158.821L151.632,157.497L152.557,156.43L153.483,156.36L154.408,156.624L155.333,157.757L156.258,159.565L157.184,159.94L158.109,160.216L159.034,159.533L159.959,159.946L160.885,160.72L161.81,162.035L162.735,162.685L163.661,163.619L164.586,164.437L165.511,164.308L166.436,164.997L167.362,165.332L168.287,166.06L169.212,166.832L170.137,167.163L171.063,167.356L171.988,166.756L172.913,168.562L173.838,168.524L174.764,169.668L175.689,169.96L176.614,170.583L177.539,169.531L178.465,169.106L179.39,170.336L180.315,171.222L181.241,172.901L182.166,173.898L183.091,173.981L184.016,173.399L184.942,172.256L185.867,172.224L186.792,172.383L187.717,172.577L188.643,171.82L189.568,171.468L190.493,170.136L191.419,168.69L192.344,167.228L193.269,166.981L194.194,166.786L195.12,166.962L196.045,166.335L196.97,165.966L197.895,165.59L198.821,166.577L199.746,167.733L200.671,170.02L201.597,168.846L202.522,169.858L203.447,169.379L204.372,168.202L205.298,168.43L206.223,170.075L207.148,170.046L208.073,169.925L208.999,169.592L209.924,168.736L210.849,168.091L211.774,168.04L212.7,168.317L213.625,169.349L214.55,169.497L215.475,170.13L216.401,170.491L217.326,170.374L218.251,171.072L219.177,173.061L220.102,174.635L221.027,174.731L221.952,174.89L222.878,174.699L223.803,174.329L224.728,175.925L225.654,174.959L226.579,175.182L227.504,176.424L228.429,174.932L229.355,174.408L230.28,173.2L231.205,172.78L232.13,173.29L233.056,173.061L233.981,173.79L234.906,173.8L235.832,173.333L236.757,172.788L237.682,172.172L238.607,172.853L239.533,173.283L240.458,175.056L241.383,174.065L242.309,174.497L243.234,174.456L244.159,175.107L245.084,175.869L246.009,176.792L246.935,176.778L247.86,177.009L248.785,177.119L249.71,176.421L250.636,176.539L251.561,177.062L252.487,177.335L253.412,177.774L254.337,178.057L255.262,177.759L256.188,177.03L257.113,176.662L258.038,177.327L258.963,177.417L259.889,177.748L260.814,177.901L261.739,177.574L262.664,176.725L263.59,176.693L264.515,176.283L265.44,176.441L266.366,176.327L267.291,176.355L268.216,175.682L269.141,175.172L270.067,174.815L270.992,178.13L271.917,178.902L272.842,178.285L273.767,178.194L274.693,177.128L275.618,176.427L276.544,176.211L277.469,176.344L278.394,176.647L279.32,176.738L280.244,176.03L281.17,175.164L282.095,174.287L283.02,174.413L283.946,173.714L284.871,174.324L285.796,173.887L286.721,173.912L287.647,172.471L288.572,171.321L289.497,171.24L290.423,171.28L291.348,172.08L292.273,172.211L293.198,172.403L294.123,171.398L295.049,170.396L295.974,170.518L296.901,170.236L297.825,170.683L298.75,170.087L299.675,170.074L300.6,169.3L301.526,168.013L302.451,167.635L303.376,166.205L304.302,166.481L305.227,166.323L306.152,166.3L307.077,165.771L308.003,164.96L308.938,164.593L309.853,165.332L310.778,166.362L311.704,166.83L312.629,167.888L313.554,167.998L314.48,168.088L315.405,168.656L316.33,170.384L317.255,164.386L318.181,164.849L319.106,166.016L320.031,165.694L320.956,164.655L321.882,163.862L322.807,163.137L323.732,165.146L324.657,165.064L325.583,165.244L326.508,165.762L327.433,164.872L328.358,164.64L329.284,165.472L330.209,166.088L331.134,167.32L332.06,166.82L332.985,167.115L333.91,167.029L334.835,167.192L335.761,167.811L336.686,168.811L337.611,170.644L338.536,169.776L339.462,170.481L340.387,170.076L341.312,170.333L342.238,170.433L343.163,171.609L344.088,172.44L345.013,172.626L345.939,172.988L346.864,172.106L347.789,171.847L348.715,172.026L349.64,173.442L350.565,173.866L351.49,173.078L352.415,172.944L353.341,173.152L354.266,173.688L355.191,174.006L356.117,174.688L357.042,174.205L357.967,173.786L358.893,172.674L359.818,171.307L360.743,171.597L361.668,171.21L362.593,171.624L363.519,171.142L364.444,170.751L365.369,169.213L366.296,167.775L367.22,167.387L368.145,167.261L369.07,167.35L369.996,166.703L370.921,167.341L371.846,166.164L372.771,164.592L373.697,164.66L374.622,164.254L375.547,165.054L376.472,165.095L377.398,164.783L378.323,163.01L379.248,162.001L380.173,161.608L381.099,160.09L382.024,160.927L382.95,161.446L383.875,161.809L385.172,161.546L386.155,160.467L387.049,161.036L387.972,161.558L388.896,162.723L389.426,163.683L390.352,163.763L391.277,163.474L392.202,163.335L393.127,163.94L394.053,164.694L394.978,165.922L396.322,167.04L397.224,167.981L398.15,168.795L399.076,168.795L400,169.349" stroke="#4c78a8" stroke-width="2"/></g></g><path class="foreground" aria-hidden="true" d="" display="none"/></g><g transform="translate(0,0)"><path class="background" aria-hidden="true" d="M0,0h400v200h-400Z"/><g><g class="mark-line role-mark marks" role="graphics-object" aria-roledescription="line mark container"><path aria-label="Date de la recherche: September 2024; Nombre de trajets: 351801; variable: total" role="graphics-symbol" aria-roledescription="line mark" d="M0,43.644L0.813,43.23L1.738,43.532L2.664,43.471L3.589,43.523L4.514,42.888L5.44,42.975L6.365,43.715L7.29,43.55L8.215,43.967L9.141,43.883L10.066,43.916L10.991,43.705L11.916,43.343L12.842,45.168L13.767,47.57L14.692,49.451L15.618,50.78L16.543,51.056L17.468,51.055L18.393,50.496L19.319,50.482L20.244,50.263L21.169,50.547L22.094,50.55L23.02,50.929L23.945,51.131L24.87,50.923L25.796,51.584L26.721,51.856L27.646,52.263L28.571,52.39L29.503,52.759L30.422,52.836L31.347,52.374L32.272,53.093L33.198,53.62L34.123,53.032L35.048,52.105L35.973,52.092L36.899,52.091L37.826,51.462L38.749,51.622L39.675,41.063L40.6,40.994L41.525,38.53L42.45,35.785L43.377,33.752L44.301,31.452L45.226,31.196L46.151,31.976L47.079,32.224L48.002,32.1L48.928,32.214L49.852,43.381L50.778,42.648L51.703,31.545L52.628,31.141L53.554,31.16L54.479,30.515L55.404,30.687L56.329,30.67L57.255,41.943L58.18,41.649L59.105,29.061L60.03,29.416L60.956,28.902L61.882,29.519L62.806,29.164L63.732,28.757L64.657,28.1L65.582,27.722L66.508,26.185L67.433,25.875L68.358,25.729L69.283,25.856L70.208,25.331L71.134,37.198L72.059,25.074L72.984,25.668L73.909,25.804L74.835,25.909L75.76,26.032L76.685,25.492L77.61,25.271L78.536,25.142L79.461,25.764L80.386,26.482L81.312,26.828L82.237,27.121L83.162,26.415L84.087,25.957L85.013,26.279L85.938,27.016L86.863,27.544L87.788,27.983L88.714,28.387L89.639,27.747L90.564,27.414L91.489,27.669L92.415,28.387L93.34,28.939L94.265,29.468L95.191,29.973L96.116,29.508L97.041,29.126L97.967,29.288L98.892,30.003L99.817,30.398L100.742,30.824L101.667,31.144L102.593,30.97L103.518,41.714L104.443,30.252L105.369,30.988L106.294,31.619L107.219,31.958L108.144,32.143L109.07,31.707L109.995,31.087L110.92,31.152L111.845,31.917L112.771,32.222L113.696,32.403L114.621,32.294L115.546,31.743L116.472,31.524L117.397,31.784L118.322,32.277L119.248,32.624L120.173,32.712L121.098,32.796L122.023,32.445L122.949,31.822L123.874,31.126L124.799,31.789L125.724,32.685L126.65,33.031L127.575,33.212L128.5,32.773L129.426,33.388L130.351,33.592L131.276,34.164L132.201,35.362L133.127,35.763L134.052,35.899L134.977,35.315L135.902,35.592L136.828,36.133L137.753,36.764L138.678,37.632L139.604,37.992L140.529,38.217L141.454,48.657L142.379,49.276L143.305,49.164L144.23,49.493L145.155,49.746L146.08,49.778L147.006,38.859L147.931,38.161L148.856,37.686L149.781,37.108L150.707,37.387L151.632,37.632L152.557,37.878L153.483,37.688L154.408,36.921L155.333,36.403L156.258,35.921L157.184,36.056L158.109,35.163L159.034,34.855L159.959,34.686L160.885,33.996L161.81,34.483L162.735,35.695L163.661,36.783L164.586,36.296L165.511,35.908L166.436,35.731L167.362,34.88L168.287,34.631L169.212,34.328L170.137,34.329L171.063,33.922L171.988,33.396L172.913,33.329L173.838,33.858L174.764,34.476L175.689,35.666L176.614,36.248L177.539,37.45L178.465,37.177L179.39,37.877L180.315,37.17L181.241,38.661L182.166,39.278L183.091,39.69L184.016,40.057L184.942,40.341L185.867,40.363L186.792,39.966L187.717,40.384L188.643,40.357L189.568,40.606L190.493,39.799L191.419,38.261L192.344,37.851L193.269,37.399L194.194,37.4L195.12,37.352L196.045,37.876L196.97,38.551L197.895,38.273L198.821,38.913L199.746,40.323L200.671,42.092L201.597,42.238L202.522,41.801L203.447,41.309L204.372,41.427L205.298,41.43L206.223,40.981L207.148,41.689L208.073,42.137L208.999,40.74L209.924,38.877L210.849,38.676L211.774,38.774L212.7,38.256L213.625,39.166L214.55,39.717L215.475,40.268L216.401,39.847L217.326,39.945L218.251,40.043L219.177,39.415L220.102,39.523L221.027,39.268L221.952,39.68L222.878,39.566L223.803,39.679L224.728,39.789L225.654,39.682L226.579,40.502L227.504,40.502L228.429,38.96L229.355,37.599L230.28,49.079L231.205,48.936L232.13,47.866L233.056,35.477L233.981,34.581L234.906,34.1L235.832,32.722L236.757,30.764L237.682,29.522L238.607,28.472L239.533,27.45L240.458,26.752L241.383,26.195L242.309,24.508L243.234,23.186L244.159,22.453L245.084,21.27L246.009,20.594L246.935,19.795L247.86,19.459L248.785,18.917L249.71,18.407L250.636,17.611L251.561,15.996L252.487,14.744L253.412,13.67L254.337,13.268L255.262,11.688L256.188,10.401L257.113,9.68L258.038,8.634L258.963,7.666L259.889,6.733L260.814,6.447L261.739,6.648L262.664,6.913L263.59,7.142L264.515,6.778L265.44,6.423L266.366,6.221L267.291,6.697L268.216,6.961L269.141,6.967L270.067,6.828L270.992,6.909L271.917,6.72L272.842,6.489L273.767,6.91L274.693,7.019L275.618,7.102L276.544,7.276L277.469,7L278.394,6.7L279.32,6.562L280.244,7.013L281.17,7.419L282.095,7.774L283.02,8.004L283.946,7.824L284.871,7.632L285.796,7.624L286.721,8.608L287.647,9.588L288.572,10.514L289.497,23.998L290.423,24.18L291.348,24.671L292.273,12.251L293.198,13.22L294.123,14.339L295.049,15.249L295.974,15.966L296.901,16.04L297.825,16.588L298.75,17.289L299.675,18.311L300.6,19.453L301.526,20.548L302.451,21.367L303.376,21.895L304.302,22.307L305.227,22.592L306.152,23.508L307.077,24.434L308.003,25.478L308.938,26.376L309.853,26.459L310.778,26.994L311.704,27.342L312.629,28.512L313.554,29.606L314.48,30.551L315.405,30.946L316.33,30.848L317.255,30.833L318.181,30.717L319.106,31.369L320.031,31.672L320.956,32.168L321.882,32.468L322.807,32.252L323.732,32.707L324.657,32.744L325.583,33.391L326.508,33.776L327.433,34.194L328.358,34.264L329.284,33.874L330.209,33.784L331.134,33.23L332.06,33.629L332.985,33.935L333.91,34.376L334.835,34.532L335.761,33.903L336.686,33.763L337.611,33.499L338.536,34.137L339.462,34.408L340.387,34.85L341.312,34.911L342.238,34.408L343.163,34.312L344.088,33.871L345.013,34.43L345.939,34.635L346.864,34.972L347.789,35.029L348.715,34.567L349.64,34.906L350.565,35.273L351.49,36.404L352.415,36.064L353.341,36.193L354.266,36.184L355.191,35.46L356.117,35.25L357.042,34.94L357.967,35.736L358.893,35.958L359.818,36.317L360.743,36.487L361.668,36.016L362.593,36.638L363.519,36.584L364.444,37.003L365.369,37.092L366.296,37.367L367.22,37.441L368.145,36.927L369.07,36.857L369.996,36.367L370.921,36.565L371.846,36.544L372.771,36.812L373.697,36.737L374.622,36.034L375.547,36.394L376.472,36.221L377.398,36.347L378.323,35.854L379.248,35.315L380.173,34.461L381.099,33.782L382.024,33.904L382.95,33.897L383.875,34.39L385.172,34.251L386.155,34.461L387.049,34.308L387.972,33.611L388.896,32.839L389.426,32.159L390.352,32.164L391.277,31.195L392.202,31.053L393.127,31.379L394.053,30.967L394.978,30.417L396.322,29.717L397.224,27.828L398.15,26.715L399.076,26.84L400,39.755" stroke="#f58518" stroke-width="2"/></g></g><path class="foreground" aria-hidden="true" d="" display="none"/></g></g><g class="mark-group role-legend" role="graphics-symbol" aria-roledescription="legend" aria-label="Symbol legend for stroke color with 2 values: disponible, total"><g transform="translate(0,-29)"><path class="background" aria-hidden="true" d="M0,0h108v11h-108Z" pointer-events="none"/><g><g class="mark-group role-legend-entry"><g transform="translate(0,0)"><path class="background" aria-hidden="true" d="M0,0h0v0h0Z" pointer-events="none"/><g><g class="mark-group role-scope" role="graphics-object" aria-roledescription="group mark container"><g transform="translate(0,0)"><path class="background" aria-hidden="true" d="M0,0h61.0341796875v11h-61.0341796875Z" pointer-events="none" opacity="1"/><g><g class="mark-symbol role-legend-symbol" pointer-events="none"><path transform="translate(6,6)" d="M-5,0L5,0" stroke="#4c78a8" stroke-width="1.5" opacity="1"/></g><g class="mark-text role-legend-label" pointer-events="none"><text text-anchor="start" transform="translate(16,9)" font-family="sans-serif" font-size="10px" fill="#000" opacity="1">disponible</text></g></g><path class="foreground" aria-hidden="true" d="" pointer-events="none" display="none"/></g><g transform="translate(73,0)"><path class="background" aria-hidden="true" d="M0,0h34.9013671875v11h-34.9013671875Z" pointer-events="none" opacity="1"/><g><g class="mark-symbol role-legend-symbol" pointer-events="none"><path transform="translate(6,6)" d="M-5,0L5,0" stroke="#f58518" stroke-width="1.5" opacity="1"/></g><g class="mark-text role-legend-label" pointer-events="none"><text text-anchor="start" transform="translate(16,9)" font-family="sans-serif" font-size="10px" fill="#000" opacity="1">total</text></g></g><path class="foreground" aria-hidden="true" d="" pointer-events="none" display="none"/></g></g></g><path class="foreground" aria-hidden="true" d="" pointer-events="none" display="none"/></g></g></g><path class="foreground" aria-hidden="true" d="" pointer-events="none" display="none"/></g></g><g class="mark-group role-title"><g transform="translate(200,-46)"><path class="background" aria-hidden="true" d="M0,0h0v0h0Z" pointer-events="none"/><g><g class="mark-text role-title-text" role="graphics-symbol" aria-roledescription="title" aria-label="Title text 'Historique du nombre de trajets MAXJEUNE et au total, disponibles chaque jour'" pointer-events="none"><text text-anchor="middle" transform="translate(0,10)" font-family="sans-serif" font-size="13px" font-weight="bold" fill="#000" opacity="1">Historique du nombre de trajets MAXJEUNE et au total, disponibles chaque jour</text></g></g><path class="foreground" aria-hidden="true" d="" pointer-events="none" display="none"/></g></g></g><path class="foreground" aria-hidden="true" d="" display="none"/></g></g></g></svg>