<svg xmlns="http://www.w3.org/2000/svg" xmlns:xlink="http://www.w3.org/1999/xlink" version="1.1" class="marks" width="517" height="336" viewBox="0 0 517 336"><rect width="517" height="336" fill="white"/><g fill="none" stroke-miterlimit="10" transform="translate(64,51)"><g class="mark-group role-frame root" role="graphics-object" aria-roledescription="group mark container"><g transform="translate(0,0)"><path class="background" aria-hidden="true" d="M0.5,0.5h400v200h-400Z" stroke="#ddd"/><g><g class="mark-group role-axis" aria-hidden="true"><g transform="translate(0.5,200.5)"><path class="background" aria-hidden="true" d="M0,0h0v0h0Z" pointer-events="none"/><g><g class="mark-rule role-axis-grid" pointer-events="none"><line transform="translate(4,-200)" x2="0" y2="200" stroke="#ddd" stroke-width="1" opacity="1"/><line transform="translate(34,-200)" x2="0" y2="200" stroke="#ddd" stroke-width="1" opacity="1"/><line transform="translate(63,-200)" x2="0" y2="200" stroke="#ddd" stroke-width="1" opacity="1"/><line transform="translate(93,-200)" x2="0" y2="200" stroke="#ddd" stroke-width="1" opacity="1"/><line transform="translate(122,-200)" x2="0" y2="200" stroke="#ddd" stroke-width="1" opacity="1"/><line transform="translate(149,-200)" x2="0" y2="200" stroke="#ddd" stroke-width="1" opacity="1"/><line transform="translate(179,-200)" x2="0" y2="200" stroke="#ddd" stroke-width="1" opacity="1"/><line transform="translate(208,-200)" x2="0" y2="200" stroke="#ddd" stroke-width="1" opacity="1"/><line transform="translate(238,-200)" x2="0" y2="200" stroke="#ddd" stroke-width="1" opacity="1"/><line transform="translate(266,-200)" x2="0" y2="200" stroke="#ddd" stroke-width="1" opacity="1"/><line transform="translate(296,-200)" x2="0" y2="200" stroke="#ddd" stroke-width="1" opacity="1"/><line transform="translate(326,-200)" x2="0" y2="200" stroke="#ddd" stroke-width="1" opacity="1"/><line transform="translate(355,-200)" x2="0" y2="200" stroke="#ddd" stroke-width="1" opacity="1"/><line transform="translate(385,-200)" x2="0" y2="200" stroke="#ddd" stroke-width="1" opacity="1"/></g></g><path class="foreground" aria-hidden="true" d="" pointer-events="none" display="none"/></g></g><g class="mark-group role-axis" aria-hidden="true"><g transform="translate(0.5,0.5)"><path class="background" aria-hidden="true" d="M0,0h0v0h0Z" pointer-events="none"/><g><g class="mark-rule role-axis-grid" pointer-events="none"><line transform="translate(0,200)" x2="400" y2="0" stroke="#ddd" stroke-width="1" opacity="1"/><line transform="translate(0,156)" x2="400" y2="0" stroke="#ddd" stroke-width="1" opacity="1"/><line transform="translate(0,111)" x2="400" y2="0" stroke="#ddd" stroke-width="1" opacity="1"/><line transform="translate(0,67)" x2="400" y2="0" stroke="#ddd" stroke-width="1" opacity="1"/><line transform="translate(0,22)" x2="400" y2="0" stroke="#ddd" stroke-width="1" opacity="1"/></g></g><path class="foreground" aria-hidden="true" d="" pointer-events="none" display="none"/></g></g><g class="mark-group role-axis" role="graphics-symbol" aria-roledescription="axis" aria-label="X-axis titled 'Date de la recherche' for a time scale with values from September 2024 to November 2025"><g transform="translate(0.5,200.5)"><path class="background" aria-hidden="true" d="M0,0h0v0h0Z" pointer-events="none"/><g><g class="mark-rule role-axis-tick" pointer-events="none"><line transform="translate(4,0)" x2="0" y2="5" stroke="#888" stroke-width="1" opacity="1"/><line transform="translate(34,0)" x2="0" y2="5" stroke="#888" stroke-width="1" opacity="1"/><line transform="translate(63,0)" x2="0" y2="5" stroke="#888" stroke-width="1" opacity="1"/><line transform="translate(93,0)" x2="0" y2="5" stroke="#888" stroke-width="1" opacity="1"/><line transform="translate(122,0)" x2="0" y2="5" stroke="#888" stroke-width="1" opacity="1"/><line transform="translate(149,0)" x2="0" y2="5" stroke="#888" stroke-width="1" opacity="1"/><line transform="translate(179,0)" x2="0" y2="5" stroke="#888" stroke-width="1" opacity="1"/><line transform="translate(208,0)" x2="0" y2="5" stroke="#888" stroke-width="1" opacity="1"/><line transform="translate(238,0)" x2="0" y2="5" stroke="#888" stroke-width="1" opacity="1"/><line transform="translate(266,0)" x2="0" y2="5" stroke="#888" stroke-width="1" opacity="1"/><line transform="translate(296,0)" x2="0" y2="5" stroke="#888" stroke-width="1" opacity="1"/><line transform="translate(326,0)" x2="0" y2="5" stroke="#888" stroke-width="1" opacity="1"/><line transform="translate(355,0)" x2="0" y2="5" stroke="#888" stroke-width="1" opacity="1"/><line transform="translate(385,0)" x2="0" y2="5" stroke="#888" stroke-width="1" opacity="1"/></g><g class="mark-text role-axis-label" pointer-events="none"><text text-anchor="start" transform="translate(4.19656546734244,7) rotate(45) translate(0,8)" font-family="sans-serif" font-size="10px" fill="#000" opacity="1">October 2024</text><text text-anchor="start" transform="translate(34.02119424481131,7) rotate(45) translate(0,8)" font-family="sans-serif" font-size="10px" fill="#000" opacity="0">November 2024</text><text text-anchor="start" transform="translate(62.8449965532376,7) rotate(45) translate(0,8)" font-family="sans-serif" font-size="10px" fill="#000" opacity="1">December 2024</text><text text-anchor="start" transform="translate(92.62959227194476,7) rotate(45) translate(0,8)" font-family="sans-serif" font-size="10px" fill="#000" opacity="0">January 2025</text><text text-anchor="start" transform="translate(122.41418799065194,7) rotate(45) translate(0,8)" font-family="sans-serif" font-size="10px" fill="#000" opacity="1">February 2025</text><text text-anchor="start" transform="translate(149.31640347851646,7) rotate(45) translate(0,8)" font-family="sans-serif" font-size="10px" fill="#000" opacity="0">March 2025</text><text text-anchor="start" transform="translate(179.06096613846194,7) rotate(45) translate(0,8)" font-family="sans-serif" font-size="10px" fill="#000" opacity="1">April 2025</text><text text-anchor="start" transform="translate(207.88476844688822,7) rotate(45) translate(0,8)" font-family="sans-serif" font-size="10px" fill="#000" opacity="0">May 2025</text><text text-anchor="start" transform="translate(237.66936416559537,7) rotate(45) translate(0,8)" font-family="sans-serif" font-size="10px" fill="#000" opacity="1">June 2025</text><text text-anchor="start" transform="translate(266.4931664740217,7) rotate(45) translate(0,8)" font-family="sans-serif" font-size="10px" fill="#000" opacity="0">July 2025</text><text text-anchor="start" transform="translate(296.27776219272886,7) rotate(45) translate(0,8)" font-family="sans-serif" font-size="10px" fill="#000" opacity="1">August 2025</text><text text-anchor="start" transform="translate(326.06235791143604,7) rotate(45) translate(0,8)" font-family="sans-serif" font-size="10px" fill="#000" opacity="0">September 2025</text><text text-anchor="start" transform="translate(354.8861602198623,7) rotate(45) translate(0,8)" font-family="sans-serif" font-size="10px" fill="#000" opacity="1">October 2025</text><text text-anchor="start" transform="translate(384.7107889973312,7) rotate(45) translate(0,8)" font-family="sans-serif" font-size="10px" fill="#000" opacity="0">November 2025</text></g><g class="mark-rule role-axis-domain" pointer-events="none"><line transform="translate(0,0)" x2="400" y2="0" stroke="#888" stroke-width="1" opacity="1"/></g><g class="mark-text role-axis-title" pointer-events="none"><text text-anchor="middle" transform="translate(200,77.38337257480674)" font-family="sans-serif" font-size="11px" font-weight="bold" fill="#000" opacity="1">Date de la recherche</text></g></g><path class="foreground" aria-hidden="true" d="" pointer-events="none" display="none"/></g></g><g class="mark-group role-axis" role="graphics-symbol" aria-roledescription="axis" aria-label="Y-axis titled 'Nombre de trajets' for a linear scale with values from 0 to 450,000"><g transform="translate(0.5,0.5)"><path class="background" aria-hidden="true" d="M0,0h0v0h0Z" pointer-events="none"/><g><g class="mark-rule role-axis-tick" pointer-events="none"><line transform="translate(0,200)" x2="-5" y2="0" stroke="#888" stroke-width="1" opacity="1"/><line transform="translate(0,156)" x2="-5" y2="0" stroke="#888" stroke-width="1" opacity="1"/><line transform="translate(0,111)" x2="-5" y2="0" stroke="#888" stroke-width="1" opacity="1"/><line transform="translate(0,67)" x2="-5" y2="0" stroke="#888" stroke-width="1" opacity="1"/><line transform="translate(0,22)" x2="-5" y2="0" stroke="#888" stroke-width="1" opacity="1"/></g><g class="mark-text role-axis-label" pointer-events="none"><text text-anchor="end" transform="translate(-7,203)" font-family="sans-serif" font-size="10px" fill="#000" opacity="1">0</text><text text-anchor="end" transform="translate(-7,158.55555555555557)" font-family="sans-serif" font-size="10px" fill="#000" opacity="1">100,000</text><text text-anchor="end" transform="translate(-7,114.11111111111111)" font-family="sans-serif" font-size="10px" fill="#000" opacity="1">200,000</text><text text-anchor="end" transform="translate(-7,69.66666666666667)" font-family="sans-serif" font-size="10px" fill="#000" opacity="1">300,000</text><text text-anchor="end" transform="translate(-7,25.222222222222232)" font-family="sans-serif" font-size="10px" fill="#000" opacity="1">400,000</text></g><g class="mark-rule role-axis-domain" pointer-events="none"><line transform="translate(0,200)" x2="0" y2="-200" stroke="#888" stroke-width="1" opacity="1"/></g><g class="mark-text role-axis-title" pointer-events="none"><text text-anchor="middle" transform="translate(-47.1474609375,100) rotate(-90) translate(0,-2)" font-family="sans-serif" font-size="11px" font-weight="bold" fill="#000" opacity="1">Nombre de trajets</text></g></g><path class="foreground" aria-hidden="true" d="" pointer-events="none" display="none"/></g></g><g class="mark-group role-scope pathgroup" role="graphics-object" aria-roledescription="group mark container"><g transform="translate(0,0)"><path class="background" aria-hidden="true" d="M0,0h400v200h-400Z"/><g><g class="mark-line role-mark marks" role="graphics-object" aria-roledescription="line mark container"><path aria-label="Date de la recherche: September 2024; Nombre de trajets: 91488; variable: disponible" role="graphics-symbol" aria-roledescription="line mark" d="M0,159.339L0.844,160.009L1.805,160.25L2.766,159.721L3.727,159.224L4.687,160.066L5.649,161.226L6.61,162.729L7.57,163.599L8.531,164.927L9.491,164.272L10.452,163.069L11.413,163.83L12.374,166.394L13.335,165.123L14.296,166.305L15.256,167.015L16.217,167.638L17.178,167.648L18.139,168.931L19.1,169.444L20.06,170.203L21.021,170.474L21.982,170.704L22.943,168.872L23.903,167.766L24.864,168.451L25.825,167.16L26.786,168.696L27.747,166.936L28.707,167.617L29.708,164.943L30.676,163.236L31.63,165.275L32.591,163.601L33.551,165.017L34.512,163.38L35.474,162.688L36.434,161.357L37.394,159.746L38.355,159.755L39.318,159.142L40.277,161.116L41.238,160.392L42.198,160.483L43.16,158.316L44.12,156.748L45.083,154.82L46.042,155.253L47.002,154.239L47.963,154.859L48.927,156.557L49.885,155.787L50.847,155.331L51.806,156.853L52.767,157.538L53.728,158.599L54.689,159.242L55.65,159.566L56.61,159.835L57.571,159.906L58.532,161.397L59.493,162.616L60.454,164.062L61.415,165.294L62.375,166.184L63.336,166.252L64.298,166.133L65.258,167.211L66.219,167.551L67.179,168.202L68.14,168.182L69.102,168.864L70.062,168.023L71.023,166.956L71.983,166.728L72.944,166.308L73.905,166.35L74.865,164.781L75.826,165.02L76.787,163.984L77.748,162.302L78.709,162.622L79.669,161.783L80.63,161.712L81.591,159.731L82.552,159.145L83.512,157.033L84.473,155.203L85.434,153.702L86.395,149.882L87.356,149.315L88.316,147.688L89.277,147.022L90.238,145.158L91.199,143.235L92.16,141.419L93.12,139.417L94.081,139.184L95.042,141.537L96.003,142.381L96.964,139.298L97.924,137.729L98.885,138.287L99.846,138.306L100.807,139.025L101.768,139.891L102.729,141.793L103.689,142.216L104.65,142.23L105.611,143.622L106.572,144.212L107.532,146.113L108.493,147.762L109.454,148.816L110.415,149.653L111.375,149.103L112.336,149.572L113.297,151.036L114.258,152.019L115.219,154.556L116.18,155.987L117.14,156.427L118.101,155.749L119.062,156.068L120.023,156.588L120.983,157.142L121.944,158.761L122.905,159.033L123.866,159.104L124.827,158.219L125.788,158.195L126.748,158.685L127.709,160.639L128.67,161.217L129.631,162.238L130.591,161.805L131.552,161.569L132.513,162.052L133.474,162.612L134.435,163.765L135.395,164.016L136.356,164.144L137.317,163.397L138.278,162.463L139.239,162.635L140.2,160.836L141.16,162.052L142.121,161.876L143.082,162.061L144.043,159.33L145.003,157.85L145.964,157.162L146.925,156.173L147.886,157.449L148.847,157.287L149.807,157.682L150.768,156.434L151.729,155.299L152.69,155.873L153.65,156.232L154.611,158.153L155.572,157.316L156.533,158.821L157.494,157.497L158.454,156.43L159.415,156.36L160.376,156.624L161.337,157.757L162.298,159.565L163.258,159.94L164.219,160.216L165.18,159.533L166.141,159.946L167.102,160.72L168.062,162.035L169.023,162.685L169.984,163.619L170.945,164.437L171.906,164.308L172.866,164.997L173.827,165.332L174.788,166.06L175.749,166.832L176.709,167.163L177.63,167.356L178.591,166.756L179.552,168.562L180.513,168.524L181.473,169.668L182.434,169.96L183.395,170.583L184.356,169.531L185.317,169.106L186.277,170.336L187.238,171.222L188.199,172.901L189.16,173.898L190.12,173.981L191.081,173.399L192.042,172.256L193.003,172.224L193.964,172.383L194.925,172.577L195.885,171.82L196.846,171.468L197.807,170.136L198.768,168.69L199.728,167.228L200.689,166.981L201.65,166.786L202.611,166.962L203.572,166.335L204.532,165.966L205.493,165.59L206.454,166.577L207.415,167.733L208.376,170.02L209.336,168.846L210.297,169.858L211.258,169.379L212.219,168.202L213.18,168.43L214.14,170.075L215.101,170.046L216.062,169.925L217.023,169.592L217.983,168.736L218.944,168.091L219.905,168.04L220.866,168.317L221.827,169.349L222.787,169.497L223.748,170.13L224.709,170.491L225.67,170.374L226.631,171.072L227.591,173.061L228.552,174.635L229.513,174.731L230.474,174.89L231.435,174.699L232.395,174.329L233.356,175.925L234.317,174.959L235.278,175.182L236.239,176.424L237.199,174.932L238.16,174.408L239.121,173.2L240.082,172.78L241.043,173.29L242.003,173.061L242.964,173.79L243.925,173.8L244.886,173.333L245.847,172.788L246.807,172.172L247.768,172.853L248.729,173.283L249.69,175.056L250.651,174.065L251.612,174.497L252.573,174.456L253.533,175.107L254.494,175.869L255.454,176.792L256.415,176.778L257.376,177.009L258.337,177.119L259.298,176.421L260.258,176.539L261.219,177.062L262.18,177.335L263.141,177.774L264.102,178.057L265.062,177.759L266.023,177.03L266.984,176.662L267.945,177.327L268.906,177.417L269.867,177.748L270.827,177.901L271.788,177.574L272.749,176.725L273.71,176.693L274.67,176.283L275.631,176.441L276.592,176.327L277.553,176.355L278.514,175.682L279.474,175.172L280.435,174.815L281.396,178.13L282.357,178.902L283.318,178.285L284.278,178.194L285.239,177.128L286.2,176.427L287.161,176.211L288.121,176.344L289.082,176.647L290.044,176.738L291.004,176.03L291.965,175.164L292.925,174.287L293.886,174.413L294.847,173.714L295.808,174.324L296.769,173.887L297.729,173.912L298.69,172.471L299.651,171.321L300.612,171.24L301.573,171.28L302.533,172.08L303.494,172.211L304.455,172.403L305.416,171.398L306.377,170.396L307.338,170.518L308.3,170.236L309.259,170.683L310.22,170.087L311.181,170.074L312.141,169.3L313.102,168.013L314.063,167.635L315.024,166.205L315.985,166.481L316.945,166.323L317.906,166.3L318.867,165.771L319.828,164.96L320.799,164.593L321.749,165.332L322.71,166.362L323.671,166.83L324.632,167.888L325.592,167.998L326.553,168.088L327.514,168.656L328.475,170.384L329.436,164.386L330.396,164.849L331.357,166.016L332.318,165.694L333.279,164.655L334.24,163.862L335.2,163.137L336.161,165.146L337.122,165.064L338.083,165.244L339.044,165.762L340.004,164.872L340.965,164.64L341.927,165.472L342.887,166.088L343.848,167.32L344.808,166.82L345.769,167.115L346.73,167.029L347.691,167.192L348.652,167.811L349.612,168.811L350.573,170.644L351.534,169.776L352.495,170.481L353.455,170.076L354.416,170.333L355.377,170.433L356.338,171.609L357.299,172.44L358.26,172.626L359.22,172.988L360.181,172.106L361.142,171.847L362.103,172.026L363.063,173.442L364.024,173.866L364.985,173.078L365.946,172.944L366.907,173.152L367.867,173.688L368.828,174.006L369.789,174.688L370.75,174.205L371.71,173.786L372.672,172.674L373.632,171.307L374.593,171.597L375.554,171.21L376.514,171.624L377.475,171.142L378.436,170.751L379.437,169.213L380.399,167.775L381.358,167.387L382.319,167.261L383.28,167.35L384.241,166.703L385.202,167.341L386.163,166.164L387.123,164.592L388.084,164.66L389.045,164.254L390.006,165.054L390.966,165.095L391.928,164.783L392.888,163.01L393.849,162.001L394.809,161.608L395.77,160.09L396.731,160.927L397.693,161.446L398.653,161.809L400,161.546" stroke="#4c78a8" stroke-width="2"/></g></g><path class="foreground" aria-hidden="true" d="" display="none"/></g><g transform="translate(0,0)"><path class="background" aria-hidden="true" d="M0,0h400v200h-400Z"/><g><g class="mark-line role-mark marks" role="graphics-object" aria-roledescription="line mark container"><path aria-label="Date de la recherche: September 2024; Nombre de trajets: 351801; variable: total" role="graphics-symbol" aria-roledescription="line mark" d="M0,43.644L0.844,43.23L1.805,43.532L2.766,43.471L3.727,43.523L4.687,42.888L5.649,42.975L6.61,43.715L7.57,43.55L8.531,43.967L9.491,43.883L10.452,43.916L11.413,43.705L12.374,43.343L13.335,45.168L14.296,47.57L15.256,49.451L16.217,50.78L17.178,51.056L18.139,51.055L19.1,50.496L20.06,50.482L21.021,50.263L21.982,50.547L22.943,50.55L23.903,50.929L24.864,51.131L25.825,50.923L26.786,51.584L27.747,51.856L28.707,52.263L29.708,52.39L30.676,52.759L31.63,52.836L32.591,52.374L33.551,53.093L34.512,53.62L35.474,53.032L36.434,52.105L37.394,52.092L38.355,52.091L39.318,51.462L40.277,51.622L41.238,41.063L42.198,40.994L43.16,38.53L44.12,35.785L45.083,33.752L46.042,31.452L47.002,31.196L47.963,31.976L48.927,32.224L49.885,32.1L50.847,32.214L51.806,43.381L52.767,42.648L53.728,31.545L54.689,31.141L55.65,31.16L56.61,30.515L57.571,30.687L58.532,30.67L59.493,41.943L60.454,41.649L61.415,29.061L62.375,29.416L63.336,28.902L64.298,29.519L65.258,29.164L66.219,28.757L67.179,28.1L68.14,27.722L69.102,26.185L70.062,25.875L71.023,25.729L71.983,25.856L72.944,25.331L73.905,37.198L74.865,25.074L75.826,25.668L76.787,25.804L77.748,25.909L78.709,26.032L79.669,25.492L80.63,25.271L81.591,25.142L82.552,25.764L83.512,26.482L84.473,26.828L85.434,27.121L86.395,26.415L87.356,25.957L88.316,26.279L89.277,27.016L90.238,27.544L91.199,27.983L92.16,28.387L93.12,27.747L94.081,27.414L95.042,27.669L96.003,28.387L96.964,28.939L97.924,29.468L98.885,29.973L99.846,29.508L100.807,29.126L101.768,29.288L102.729,30.003L103.689,30.398L104.65,30.824L105.611,31.144L106.572,30.97L107.532,41.714L108.493,30.252L109.454,30.988L110.415,31.619L111.375,31.958L112.336,32.143L113.297,31.707L114.258,31.087L115.219,31.152L116.18,31.917L117.14,32.222L118.101,32.403L119.062,32.294L120.023,31.743L120.983,31.524L121.944,31.784L122.905,32.277L123.866,32.624L124.827,32.712L125.788,32.796L126.748,32.445L127.709,31.822L128.67,31.126L129.631,31.789L130.591,32.685L131.552,33.031L132.513,33.212L133.474,32.773L134.435,33.388L135.395,33.592L136.356,34.164L137.317,35.362L138.278,35.763L139.239,35.899L140.2,35.315L141.16,35.592L142.121,36.133L143.082,36.764L144.043,37.632L145.003,37.992L145.964,38.217L146.925,48.657L147.886,49.276L148.847,49.164L149.807,49.493L150.768,49.746L151.729,49.778L152.69,38.859L153.65,38.161L154.611,37.686L155.572,37.108L156.533,37.387L157.494,37.632L158.454,37.878L159.415,37.688L160.376,36.921L161.337,36.403L162.298,35.921L163.258,36.056L164.219,35.163L165.18,34.855L166.141,34.686L167.102,33.996L168.062,34.483L169.023,35.695L169.984,36.783L170.945,36.296L171.906,35.908L172.866,35.731L173.827,34.88L174.788,34.631L175.749,34.328L176.709,34.329L177.63,33.922L178.591,33.396L179.552,33.329L180.513,33.858L181.473,34.476L182.434,35.666L183.395,36.248L184.356,37.45L185.317,37.177L186.277,37.877L187.238,37.17L188.199,38.661L189.16,39.278L190.12,39.69L191.081,40.057L192.042,40.341L193.003,40.363L193.964,39.966L194.925,40.384L195.885,40.357L196.846,40.606L197.807,39.799L198.768,38.261L199.728,37.851L200.689,37.399L201.65,37.4L202.611,37.352L203.572,37.876L204.532,38.551L205.493,38.273L206.454,38.913L207.415,40.323L208.376,42.092L209.336,42.238L210.297,41.801L211.258,41.309L212.219,41.427L213.18,41.43L214.14,40.981L215.101,41.689L216.062,42.137L217.023,40.74L217.983,38.877L218.944,38.676L219.905,38.774L220.866,38.256L221.827,39.166L222.787,39.717L223.748,40.268L224.709,39.847L225.67,39.945L226.631,40.043L227.591,39.415L228.552,39.523L229.513,39.268L230.474,39.68L231.435,39.566L232.395,39.679L233.356,39.789L234.317,39.682L235.278,40.502L236.239,40.502L237.199,38.96L238.16,37.599L239.121,49.079L240.082,48.936L241.043,47.866L242.003,35.477L242.964,34.581L243.925,34.1L244.886,32.722L245.847,30.764L246.807,29.522L247.768,28.472L248.729,27.45L249.69,26.752L250.651,26.195L251.612,24.508L252.573,23.186L253.533,22.453L254.494,21.27L255.454,20.594L256.415,19.795L257.376,19.459L258.337,18.917L259.298,18.407L260.258,17.611L261.219,15.996L262.18,14.744L263.141,13.67L264.102,13.268L265.062,11.688L266.023,10.401L266.984,9.68L267.945,8.634L268.906,7.666L269.867,6.733L270.827,6.447L271.788,6.648L272.749,6.913L273.71,7.142L274.67,6.778L275.631,6.423L276.592,6.221L277.553,6.697L278.514,6.961L279.474,6.967L280.435,6.828L281.396,6.909L282.357,6.72L283.318,6.489L284.278,6.91L285.239,7.019L286.2,7.102L287.161,7.276L288.121,7L289.082,6.7L290.044,6.562L291.004,7.013L291.965,7.419L292.925,7.774L293.886,8.004L294.847,7.824L295.808,7.632L296.769,7.624L297.729,8.608L298.69,9.588L299.651,10.514L300.612,23.998L301.573,24.18L302.533,24.671L303.494,12.251L304.455,13.22L305.416,14.339L306.377,15.249L307.338,15.966L308.3,16.04L309.259,16.588L310.22,17.289L311.181,18.311L312.141,19.453L313.102,20.548L314.063,21.367L315.024,21.895L315.985,22.307L316.945,22.592L317.906,23.508L318.867,24.434L319.828,25.478L320.799,26.376L321.749,26.459L322.71,26.994L323.671,27.342L324.632,28.512L325.592,29.606L326.553,30.551L327.514,30.946L328.475,30.848L329.436,30.833L330.396,30.717L331.357,31.369L332.318,31.672L333.279,32.168L334.24,32.468L335.2,32.252L336.161,32.707L337.122,32.744L338.083,33.391L339.044,33.776L340.004,34.194L340.965,34.264L341.927,33.874L342.887,33.784L343.848,33.23L344.808,33.629L345.769,33.935L346.73,34.376L347.691,34.532L348.652,33.903L349.612,33.763L350.573,33.499L351.534,34.137L352.495,34.408L353.455,34.85L354.416,34.911L355.377,34.408L356.338,34.312L357.299,33.871L358.26,34.43L359.22,34.635L360.181,34.972L361.142,35.029L362.103,34.567L363.063,34.906L364.024,35.273L364.985,36.404L365.946,36.064L366.907,36.193L367.867,36.184L368.828,35.46L369.789,35.25L370.75,34.94L371.71,35.736L372.672,35.958L373.632,36.317L374.593,36.487L375.554,36.016L376.514,36.638L377.475,36.584L378.436,37.003L379.437,37.092L380.399,37.367L381.358,37.441L382.319,36.927L383.28,36.857L384.241,36.367L385.202,36.565L386.163,36.544L387.123,36.812L388.084,36.737L389.045,36.034L390.006,36.394L390.966,36.221L391.928,36.347L392.888,35.854L393.849,35.315L394.809,34.461L395.77,33.782L396.731,33.904L397.693,33.897L398.653,34.39L400,34.251" stroke="#f58518" stroke-width="2"/></g></g><path class="foreground" aria-hidden="true" d="" display="none"/></g></g><g class="mark-group role-legend" role="graphics-symbol" aria-roledescription="legend" aria-label="Symbol legend for stroke color with 2 values: disponible, total"><g transform="translate(0,-29)"><path class="background" aria-hidden="true" d="M0,0h108v11h-108Z" pointer-events="none"/><g><g class="mark-group role-legend-entry"><g transform="translate(0,0)"><path class="background" aria-hidden="true" d="M0,0h0v0h0Z" pointer-events="none"/><g><g class="mark-group role-scope" role="graphics-object" aria-roledescription="group mark container"><g transform="translate(0,0)"><path class="background" aria-hidden="true" d="M0,0h61.0341796875v11h-61.0341796875Z" pointer-events="none" opacity="1"/><g><g class="mark-symbol role-legend-symbol" pointer-events="none"><path transform="translate(6,6)" d="M-5,0L5,0" stroke="#4c78a8" stroke-width="1.5" opacity="1"/></g><g class="mark-text role-legend-label" pointer-events="none"><text text-anchor="start" transform="translate(16,9)" font-family="sans-serif" font-size="10px" fill="#000" opacity="1">disponible</text></g></g><path class="foreground" aria-hidden="true" d="" pointer-events="none" display="none"/></g><g transform="translate(73,0)"><path class="background" aria-hidden="true" d="M0,0h34.9013671875v11h-34.9013671875Z" pointer-events="none" opacity="1"/><g><g class="mark-symbol role-legend-symbol" pointer-events="none"><path transform="translate(6,6)" d="M-5,0L5,0" stroke="#f58518" stroke-width="1.5" opacity="1"/></g><g class="mark-text role-legend-label" pointer-events="none"><text text-anchor="start" transform="translate(16,9)" font-family="sans-serif" font-size="10px" fill="#000" opacity="1">total</text></g></g><path class="foreground" aria-hidden="true" d="" pointer-events="none" display="none"/></g></g></g><path class="foreground" aria-hidden="true" d="" pointer-events="none" display="none"/></g></g></g><path class="foreground" aria-hidden="true" d="" pointer-events="none" display="none"/></g></g><g class="mark-group role-title"><g transform="translate(200,-46)"><path class="background" aria-hidden="true" d="M0,0h0v0h0Z" pointer-events="none"/><g><g class="mark-text role-title-text" role="graphics-symbol" aria-roledescription="title" aria-label="Title text 'Historique du nombre de trajets MAXJEUNE et au total, disponibles chaque jour'" pointer-events="none"><text text-anchor="middle" transform="translate(0,10)" font-family="sans-serif" font-size="13px" font-weight="bold" fill="#000" opacity="1">Historique du nombre de trajets MAXJEUNE et au total, disponibles chaque jour</text></g></g><path class="foreground" aria-hidden="true" d="" pointer-events="none" display="none"/></g></g></g><path class="foreground" aria-hidden="true" d="" display="none"/></g></g></g></svg>