<svg xmlns="http://www.w3.org/2000/svg" xmlns:xlink="http://www.w3.org/1999/xlink" version="1.1" class="marks" width="517" height="336" viewBox="0 0 517 336"><rect width="517" height="336" fill="white"/><g fill="none" stroke-miterlimit="10" transform="translate(64,51)"><g class="mark-group role-frame root" role="graphics-object" aria-roledescription="group mark container"><g transform="translate(0,0)"><path class="background" aria-hidden="true" d="M0.5,0.5h400v200h-400Z" stroke="#ddd"/><g><g class="mark-group role-axis" aria-hidden="true"><g transform="translate(0.5,200.5)"><path class="background" aria-hidden="true" d="M0,0h0v0h0Z" pointer-events="none"/><g><g class="mark-rule role-axis-grid" pointer-events="none"><line transform="translate(4,-200)" x2="0" y2="200" stroke="#ddd" stroke-width="1" opacity="1"/><line transform="translate(33,-200)" x2="0" y2="200" stroke="#ddd" stroke-width="1" opacity="1"/><line transform="translate(61,-200)" x2="0" y2="200" stroke="#ddd" stroke-width="1" opacity="1"/><line transform="translate(90,-200)" x2="0" y2="200" stroke="#ddd" stroke-width="1" opacity="1"/><line transform="translate(119,-200)" x2="0" y2="200" stroke="#ddd" stroke-width="1" opacity="1"/><line transform="translate(146,-200)" x2="0" y2="200" stroke="#ddd" stroke-width="1" opacity="1"/><line transform="translate(175,-200)" x2="0" y2="200" stroke="#ddd" stroke-width="1" opacity="1"/><line transform="translate(203,-200)" x2="0" y2="200" stroke="#ddd" stroke-width="1" opacity="1"/><line transform="translate(232,-200)" x2="0" y2="200" stroke="#ddd" stroke-width="1" opacity="1"/><line transform="translate(260,-200)" x2="0" y2="200" stroke="#ddd" stroke-width="1" opacity="1"/><line transform="translate(289,-200)" x2="0" y2="200" stroke="#ddd" stroke-width="1" opacity="1"/><line transform="translate(318,-200)" x2="0" y2="200" stroke="#ddd" stroke-width="1" opacity="1"/><line transform="translate(346,-200)" x2="0" y2="200" stroke="#ddd" stroke-width="1" opacity="1"/><line transform="translate(375,-200)" x2="0" y2="200" stroke="#ddd" stroke-width="1" opacity="1"/></g></g><path class="foreground" aria-hidden="true" d="" pointer-events="none" display="none"/></g></g><g class="mark-group role-axis" aria-hidden="true"><g transform="translate(0.5,0.5)"><path class="background" aria-hidden="true" d="M0,0h0v0h0Z" pointer-events="none"/><g><g class="mark-rule role-axis-grid" pointer-events="none"><line transform="translate(0,200)" x2="400" y2="0" stroke="#ddd" stroke-width="1" opacity="1"/><line transform="translate(0,156)" x2="400" y2="0" stroke="#ddd" stroke-width="1" opacity="1"/><line transform="translate(0,111)" x2="400" y2="0" stroke="#ddd" stroke-width="1" opacity="1"/><line transform="translate(0,67)" x2="400" y2="0" stroke="#ddd" stroke-width="1" opacity="1"/><line transform="translate(0,22)" x2="400" y2="0" stroke="#ddd" stroke-width="1" opacity="1"/></g></g><path class="foreground" aria-hidden="true" d="" pointer-events="none" display="none"/></g></g><g class="mark-group role-axis" role="graphics-symbol" aria-roledescription="axis" aria-label="X-axis titled 'Date de la recherche' for a time scale with values from September 2024 to November 2025"><g transform="translate(0.5,200.5)"><path class="background" aria-hidden="true" d="M0,0h0v0h0Z" pointer-events="none"/><g><g class="mark-rule role-axis-tick" pointer-events="none"><line transform="translate(4,0)" x2="0" y2="5" stroke="#888" stroke-width="1" opacity="1"/><line transform="translate(33,0)" x2="0" y2="5" stroke="#888" stroke-width="1" opacity="1"/><line transform="translate(61,0)" x2="0" y2="5" stroke="#888" stroke-width="1" opacity="1"/><line transform="translate(90,0)" x2="0" y2="5" stroke="#888" stroke-width="1" opacity="1"/><line transform="translate(119,0)" x2="0" y2="5" stroke="#888" stroke-width="1" opacity="1"/><line transform="translate(146,0)" x2="0" y2="5" stroke="#888" stroke-width="1" opacity="1"/><line transform="translate(175,0)" x2="0" y2="5" stroke="#888" stroke-width="1" opacity="1"/><line transform="translate(203,0)" x2="0" y2="5" stroke="#888" stroke-width="1" opacity="1"/><line transform="translate(232,0)" x2="0" y2="5" stroke="#888" stroke-width="1" opacity="1"/><line transform="translate(260,0)" x2="0" y2="5" stroke="#888" stroke-width="1" opacity="1"/><line transform="translate(289,0)" x2="0" y2="5" stroke="#888" stroke-width="1" opacity="1"/><line transform="translate(318,0)" x2="0" y2="5" stroke="#888" stroke-width="1" opacity="1"/><line transform="translate(346,0)" x2="0" y2="5" stroke="#888" stroke-width="1" opacity="1"/><line transform="translate(375,0)" x2="0" y2="5" stroke="#888" stroke-width="1" opacity="1"/></g><g class="mark-text role-axis-label" pointer-events="none"><text text-anchor="start" transform="translate(4.092391585915197,7) rotate(45) translate(0,8)" font-family="sans-serif" font-size="10px" fill="#000" opacity="1">October 2024</text><text text-anchor="start" transform="translate(33.17666557419901,7) rotate(45) translate(0,8)" font-family="sans-serif" font-size="10px" fill="#000" opacity="0">November 2024</text><text text-anchor="start" transform="translate(61.284957213882706,7) rotate(45) translate(0,8)" font-family="sans-serif" font-size="10px" fill="#000" opacity="1">December 2024</text><text text-anchor="start" transform="translate(90.33019190822252,7) rotate(45) translate(0,8)" font-family="sans-serif" font-size="10px" fill="#000" opacity="0">January 2025</text><text text-anchor="start" transform="translate(119.37542660256233,7) rotate(45) translate(0,8)" font-family="sans-serif" font-size="10px" fill="#000" opacity="1">February 2025</text><text text-anchor="start" transform="translate(145.6098321329338,7) rotate(45) translate(0,8)" font-family="sans-serif" font-size="10px" fill="#000" opacity="0">March 2025</text><text text-anchor="start" transform="translate(174.6160275333296,7) rotate(45) translate(0,8)" font-family="sans-serif" font-size="10px" fill="#000" opacity="1">April 2025</text><text text-anchor="start" transform="translate(202.7243191730133,7) rotate(45) translate(0,8)" font-family="sans-serif" font-size="10px" fill="#000" opacity="0">May 2025</text><text text-anchor="start" transform="translate(231.76955386735312,7) rotate(45) translate(0,8)" font-family="sans-serif" font-size="10px" fill="#000" opacity="1">June 2025</text><text text-anchor="start" transform="translate(259.8778455070368,7) rotate(45) translate(0,8)" font-family="sans-serif" font-size="10px" fill="#000" opacity="0">July 2025</text><text text-anchor="start" transform="translate(288.9230802013766,7) rotate(45) translate(0,8)" font-family="sans-serif" font-size="10px" fill="#000" opacity="1">August 2025</text><text text-anchor="start" transform="translate(317.96831489571645,7) rotate(45) translate(0,8)" font-family="sans-serif" font-size="10px" fill="#000" opacity="0">September 2025</text><text text-anchor="start" transform="translate(346.0766065354001,7) rotate(45) translate(0,8)" font-family="sans-serif" font-size="10px" fill="#000" opacity="1">October 2025</text><text text-anchor="start" transform="translate(375.16088052368394,7) rotate(45) translate(0,8)" font-family="sans-serif" font-size="10px" fill="#000" opacity="0">November 2025</text></g><g class="mark-rule role-axis-domain" pointer-events="none"><line transform="translate(0,0)" x2="400" y2="0" stroke="#888" stroke-width="1" opacity="1"/></g><g class="mark-text role-axis-title" pointer-events="none"><text text-anchor="middle" transform="translate(200,77.38337257480673)" font-family="sans-serif" font-size="11px" font-weight="bold" fill="#000" opacity="1">Date de la recherche</text></g></g><path class="foreground" aria-hidden="true" d="" pointer-events="none" display="none"/></g></g><g class="mark-group role-axis" role="graphics-symbol" aria-roledescription="axis" aria-label="Y-axis titled 'Nombre de trajets' for a linear scale with values from 0 to 450,000"><g transform="translate(0.5,0.5)"><path class="background" aria-hidden="true" d="M0,0h0v0h0Z" pointer-events="none"/><g><g class="mark-rule role-axis-tick" pointer-events="none"><line transform="translate(0,200)" x2="-5" y2="0" stroke="#888" stroke-width="1" opacity="1"/><line transform="translate(0,156)" x2="-5" y2="0" stroke="#888" stroke-width="1" opacity="1"/><line transform="translate(0,111)" x2="-5" y2="0" stroke="#888" stroke-width="1" opacity="1"/><line transform="translate(0,67)" x2="-5" y2="0" stroke="#888" stroke-width="1" opacity="1"/><line transform="translate(0,22)" x2="-5" y2="0" stroke="#888" stroke-width="1" opacity="1"/></g><g class="mark-text role-axis-label" pointer-events="none"><text text-anchor="end" transform="translate(-7,203)" font-family="sans-serif" font-size="10px" fill="#000" opacity="1">0</text><text text-anchor="end" transform="translate(-7,158.55555555555557)" font-family="sans-serif" font-size="10px" fill="#000" opacity="1">100,000</text><text text-anchor="end" transform="translate(-7,114.11111111111111)" font-family="sans-serif" font-size="10px" fill="#000" opacity="1">200,000</text><text text-anchor="end" transform="translate(-7,69.66666666666667)" font-family="sans-serif" font-size="10px" fill="#000" opacity="1">300,000</text><text text-anchor="end" transform="translate(-7,25.222222222222232)" font-family="sans-serif" font-size="10px" fill="#000" opacity="1">400,000</text></g><g class="mark-rule role-axis-domain" pointer-events="none"><line transform="translate(0,200)" x2="0" y2="-200" stroke="#888" stroke-width="1" opacity="1"/></g><g class="mark-text role-axis-title" pointer-events="none"><text text-anchor="middle" transform="translate(-47.1474609375,100) rotate(-90) translate(0,-2)" font-family="sans-serif" font-size="11px" font-weight="bold" fill="#000" opacity="1">Nombre de trajets</text></g></g><path class="foreground" aria-hidden="true" d="" pointer-events="none" display="none"/></g></g><g class="mark-group role-scope pathgroup" role="graphics-object" aria-roledescription="group mark container"><g transform="translate(0,0)"><path class="background" aria-hidden="true" d="M0,0h400v200h-400Z"/><g><g class="mark-line role-mark marks" role="graphics-object" aria-roledescription="line mark container"><path aria-label="Date de la recherche: September 2024; Nombre de trajets: 91488; variable: disponible" role="graphics-symbol" aria-roledescription="line mark" d="M0,159.339L0.823,160.009L1.76,160.25L2.697,159.721L3.634,159.224L4.571,160.066L5.509,161.226L6.446,162.729L7.382,163.599L8.319,164.927L9.256,164.272L10.193,163.069L11.13,163.83L12.067,166.394L13.004,165.123L13.941,166.305L14.878,167.015L15.815,167.638L16.752,167.648L17.688,168.931L18.625,169.444L19.562,170.203L20.499,170.474L21.436,170.704L22.373,168.872L23.31,167.766L24.247,168.451L25.184,167.16L26.121,168.696L27.058,166.936L27.995,167.617L28.971,164.943L29.915,163.236L30.845,165.275L31.782,163.601L32.719,165.017L33.655,163.38L34.593,162.688L35.529,161.357L36.466,159.746L37.403,159.755L38.342,159.142L39.277,161.116L40.214,160.392L41.151,160.483L42.088,158.316L43.025,156.748L43.964,154.82L44.899,155.253L45.836,154.239L46.773,154.859L47.712,156.557L48.647,155.787L49.584,155.331L50.52,156.853L51.457,157.538L52.394,158.599L53.331,159.242L54.268,159.566L55.205,159.835L56.142,159.906L57.079,161.397L58.016,162.616L58.953,164.062L59.89,165.294L60.827,166.184L61.764,166.252L62.702,166.133L63.638,167.211L64.575,167.551L65.512,168.202L66.449,168.182L67.386,168.864L68.323,168.023L69.26,166.956L70.196,166.728L71.133,166.308L72.07,166.35L73.007,164.781L73.944,165.02L74.881,163.984L75.818,162.302L76.755,162.622L77.692,161.783L78.629,161.712L79.566,159.731L80.503,159.145L81.439,157.033L82.376,155.203L83.313,153.702L84.25,149.882L85.187,149.315L86.124,147.688L87.061,147.022L87.998,145.158L88.935,143.235L89.872,141.419L90.809,139.417L91.746,139.184L92.683,141.537L93.62,142.381L94.557,139.298L95.494,137.729L96.431,138.287L97.368,138.306L98.304,139.025L99.242,139.891L100.179,141.793L101.115,142.216L102.052,142.23L102.989,143.622L103.926,144.212L104.863,146.113L105.8,147.762L106.737,148.816L107.674,149.653L108.611,149.103L109.548,149.572L110.485,151.036L111.422,152.019L112.359,154.556L113.296,155.987L114.232,156.427L115.169,155.749L116.106,156.068L117.043,156.588L117.98,157.142L118.917,158.761L119.854,159.033L120.791,159.104L121.728,158.219L122.665,158.195L123.602,158.685L124.539,160.639L125.476,161.217L126.413,162.238L127.35,161.805L128.287,161.569L129.224,162.052L130.161,162.612L131.098,163.765L132.034,164.016L132.971,164.144L133.908,163.397L134.845,162.463L135.782,162.635L136.719,160.836L137.656,162.052L138.593,161.876L139.53,162.061L140.467,159.33L141.404,157.85L142.341,157.162L143.278,156.173L144.215,157.449L145.152,157.287L146.088,157.682L147.026,156.434L147.962,155.299L148.899,155.873L149.836,156.232L150.773,158.153L151.71,157.316L152.647,158.821L153.584,157.497L154.521,156.43L155.458,156.36L156.395,156.624L157.332,157.757L158.269,159.565L159.206,159.94L160.143,160.216L161.08,159.533L162.017,159.946L162.954,160.72L163.89,162.035L164.827,162.685L165.764,163.619L166.701,164.437L167.638,164.308L168.575,164.997L169.512,165.332L170.449,166.06L171.386,166.832L172.323,167.163L173.221,167.356L174.158,166.756L175.095,168.562L176.032,168.524L176.969,169.668L177.905,169.96L178.842,170.583L179.779,169.531L180.716,169.106L181.653,170.336L182.59,171.222L183.527,172.901L184.464,173.898L185.401,173.981L186.338,173.399L187.275,172.256L188.212,172.224L189.149,172.383L190.086,172.577L191.023,171.82L191.96,171.468L192.897,170.136L193.834,168.69L194.77,167.228L195.708,166.981L196.644,166.786L197.581,166.962L198.518,166.335L199.455,165.966L200.392,165.59L201.329,166.577L202.266,167.733L203.203,170.02L204.14,168.846L205.077,169.858L206.014,169.379L206.951,168.202L207.888,168.43L208.825,170.075L209.762,170.046L210.698,169.925L211.635,169.592L212.572,168.736L213.509,168.091L214.446,168.04L215.383,168.317L216.32,169.349L217.257,169.497L218.194,170.13L219.131,170.491L220.068,170.374L221.005,171.072L221.942,173.061L222.879,174.635L223.816,174.731L224.753,174.89L225.69,174.699L226.626,174.329L227.563,175.925L228.5,174.959L229.437,175.182L230.374,176.424L231.311,174.932L232.248,174.408L233.185,173.2L234.122,172.78L235.059,173.29L235.996,173.061L236.933,173.79L237.87,173.8L238.807,173.333L239.744,172.788L240.681,172.172L241.618,172.853L242.555,173.283L243.492,175.056L244.429,174.065L245.366,174.497L246.303,174.456L247.24,175.107L248.176,175.869L249.113,176.792L250.05,176.778L250.987,177.009L251.924,177.119L252.861,176.421L253.798,176.539L254.735,177.062L255.672,177.335L256.609,177.774L257.546,178.057L258.483,177.759L259.42,177.03L260.357,176.662L261.294,177.327L262.23,177.417L263.167,177.748L264.104,177.901L265.041,177.574L265.978,176.725L266.915,176.693L267.852,176.283L268.789,176.441L269.726,176.327L270.663,176.355L271.6,175.682L272.537,175.172L273.474,174.815L274.411,178.13L275.348,178.902L276.285,178.285L277.221,178.194L278.158,177.128L279.095,176.427L280.033,176.211L280.969,176.344L281.906,176.647L282.844,176.738L283.78,176.03L284.717,175.164L285.654,174.287L286.591,174.413L287.528,173.714L288.465,174.324L289.402,173.887L290.339,173.912L291.276,172.471L292.213,171.321L293.149,171.24L294.087,171.28L295.023,172.08L295.96,172.211L296.897,172.403L297.834,171.398L298.771,170.396L299.708,170.518L300.646,170.236L301.582,170.683L302.519,170.087L303.456,170.074L304.393,169.3L305.33,168.013L306.267,167.635L307.204,166.205L308.141,166.481L309.078,166.323L310.014,166.3L310.952,165.771L311.888,164.96L312.835,164.593L313.762,165.332L314.699,166.362L315.636,166.83L316.573,167.888L317.51,167.998L318.447,168.088L319.384,168.656L320.321,170.384L321.258,164.386L322.195,164.849L323.132,166.016L324.069,165.694L325.006,164.655L325.943,163.862L326.879,163.137L327.817,165.146L328.753,165.064L329.69,165.244L330.627,165.762L331.564,164.872L332.501,164.64L333.439,165.472L334.375,166.088L335.312,167.32L336.249,166.82L337.186,167.115L338.123,167.029L339.06,167.192L339.997,167.811L340.934,168.811L341.871,170.644L342.807,169.776L343.745,170.481L344.681,170.076L345.618,170.333L346.555,170.433L347.492,171.609L348.429,172.44L349.366,172.626L350.303,172.988L351.24,172.106L352.177,171.847L353.114,172.026L354.051,173.442L354.988,173.866L355.925,173.078L356.862,172.944L357.799,173.152L358.735,173.688L359.672,174.006L360.609,174.688L361.546,174.205L362.483,173.786L363.421,172.674L364.357,171.307L365.294,171.597L366.231,171.21L367.168,171.624L368.105,171.142L369.042,170.751L370.018,169.213L370.956,167.775L371.892,167.387L372.829,167.261L373.766,167.35L374.703,166.703L375.639,167.341L376.577,166.164L377.513,164.592L378.45,164.66L379.387,164.254L380.324,165.054L381.261,165.095L382.198,164.783L383.135,163.01L384.072,162.001L385.009,161.608L385.946,160.09L386.883,160.927L387.82,161.446L388.757,161.809L390.071,161.546L391.066,160.467L391.971,161.036L392.906,161.558L393.842,162.723L394.378,163.683L395.315,163.763L396.252,163.474L397.189,163.335L398.126,163.94L399.063,164.694L400,165.922" stroke="#4c78a8" stroke-width="2"/></g></g><path class="foreground" aria-hidden="true" d="" display="none"/></g><g transform="translate(0,0)"><path class="background" aria-hidden="true" d="M0,0h400v200h-400Z"/><g><g class="mark-line role-mark marks" role="graphics-object" aria-roledescription="line mark container"><path aria-label="Date de la recherche: September 2024; Nombre de trajets: 351801; variable: total" role="graphics-symbol" aria-roledescription="line mark" d="M0,43.644L0.823,43.23L1.76,43.532L2.697,43.471L3.634,43.523L4.571,42.888L5.509,42.975L6.446,43.715L7.382,43.55L8.319,43.967L9.256,43.883L10.193,43.916L11.13,43.705L12.067,43.343L13.004,45.168L13.941,47.57L14.878,49.451L15.815,50.78L16.752,51.056L17.688,51.055L18.625,50.496L19.562,50.482L20.499,50.263L21.436,50.547L22.373,50.55L23.31,50.929L24.247,51.131L25.184,50.923L26.121,51.584L27.058,51.856L27.995,52.263L28.971,52.39L29.915,52.759L30.845,52.836L31.782,52.374L32.719,53.093L33.655,53.62L34.593,53.032L35.529,52.105L36.466,52.092L37.403,52.091L38.342,51.462L39.277,51.622L40.214,41.063L41.151,40.994L42.088,38.53L43.025,35.785L43.964,33.752L44.899,31.452L45.836,31.196L46.773,31.976L47.712,32.224L48.647,32.1L49.584,32.214L50.52,43.381L51.457,42.648L52.394,31.545L53.331,31.141L54.268,31.16L55.205,30.515L56.142,30.687L57.079,30.67L58.016,41.943L58.953,41.649L59.89,29.061L60.827,29.416L61.764,28.902L62.702,29.519L63.638,29.164L64.575,28.757L65.512,28.1L66.449,27.722L67.386,26.185L68.323,25.875L69.26,25.729L70.196,25.856L71.133,25.331L72.07,37.198L73.007,25.074L73.944,25.668L74.881,25.804L75.818,25.909L76.755,26.032L77.692,25.492L78.629,25.271L79.566,25.142L80.503,25.764L81.439,26.482L82.376,26.828L83.313,27.121L84.25,26.415L85.187,25.957L86.124,26.279L87.061,27.016L87.998,27.544L88.935,27.983L89.872,28.387L90.809,27.747L91.746,27.414L92.683,27.669L93.62,28.387L94.557,28.939L95.494,29.468L96.431,29.973L97.368,29.508L98.304,29.126L99.242,29.288L100.179,30.003L101.115,30.398L102.052,30.824L102.989,31.144L103.926,30.97L104.863,41.714L105.8,30.252L106.737,30.988L107.674,31.619L108.611,31.958L109.548,32.143L110.485,31.707L111.422,31.087L112.359,31.152L113.296,31.917L114.232,32.222L115.169,32.403L116.106,32.294L117.043,31.743L117.98,31.524L118.917,31.784L119.854,32.277L120.791,32.624L121.728,32.712L122.665,32.796L123.602,32.445L124.539,31.822L125.476,31.126L126.413,31.789L127.35,32.685L128.287,33.031L129.224,33.212L130.161,32.773L131.098,33.388L132.034,33.592L132.971,34.164L133.908,35.362L134.845,35.763L135.782,35.899L136.719,35.315L137.656,35.592L138.593,36.133L139.53,36.764L140.467,37.632L141.404,37.992L142.341,38.217L143.278,48.657L144.215,49.276L145.152,49.164L146.088,49.493L147.026,49.746L147.962,49.778L148.899,38.859L149.836,38.161L150.773,37.686L151.71,37.108L152.647,37.387L153.584,37.632L154.521,37.878L155.458,37.688L156.395,36.921L157.332,36.403L158.269,35.921L159.206,36.056L160.143,35.163L161.08,34.855L162.017,34.686L162.954,33.996L163.89,34.483L164.827,35.695L165.764,36.783L166.701,36.296L167.638,35.908L168.575,35.731L169.512,34.88L170.449,34.631L171.386,34.328L172.323,34.329L173.221,33.922L174.158,33.396L175.095,33.329L176.032,33.858L176.969,34.476L177.905,35.666L178.842,36.248L179.779,37.45L180.716,37.177L181.653,37.877L182.59,37.17L183.527,38.661L184.464,39.278L185.401,39.69L186.338,40.057L187.275,40.341L188.212,40.363L189.149,39.966L190.086,40.384L191.023,40.357L191.96,40.606L192.897,39.799L193.834,38.261L194.77,37.851L195.708,37.399L196.644,37.4L197.581,37.352L198.518,37.876L199.455,38.551L200.392,38.273L201.329,38.913L202.266,40.323L203.203,42.092L204.14,42.238L205.077,41.801L206.014,41.309L206.951,41.427L207.888,41.43L208.825,40.981L209.762,41.689L210.698,42.137L211.635,40.74L212.572,38.877L213.509,38.676L214.446,38.774L215.383,38.256L216.32,39.166L217.257,39.717L218.194,40.268L219.131,39.847L220.068,39.945L221.005,40.043L221.942,39.415L222.879,39.523L223.816,39.268L224.753,39.68L225.69,39.566L226.626,39.679L227.563,39.789L228.5,39.682L229.437,40.502L230.374,40.502L231.311,38.96L232.248,37.599L233.185,49.079L234.122,48.936L235.059,47.866L235.996,35.477L236.933,34.581L237.87,34.1L238.807,32.722L239.744,30.764L240.681,29.522L241.618,28.472L242.555,27.45L243.492,26.752L244.429,26.195L245.366,24.508L246.303,23.186L247.24,22.453L248.176,21.27L249.113,20.594L250.05,19.795L250.987,19.459L251.924,18.917L252.861,18.407L253.798,17.611L254.735,15.996L255.672,14.744L256.609,13.67L257.546,13.268L258.483,11.688L259.42,10.401L260.357,9.68L261.294,8.634L262.23,7.666L263.167,6.733L264.104,6.447L265.041,6.648L265.978,6.913L266.915,7.142L267.852,6.778L268.789,6.423L269.726,6.221L270.663,6.697L271.6,6.961L272.537,6.967L273.474,6.828L274.411,6.909L275.348,6.72L276.285,6.489L277.221,6.91L278.158,7.019L279.095,7.102L280.033,7.276L280.969,7L281.906,6.7L282.844,6.562L283.78,7.013L284.717,7.419L285.654,7.774L286.591,8.004L287.528,7.824L288.465,7.632L289.402,7.624L290.339,8.608L291.276,9.588L292.213,10.514L293.149,23.998L294.087,24.18L295.023,24.671L295.96,12.251L296.897,13.22L297.834,14.339L298.771,15.249L299.708,15.966L300.646,16.04L301.582,16.588L302.519,17.289L303.456,18.311L304.393,19.453L305.33,20.548L306.267,21.367L307.204,21.895L308.141,22.307L309.078,22.592L310.014,23.508L310.952,24.434L311.888,25.478L312.835,26.376L313.762,26.459L314.699,26.994L315.636,27.342L316.573,28.512L317.51,29.606L318.447,30.551L319.384,30.946L320.321,30.848L321.258,30.833L322.195,30.717L323.132,31.369L324.069,31.672L325.006,32.168L325.943,32.468L326.879,32.252L327.817,32.707L328.753,32.744L329.69,33.391L330.627,33.776L331.564,34.194L332.501,34.264L333.439,33.874L334.375,33.784L335.312,33.23L336.249,33.629L337.186,33.935L338.123,34.376L339.06,34.532L339.997,33.903L340.934,33.763L341.871,33.499L342.807,34.137L343.745,34.408L344.681,34.85L345.618,34.911L346.555,34.408L347.492,34.312L348.429,33.871L349.366,34.43L350.303,34.635L351.24,34.972L352.177,35.029L353.114,34.567L354.051,34.906L354.988,35.273L355.925,36.404L356.862,36.064L357.799,36.193L358.735,36.184L359.672,35.46L360.609,35.25L361.546,34.94L362.483,35.736L363.421,35.958L364.357,36.317L365.294,36.487L366.231,36.016L367.168,36.638L368.105,36.584L369.042,37.003L370.018,37.092L370.956,37.367L371.892,37.441L372.829,36.927L373.766,36.857L374.703,36.367L375.639,36.565L376.577,36.544L377.513,36.812L378.45,36.737L379.387,36.034L380.324,36.394L381.261,36.221L382.198,36.347L383.135,35.854L384.072,35.315L385.009,34.461L385.946,33.782L386.883,33.904L387.82,33.897L388.757,34.39L390.071,34.251L391.066,34.461L391.971,34.308L392.906,33.611L393.842,32.839L394.378,32.159L395.315,32.164L396.252,31.195L397.189,31.053L398.126,31.379L399.063,30.967L400,30.417" stroke="#f58518" stroke-width="2"/></g></g><path class="foreground" aria-hidden="true" d="" display="none"/></g></g><g class="mark-group role-legend" role="graphics-symbol" aria-roledescription="legend" aria-label="Symbol legend for stroke color with 2 values: disponible, total"><g transform="translate(0,-29)"><path class="background" aria-hidden="true" d="M0,0h108v11h-108Z" pointer-events="none"/><g><g class="mark-group role-legend-entry"><g transform="translate(0,0)"><path class="background" aria-hidden="true" d="M0,0h0v0h0Z" pointer-events="none"/><g><g class="mark-group role-scope" role="graphics-object" aria-roledescription="group mark container"><g transform="translate(0,0)"><path class="background" aria-hidden="true" d="M0,0h61.0341796875v11h-61.0341796875Z" pointer-events="none" opacity="1"/><g><g class="mark-symbol role-legend-symbol" pointer-events="none"><path transform="translate(6,6)" d="M-5,0L5,0" stroke="#4c78a8" stroke-width="1.5" opacity="1"/></g><g class="mark-text role-legend-label" pointer-events="none"><text text-anchor="start" transform="translate(16,9)" font-family="sans-serif" font-size="10px" fill="#000" opacity="1">disponible</text></g></g><path class="foreground" aria-hidden="true" d="" pointer-events="none" display="none"/></g><g transform="translate(73,0)"><path class="background" aria-hidden="true" d="M0,0h34.9013671875v11h-34.9013671875Z" pointer-events="none" opacity="1"/><g><g class="mark-symbol role-legend-symbol" pointer-events="none"><path transform="translate(6,6)" d="M-5,0L5,0" stroke="#f58518" stroke-width="1.5" opacity="1"/></g><g class="mark-text role-legend-label" pointer-events="none"><text text-anchor="start" transform="translate(16,9)" font-family="sans-serif" font-size="10px" fill="#000" opacity="1">total</text></g></g><path class="foreground" aria-hidden="true" d="" pointer-events="none" display="none"/></g></g></g><path class="foreground" aria-hidden="true" d="" pointer-events="none" display="none"/></g></g></g><path class="foreground" aria-hidden="true" d="" pointer-events="none" display="none"/></g></g><g class="mark-group role-title"><g transform="translate(200,-46)"><path class="background" aria-hidden="true" d="M0,0h0v0h0Z" pointer-events="none"/><g><g class="mark-text role-title-text" role="graphics-symbol" aria-roledescription="title" aria-label="Title text 'Historique du nombre de trajets MAXJEUNE et au total, disponibles chaque jour'" pointer-events="none"><text text-anchor="middle" transform="translate(0,10)" font-family="sans-serif" font-size="13px" font-weight="bold" fill="#000" opacity="1">Historique du nombre de trajets MAXJEUNE et au total, disponibles chaque jour</text></g></g><path class="foreground" aria-hidden="true" d="" pointer-events="none" display="none"/></g></g></g><path class="foreground" aria-hidden="true" d="" display="none"/></g></g></g></svg>