<svg xmlns="http://www.w3.org/2000/svg" xmlns:xlink="http://www.w3.org/1999/xlink" version="1.1" class="marks" width="517" height="336" viewBox="0 0 517 336"><rect width="517" height="336" fill="white"/><g fill="none" stroke-miterlimit="10" transform="translate(64,51)"><g class="mark-group role-frame root" role="graphics-object" aria-roledescription="group mark container"><g transform="translate(0,0)"><path class="background" aria-hidden="true" d="M0.5,0.5h400v200h-400Z" stroke="#ddd"/><g><g class="mark-group role-axis" aria-hidden="true"><g transform="translate(0.5,200.5)"><path class="background" aria-hidden="true" d="M0,0h0v0h0Z" pointer-events="none"/><g><g class="mark-rule role-axis-grid" pointer-events="none"><line transform="translate(4,-200)" x2="0" y2="200" stroke="#ddd" stroke-width="1" opacity="1"/><line transform="translate(33,-200)" x2="0" y2="200" stroke="#ddd" stroke-width="1" opacity="1"/><line transform="translate(61,-200)" x2="0" y2="200" stroke="#ddd" stroke-width="1" opacity="1"/><line transform="translate(90,-200)" x2="0" y2="200" stroke="#ddd" stroke-width="1" opacity="1"/><line transform="translate(118,-200)" x2="0" y2="200" stroke="#ddd" stroke-width="1" opacity="1"/><line transform="translate(144,-200)" x2="0" y2="200" stroke="#ddd" stroke-width="1" opacity="1"/><line transform="translate(173,-200)" x2="0" y2="200" stroke="#ddd" stroke-width="1" opacity="1"/><line transform="translate(201,-200)" x2="0" y2="200" stroke="#ddd" stroke-width="1" opacity="1"/><line transform="translate(230,-200)" x2="0" y2="200" stroke="#ddd" stroke-width="1" opacity="1"/><line transform="translate(258,-200)" x2="0" y2="200" stroke="#ddd" stroke-width="1" opacity="1"/><line transform="translate(287,-200)" x2="0" y2="200" stroke="#ddd" stroke-width="1" opacity="1"/><line transform="translate(315,-200)" x2="0" y2="200" stroke="#ddd" stroke-width="1" opacity="1"/><line transform="translate(343,-200)" x2="0" y2="200" stroke="#ddd" stroke-width="1" opacity="1"/><line transform="translate(372,-200)" x2="0" y2="200" stroke="#ddd" stroke-width="1" opacity="1"/></g></g><path class="foreground" aria-hidden="true" d="" pointer-events="none" display="none"/></g></g><g class="mark-group role-axis" aria-hidden="true"><g transform="translate(0.5,0.5)"><path class="background" aria-hidden="true" d="M0,0h0v0h0Z" pointer-events="none"/><g><g class="mark-rule role-axis-grid" pointer-events="none"><line transform="translate(0,200)" x2="400" y2="0" stroke="#ddd" stroke-width="1" opacity="1"/><line transform="translate(0,156)" x2="400" y2="0" stroke="#ddd" stroke-width="1" opacity="1"/><line transform="translate(0,111)" x2="400" y2="0" stroke="#ddd" stroke-width="1" opacity="1"/><line transform="translate(0,67)" x2="400" y2="0" stroke="#ddd" stroke-width="1" opacity="1"/><line transform="translate(0,22)" x2="400" y2="0" stroke="#ddd" stroke-width="1" opacity="1"/></g></g><path class="foreground" aria-hidden="true" d="" pointer-events="none" display="none"/></g></g><g class="mark-group role-axis" role="graphics-symbol" aria-roledescription="axis" aria-label="X-axis titled 'Date de la recherche' for a time scale with values from September 2024 to November 2025"><g transform="translate(0.5,200.5)"><path class="background" aria-hidden="true" d="M0,0h0v0h0Z" pointer-events="none"/><g><g class="mark-rule role-axis-tick" pointer-events="none"><line transform="translate(4,0)" x2="0" y2="5" stroke="#888" stroke-width="1" opacity="1"/><line transform="translate(33,0)" x2="0" y2="5" stroke="#888" stroke-width="1" opacity="1"/><line transform="translate(61,0)" x2="0" y2="5" stroke="#888" stroke-width="1" opacity="1"/><line transform="translate(90,0)" x2="0" y2="5" stroke="#888" stroke-width="1" opacity="1"/><line transform="translate(118,0)" x2="0" y2="5" stroke="#888" stroke-width="1" opacity="1"/><line transform="translate(144,0)" x2="0" y2="5" stroke="#888" stroke-width="1" opacity="1"/><line transform="translate(173,0)" x2="0" y2="5" stroke="#888" stroke-width="1" opacity="1"/><line transform="translate(201,0)" x2="0" y2="5" stroke="#888" stroke-width="1" opacity="1"/><line transform="translate(230,0)" x2="0" y2="5" stroke="#888" stroke-width="1" opacity="1"/><line transform="translate(258,0)" x2="0" y2="5" stroke="#888" stroke-width="1" opacity="1"/><line transform="translate(287,0)" x2="0" y2="5" stroke="#888" stroke-width="1" opacity="1"/><line transform="translate(315,0)" x2="0" y2="5" stroke="#888" stroke-width="1" opacity="1"/><line transform="translate(343,0)" x2="0" y2="5" stroke="#888" stroke-width="1" opacity="1"/><line transform="translate(372,0)" x2="0" y2="5" stroke="#888" stroke-width="1" opacity="1"/></g><g class="mark-text role-axis-label" pointer-events="none"><text text-anchor="start" transform="translate(4.060182465504178,7) rotate(45) translate(0,8)" font-family="sans-serif" font-size="10px" fill="#000" opacity="1">October 2024</text><text text-anchor="start" transform="translate(32.87681697777537,7) rotate(45) translate(0,8)" font-family="sans-serif" font-size="10px" fill="#000" opacity="0">November 2024</text><text text-anchor="start" transform="translate(60.763882634812006,7) rotate(45) translate(0,8)" font-family="sans-serif" font-size="10px" fill="#000" opacity="1">December 2024</text><text text-anchor="start" transform="translate(89.5805171470832,7) rotate(45) translate(0,8)" font-family="sans-serif" font-size="10px" fill="#000" opacity="0">January 2025</text><text text-anchor="start" transform="translate(118.39715165935438,7) rotate(45) translate(0,8)" font-family="sans-serif" font-size="10px" fill="#000" opacity="1">February 2025</text><text text-anchor="start" transform="translate(144.4250796059219,7) rotate(45) translate(0,8)" font-family="sans-serif" font-size="10px" fill="#000" opacity="0">March 2025</text><text text-anchor="start" transform="translate(173.2417141181931,7) rotate(45) translate(0,8)" font-family="sans-serif" font-size="10px" fill="#000" opacity="1">April 2025</text><text text-anchor="start" transform="translate(201.12877977522973,7) rotate(45) translate(0,8)" font-family="sans-serif" font-size="10px" fill="#000" opacity="0">May 2025</text><text text-anchor="start" transform="translate(229.9454142875009,7) rotate(45) translate(0,8)" font-family="sans-serif" font-size="10px" fill="#000" opacity="1">June 2025</text><text text-anchor="start" transform="translate(257.83247994453757,7) rotate(45) translate(0,8)" font-family="sans-serif" font-size="10px" fill="#000" opacity="0">July 2025</text><text text-anchor="start" transform="translate(286.6491144568088,7) rotate(45) translate(0,8)" font-family="sans-serif" font-size="10px" fill="#000" opacity="1">August 2025</text><text text-anchor="start" transform="translate(315.4657489690799,7) rotate(45) translate(0,8)" font-family="sans-serif" font-size="10px" fill="#000" opacity="0">September 2025</text><text text-anchor="start" transform="translate(343.3528146261166,7) rotate(45) translate(0,8)" font-family="sans-serif" font-size="10px" fill="#000" opacity="1">October 2025</text><text text-anchor="start" transform="translate(372.16944913838773,7) rotate(45) translate(0,8)" font-family="sans-serif" font-size="10px" fill="#000" opacity="0">November 2025</text></g><g class="mark-rule role-axis-domain" pointer-events="none"><line transform="translate(0,0)" x2="400" y2="0" stroke="#888" stroke-width="1" opacity="1"/></g><g class="mark-text role-axis-title" pointer-events="none"><text text-anchor="middle" transform="translate(200,77.38337257480674)" font-family="sans-serif" font-size="11px" font-weight="bold" fill="#000" opacity="1">Date de la recherche</text></g></g><path class="foreground" aria-hidden="true" d="" pointer-events="none" display="none"/></g></g><g class="mark-group role-axis" role="graphics-symbol" aria-roledescription="axis" aria-label="Y-axis titled 'Nombre de trajets' for a linear scale with values from 0 to 450,000"><g transform="translate(0.5,0.5)"><path class="background" aria-hidden="true" d="M0,0h0v0h0Z" pointer-events="none"/><g><g class="mark-rule role-axis-tick" pointer-events="none"><line transform="translate(0,200)" x2="-5" y2="0" stroke="#888" stroke-width="1" opacity="1"/><line transform="translate(0,156)" x2="-5" y2="0" stroke="#888" stroke-width="1" opacity="1"/><line transform="translate(0,111)" x2="-5" y2="0" stroke="#888" stroke-width="1" opacity="1"/><line transform="translate(0,67)" x2="-5" y2="0" stroke="#888" stroke-width="1" opacity="1"/><line transform="translate(0,22)" x2="-5" y2="0" stroke="#888" stroke-width="1" opacity="1"/></g><g class="mark-text role-axis-label" pointer-events="none"><text text-anchor="end" transform="translate(-7,203)" font-family="sans-serif" font-size="10px" fill="#000" opacity="1">0</text><text text-anchor="end" transform="translate(-7,158.55555555555557)" font-family="sans-serif" font-size="10px" fill="#000" opacity="1">100,000</text><text text-anchor="end" transform="translate(-7,114.11111111111111)" font-family="sans-serif" font-size="10px" fill="#000" opacity="1">200,000</text><text text-anchor="end" transform="translate(-7,69.66666666666667)" font-family="sans-serif" font-size="10px" fill="#000" opacity="1">300,000</text><text text-anchor="end" transform="translate(-7,25.222222222222232)" font-family="sans-serif" font-size="10px" fill="#000" opacity="1">400,000</text></g><g class="mark-rule role-axis-domain" pointer-events="none"><line transform="translate(0,200)" x2="0" y2="-200" stroke="#888" stroke-width="1" opacity="1"/></g><g class="mark-text role-axis-title" pointer-events="none"><text text-anchor="middle" transform="translate(-47.1474609375,100) rotate(-90) translate(0,-2)" font-family="sans-serif" font-size="11px" font-weight="bold" fill="#000" opacity="1">Nombre de trajets</text></g></g><path class="foreground" aria-hidden="true" d="" pointer-events="none" display="none"/></g></g><g class="mark-group role-scope pathgroup" role="graphics-object" aria-roledescription="group mark container"><g transform="translate(0,0)"><path class="background" aria-hidden="true" d="M0,0h400v200h-400Z"/><g><g class="mark-line role-mark marks" role="graphics-object" aria-roledescription="line mark container"><path aria-label="Date de la recherche: September 2024; Nombre de trajets: 91488; variable: disponible" role="graphics-symbol" aria-roledescription="line mark" d="M0,159.339L0.817,160.009L1.747,160.25L2.676,159.721L3.606,159.224L4.535,160.066L5.465,161.226L6.395,162.729L7.324,163.599L8.253,164.927L9.183,164.272L10.113,163.069L11.042,163.83L11.972,166.394L12.902,165.123L13.831,166.305L14.76,167.015L15.69,167.638L16.62,167.648L17.549,168.931L18.479,169.444L19.408,170.203L20.338,170.474L21.267,170.704L22.197,168.872L23.127,167.766L24.056,168.451L24.986,167.16L25.915,168.696L26.845,166.936L27.775,167.617L28.704,164.943L29.64,163.236L30.563,165.275L31.493,163.601L32.422,165.017L33.352,163.38L34.282,162.688L35.211,161.357L36.14,159.746L37.07,159.755L38.001,159.142L38.929,161.116L39.859,160.392L40.788,160.483L41.718,158.316L42.648,156.748L43.579,154.82L44.507,155.253L45.436,154.239L46.366,154.859L47.298,156.557L48.225,155.787L49.155,155.331L50.084,156.853L51.014,157.538L51.943,158.599L52.873,159.242L53.802,159.566L54.732,159.835L55.661,159.906L56.591,161.397L57.521,162.616L58.45,164.062L59.38,165.294L60.309,166.184L61.239,166.252L62.169,166.133L63.098,167.211L64.028,167.551L64.957,168.202L65.887,168.182L66.817,168.864L67.746,168.023L68.676,166.956L69.605,166.728L70.534,166.308L71.464,166.35L72.394,164.781L73.323,165.02L74.253,163.984L75.182,162.302L76.112,162.622L77.042,161.783L77.971,161.712L78.901,159.731L79.83,159.145L80.76,157.033L81.689,155.203L82.619,153.702L83.548,149.882L84.478,149.315L85.408,147.688L86.337,147.022L87.267,145.158L88.196,143.235L89.126,141.419L90.055,139.417L90.985,139.184L91.915,141.537L92.844,142.381L93.774,139.298L94.703,137.729L95.633,138.287L96.562,138.306L97.492,139.025L98.422,139.891L99.352,141.793L100.281,142.216L101.21,142.23L102.14,143.622L103.069,144.212L103.999,146.113L104.928,147.762L105.858,148.816L106.788,149.653L107.717,149.103L108.647,149.572L109.576,151.036L110.506,152.019L111.436,154.556L112.365,155.987L113.295,156.427L114.224,155.749L115.154,156.068L116.083,156.588L117.013,157.142L117.942,158.761L118.872,159.033L119.802,159.104L120.731,158.219L121.661,158.195L122.59,158.685L123.52,160.639L124.449,161.217L125.379,162.238L126.309,161.805L127.238,161.569L128.168,162.052L129.097,162.612L130.027,163.765L130.956,164.016L131.886,164.144L132.816,163.397L133.745,162.463L134.675,162.635L135.605,160.836L136.534,162.052L137.464,161.876L138.393,162.061L139.323,159.33L140.252,157.85L141.182,157.162L142.111,156.173L143.041,157.449L143.97,157.287L144.9,157.682L145.83,156.434L146.759,155.299L147.689,155.873L148.618,156.232L149.548,158.153L150.477,157.316L151.407,158.821L152.337,157.497L153.266,156.43L154.196,156.36L155.125,156.624L156.055,157.757L156.984,159.565L157.914,159.94L158.844,160.216L159.773,159.533L160.703,159.946L161.632,160.72L162.562,162.035L163.491,162.685L164.421,163.619L165.351,164.437L166.28,164.308L167.21,164.997L168.139,165.332L169.069,166.06L169.998,166.832L170.928,167.163L171.858,167.356L172.787,166.756L173.717,168.562L174.646,168.524L175.576,169.668L176.505,169.96L177.435,170.583L178.364,169.531L179.294,169.106L180.224,170.336L181.153,171.222L182.083,172.901L183.012,173.898L183.942,173.981L184.871,173.399L185.801,172.256L186.731,172.224L187.66,172.383L188.59,172.577L189.519,171.82L190.449,171.468L191.378,170.136L192.308,168.69L193.238,167.228L194.167,166.981L195.097,166.786L196.026,166.962L196.956,166.335L197.885,165.966L198.815,165.59L199.745,166.577L200.674,167.733L201.604,170.02L202.533,168.846L203.463,169.858L204.392,169.379L205.322,168.202L206.251,168.43L207.181,170.075L208.111,170.046L209.04,169.925L209.97,169.592L210.899,168.736L211.829,168.091L212.758,168.04L213.688,168.317L214.618,169.349L215.547,169.497L216.477,170.13L217.406,170.491L218.336,170.374L219.265,171.072L220.195,173.061L221.125,174.635L222.054,174.731L222.984,174.89L223.913,174.699L224.843,174.329L225.772,175.925L226.702,174.959L227.632,175.182L228.561,176.424L229.491,174.932L230.42,174.408L231.35,173.2L232.279,172.78L233.209,173.29L234.139,173.061L235.068,173.79L235.998,173.8L236.927,173.333L237.857,172.788L238.787,172.172L239.716,172.853L240.646,173.283L241.575,175.056L242.505,174.065L243.435,174.497L244.364,174.456L245.294,175.107L246.223,175.869L247.152,176.792L248.082,176.778L249.012,177.009L249.941,177.119L250.871,176.421L251.8,176.539L252.73,177.062L253.66,177.335L254.589,177.774L255.519,178.057L256.448,177.759L257.378,177.03L258.307,176.662L259.237,177.327L260.167,177.417L261.096,177.748L262.026,177.901L262.955,177.574L263.885,176.725L264.814,176.693L265.744,176.283L266.674,176.441L267.603,176.327L268.533,176.355L269.462,175.682L270.392,175.172L271.321,174.815L272.251,178.13L273.18,178.902L274.11,178.285L275.04,178.194L275.969,177.128L276.899,176.427L277.829,176.211L278.758,176.344L279.687,176.647L280.618,176.738L281.547,176.03L282.476,175.164L283.406,174.287L284.335,174.413L285.265,173.714L286.195,174.324L287.124,173.887L288.054,173.912L288.983,172.471L289.913,171.321L290.842,171.24L291.772,171.28L292.701,172.08L293.631,172.211L294.561,172.403L295.49,171.398L296.42,170.396L297.349,170.518L298.28,170.236L299.208,170.683L300.138,170.087L301.068,170.074L301.997,169.3L302.927,168.013L303.856,167.635L304.786,166.205L305.716,166.481L306.645,166.323L307.575,166.3L308.504,165.771L309.434,164.96L310.373,164.593L311.293,165.332L312.222,166.362L313.152,166.83L314.082,167.888L315.011,167.998L315.941,168.088L316.87,168.656L317.8,170.384L318.729,164.386L319.659,164.849L320.588,166.016L321.518,165.694L322.448,164.655L323.377,163.862L324.307,163.137L325.236,165.146L326.166,165.064L327.096,165.244L328.025,165.762L328.955,164.872L329.884,164.64L330.814,165.472L331.743,166.088L332.673,167.32L333.602,166.82L334.532,167.115L335.462,167.029L336.391,167.192L337.321,167.811L338.25,168.811L339.18,170.644L340.109,169.776L341.039,170.481L341.969,170.076L342.898,170.333L343.828,170.433L344.757,171.609L345.687,172.44L346.617,172.626L347.546,172.988L348.476,172.106L349.405,171.847L350.335,172.026L351.264,173.442L352.194,173.866L353.123,173.078L354.053,172.944L354.983,173.152L355.912,173.688L356.842,174.006L357.771,174.688L358.701,174.205L359.63,173.786L360.56,172.674L361.489,171.307L362.419,171.597L363.349,171.21L364.278,171.624L365.208,171.142L366.137,170.751L367.067,169.213L367.998,167.775L368.926,167.387L369.856,167.261L370.785,167.35L371.715,166.703L372.644,167.341L373.574,166.164L374.503,164.592L375.433,164.66L376.363,164.254L377.292,165.054L378.222,165.095L379.152,164.783L380.081,163.01L381.01,162.001L381.94,161.608L382.87,160.09L383.799,160.927L384.729,161.446L385.658,161.809L386.962,161.546L387.95,160.467L388.848,161.036L389.774,161.558L390.703,162.723L391.236,163.683L392.165,163.763L393.095,163.474L394.024,163.335L394.954,163.94L395.884,164.694L396.813,165.922L398.163,167.04L399.07,167.981L400,168.795" stroke="#4c78a8" stroke-width="2"/></g></g><path class="foreground" aria-hidden="true" d="" display="none"/></g><g transform="translate(0,0)"><path class="background" aria-hidden="true" d="M0,0h400v200h-400Z"/><g><g class="mark-line role-mark marks" role="graphics-object" aria-roledescription="line mark container"><path aria-label="Date de la recherche: September 2024; Nombre de trajets: 351801; variable: total" role="graphics-symbol" aria-roledescription="line mark" d="M0,43.644L0.817,43.23L1.747,43.532L2.676,43.471L3.606,43.523L4.535,42.888L5.465,42.975L6.395,43.715L7.324,43.55L8.253,43.967L9.183,43.883L10.113,43.916L11.042,43.705L11.972,43.343L12.902,45.168L13.831,47.57L14.76,49.451L15.69,50.78L16.62,51.056L17.549,51.055L18.479,50.496L19.408,50.482L20.338,50.263L21.267,50.547L22.197,50.55L23.127,50.929L24.056,51.131L24.986,50.923L25.915,51.584L26.845,51.856L27.775,52.263L28.704,52.39L29.64,52.759L30.563,52.836L31.493,52.374L32.422,53.093L33.352,53.62L34.282,53.032L35.211,52.105L36.14,52.092L37.07,52.091L38.001,51.462L38.929,51.622L39.859,41.063L40.788,40.994L41.718,38.53L42.648,35.785L43.579,33.752L44.507,31.452L45.436,31.196L46.366,31.976L47.298,32.224L48.225,32.1L49.155,32.214L50.084,43.381L51.014,42.648L51.943,31.545L52.873,31.141L53.802,31.16L54.732,30.515L55.661,30.687L56.591,30.67L57.521,41.943L58.45,41.649L59.38,29.061L60.309,29.416L61.239,28.902L62.169,29.519L63.098,29.164L64.028,28.757L64.957,28.1L65.887,27.722L66.817,26.185L67.746,25.875L68.676,25.729L69.605,25.856L70.534,25.331L71.464,37.198L72.394,25.074L73.323,25.668L74.253,25.804L75.182,25.909L76.112,26.032L77.042,25.492L77.971,25.271L78.901,25.142L79.83,25.764L80.76,26.482L81.689,26.828L82.619,27.121L83.548,26.415L84.478,25.957L85.408,26.279L86.337,27.016L87.267,27.544L88.196,27.983L89.126,28.387L90.055,27.747L90.985,27.414L91.915,27.669L92.844,28.387L93.774,28.939L94.703,29.468L95.633,29.973L96.562,29.508L97.492,29.126L98.422,29.288L99.352,30.003L100.281,30.398L101.21,30.824L102.14,31.144L103.069,30.97L103.999,41.714L104.928,30.252L105.858,30.988L106.788,31.619L107.717,31.958L108.647,32.143L109.576,31.707L110.506,31.087L111.436,31.152L112.365,31.917L113.295,32.222L114.224,32.403L115.154,32.294L116.083,31.743L117.013,31.524L117.942,31.784L118.872,32.277L119.802,32.624L120.731,32.712L121.661,32.796L122.59,32.445L123.52,31.822L124.449,31.126L125.379,31.789L126.309,32.685L127.238,33.031L128.168,33.212L129.097,32.773L130.027,33.388L130.956,33.592L131.886,34.164L132.816,35.362L133.745,35.763L134.675,35.899L135.605,35.315L136.534,35.592L137.464,36.133L138.393,36.764L139.323,37.632L140.252,37.992L141.182,38.217L142.111,48.657L143.041,49.276L143.97,49.164L144.9,49.493L145.83,49.746L146.759,49.778L147.689,38.859L148.618,38.161L149.548,37.686L150.477,37.108L151.407,37.387L152.337,37.632L153.266,37.878L154.196,37.688L155.125,36.921L156.055,36.403L156.984,35.921L157.914,36.056L158.844,35.163L159.773,34.855L160.703,34.686L161.632,33.996L162.562,34.483L163.491,35.695L164.421,36.783L165.351,36.296L166.28,35.908L167.21,35.731L168.139,34.88L169.069,34.631L169.998,34.328L170.928,34.329L171.858,33.922L172.787,33.396L173.717,33.329L174.646,33.858L175.576,34.476L176.505,35.666L177.435,36.248L178.364,37.45L179.294,37.177L180.224,37.877L181.153,37.17L182.083,38.661L183.012,39.278L183.942,39.69L184.871,40.057L185.801,40.341L186.731,40.363L187.66,39.966L188.59,40.384L189.519,40.357L190.449,40.606L191.378,39.799L192.308,38.261L193.238,37.851L194.167,37.399L195.097,37.4L196.026,37.352L196.956,37.876L197.885,38.551L198.815,38.273L199.745,38.913L200.674,40.323L201.604,42.092L202.533,42.238L203.463,41.801L204.392,41.309L205.322,41.427L206.251,41.43L207.181,40.981L208.111,41.689L209.04,42.137L209.97,40.74L210.899,38.877L211.829,38.676L212.758,38.774L213.688,38.256L214.618,39.166L215.547,39.717L216.477,40.268L217.406,39.847L218.336,39.945L219.265,40.043L220.195,39.415L221.125,39.523L222.054,39.268L222.984,39.68L223.913,39.566L224.843,39.679L225.772,39.789L226.702,39.682L227.632,40.502L228.561,40.502L229.491,38.96L230.42,37.599L231.35,49.079L232.279,48.936L233.209,47.866L234.139,35.477L235.068,34.581L235.998,34.1L236.927,32.722L237.857,30.764L238.787,29.522L239.716,28.472L240.646,27.45L241.575,26.752L242.505,26.195L243.435,24.508L244.364,23.186L245.294,22.453L246.223,21.27L247.152,20.594L248.082,19.795L249.012,19.459L249.941,18.917L250.871,18.407L251.8,17.611L252.73,15.996L253.66,14.744L254.589,13.67L255.519,13.268L256.448,11.688L257.378,10.401L258.307,9.68L259.237,8.634L260.167,7.666L261.096,6.733L262.026,6.447L262.955,6.648L263.885,6.913L264.814,7.142L265.744,6.778L266.674,6.423L267.603,6.221L268.533,6.697L269.462,6.961L270.392,6.967L271.321,6.828L272.251,6.909L273.18,6.72L274.11,6.489L275.04,6.91L275.969,7.019L276.899,7.102L277.829,7.276L278.758,7L279.687,6.7L280.618,6.562L281.547,7.013L282.476,7.419L283.406,7.774L284.335,8.004L285.265,7.824L286.195,7.632L287.124,7.624L288.054,8.608L288.983,9.588L289.913,10.514L290.842,23.998L291.772,24.18L292.701,24.671L293.631,12.251L294.561,13.22L295.49,14.339L296.42,15.249L297.349,15.966L298.28,16.04L299.208,16.588L300.138,17.289L301.068,18.311L301.997,19.453L302.927,20.548L303.856,21.367L304.786,21.895L305.716,22.307L306.645,22.592L307.575,23.508L308.504,24.434L309.434,25.478L310.373,26.376L311.293,26.459L312.222,26.994L313.152,27.342L314.082,28.512L315.011,29.606L315.941,30.551L316.87,30.946L317.8,30.848L318.729,30.833L319.659,30.717L320.588,31.369L321.518,31.672L322.448,32.168L323.377,32.468L324.307,32.252L325.236,32.707L326.166,32.744L327.096,33.391L328.025,33.776L328.955,34.194L329.884,34.264L330.814,33.874L331.743,33.784L332.673,33.23L333.602,33.629L334.532,33.935L335.462,34.376L336.391,34.532L337.321,33.903L338.25,33.763L339.18,33.499L340.109,34.137L341.039,34.408L341.969,34.85L342.898,34.911L343.828,34.408L344.757,34.312L345.687,33.871L346.617,34.43L347.546,34.635L348.476,34.972L349.405,35.029L350.335,34.567L351.264,34.906L352.194,35.273L353.123,36.404L354.053,36.064L354.983,36.193L355.912,36.184L356.842,35.46L357.771,35.25L358.701,34.94L359.63,35.736L360.56,35.958L361.489,36.317L362.419,36.487L363.349,36.016L364.278,36.638L365.208,36.584L366.137,37.003L367.067,37.092L367.998,37.367L368.926,37.441L369.856,36.927L370.785,36.857L371.715,36.367L372.644,36.565L373.574,36.544L374.503,36.812L375.433,36.737L376.363,36.034L377.292,36.394L378.222,36.221L379.152,36.347L380.081,35.854L381.01,35.315L381.94,34.461L382.87,33.782L383.799,33.904L384.729,33.897L385.658,34.39L386.962,34.251L387.95,34.461L388.848,34.308L389.774,33.611L390.703,32.839L391.236,32.159L392.165,32.164L393.095,31.195L394.024,31.053L394.954,31.379L395.884,30.967L396.813,30.417L398.163,29.717L399.07,27.828L400,26.715" stroke="#f58518" stroke-width="2"/></g></g><path class="foreground" aria-hidden="true" d="" display="none"/></g></g><g class="mark-group role-legend" role="graphics-symbol" aria-roledescription="legend" aria-label="Symbol legend for stroke color with 2 values: disponible, total"><g transform="translate(0,-29)"><path class="background" aria-hidden="true" d="M0,0h108v11h-108Z" pointer-events="none"/><g><g class="mark-group role-legend-entry"><g transform="translate(0,0)"><path class="background" aria-hidden="true" d="M0,0h0v0h0Z" pointer-events="none"/><g><g class="mark-group role-scope" role="graphics-object" aria-roledescription="group mark container"><g transform="translate(0,0)"><path class="background" aria-hidden="true" d="M0,0h61.0341796875v11h-61.0341796875Z" pointer-events="none" opacity="1"/><g><g class="mark-symbol role-legend-symbol" pointer-events="none"><path transform="translate(6,6)" d="M-5,0L5,0" stroke="#4c78a8" stroke-width="1.5" opacity="1"/></g><g class="mark-text role-legend-label" pointer-events="none"><text text-anchor="start" transform="translate(16,9)" font-family="sans-serif" font-size="10px" fill="#000" opacity="1">disponible</text></g></g><path class="foreground" aria-hidden="true" d="" pointer-events="none" display="none"/></g><g transform="translate(73,0)"><path class="background" aria-hidden="true" d="M0,0h34.9013671875v11h-34.9013671875Z" pointer-events="none" opacity="1"/><g><g class="mark-symbol role-legend-symbol" pointer-events="none"><path transform="translate(6,6)" d="M-5,0L5,0" stroke="#f58518" stroke-width="1.5" opacity="1"/></g><g class="mark-text role-legend-label" pointer-events="none"><text text-anchor="start" transform="translate(16,9)" font-family="sans-serif" font-size="10px" fill="#000" opacity="1">total</text></g></g><path class="foreground" aria-hidden="true" d="" pointer-events="none" display="none"/></g></g></g><path class="foreground" aria-hidden="true" d="" pointer-events="none" display="none"/></g></g></g><path class="foreground" aria-hidden="true" d="" pointer-events="none" display="none"/></g></g><g class="mark-group role-title"><g transform="translate(200,-46)"><path class="background" aria-hidden="true" d="M0,0h0v0h0Z" pointer-events="none"/><g><g class="mark-text role-title-text" role="graphics-symbol" aria-roledescription="title" aria-label="Title text 'Historique du nombre de trajets MAXJEUNE et au total, disponibles chaque jour'" pointer-events="none"><text text-anchor="middle" transform="translate(0,10)" font-family="sans-serif" font-size="13px" font-weight="bold" fill="#000" opacity="1">Historique du nombre de trajets MAXJEUNE et au total, disponibles chaque jour</text></g></g><path class="foreground" aria-hidden="true" d="" pointer-events="none" display="none"/></g></g></g><path class="foreground" aria-hidden="true" d="" display="none"/></g></g></g></svg>