<svg xmlns="http://www.w3.org/2000/svg" xmlns:xlink="http://www.w3.org/1999/xlink" version="1.1" class="marks" width="517" height="336" viewBox="0 0 517 336"><rect width="517" height="336" fill="white"/><g fill="none" stroke-miterlimit="10" transform="translate(64,51)"><g class="mark-group role-frame root" role="graphics-object" aria-roledescription="group mark container"><g transform="translate(0,0)"><path class="background" aria-hidden="true" d="M0.5,0.5h400v200h-400Z" stroke="#ddd"/><g><g class="mark-group role-axis" aria-hidden="true"><g transform="translate(0.5,200.5)"><path class="background" aria-hidden="true" d="M0,0h0v0h0Z" pointer-events="none"/><g><g class="mark-rule role-axis-grid" pointer-events="none"><line transform="translate(4,-200)" x2="0" y2="200" stroke="#ddd" stroke-width="1" opacity="1"/><line transform="translate(33,-200)" x2="0" y2="200" stroke="#ddd" stroke-width="1" opacity="1"/><line transform="translate(61,-200)" x2="0" y2="200" stroke="#ddd" stroke-width="1" opacity="1"/><line transform="translate(90,-200)" x2="0" y2="200" stroke="#ddd" stroke-width="1" opacity="1"/><line transform="translate(119,-200)" x2="0" y2="200" stroke="#ddd" stroke-width="1" opacity="1"/><line transform="translate(145,-200)" x2="0" y2="200" stroke="#ddd" stroke-width="1" opacity="1"/><line transform="translate(174,-200)" x2="0" y2="200" stroke="#ddd" stroke-width="1" opacity="1"/><line transform="translate(202,-200)" x2="0" y2="200" stroke="#ddd" stroke-width="1" opacity="1"/><line transform="translate(230,-200)" x2="0" y2="200" stroke="#ddd" stroke-width="1" opacity="1"/><line transform="translate(258,-200)" x2="0" y2="200" stroke="#ddd" stroke-width="1" opacity="1"/><line transform="translate(287,-200)" x2="0" y2="200" stroke="#ddd" stroke-width="1" opacity="1"/><line transform="translate(316,-200)" x2="0" y2="200" stroke="#ddd" stroke-width="1" opacity="1"/><line transform="translate(344,-200)" x2="0" y2="200" stroke="#ddd" stroke-width="1" opacity="1"/><line transform="translate(373,-200)" x2="0" y2="200" stroke="#ddd" stroke-width="1" opacity="1"/></g></g><path class="foreground" aria-hidden="true" d="" pointer-events="none" display="none"/></g></g><g class="mark-group role-axis" aria-hidden="true"><g transform="translate(0.5,0.5)"><path class="background" aria-hidden="true" d="M0,0h0v0h0Z" pointer-events="none"/><g><g class="mark-rule role-axis-grid" pointer-events="none"><line transform="translate(0,200)" x2="400" y2="0" stroke="#ddd" stroke-width="1" opacity="1"/><line transform="translate(0,156)" x2="400" y2="0" stroke="#ddd" stroke-width="1" opacity="1"/><line transform="translate(0,111)" x2="400" y2="0" stroke="#ddd" stroke-width="1" opacity="1"/><line transform="translate(0,67)" x2="400" y2="0" stroke="#ddd" stroke-width="1" opacity="1"/><line transform="translate(0,22)" x2="400" y2="0" stroke="#ddd" stroke-width="1" opacity="1"/></g></g><path class="foreground" aria-hidden="true" d="" pointer-events="none" display="none"/></g></g><g class="mark-group role-axis" role="graphics-symbol" aria-roledescription="axis" aria-label="X-axis titled 'Date de la recherche' for a time scale with values from September 2024 to November 2025"><g transform="translate(0.5,200.5)"><path class="background" aria-hidden="true" d="M0,0h0v0h0Z" pointer-events="none"/><g><g class="mark-rule role-axis-tick" pointer-events="none"><line transform="translate(4,0)" x2="0" y2="5" stroke="#888" stroke-width="1" opacity="1"/><line transform="translate(33,0)" x2="0" y2="5" stroke="#888" stroke-width="1" opacity="1"/><line transform="translate(61,0)" x2="0" y2="5" stroke="#888" stroke-width="1" opacity="1"/><line transform="translate(90,0)" x2="0" y2="5" stroke="#888" stroke-width="1" opacity="1"/><line transform="translate(119,0)" x2="0" y2="5" stroke="#888" stroke-width="1" opacity="1"/><line transform="translate(145,0)" x2="0" y2="5" stroke="#888" stroke-width="1" opacity="1"/><line transform="translate(174,0)" x2="0" y2="5" stroke="#888" stroke-width="1" opacity="1"/><line transform="translate(202,0)" x2="0" y2="5" stroke="#888" stroke-width="1" opacity="1"/><line transform="translate(230,0)" x2="0" y2="5" stroke="#888" stroke-width="1" opacity="1"/><line transform="translate(258,0)" x2="0" y2="5" stroke="#888" stroke-width="1" opacity="1"/><line transform="translate(287,0)" x2="0" y2="5" stroke="#888" stroke-width="1" opacity="1"/><line transform="translate(316,0)" x2="0" y2="5" stroke="#888" stroke-width="1" opacity="1"/><line transform="translate(344,0)" x2="0" y2="5" stroke="#888" stroke-width="1" opacity="1"/><line transform="translate(373,0)" x2="0" y2="5" stroke="#888" stroke-width="1" opacity="1"/></g><g class="mark-text role-axis-label" pointer-events="none"><text text-anchor="start" transform="translate(4.06964330356907,7) rotate(45) translate(0,8)" font-family="sans-serif" font-size="10px" fill="#000" opacity="1">October 2024</text><text text-anchor="start" transform="translate(32.95342492437838,7) rotate(45) translate(0,8)" font-family="sans-serif" font-size="10px" fill="#000" opacity="0">November 2024</text><text text-anchor="start" transform="translate(60.905471654193846,7) rotate(45) translate(0,8)" font-family="sans-serif" font-size="10px" fill="#000" opacity="1">December 2024</text><text text-anchor="start" transform="translate(89.78925327500316,7) rotate(45) translate(0,8)" font-family="sans-serif" font-size="10px" fill="#000" opacity="0">January 2025</text><text text-anchor="start" transform="translate(118.67303489581246,7) rotate(45) translate(0,8)" font-family="sans-serif" font-size="10px" fill="#000" opacity="1">February 2025</text><text text-anchor="start" transform="translate(144.76161184364022,7) rotate(45) translate(0,8)" font-family="sans-serif" font-size="10px" fill="#000" opacity="0">March 2025</text><text text-anchor="start" transform="translate(173.64539346444954,7) rotate(45) translate(0,8)" font-family="sans-serif" font-size="10px" fill="#000" opacity="1">April 2025</text><text text-anchor="start" transform="translate(201.59744019426503,7) rotate(45) translate(0,8)" font-family="sans-serif" font-size="10px" fill="#000" opacity="0">May 2025</text><text text-anchor="start" transform="translate(230.4812218150743,7) rotate(45) translate(0,8)" font-family="sans-serif" font-size="10px" fill="#000" opacity="1">June 2025</text><text text-anchor="start" transform="translate(258.43326854488976,7) rotate(45) translate(0,8)" font-family="sans-serif" font-size="10px" fill="#000" opacity="0">July 2025</text><text text-anchor="start" transform="translate(287.3170501656991,7) rotate(45) translate(0,8)" font-family="sans-serif" font-size="10px" fill="#000" opacity="1">August 2025</text><text text-anchor="start" transform="translate(316.2008317865084,7) rotate(45) translate(0,8)" font-family="sans-serif" font-size="10px" fill="#000" opacity="0">September 2025</text><text text-anchor="start" transform="translate(344.1528785163238,7) rotate(45) translate(0,8)" font-family="sans-serif" font-size="10px" fill="#000" opacity="1">October 2025</text><text text-anchor="start" transform="translate(373.03666013713314,7) rotate(45) translate(0,8)" font-family="sans-serif" font-size="10px" fill="#000" opacity="0">November 2025</text></g><g class="mark-rule role-axis-domain" pointer-events="none"><line transform="translate(0,0)" x2="400" y2="0" stroke="#888" stroke-width="1" opacity="1"/></g><g class="mark-text role-axis-title" pointer-events="none"><text text-anchor="middle" transform="translate(200,77.38337257480671)" font-family="sans-serif" font-size="11px" font-weight="bold" fill="#000" opacity="1">Date de la recherche</text></g></g><path class="foreground" aria-hidden="true" d="" pointer-events="none" display="none"/></g></g><g class="mark-group role-axis" role="graphics-symbol" aria-roledescription="axis" aria-label="Y-axis titled 'Nombre de trajets' for a linear scale with values from 0 to 450,000"><g transform="translate(0.5,0.5)"><path class="background" aria-hidden="true" d="M0,0h0v0h0Z" pointer-events="none"/><g><g class="mark-rule role-axis-tick" pointer-events="none"><line transform="translate(0,200)" x2="-5" y2="0" stroke="#888" stroke-width="1" opacity="1"/><line transform="translate(0,156)" x2="-5" y2="0" stroke="#888" stroke-width="1" opacity="1"/><line transform="translate(0,111)" x2="-5" y2="0" stroke="#888" stroke-width="1" opacity="1"/><line transform="translate(0,67)" x2="-5" y2="0" stroke="#888" stroke-width="1" opacity="1"/><line transform="translate(0,22)" x2="-5" y2="0" stroke="#888" stroke-width="1" opacity="1"/></g><g class="mark-text role-axis-label" pointer-events="none"><text text-anchor="end" transform="translate(-7,203)" font-family="sans-serif" font-size="10px" fill="#000" opacity="1">0</text><text text-anchor="end" transform="translate(-7,158.55555555555557)" font-family="sans-serif" font-size="10px" fill="#000" opacity="1">100,000</text><text text-anchor="end" transform="translate(-7,114.11111111111111)" font-family="sans-serif" font-size="10px" fill="#000" opacity="1">200,000</text><text text-anchor="end" transform="translate(-7,69.66666666666667)" font-family="sans-serif" font-size="10px" fill="#000" opacity="1">300,000</text><text text-anchor="end" transform="translate(-7,25.222222222222232)" font-family="sans-serif" font-size="10px" fill="#000" opacity="1">400,000</text></g><g class="mark-rule role-axis-domain" pointer-events="none"><line transform="translate(0,200)" x2="0" y2="-200" stroke="#888" stroke-width="1" opacity="1"/></g><g class="mark-text role-axis-title" pointer-events="none"><text text-anchor="middle" transform="translate(-47.1474609375,100) rotate(-90) translate(0,-2)" font-family="sans-serif" font-size="11px" font-weight="bold" fill="#000" opacity="1">Nombre de trajets</text></g></g><path class="foreground" aria-hidden="true" d="" pointer-events="none" display="none"/></g></g><g class="mark-group role-scope pathgroup" role="graphics-object" aria-roledescription="group mark container"><g transform="translate(0,0)"><path class="background" aria-hidden="true" d="M0,0h400v200h-400Z"/><g><g class="mark-line role-mark marks" role="graphics-object" aria-roledescription="line mark container"><path aria-label="Date de la recherche: September 2024; Nombre de trajets: 91488; variable: disponible" role="graphics-symbol" aria-roledescription="line mark" d="M0,159.339L0.819,160.009L1.751,160.25L2.682,159.721L3.614,159.224L4.546,160.066L5.478,161.226L6.41,162.729L7.341,163.599L8.273,164.927L9.204,164.272L10.136,163.069L11.068,163.83L12,166.394L12.932,165.123L13.863,166.305L14.795,167.015L15.727,167.638L16.658,167.648L17.59,168.931L18.522,169.444L19.454,170.203L20.385,170.474L21.317,170.704L22.249,168.872L23.181,167.766L24.112,168.451L25.044,167.16L25.976,168.696L26.907,166.936L27.839,167.617L28.771,164.943L29.709,163.236L30.634,165.275L31.566,163.601L32.498,165.017L33.43,163.38L34.362,162.688L35.293,161.357L36.225,159.746L37.156,159.755L38.09,159.142L39.02,161.116L39.952,160.392L40.883,160.483L41.815,158.316L42.747,156.748L43.681,154.82L44.611,155.253L45.542,154.239L46.474,154.859L47.408,156.557L48.337,155.787L49.27,155.331L50.201,156.853L51.132,157.538L52.064,158.599L52.996,159.242L53.928,159.566L54.859,159.835L55.791,159.906L56.723,161.397L57.655,162.616L58.587,164.062L59.518,165.294L60.45,166.184L61.382,166.252L62.314,166.133L63.245,167.211L64.177,167.551L65.109,168.202L66.04,168.182L66.973,168.864L67.904,168.023L68.836,166.956L69.767,166.728L70.699,166.308L71.631,166.35L72.562,164.781L73.494,165.02L74.426,163.984L75.358,162.302L76.289,162.622L77.221,161.783L78.153,161.712L79.084,159.731L80.016,159.145L80.948,157.033L81.88,155.203L82.811,153.702L83.743,149.882L84.675,149.315L85.607,147.688L86.538,147.022L87.47,145.158L88.402,143.235L89.334,141.419L90.265,139.417L91.197,139.184L92.129,141.537L93.06,142.381L93.992,139.298L94.924,137.729L95.856,138.287L96.787,138.306L97.719,139.025L98.652,139.891L99.583,141.793L100.514,142.216L101.446,142.23L102.378,143.622L103.31,144.212L104.241,146.113L105.173,147.762L106.105,148.816L107.037,149.653L107.968,149.103L108.9,149.572L109.832,151.036L110.763,152.019L111.695,154.556L112.627,155.987L113.559,156.427L114.49,155.749L115.422,156.068L116.354,156.588L117.286,157.142L118.217,158.761L119.149,159.033L120.081,159.104L121.013,158.219L121.944,158.195L122.876,158.685L123.808,160.639L124.739,161.217L125.671,162.238L126.603,161.805L127.535,161.569L128.466,162.052L129.398,162.612L130.33,163.765L131.262,164.016L132.193,164.144L133.125,163.397L134.057,162.463L134.989,162.635L135.921,160.836L136.852,162.052L137.784,161.876L138.716,162.061L139.647,159.33L140.579,157.85L141.511,157.162L142.442,156.173L143.374,157.449L144.306,157.287L145.238,157.682L146.169,156.434L147.101,155.299L148.033,155.873L148.965,156.232L149.896,158.153L150.828,157.316L151.76,158.821L152.692,157.497L153.623,156.43L154.555,156.36L155.487,156.624L156.418,157.757L157.35,159.565L158.282,159.94L159.214,160.216L160.145,159.533L161.077,159.946L162.009,160.72L162.941,162.035L163.872,162.685L164.804,163.619L165.736,164.437L166.668,164.308L167.599,164.997L168.531,165.332L169.463,166.06L170.395,166.832L171.326,167.163L172.258,167.356L173.19,166.756L174.121,168.562L175.053,168.524L175.985,169.668L176.917,169.96L177.848,170.583L178.78,169.531L179.712,169.106L180.643,170.336L181.575,171.222L182.507,172.901L183.439,173.898L184.37,173.981L185.302,173.399L186.234,172.256L187.166,172.224L188.097,172.383L189.029,172.577L189.961,171.82L190.893,171.468L191.824,170.136L192.756,168.69L193.688,167.228L194.62,166.981L195.551,166.786L196.483,166.962L197.415,166.335L198.346,165.966L199.278,165.59L200.21,166.577L201.142,167.733L202.073,170.02L203.005,168.846L203.937,169.858L204.869,169.379L205.8,168.202L206.732,168.43L207.664,170.075L208.596,170.046L209.527,169.925L210.459,169.592L211.391,168.736L212.322,168.091L213.254,168.04L214.186,168.317L215.118,169.349L216.049,169.497L216.981,170.13L217.913,170.491L218.845,170.374L219.776,171.072L220.708,173.061L221.64,174.635L222.572,174.731L223.503,174.89L224.435,174.699L225.367,174.329L226.298,175.925L227.23,174.959L228.162,175.182L229.094,176.424L230.026,174.932L230.957,174.408L231.889,173.2L232.821,172.78L233.752,173.29L234.684,173.061L235.616,173.79L236.548,173.8L237.48,173.333L238.411,172.788L239.343,172.172L240.275,172.853L241.206,173.283L242.138,175.056L243.07,174.065L244.002,174.497L244.934,174.456L245.865,175.107L246.797,175.869L247.728,176.792L248.66,176.778L249.592,177.009L250.524,177.119L251.455,176.421L252.387,176.539L253.319,177.062L254.251,177.335L255.182,177.774L256.114,178.057L257.046,177.759L257.978,177.03L258.909,176.662L259.841,177.327L260.773,177.417L261.705,177.748L262.636,177.901L263.568,177.574L264.5,176.725L265.431,176.693L266.363,176.283L267.295,176.441L268.227,176.327L269.158,176.355L270.09,175.682L271.022,175.172L271.954,174.815L272.885,178.13L273.817,178.902L274.749,178.285L275.68,178.194L276.612,177.128L277.544,176.427L278.476,176.211L279.407,176.344L280.339,176.647L281.271,176.738L282.203,176.03L283.134,175.164L284.066,174.287L284.998,174.413L285.93,173.714L286.861,174.324L287.793,173.887L288.725,173.912L289.657,172.471L290.588,171.321L291.52,171.24L292.452,171.28L293.383,172.08L294.315,172.211L295.247,172.403L296.179,171.398L297.11,170.396L298.042,170.518L298.975,170.236L299.906,170.683L300.837,170.087L301.769,170.074L302.701,169.3L303.633,168.013L304.564,167.635L305.496,166.205L306.428,166.481L307.359,166.323L308.291,166.3L309.223,165.771L310.155,164.96L311.096,164.593L312.018,165.332L312.95,166.362L313.882,166.83L314.814,167.888L315.745,167.998L316.677,168.088L317.609,168.656L318.54,170.384L319.472,164.386L320.404,164.849L321.335,166.016L322.267,165.694L323.199,164.655L324.131,163.862L325.062,163.137L325.994,165.146L326.926,165.064L327.858,165.244L328.789,165.762L329.721,164.872L330.653,164.64L331.585,165.472L332.516,166.088L333.448,167.32L334.38,166.82L335.312,167.115L336.243,167.029L337.175,167.192L338.107,167.811L339.038,168.811L339.97,170.644L340.902,169.776L341.834,170.481L342.765,170.076L343.697,170.333L344.629,170.433L345.561,171.609L346.492,172.44L347.424,172.626L348.356,172.988L349.288,172.106L350.219,171.847L351.151,172.026L352.083,173.442L353.015,173.866L353.946,173.078L354.878,172.944L355.81,173.152L356.741,173.688L357.673,174.006L358.605,174.688L359.537,174.205L360.468,173.786L361.4,172.674L362.332,171.307L363.264,171.597L364.195,171.21L365.127,171.624L366.059,171.142L366.99,170.751L367.922,169.213L368.855,167.775L369.786,167.387L370.717,167.261L371.649,167.35L372.581,166.703L373.513,167.341L374.445,166.164L375.376,164.592L376.308,164.66L377.24,164.254L378.171,165.054L379.103,165.095L380.035,164.783L380.967,163.01L381.898,162.001L382.83,161.608L383.762,160.09L384.693,160.927L385.626,161.446L386.557,161.809L387.863,161.546L388.854,160.467L389.754,161.036L390.683,161.558L391.614,162.723L392.147,163.683L393.079,163.763L394.011,163.474L394.943,163.335L395.874,163.94L396.806,164.694L397.738,165.922L399.091,167.04L400,167.981" stroke="#4c78a8" stroke-width="2"/></g></g><path class="foreground" aria-hidden="true" d="" display="none"/></g><g transform="translate(0,0)"><path class="background" aria-hidden="true" d="M0,0h400v200h-400Z"/><g><g class="mark-line role-mark marks" role="graphics-object" aria-roledescription="line mark container"><path aria-label="Date de la recherche: September 2024; Nombre de trajets: 351801; variable: total" role="graphics-symbol" aria-roledescription="line mark" d="M0,43.644L0.819,43.23L1.751,43.532L2.682,43.471L3.614,43.523L4.546,42.888L5.478,42.975L6.41,43.715L7.341,43.55L8.273,43.967L9.204,43.883L10.136,43.916L11.068,43.705L12,43.343L12.932,45.168L13.863,47.57L14.795,49.451L15.727,50.78L16.658,51.056L17.59,51.055L18.522,50.496L19.454,50.482L20.385,50.263L21.317,50.547L22.249,50.55L23.181,50.929L24.112,51.131L25.044,50.923L25.976,51.584L26.907,51.856L27.839,52.263L28.771,52.39L29.709,52.759L30.634,52.836L31.566,52.374L32.498,53.093L33.43,53.62L34.362,53.032L35.293,52.105L36.225,52.092L37.156,52.091L38.09,51.462L39.02,51.622L39.952,41.063L40.883,40.994L41.815,38.53L42.747,35.785L43.681,33.752L44.611,31.452L45.542,31.196L46.474,31.976L47.408,32.224L48.337,32.1L49.27,32.214L50.201,43.381L51.132,42.648L52.064,31.545L52.996,31.141L53.928,31.16L54.859,30.515L55.791,30.687L56.723,30.67L57.655,41.943L58.587,41.649L59.518,29.061L60.45,29.416L61.382,28.902L62.314,29.519L63.245,29.164L64.177,28.757L65.109,28.1L66.04,27.722L66.973,26.185L67.904,25.875L68.836,25.729L69.767,25.856L70.699,25.331L71.631,37.198L72.562,25.074L73.494,25.668L74.426,25.804L75.358,25.909L76.289,26.032L77.221,25.492L78.153,25.271L79.084,25.142L80.016,25.764L80.948,26.482L81.88,26.828L82.811,27.121L83.743,26.415L84.675,25.957L85.607,26.279L86.538,27.016L87.47,27.544L88.402,27.983L89.334,28.387L90.265,27.747L91.197,27.414L92.129,27.669L93.06,28.387L93.992,28.939L94.924,29.468L95.856,29.973L96.787,29.508L97.719,29.126L98.652,29.288L99.583,30.003L100.514,30.398L101.446,30.824L102.378,31.144L103.31,30.97L104.241,41.714L105.173,30.252L106.105,30.988L107.037,31.619L107.968,31.958L108.9,32.143L109.832,31.707L110.763,31.087L111.695,31.152L112.627,31.917L113.559,32.222L114.49,32.403L115.422,32.294L116.354,31.743L117.286,31.524L118.217,31.784L119.149,32.277L120.081,32.624L121.013,32.712L121.944,32.796L122.876,32.445L123.808,31.822L124.739,31.126L125.671,31.789L126.603,32.685L127.535,33.031L128.466,33.212L129.398,32.773L130.33,33.388L131.262,33.592L132.193,34.164L133.125,35.362L134.057,35.763L134.989,35.899L135.921,35.315L136.852,35.592L137.784,36.133L138.716,36.764L139.647,37.632L140.579,37.992L141.511,38.217L142.442,48.657L143.374,49.276L144.306,49.164L145.238,49.493L146.169,49.746L147.101,49.778L148.033,38.859L148.965,38.161L149.896,37.686L150.828,37.108L151.76,37.387L152.692,37.632L153.623,37.878L154.555,37.688L155.487,36.921L156.418,36.403L157.35,35.921L158.282,36.056L159.214,35.163L160.145,34.855L161.077,34.686L162.009,33.996L162.941,34.483L163.872,35.695L164.804,36.783L165.736,36.296L166.668,35.908L167.599,35.731L168.531,34.88L169.463,34.631L170.395,34.328L171.326,34.329L172.258,33.922L173.19,33.396L174.121,33.329L175.053,33.858L175.985,34.476L176.917,35.666L177.848,36.248L178.78,37.45L179.712,37.177L180.643,37.877L181.575,37.17L182.507,38.661L183.439,39.278L184.37,39.69L185.302,40.057L186.234,40.341L187.166,40.363L188.097,39.966L189.029,40.384L189.961,40.357L190.893,40.606L191.824,39.799L192.756,38.261L193.688,37.851L194.62,37.399L195.551,37.4L196.483,37.352L197.415,37.876L198.346,38.551L199.278,38.273L200.21,38.913L201.142,40.323L202.073,42.092L203.005,42.238L203.937,41.801L204.869,41.309L205.8,41.427L206.732,41.43L207.664,40.981L208.596,41.689L209.527,42.137L210.459,40.74L211.391,38.877L212.322,38.676L213.254,38.774L214.186,38.256L215.118,39.166L216.049,39.717L216.981,40.268L217.913,39.847L218.845,39.945L219.776,40.043L220.708,39.415L221.64,39.523L222.572,39.268L223.503,39.68L224.435,39.566L225.367,39.679L226.298,39.789L227.23,39.682L228.162,40.502L229.094,40.502L230.026,38.96L230.957,37.599L231.889,49.079L232.821,48.936L233.752,47.866L234.684,35.477L235.616,34.581L236.548,34.1L237.48,32.722L238.411,30.764L239.343,29.522L240.275,28.472L241.206,27.45L242.138,26.752L243.07,26.195L244.002,24.508L244.934,23.186L245.865,22.453L246.797,21.27L247.728,20.594L248.66,19.795L249.592,19.459L250.524,18.917L251.455,18.407L252.387,17.611L253.319,15.996L254.251,14.744L255.182,13.67L256.114,13.268L257.046,11.688L257.978,10.401L258.909,9.68L259.841,8.634L260.773,7.666L261.705,6.733L262.636,6.447L263.568,6.648L264.5,6.913L265.431,7.142L266.363,6.778L267.295,6.423L268.227,6.221L269.158,6.697L270.09,6.961L271.022,6.967L271.954,6.828L272.885,6.909L273.817,6.72L274.749,6.489L275.68,6.91L276.612,7.019L277.544,7.102L278.476,7.276L279.407,7L280.339,6.7L281.271,6.562L282.203,7.013L283.134,7.419L284.066,7.774L284.998,8.004L285.93,7.824L286.861,7.632L287.793,7.624L288.725,8.608L289.657,9.588L290.588,10.514L291.52,23.998L292.452,24.18L293.383,24.671L294.315,12.251L295.247,13.22L296.179,14.339L297.11,15.249L298.042,15.966L298.975,16.04L299.906,16.588L300.837,17.289L301.769,18.311L302.701,19.453L303.633,20.548L304.564,21.367L305.496,21.895L306.428,22.307L307.359,22.592L308.291,23.508L309.223,24.434L310.155,25.478L311.096,26.376L312.018,26.459L312.95,26.994L313.882,27.342L314.814,28.512L315.745,29.606L316.677,30.551L317.609,30.946L318.54,30.848L319.472,30.833L320.404,30.717L321.335,31.369L322.267,31.672L323.199,32.168L324.131,32.468L325.062,32.252L325.994,32.707L326.926,32.744L327.858,33.391L328.789,33.776L329.721,34.194L330.653,34.264L331.585,33.874L332.516,33.784L333.448,33.23L334.38,33.629L335.312,33.935L336.243,34.376L337.175,34.532L338.107,33.903L339.038,33.763L339.97,33.499L340.902,34.137L341.834,34.408L342.765,34.85L343.697,34.911L344.629,34.408L345.561,34.312L346.492,33.871L347.424,34.43L348.356,34.635L349.288,34.972L350.219,35.029L351.151,34.567L352.083,34.906L353.015,35.273L353.946,36.404L354.878,36.064L355.81,36.193L356.741,36.184L357.673,35.46L358.605,35.25L359.537,34.94L360.468,35.736L361.4,35.958L362.332,36.317L363.264,36.487L364.195,36.016L365.127,36.638L366.059,36.584L366.99,37.003L367.922,37.092L368.855,37.367L369.786,37.441L370.717,36.927L371.649,36.857L372.581,36.367L373.513,36.565L374.445,36.544L375.376,36.812L376.308,36.737L377.24,36.034L378.171,36.394L379.103,36.221L380.035,36.347L380.967,35.854L381.898,35.315L382.83,34.461L383.762,33.782L384.693,33.904L385.626,33.897L386.557,34.39L387.863,34.251L388.854,34.461L389.754,34.308L390.683,33.611L391.614,32.839L392.147,32.159L393.079,32.164L394.011,31.195L394.943,31.053L395.874,31.379L396.806,30.967L397.738,30.417L399.091,29.717L400,27.828" stroke="#f58518" stroke-width="2"/></g></g><path class="foreground" aria-hidden="true" d="" display="none"/></g></g><g class="mark-group role-legend" role="graphics-symbol" aria-roledescription="legend" aria-label="Symbol legend for stroke color with 2 values: disponible, total"><g transform="translate(0,-29)"><path class="background" aria-hidden="true" d="M0,0h108v11h-108Z" pointer-events="none"/><g><g class="mark-group role-legend-entry"><g transform="translate(0,0)"><path class="background" aria-hidden="true" d="M0,0h0v0h0Z" pointer-events="none"/><g><g class="mark-group role-scope" role="graphics-object" aria-roledescription="group mark container"><g transform="translate(0,0)"><path class="background" aria-hidden="true" d="M0,0h61.0341796875v11h-61.0341796875Z" pointer-events="none" opacity="1"/><g><g class="mark-symbol role-legend-symbol" pointer-events="none"><path transform="translate(6,6)" d="M-5,0L5,0" stroke="#4c78a8" stroke-width="1.5" opacity="1"/></g><g class="mark-text role-legend-label" pointer-events="none"><text text-anchor="start" transform="translate(16,9)" font-family="sans-serif" font-size="10px" fill="#000" opacity="1">disponible</text></g></g><path class="foreground" aria-hidden="true" d="" pointer-events="none" display="none"/></g><g transform="translate(73,0)"><path class="background" aria-hidden="true" d="M0,0h34.9013671875v11h-34.9013671875Z" pointer-events="none" opacity="1"/><g><g class="mark-symbol role-legend-symbol" pointer-events="none"><path transform="translate(6,6)" d="M-5,0L5,0" stroke="#f58518" stroke-width="1.5" opacity="1"/></g><g class="mark-text role-legend-label" pointer-events="none"><text text-anchor="start" transform="translate(16,9)" font-family="sans-serif" font-size="10px" fill="#000" opacity="1">total</text></g></g><path class="foreground" aria-hidden="true" d="" pointer-events="none" display="none"/></g></g></g><path class="foreground" aria-hidden="true" d="" pointer-events="none" display="none"/></g></g></g><path class="foreground" aria-hidden="true" d="" pointer-events="none" display="none"/></g></g><g class="mark-group role-title"><g transform="translate(200,-46)"><path class="background" aria-hidden="true" d="M0,0h0v0h0Z" pointer-events="none"/><g><g class="mark-text role-title-text" role="graphics-symbol" aria-roledescription="title" aria-label="Title text 'Historique du nombre de trajets MAXJEUNE et au total, disponibles chaque jour'" pointer-events="none"><text text-anchor="middle" transform="translate(0,10)" font-family="sans-serif" font-size="13px" font-weight="bold" fill="#000" opacity="1">Historique du nombre de trajets MAXJEUNE et au total, disponibles chaque jour</text></g></g><path class="foreground" aria-hidden="true" d="" pointer-events="none" display="none"/></g></g></g><path class="foreground" aria-hidden="true" d="" display="none"/></g></g></g></svg>