<svg xmlns="http://www.w3.org/2000/svg" xmlns:xlink="http://www.w3.org/1999/xlink" version="1.1" class="marks" width="517" height="328" viewBox="0 0 517 328"><rect width="517" height="328" fill="white"/><g fill="none" stroke-miterlimit="10" transform="translate(64,51)"><g class="mark-group role-frame root" role="graphics-object" aria-roledescription="group mark container"><g transform="translate(0,0)"><path class="background" aria-hidden="true" d="M0.5,0.5h400v200h-400Z" stroke="#ddd"/><g><g class="mark-group role-axis" aria-hidden="true"><g transform="translate(0.5,200.5)"><path class="background" aria-hidden="true" d="M0,0h0v0h0Z" pointer-events="none"/><g><g class="mark-rule role-axis-grid" pointer-events="none"><line transform="translate(3,-200)" x2="0" y2="200" stroke="#ddd" stroke-width="1" opacity="1"/><line transform="translate(62,-200)" x2="0" y2="200" stroke="#ddd" stroke-width="1" opacity="1"/><line transform="translate(119,-200)" x2="0" y2="200" stroke="#ddd" stroke-width="1" opacity="1"/><line transform="translate(177,-200)" x2="0" y2="200" stroke="#ddd" stroke-width="1" opacity="1"/><line transform="translate(236,-200)" x2="0" y2="200" stroke="#ddd" stroke-width="1" opacity="1"/><line transform="translate(295,-200)" x2="0" y2="200" stroke="#ddd" stroke-width="1" opacity="1"/><line transform="translate(352,-200)" x2="0" y2="200" stroke="#ddd" stroke-width="1" opacity="1"/></g></g><path class="foreground" aria-hidden="true" d="" pointer-events="none" display="none"/></g></g><g class="mark-group role-axis" aria-hidden="true"><g transform="translate(0.5,0.5)"><path class="background" aria-hidden="true" d="M0,0h0v0h0Z" pointer-events="none"/><g><g class="mark-rule role-axis-grid" pointer-events="none"><line transform="translate(0,200)" x2="400" y2="0" stroke="#ddd" stroke-width="1" opacity="1"/><line transform="translate(0,150)" x2="400" y2="0" stroke="#ddd" stroke-width="1" opacity="1"/><line transform="translate(0,100)" x2="400" y2="0" stroke="#ddd" stroke-width="1" opacity="1"/><line transform="translate(0,50)" x2="400" y2="0" stroke="#ddd" stroke-width="1" opacity="1"/><line transform="translate(0,0)" x2="400" y2="0" stroke="#ddd" stroke-width="1" opacity="1"/></g></g><path class="foreground" aria-hidden="true" d="" pointer-events="none" display="none"/></g></g><g class="mark-group role-axis" role="graphics-symbol" aria-roledescription="axis" aria-label="X-axis titled 'Date de la recherche' for a time scale with values from September 2024 to June 2026"><g transform="translate(0.5,200.5)"><path class="background" aria-hidden="true" d="M0,0h0v0h0Z" pointer-events="none"/><g><g class="mark-rule role-axis-tick" pointer-events="none"><line transform="translate(3,0)" x2="0" y2="5" stroke="#888" stroke-width="1" opacity="1"/><line transform="translate(62,0)" x2="0" y2="5" stroke="#888" stroke-width="1" opacity="1"/><line transform="translate(119,0)" x2="0" y2="5" stroke="#888" stroke-width="1" opacity="1"/><line transform="translate(177,0)" x2="0" y2="5" stroke="#888" stroke-width="1" opacity="1"/><line transform="translate(236,0)" x2="0" y2="5" stroke="#888" stroke-width="1" opacity="1"/><line transform="translate(295,0)" x2="0" y2="5" stroke="#888" stroke-width="1" opacity="1"/><line transform="translate(352,0)" x2="0" y2="5" stroke="#888" stroke-width="1" opacity="1"/></g><g class="mark-text role-axis-label" pointer-events="none"><text text-anchor="start" transform="translate(2.7895144260868032,7) rotate(45) translate(0,8)" font-family="sans-serif" font-size="10px" fill="#000" opacity="1">October 2024</text><text text-anchor="start" transform="translate(61.54554555150391,7) rotate(45) translate(0,8)" font-family="sans-serif" font-size="10px" fill="#000" opacity="1">January 2025</text><text text-anchor="start" transform="translate(119.02427165245541,7) rotate(45) translate(0,8)" font-family="sans-serif" font-size="10px" fill="#000" opacity="1">April 2025</text><text text-anchor="start" transform="translate(177.14165026563973,7) rotate(45) translate(0,8)" font-family="sans-serif" font-size="10px" fill="#000" opacity="1">July 2025</text><text text-anchor="start" transform="translate(235.89768139105684,7) rotate(45) translate(0,8)" font-family="sans-serif" font-size="10px" fill="#000" opacity="1">October 2025</text><text text-anchor="start" transform="translate(294.65371251647395,7) rotate(45) translate(0,8)" font-family="sans-serif" font-size="10px" fill="#000" opacity="1">January 2026</text><text text-anchor="start" transform="translate(352.13243861742546,7) rotate(45) translate(0,8)" font-family="sans-serif" font-size="10px" fill="#000" opacity="1">April 2026</text></g><g class="mark-rule role-axis-domain" pointer-events="none"><line transform="translate(0,0)" x2="400" y2="0" stroke="#888" stroke-width="1" opacity="1"/></g><g class="mark-text role-axis-title" pointer-events="none"><text text-anchor="middle" transform="translate(200,69.92215307214985)" font-family="sans-serif" font-size="11px" font-weight="bold" fill="#000" opacity="1">Date de la recherche</text></g></g><path class="foreground" aria-hidden="true" d="" pointer-events="none" display="none"/></g></g><g class="mark-group role-axis" role="graphics-symbol" aria-roledescription="axis" aria-label="Y-axis titled 'Nombre de trajets' for a linear scale with values from 0 to 400,000"><g transform="translate(0.5,0.5)"><path class="background" aria-hidden="true" d="M0,0h0v0h0Z" pointer-events="none"/><g><g class="mark-rule role-axis-tick" pointer-events="none"><line transform="translate(0,200)" x2="-5" y2="0" stroke="#888" stroke-width="1" opacity="1"/><line transform="translate(0,150)" x2="-5" y2="0" stroke="#888" stroke-width="1" opacity="1"/><line transform="translate(0,100)" x2="-5" y2="0" stroke="#888" stroke-width="1" opacity="1"/><line transform="translate(0,50)" x2="-5" y2="0" stroke="#888" stroke-width="1" opacity="1"/><line transform="translate(0,0)" x2="-5" y2="0" stroke="#888" stroke-width="1" opacity="1"/></g><g class="mark-text role-axis-label" pointer-events="none"><text text-anchor="end" transform="translate(-7,203)" font-family="sans-serif" font-size="10px" fill="#000" opacity="1">0</text><text text-anchor="end" transform="translate(-7,153)" font-family="sans-serif" font-size="10px" fill="#000" opacity="1">100,000</text><text text-anchor="end" transform="translate(-7,103)" font-family="sans-serif" font-size="10px" fill="#000" opacity="1">200,000</text><text text-anchor="end" transform="translate(-7,53)" font-family="sans-serif" font-size="10px" fill="#000" opacity="1">300,000</text><text text-anchor="end" transform="translate(-7,3)" font-family="sans-serif" font-size="10px" fill="#000" opacity="1">400,000</text></g><g class="mark-rule role-axis-domain" pointer-events="none"><line transform="translate(0,200)" x2="0" y2="-200" stroke="#888" stroke-width="1" opacity="1"/></g><g class="mark-text role-axis-title" pointer-events="none"><text text-anchor="middle" transform="translate(-47.1474609375,100) rotate(-90) translate(0,-2)" font-family="sans-serif" font-size="11px" font-weight="bold" fill="#000" opacity="1">Nombre de trajets</text></g></g><path class="foreground" aria-hidden="true" d="" pointer-events="none" display="none"/></g></g><g class="mark-group role-scope pathgroup" role="graphics-object" aria-roledescription="group mark container"><g transform="translate(0,0)"><path class="background" aria-hidden="true" d="M0,0h400v200h-400Z"/><g><g class="mark-line role-mark marks" role="graphics-object" aria-roledescription="line mark container"><path aria-label="Date de la recherche: September 2024; Nombre de trajets: 90064; variable: disponible" role="graphics-symbol" aria-roledescription="line mark" d="M0,154.968L0.561,155.733L1.2,155.849L1.839,155.249L2.477,154.706L3.116,155.647L3.755,156.936L4.394,158.611L5.032,159.578L5.67,161.051L6.309,160.232L6.948,158.887L7.586,159.757L8.225,162.622L8.864,161.186L9.502,162.517L10.141,163.314L10.78,164.01L11.418,164.032L12.057,165.467L12.696,166.043L13.334,166.883L13.973,167.187L14.612,167.45L15.25,165.395L15.889,164.165L16.528,164.939L17.166,163.463L17.805,165.186L18.444,163.209L19.082,163.971L19.721,160.982L20.364,159.082L20.998,161.376L21.637,159.478L22.275,161.072L22.914,159.24L23.553,158.471L24.191,156.976L24.83,155.186L25.469,155.206L26.108,154.501L26.746,156.687L27.385,155.87L28.023,155.975L28.662,153.544L29.301,151.81L29.941,149.657L30.578,150.119L31.217,148.968L31.855,149.665L32.496,151.587L33.133,150.725L33.772,150.247L34.41,151.977L35.048,152.725L35.687,153.898L36.326,154.616L36.964,154.978L37.603,155.274L38.242,155.354L38.88,157.015L39.519,158.365L40.158,159.98L40.796,161.327L41.435,162.333L42.074,162.388L42.713,162.251L43.351,163.458L43.99,163.83L44.628,164.564L45.267,164.539L45.906,165.319L46.545,164.379L47.183,163.203L47.821,162.973L48.46,162.518L49.099,162.586L49.737,160.835L50.376,161.142L51.015,159.983L51.653,158.101L52.292,158.467L52.931,157.526L53.569,157.444L54.208,155.239L54.847,154.588L55.485,152.251L56.124,150.225L56.763,148.563L57.401,144.291L58.04,143.67L58.679,141.894L59.317,141.173L59.956,139.108L60.595,136.98L61.233,134.989L61.872,132.763L62.51,132.524L63.149,135.188L63.788,136.135L64.426,132.697L65.065,130.95L65.704,131.578L66.342,131.561L66.981,132.339L67.62,133.284L68.259,135.399L68.897,135.847L69.536,135.858L70.174,137.406L70.813,138.04L71.452,140.126L72.09,141.915L72.729,143.074L73.368,143.981L74.006,143.375L74.645,143.9L75.284,145.535L75.922,146.599L76.561,149.389L77.2,150.987L77.838,151.445L78.477,150.679L79.115,151.062L79.754,151.618L80.393,152.229L81.031,154.046L81.67,154.351L82.309,154.412L82.947,153.406L83.586,153.367L84.225,153.888L84.863,156.04L85.502,156.669L86.141,157.81L86.779,157.313L87.418,157.047L88.057,157.575L88.695,158.166L89.334,159.431L89.973,159.706L90.611,159.848L91.25,158.995L91.888,157.945L92.527,158.136L93.166,156.106L93.804,157.462L94.443,157.265L95.082,157.476L95.72,154.421L96.359,152.787L96.998,152.041L97.636,150.938L98.275,152.365L98.914,152.195L99.552,152.643L100.191,151.262L100.83,150.001L101.468,150.645L102.107,151.037L102.746,153.158L103.384,152.225L104.023,153.922L104.662,152.442L105.3,151.259L105.939,151.191L106.578,151.477L107.216,152.743L107.855,154.781L108.493,155.208L109.132,155.551L109.771,154.8L110.409,155.283L111.048,156.148L111.687,157.605L112.325,158.325L112.964,159.373L113.603,160.304L114.241,160.171L114.88,160.969L115.519,161.308L116.157,162.091L116.796,162.944L117.435,163.317L118.073,163.501L118.712,162.836L119.351,164.858L119.989,164.829L120.628,166.086L121.266,166.43L121.905,167.135L122.544,165.96L123.182,165.495L123.821,166.877L124.46,167.849L125.098,169.688L125.737,170.789L126.376,170.875L127.014,170.221L127.653,168.943L128.292,168.904L128.93,169.053L129.569,169.255L130.208,168.412L130.846,168.02L131.485,166.532L132.124,164.924L132.762,163.313L133.401,163.048L134.04,162.82L134.678,162.997L135.317,162.291L135.955,161.905L136.594,161.49L137.233,162.601L137.871,163.887L138.51,166.459L139.149,165.131L139.787,166.265L140.426,165.732L141.065,164.419L141.703,164.685L142.342,166.554L142.981,166.527L143.619,166.396L144.258,166.035L144.897,165.078L145.535,164.366L146.174,164.313L146.813,164.62L147.451,165.77L148.09,165.935L148.729,166.64L149.367,167.049L150.006,166.921L150.644,167.69L151.283,169.905L151.922,171.652L152.56,171.735L153.199,171.918L153.838,171.688L154.476,171.282L155.115,173.049L155.754,171.97L156.392,172.23L157.031,173.612L157.67,171.945L158.308,171.366L158.947,170.02L159.586,169.554L160.224,170.116L160.863,169.844L161.502,170.659L162.14,170.679L162.779,170.16L163.418,169.553L164.056,168.868L164.695,169.634L165.334,170.104L165.972,172.084L166.611,170.968L167.25,171.455L167.888,171.414L168.527,172.162L169.165,173L169.804,174.038L170.443,174.015L171.081,174.271L171.72,174.377L172.359,173.602L172.997,173.737L173.636,174.319L174.275,174.612L174.913,175.106L175.552,175.429L176.191,175.097L176.829,174.282L177.468,173.871L178.107,174.614L178.745,174.699L179.384,175.073L180.023,175.245L180.661,174.872L181.3,173.92L181.939,173.889L182.577,173.422L183.216,173.601L183.855,173.471L184.493,173.506L185.132,172.75L185.77,172.175L186.409,171.774L187.048,175.505L187.686,176.378L188.325,175.686L188.964,175.588L189.602,174.388L190.241,173.605L190.88,173.373L191.518,173.515L192.157,173.844L192.796,173.947L193.434,173.151L194.073,172.167L194.712,171.187L195.35,171.332L195.989,170.541L196.628,171.215L197.266,170.732L197.905,170.771L198.543,169.151L199.182,167.868L199.821,167.786L200.46,167.82L201.098,168.715L201.737,168.859L202.375,169.08L203.014,167.953L203.653,166.84L204.291,166.977L204.931,166.657L205.569,167.146L206.207,166.484L206.846,166.475L207.485,165.623L208.123,164.178L208.762,163.778L209.401,162.162L210.039,162.437L210.678,162.265L211.316,162.317L211.955,161.742L212.594,160.848L213.239,160.444L213.871,161.271L214.51,162.424L215.148,163.016L215.787,164.217L216.426,164.319L217.064,164.418L217.703,165.054L218.342,166.983L218.98,160.232L219.619,160.738L220.258,162.052L220.896,161.678L221.535,160.509L222.174,159.6L222.812,158.795L223.451,161.033L224.09,160.935L224.728,161.135L225.367,161.704L226.006,160.708L226.644,160.444L227.283,161.365L227.922,162.053L228.56,163.443L229.199,162.892L229.837,163.207L230.476,163.107L231.115,163.285L231.753,163.972L232.392,165.093L233.031,167.142L233.669,166.188L234.308,166.971L234.947,166.514L235.585,166.797L236.224,166.898L236.863,168.219L237.501,169.148L238.14,169.359L238.779,169.754L239.417,168.774L240.056,168.487L240.695,168.685L241.333,170.267L241.972,170.754L242.61,169.882L243.249,169.748L243.888,169.979L244.526,170.59L245.165,170.941L245.804,171.71L246.442,171.203L247.081,170.738L247.72,169.486L248.358,167.974L248.997,168.298L249.636,167.867L250.274,168.346L250.913,167.821L251.552,167.402L252.19,165.689L252.83,164.094L253.468,163.656L254.106,163.5L254.745,163.587L255.383,162.873L256.022,163.597L256.661,162.261L257.299,160.504L257.938,160.572L258.577,160.1L259.215,160.98L259.854,161.035L260.493,160.705L261.131,158.704L261.77,157.564L262.409,157.112L263.047,155.393L263.686,156.323L264.325,156.904L264.963,157.334L265.859,157.028L266.538,155.821L267.154,156.472L267.791,157.061L268.429,158.366L268.795,159.443L269.434,159.592L270.073,159.266L270.711,159.113L271.35,159.8L271.988,160.641L272.627,162.019L273.555,163.283L274.178,164.362L274.817,165.269L275.456,165.269L276.094,165.882L276.733,166.94L277.371,168.382L278.01,169.732L278.648,170.182L279.287,169.737L279.926,168.081L280.566,167.658L281.206,167.31L281.842,167.822L282.481,166.598L283.119,166.586L283.758,165.885L284.123,164.085L284.762,164.059L285.4,164.067L286.039,164.733L286.677,162.967L287.316,163.781L287.955,161.834L288.593,160.089L289.232,158.98L289.871,156.998L290.509,156.787L291.148,155.466L291.787,154.703L292.425,152.749L293.064,150.484L293.703,148.73L294.341,147.071L294.98,146.313L295.619,145.653L296.257,144.94L296.896,142.597L297.535,140.436L298.173,135.323L298.812,136.51L299.451,186.612L300.089,142.499L300.728,144.484L301.366,144.958L302.005,143.886L302.644,142.659L303.282,144.224L303.921,147.405L304.56,149.643L305.198,150.798L305.837,152.713L306.476,151.395L307.114,151.076L308.028,152.824L308.667,156.59L309.305,157.584L309.943,157.599L310.582,158.775L311.221,157.593L311.86,158.066L312.499,159.612L313.139,161.791L313.776,162.439L314.414,161.866L315.053,161.353L316.331,159.422L316.97,158.908L317.608,160.134L318.247,160.994L318.886,160.624L319.525,162.154L320.163,160.64L320.803,160.16L321.44,162.131L322.079,162.968L322.718,165.794L323.357,164.55L323.994,164.01L324.633,162.283L325.274,162.883L325.911,164.48L326.549,166.041L327.188,165.287L327.826,157.145L328.465,155.509L329.105,152.648L329.743,150.842L330.381,151.924L331.02,153.325L331.658,153.163L332.296,153.38L332.935,152.399L333.577,149.456L334.213,147.11L334.852,151.1L335.491,153.679L336.129,155.268L336.767,155.663L337.406,156.453L338.045,154.444L338.747,157.331L339.322,155.027L339.961,157.028L340.599,158.713L341.238,159.183L341.877,159.058L342.517,157.368L343.154,156.17L343.793,157.493L344.432,158.891L345.07,159.772L345.709,159.804L346.347,160.852L346.986,159.328L347.627,159.454L348.264,160.263L348.902,162.363L349.541,163.375L350.179,163.219L350.818,163.618L351.457,162.513L352.096,163.617L352.735,166.213L353.373,167.492L354.014,168.22L354.65,167.684L355.289,166.231L355.928,165.418L356.568,162.63L357.205,162.329L357.844,165.363L358.483,166.432L359.121,167.006L359.76,167.114L360.399,165.606L361.039,166.39L361.676,169.147L362.315,170.416L362.953,171.303L363.592,170.868L364.23,170.361L364.869,168.448L365.508,167.833L366.147,169.48L366.786,171.923L367.424,171.957L368.062,171.626L368.701,171.257L369.341,169.863L369.98,170.026L370.619,171.757L371.257,173.432L371.895,173.786L372.533,172.98L373.172,173.008L373.813,171.686L374.451,171.955L375.09,173.996L375.729,176.16L376.367,176.206L377.004,175.764L377.644,175.52L378.283,174.699L378.923,174.605L379.563,176.335L380.2,177.263L380.837,177.601L381.475,176.626L382.114,175.119L382.754,173.596L383.395,173.364L384.036,174.979L384.674,176.135L385.309,176.146L385.946,175.688L386.586,174.663L387.225,173.213L387.867,171.439L388.507,171.314L389.146,173.985L389.784,174.964L390.418,174.958L391.057,174.471L391.705,172.756L392.344,172.646L392.983,175.347L393.617,176.283L394.252,176.951L394.889,176.495L395.528,176.959L396.171,176.336L396.811,177.427L397.45,179.275L398.089,180.343L398.725,179.645L399.361,179.364L400,179.946" stroke="#4c78a8" stroke-width="2"/></g></g><path class="foreground" aria-hidden="true" d="" display="none"/></g><g transform="translate(0,0)"><path class="background" aria-hidden="true" d="M0,0h400v200h-400Z"/><g><g class="mark-line role-mark marks" role="graphics-object" aria-roledescription="line mark container"><path aria-label="Date de la recherche: September 2024; Nombre de trajets: 316947; variable: total" role="graphics-symbol" aria-roledescription="line mark" d="M0,41.527L0.561,41.049L1.2,41.365L1.839,41.288L2.477,41.358L3.116,40.661L3.755,40.8L4.394,41.647L5.032,41.43L5.67,41.781L6.309,41.611L6.948,41.656L7.586,41.43L8.225,41.03L8.864,43.01L9.502,45.596L10.141,47.643L10.78,49.087L11.418,49.384L12.057,49.365L12.696,48.839L13.334,48.832L13.973,48.585L14.612,48.91L15.25,48.899L15.889,49.331L16.528,49.564L17.166,49.321L17.805,50.066L18.444,50.34L19.082,50.805L19.721,50.942L20.364,51.354L20.998,51.45L21.637,50.957L22.275,51.726L22.914,52.334L23.553,51.669L24.191,50.57L24.83,50.564L25.469,50.562L26.108,49.876L26.746,50.093L27.385,38.228L28.023,38.143L28.662,35.371L29.301,32.326L29.941,30.021L30.578,27.456L31.217,27.215L31.855,28.117L32.496,28.444L33.133,28.367L33.772,28.557L34.41,41.151L35.048,40.42L35.687,28.041L36.326,27.611L36.964,27.705L37.603,27.039L38.242,27.306L38.88,27.371L39.519,40.039L40.158,39.766L40.796,25.754L41.435,26.212L42.074,25.675L42.713,26.382L43.351,26.069L43.99,25.719L44.628,25.039L45.267,24.65L45.906,23.12L46.545,22.817L47.183,22.71L47.821,22.94L48.46,22.407L49.099,35.535L49.737,22.16L50.376,22.744L51.015,22.89L51.653,23.04L52.292,23.195L52.931,22.626L53.569,22.355L54.208,22.304L54.847,22.991L55.485,23.55L56.124,24.107L56.763,24.576L57.401,23.818L58.04,23.341L58.679,23.676L59.317,24.5L59.956,25.115L60.595,25.657L61.233,26.126L61.872,25.436L62.51,24.98L63.149,25.17L63.788,25.974L64.426,26.597L65.065,27.242L65.704,27.815L66.342,27.286L66.981,26.791L67.62,26.904L68.259,27.712L68.897,28.178L69.536,28.689L70.174,29.084L70.813,28.919L71.452,40.807L72.09,28.083L72.729,28.901L73.368,29.61L74.006,30.048L74.645,30.29L75.284,29.815L75.922,29.11L76.561,28.935L77.2,29.696L77.838,30.018L78.477,30.221L79.115,30.265L79.754,29.649L80.393,29.249L81.031,29.627L81.67,30.194L82.309,30.682L82.947,30.869L83.586,31.018L84.225,30.63L84.863,29.898L85.502,29.063L86.141,29.787L86.779,30.791L87.418,31.233L88.057,31.43L88.695,30.925L89.334,31.398L89.973,31.486L90.611,32.116L91.25,33.46L91.888,33.938L92.527,34.14L93.166,33.49L93.804,33.675L94.443,34.13L95.082,34.822L95.72,35.822L96.359,36.272L96.998,36.531L97.636,48.092L98.275,48.7L98.914,48.537L99.552,48.953L100.191,49.309L100.83,49.441L101.468,37.403L102.107,36.658L102.746,36.172L103.384,35.573L104.023,35.953L104.662,36.352L105.3,36.749L105.939,36.606L106.578,35.803L107.216,35.27L107.855,34.746L108.493,34.945L109.132,34.238L109.771,34.09L110.409,33.953L111.048,33.214L111.687,33.749L112.325,35.042L112.964,36.193L113.603,35.709L114.241,35.329L114.88,35.163L115.519,34.246L116.157,33.944L116.796,33.472L117.435,33.717L118.073,33.352L118.712,32.816L119.351,32.633L119.989,33.048L120.628,33.438L121.266,34.651L121.905,35.16L122.544,36.488L123.182,36.186L123.821,36.929L124.46,35.987L125.098,37.685L125.737,38.249L126.376,38.674L127.014,39.089L127.653,39.408L128.292,39.365L128.93,38.758L129.569,39.11L130.208,38.964L130.846,39.274L131.485,38.372L132.124,36.711L132.762,36.258L133.401,35.788L134.04,35.793L134.678,35.479L135.317,35.973L135.955,36.414L136.594,36.152L137.233,36.902L137.871,38.521L138.51,40.467L139.149,40.691L139.787,40.384L140.426,40.043L141.065,40.336L141.703,40.649L142.342,40.256L142.981,41.172L143.619,41.592L144.258,40.08L144.897,38.132L145.535,38.1L146.174,38.331L146.813,37.88L147.451,38.948L148.09,39.611L148.729,40.357L149.367,40.06L150.006,40.349L150.644,40.586L151.283,40.189L151.922,40.399L152.56,40.158L153.199,40.715L153.838,40.699L154.476,40.983L155.115,41.231L155.754,41.256L156.392,42.185L157.031,42.09L157.67,40.438L158.308,39.02L158.947,52.049L159.586,51.912L160.224,50.752L160.863,36.969L161.502,35.983L162.14,35.548L162.779,34.173L163.418,32.211L164.056,30.981L164.695,29.89L165.334,28.866L165.972,28.1L166.611,27.683L167.25,25.971L167.888,24.683L168.527,23.962L169.165,22.735L169.804,22.033L170.443,21.19L171.081,20.884L171.72,20.419L172.359,19.985L172.997,19.168L173.636,17.456L174.275,16.19L174.913,15.035L175.552,14.634L176.191,13.064L176.829,11.864L177.468,11.148L178.107,10.03L178.745,9.048L179.384,8.079L180.023,7.898L180.661,8.097L181.3,8.432L181.939,8.631L182.577,8.218L183.216,7.851L183.855,7.582L184.493,8.117L185.132,8.381L185.77,8.445L186.409,8.299L187.048,8.35L187.686,8.168L188.325,7.874L188.964,8.324L189.602,8.467L190.241,8.599L190.88,8.763L191.518,8.411L192.157,8.105L192.796,7.916L193.434,8.394L194.073,8.785L194.712,9.192L195.35,9.444L195.989,9.189L196.628,8.868L197.266,8.691L197.905,9.589L198.543,10.45L199.182,11.298L199.821,26.241L200.46,26.255L201.098,26.615L201.737,12.424L202.375,13.281L203.014,14.295L203.653,15.142L204.291,15.736L204.931,15.622L205.569,16.027L206.207,16.613L206.846,17.571L207.485,18.592L208.123,19.595L208.762,20.28L209.401,21.004L210.039,21.29L210.678,21.409L211.316,22.259L211.955,23.083L212.594,24.075L213.239,24.892L213.871,24.815L214.51,25.244L215.148,25.441L215.787,26.561L216.426,27.699L217.064,28.712L217.703,29.141L218.342,29.038L218.98,28.923L219.619,28.652L220.258,29.351L220.896,29.653L221.535,30.2L222.174,30.52L222.812,30.271L223.451,30.71L224.09,30.667L224.728,31.361L225.367,31.769L226.006,32.228L226.644,32.306L227.283,31.876L227.922,31.782L228.56,31.17L229.199,31.611L229.837,31.946L230.476,32.459L231.115,32.654L231.753,31.981L232.392,31.844L233.031,31.574L233.669,32.295L234.308,32.595L234.947,33.111L235.585,33.202L236.224,32.672L236.863,32.566L237.501,32.081L238.14,32.709L238.779,33.048L239.417,33.56L240.056,33.638L240.695,33.176L241.333,33.573L241.972,33.975L242.61,35.29L243.249,34.936L243.888,35.158L244.526,35.173L245.165,34.383L245.804,34.136L246.442,33.757L247.081,34.643L247.72,34.921L248.358,35.372L248.997,35.572L249.636,35.004L250.274,35.725L250.913,35.591L251.552,36.046L252.19,36.129L252.83,36.411L253.468,36.495L254.106,35.929L254.745,35.871L255.383,35.301L256.022,35.509L256.661,35.509L257.299,35.814L257.938,35.738L258.577,34.966L259.215,35.394L259.854,35.18L260.493,35.303L261.131,34.746L261.77,34.16L262.409,33.165L263.047,32.445L263.686,32.579L264.325,32.374L264.963,32.739L265.859,32.449L266.538,32.556L267.154,32.219L267.791,31.284L268.429,30.231L268.795,29.282L269.434,29.126L270.073,27.921L270.711,27.676L271.35,27.879L271.988,27.284L272.627,26.502L273.555,25.553L274.178,25.661L274.817,24.935L275.456,25.109L276.094,39.657L276.733,25.119L277.371,24.443L278.01,23.78L278.648,24.181L279.287,23.443L279.926,23.422L280.566,23.494L281.206,22.861L281.842,22.395L282.481,21.859L283.119,22.405L283.758,22.175L284.123,22.17L284.762,22.253L285.4,21.71L286.039,21.394L286.677,21.258L287.316,21.857L287.955,22.439L288.593,23.033L289.232,23.395L289.871,23.27L290.509,23.237L291.148,22.803L291.787,23.117L292.425,23.798L293.064,24.517L293.703,24.92L294.341,25.031L294.98,24.564L295.619,24.028L296.257,24.176L296.896,24.738L297.535,25.347L298.173,25.513L298.812,24.879L299.451,178.925L300.089,24.768L300.728,25.453L301.366,25.789L302.005,26.089L302.644,26.18L303.282,25.529L303.921,24.935L304.56,25.871L305.198,26.7L305.837,26.965L306.476,27.343L307.114,27.483L308.028,26.915L308.667,25.784L309.305,25.331L309.943,25.67L310.582,26.047L311.221,26.418L311.86,26.584L312.499,25.747L313.139,24.838L313.776,24.454L314.414,25.225L315.053,25.757L316.331,26.757L316.97,20.622L317.608,19.107L318.247,19.508L318.886,19.581L319.525,22.066L320.163,20.829L320.803,21.273L321.44,22.379L322.079,21.385L322.718,28.397L323.357,29.265L323.994,30.309L324.633,30.947L325.274,31.184L325.911,31.307L326.549,30.804L327.188,43.911L327.826,30.944L328.465,32.2L329.105,32.687L329.743,32.757L330.381,32.246L331.02,32.696L331.658,32.761L332.296,33.153L332.935,33.895L333.577,34.136L334.213,33.849L334.852,46.143L335.491,33.753L336.129,47.188L336.767,34.039L337.406,34.177L338.045,34.329L338.747,33.267L339.322,33.268L339.961,32.668L340.599,32.063L341.238,32.191L341.877,31.584L342.517,31.104L343.154,30.611L343.793,29.618L344.432,28.862L345.07,28.18L345.709,28.195L346.347,27.639L346.986,27.317L347.627,26.919L348.264,26.202L348.902,25.59L349.541,25.094L350.179,24.981L350.818,24.293L351.457,24.025L352.096,23.605L352.735,23.514L353.373,38.195L354.014,23.591L354.65,23.62L355.289,23.126L355.928,22.481L356.568,21.836L357.205,22.956L357.844,24.642L358.483,25.048L359.121,25.572L359.76,25.685L360.399,25.649L361.039,26.46L361.676,28.086L362.315,29.301L362.953,29.777L363.592,30.062L364.23,30.337L364.869,30.683L365.508,30.862L366.147,30.483L366.786,31.076L367.424,32.202L368.062,32.795L368.701,32.826L369.341,33.245L369.98,33.375L370.619,32.973L371.257,34.928L371.895,37.514L372.533,36.911L373.172,36.672L373.813,37.031L374.451,37.233L375.09,36.831L375.729,37.958L376.367,38.688L377.004,37.592L377.644,35.882L378.283,35.505L378.923,35.705L379.563,35.534L380.2,37.132L380.837,36.506L381.475,34.895L382.114,33.21L382.754,32.989L383.395,33.196L384.036,32.891L384.674,34.187L385.309,34.311L385.946,34.83L386.586,34.581L387.225,33.776L387.867,33.948L388.507,33.8L389.146,33.731L389.784,33.793L390.418,33.977L391.057,32.434L391.705,32.262L392.344,32.271L392.983,33.838L393.617,31.081L394.252,29.878L394.889,29.621L395.528,27.811L396.171,26.97L396.811,26.513L397.45,24.832L398.089,22.982L398.725,21.944L399.361,21.636L400,19.741" stroke="#f58518" stroke-width="2"/></g></g><path class="foreground" aria-hidden="true" d="" display="none"/></g></g><g class="mark-group role-legend" role="graphics-symbol" aria-roledescription="legend" aria-label="Symbol legend for stroke color with 2 values: disponible, total"><g transform="translate(0,-29)"><path class="background" aria-hidden="true" d="M0,0h108v11h-108Z" pointer-events="none"/><g><g class="mark-group role-legend-entry"><g transform="translate(0,0)"><path class="background" aria-hidden="true" d="M0,0h0v0h0Z" pointer-events="none"/><g><g class="mark-group role-scope" role="graphics-object" aria-roledescription="group mark container"><g transform="translate(0,0)"><path class="background" aria-hidden="true" d="M0,0h61.0341796875v11h-61.0341796875Z" pointer-events="none" opacity="1"/><g><g class="mark-symbol role-legend-symbol" pointer-events="none"><path transform="translate(6,6)" d="M-5,0L5,0" stroke="#4c78a8" stroke-width="1.5" opacity="1"/></g><g class="mark-text role-legend-label" pointer-events="none"><text text-anchor="start" transform="translate(16,9)" font-family="sans-serif" font-size="10px" fill="#000" opacity="1">disponible</text></g></g><path class="foreground" aria-hidden="true" d="" pointer-events="none" display="none"/></g><g transform="translate(73,0)"><path class="background" aria-hidden="true" d="M0,0h34.9013671875v11h-34.9013671875Z" pointer-events="none" opacity="1"/><g><g class="mark-symbol role-legend-symbol" pointer-events="none"><path transform="translate(6,6)" d="M-5,0L5,0" stroke="#f58518" stroke-width="1.5" opacity="1"/></g><g class="mark-text role-legend-label" pointer-events="none"><text text-anchor="start" transform="translate(16,9)" font-family="sans-serif" font-size="10px" fill="#000" opacity="1">total</text></g></g><path class="foreground" aria-hidden="true" d="" pointer-events="none" display="none"/></g></g></g><path class="foreground" aria-hidden="true" d="" pointer-events="none" display="none"/></g></g></g><path class="foreground" aria-hidden="true" d="" pointer-events="none" display="none"/></g></g><g class="mark-group role-title"><g transform="translate(200,-46)"><path class="background" aria-hidden="true" d="M0,0h0v0h0Z" pointer-events="none"/><g><g class="mark-text role-title-text" role="graphics-symbol" aria-roledescription="title" aria-label="Title text 'Historique du nombre de trajets MAXJEUNE et au total, disponibles chaque jour'" pointer-events="none"><text text-anchor="middle" transform="translate(0,10)" font-family="sans-serif" font-size="13px" font-weight="bold" fill="#000" opacity="1">Historique du nombre de trajets MAXJEUNE et au total, disponibles chaque jour</text></g></g><path class="foreground" aria-hidden="true" d="" pointer-events="none" display="none"/></g></g></g><path class="foreground" aria-hidden="true" d="" display="none"/></g></g></g></svg>