<svg xmlns="http://www.w3.org/2000/svg" xmlns:xlink="http://www.w3.org/1999/xlink" version="1.1" class="marks" width="517" height="332" viewBox="0 0 517 332"><rect width="517" height="332" fill="white"/><g fill="none" stroke-miterlimit="10" transform="translate(64,51)"><g class="mark-group role-frame root" role="graphics-object" aria-roledescription="group mark container"><g transform="translate(0,0)"><path class="background" aria-hidden="true" d="M0.5,0.5h400v200h-400Z" stroke="#ddd"/><g><g class="mark-group role-axis" aria-hidden="true"><g transform="translate(0.5,200.5)"><path class="background" aria-hidden="true" d="M0,0h0v0h0Z" pointer-events="none"/><g><g class="mark-rule role-axis-grid" pointer-events="none"><line transform="translate(4,-200)" x2="0" y2="200" stroke="#ddd" stroke-width="1" opacity="1"/><line transform="translate(33,-200)" x2="0" y2="200" stroke="#ddd" stroke-width="1" opacity="1"/><line transform="translate(60,-200)" x2="0" y2="200" stroke="#ddd" stroke-width="1" opacity="1"/><line transform="translate(89,-200)" x2="0" y2="200" stroke="#ddd" stroke-width="1" opacity="1"/><line transform="translate(117,-200)" x2="0" y2="200" stroke="#ddd" stroke-width="1" opacity="1"/><line transform="translate(143,-200)" x2="0" y2="200" stroke="#ddd" stroke-width="1" opacity="1"/><line transform="translate(172,-200)" x2="0" y2="200" stroke="#ddd" stroke-width="1" opacity="1"/><line transform="translate(199,-200)" x2="0" y2="200" stroke="#ddd" stroke-width="1" opacity="1"/><line transform="translate(228,-200)" x2="0" y2="200" stroke="#ddd" stroke-width="1" opacity="1"/><line transform="translate(255,-200)" x2="0" y2="200" stroke="#ddd" stroke-width="1" opacity="1"/><line transform="translate(284,-200)" x2="0" y2="200" stroke="#ddd" stroke-width="1" opacity="1"/><line transform="translate(313,-200)" x2="0" y2="200" stroke="#ddd" stroke-width="1" opacity="1"/><line transform="translate(340,-200)" x2="0" y2="200" stroke="#ddd" stroke-width="1" opacity="1"/><line transform="translate(369,-200)" x2="0" y2="200" stroke="#ddd" stroke-width="1" opacity="1"/><line transform="translate(396,-200)" x2="0" y2="200" stroke="#ddd" stroke-width="1" opacity="1"/></g></g><path class="foreground" aria-hidden="true" d="" pointer-events="none" display="none"/></g></g><g class="mark-group role-axis" aria-hidden="true"><g transform="translate(0.5,0.5)"><path class="background" aria-hidden="true" d="M0,0h0v0h0Z" pointer-events="none"/><g><g class="mark-rule role-axis-grid" pointer-events="none"><line transform="translate(0,200)" x2="400" y2="0" stroke="#ddd" stroke-width="1" opacity="1"/><line transform="translate(0,156)" x2="400" y2="0" stroke="#ddd" stroke-width="1" opacity="1"/><line transform="translate(0,111)" x2="400" y2="0" stroke="#ddd" stroke-width="1" opacity="1"/><line transform="translate(0,67)" x2="400" y2="0" stroke="#ddd" stroke-width="1" opacity="1"/><line transform="translate(0,22)" x2="400" y2="0" stroke="#ddd" stroke-width="1" opacity="1"/></g></g><path class="foreground" aria-hidden="true" d="" pointer-events="none" display="none"/></g></g><g class="mark-group role-axis" role="graphics-symbol" aria-roledescription="axis" aria-label="X-axis titled 'Date de la recherche' for a time scale with values from September 2024 to December 2025"><g transform="translate(0.5,200.5)"><path class="background" aria-hidden="true" d="M0,0h0v0h0Z" pointer-events="none"/><g><g class="mark-rule role-axis-tick" pointer-events="none"><line transform="translate(4,0)" x2="0" y2="5" stroke="#888" stroke-width="1" opacity="1"/><line transform="translate(33,0)" x2="0" y2="5" stroke="#888" stroke-width="1" opacity="1"/><line transform="translate(60,0)" x2="0" y2="5" stroke="#888" stroke-width="1" opacity="1"/><line transform="translate(89,0)" x2="0" y2="5" stroke="#888" stroke-width="1" opacity="1"/><line transform="translate(117,0)" x2="0" y2="5" stroke="#888" stroke-width="1" opacity="1"/><line transform="translate(143,0)" x2="0" y2="5" stroke="#888" stroke-width="1" opacity="1"/><line transform="translate(172,0)" x2="0" y2="5" stroke="#888" stroke-width="1" opacity="1"/><line transform="translate(199,0)" x2="0" y2="5" stroke="#888" stroke-width="1" opacity="1"/><line transform="translate(228,0)" x2="0" y2="5" stroke="#888" stroke-width="1" opacity="1"/><line transform="translate(255,0)" x2="0" y2="5" stroke="#888" stroke-width="1" opacity="1"/><line transform="translate(284,0)" x2="0" y2="5" stroke="#888" stroke-width="1" opacity="1"/><line transform="translate(313,0)" x2="0" y2="5" stroke="#888" stroke-width="1" opacity="1"/><line transform="translate(340,0)" x2="0" y2="5" stroke="#888" stroke-width="1" opacity="1"/><line transform="translate(369,0)" x2="0" y2="5" stroke="#888" stroke-width="1" opacity="1"/><line transform="translate(396,0)" x2="0" y2="5" stroke="#888" stroke-width="1" opacity="1"/></g><g class="mark-text role-axis-label" pointer-events="none"><text text-anchor="start" transform="translate(4.022789511439425,7) rotate(45) translate(0,8)" font-family="sans-serif" font-size="10px" fill="#000" opacity="1">October 2024</text><text text-anchor="start" transform="translate(32.57403223411175,7) rotate(45) translate(0,8)" font-family="sans-serif" font-size="10px" fill="#000" opacity="0">November 2024</text><text text-anchor="start" transform="translate(60.20426712702045,7) rotate(45) translate(0,8)" font-family="sans-serif" font-size="10px" fill="#000" opacity="0">December 2024</text><text text-anchor="start" transform="translate(88.75550984969277,7) rotate(45) translate(0,8)" font-family="sans-serif" font-size="10px" fill="#000" opacity="0">January 2025</text><text text-anchor="start" transform="translate(117.3067525723651,7) rotate(45) translate(0,8)" font-family="sans-serif" font-size="10px" fill="#000" opacity="1">February 2025</text><text text-anchor="start" transform="translate(143.09497180574655,7) rotate(45) translate(0,8)" font-family="sans-serif" font-size="10px" fill="#000" opacity="0">March 2025</text><text text-anchor="start" transform="translate(171.64621452841885,7) rotate(45) translate(0,8)" font-family="sans-serif" font-size="10px" fill="#000" opacity="0">April 2025</text><text text-anchor="start" transform="translate(199.27644942132756,7) rotate(45) translate(0,8)" font-family="sans-serif" font-size="10px" fill="#000" opacity="0">May 2025</text><text text-anchor="start" transform="translate(227.82769214399988,7) rotate(45) translate(0,8)" font-family="sans-serif" font-size="10px" fill="#000" opacity="1">June 2025</text><text text-anchor="start" transform="translate(255.4579270369086,7) rotate(45) translate(0,8)" font-family="sans-serif" font-size="10px" fill="#000" opacity="0">July 2025</text><text text-anchor="start" transform="translate(284.0091697595809,7) rotate(45) translate(0,8)" font-family="sans-serif" font-size="10px" fill="#000" opacity="0">August 2025</text><text text-anchor="start" transform="translate(312.56041248225324,7) rotate(45) translate(0,8)" font-family="sans-serif" font-size="10px" fill="#000" opacity="0">September 2025</text><text text-anchor="start" transform="translate(340.190647375162,7) rotate(45) translate(0,8)" font-family="sans-serif" font-size="10px" fill="#000" opacity="1">October 2025</text><text text-anchor="start" transform="translate(368.74189009783424,7) rotate(45) translate(0,8)" font-family="sans-serif" font-size="10px" fill="#000" opacity="0">November 2025</text><text text-anchor="start" transform="translate(396.3721249907429,7) rotate(45) translate(0,8)" font-family="sans-serif" font-size="10px" fill="#000" opacity="0">December 2025</text></g><g class="mark-rule role-axis-domain" pointer-events="none"><line transform="translate(0,0)" x2="400" y2="0" stroke="#888" stroke-width="1" opacity="1"/></g><g class="mark-text role-axis-title" pointer-events="none"><text text-anchor="middle" transform="translate(200,73.06062994763118)" font-family="sans-serif" font-size="11px" font-weight="bold" fill="#000" opacity="1">Date de la recherche</text></g></g><path class="foreground" aria-hidden="true" d="" pointer-events="none" display="none"/></g></g><g class="mark-group role-axis" role="graphics-symbol" aria-roledescription="axis" aria-label="Y-axis titled 'Nombre de trajets' for a linear scale with values from 0 to 450,000"><g transform="translate(0.5,0.5)"><path class="background" aria-hidden="true" d="M0,0h0v0h0Z" pointer-events="none"/><g><g class="mark-rule role-axis-tick" pointer-events="none"><line transform="translate(0,200)" x2="-5" y2="0" stroke="#888" stroke-width="1" opacity="1"/><line transform="translate(0,156)" x2="-5" y2="0" stroke="#888" stroke-width="1" opacity="1"/><line transform="translate(0,111)" x2="-5" y2="0" stroke="#888" stroke-width="1" opacity="1"/><line transform="translate(0,67)" x2="-5" y2="0" stroke="#888" stroke-width="1" opacity="1"/><line transform="translate(0,22)" x2="-5" y2="0" stroke="#888" stroke-width="1" opacity="1"/></g><g class="mark-text role-axis-label" pointer-events="none"><text text-anchor="end" transform="translate(-7,203)" font-family="sans-serif" font-size="10px" fill="#000" opacity="1">0</text><text text-anchor="end" transform="translate(-7,158.55555555555557)" font-family="sans-serif" font-size="10px" fill="#000" opacity="1">100,000</text><text text-anchor="end" transform="translate(-7,114.11111111111111)" font-family="sans-serif" font-size="10px" fill="#000" opacity="1">200,000</text><text text-anchor="end" transform="translate(-7,69.66666666666667)" font-family="sans-serif" font-size="10px" fill="#000" opacity="1">300,000</text><text text-anchor="end" transform="translate(-7,25.222222222222232)" font-family="sans-serif" font-size="10px" fill="#000" opacity="1">400,000</text></g><g class="mark-rule role-axis-domain" pointer-events="none"><line transform="translate(0,200)" x2="0" y2="-200" stroke="#888" stroke-width="1" opacity="1"/></g><g class="mark-text role-axis-title" pointer-events="none"><text text-anchor="middle" transform="translate(-47.1474609375,100) rotate(-90) translate(0,-2)" font-family="sans-serif" font-size="11px" font-weight="bold" fill="#000" opacity="1">Nombre de trajets</text></g></g><path class="foreground" aria-hidden="true" d="" pointer-events="none" display="none"/></g></g><g class="mark-group role-scope pathgroup" role="graphics-object" aria-roledescription="group mark container"><g transform="translate(0,0)"><path class="background" aria-hidden="true" d="M0,0h400v200h-400Z"/><g><g class="mark-line role-mark marks" role="graphics-object" aria-roledescription="line mark container"><path aria-label="Date de la recherche: September 2024; Nombre de trajets: 91488; variable: disponible" role="graphics-symbol" aria-roledescription="line mark" d="M0,159.339L0.809,160.009L1.73,160.25L2.651,159.721L3.573,159.224L4.493,160.066L5.415,161.226L6.336,162.729L7.256,163.599L8.177,164.927L9.098,164.272L10.019,163.069L10.941,163.83L11.861,166.394L12.783,165.123L13.704,166.305L14.625,167.015L15.546,167.638L16.467,167.648L17.388,168.931L18.309,169.444L19.23,170.203L20.151,170.474L21.072,170.704L21.993,168.872L22.914,167.766L23.835,168.451L24.756,167.16L25.677,168.696L26.598,166.936L27.519,167.617L28.44,164.943L29.367,163.236L30.282,165.275L31.203,163.601L32.124,165.017L33.045,163.38L33.966,162.688L34.887,161.357L35.808,159.746L36.729,159.755L37.651,159.142L38.571,161.116L39.492,160.392L40.413,160.483L41.334,158.316L42.255,156.748L43.178,154.82L44.097,155.253L45.018,154.239L45.939,154.859L46.862,156.557L47.781,155.787L48.703,155.331L49.623,156.853L50.544,157.538L51.465,158.599L52.386,159.242L53.307,159.566L54.228,159.835L55.149,159.906L56.07,161.397L56.991,162.616L57.912,164.062L58.833,165.294L59.754,166.184L60.675,166.252L61.597,166.133L62.517,167.211L63.439,167.551L64.359,168.202L65.28,168.182L66.202,168.864L67.122,168.023L68.043,166.956L68.964,166.728L69.885,166.308L70.806,166.35L71.727,164.781L72.648,165.02L73.569,163.984L74.49,162.302L75.411,162.622L76.332,161.783L77.253,161.712L78.174,159.731L79.095,159.145L80.016,157.033L80.937,155.203L81.858,153.702L82.779,149.882L83.7,149.315L84.621,147.688L85.542,147.022L86.463,145.158L87.384,143.235L88.305,141.419L89.226,139.417L90.147,139.184L91.068,141.537L91.989,142.381L92.91,139.298L93.831,137.729L94.752,138.287L95.673,138.306L96.594,139.025L97.516,139.891L98.437,141.793L99.357,142.216L100.278,142.23L101.199,143.622L102.12,144.212L103.041,146.113L103.962,147.762L104.883,148.816L105.804,149.653L106.725,149.103L107.646,149.572L108.567,151.036L109.488,152.019L110.409,154.556L111.33,155.987L112.251,156.427L113.172,155.749L114.093,156.068L115.014,156.588L115.935,157.142L116.856,158.761L117.777,159.033L118.698,159.104L119.619,158.219L120.54,158.195L121.461,158.685L122.382,160.639L123.303,161.217L124.224,162.238L125.145,161.805L126.066,161.569L126.987,162.052L127.908,162.612L128.83,163.765L129.75,164.016L130.671,164.144L131.592,163.397L132.513,162.463L133.434,162.635L134.356,160.836L135.276,162.052L136.198,161.876L137.118,162.061L138.04,159.33L138.961,157.85L139.882,157.162L140.802,156.173L141.723,157.449L142.645,157.287L143.565,157.682L144.487,156.434L145.408,155.299L146.329,155.873L147.25,156.232L148.171,158.153L149.092,157.316L150.013,158.821L150.934,157.497L151.855,156.43L152.776,156.36L153.697,156.624L154.618,157.757L155.539,159.565L156.46,159.94L157.381,160.216L158.302,159.533L159.223,159.946L160.144,160.72L161.065,162.035L161.986,162.685L162.907,163.619L163.828,164.437L164.749,164.308L165.67,164.997L166.591,165.332L167.512,166.06L168.433,166.832L169.354,167.163L170.275,167.356L171.196,166.756L172.117,168.562L173.038,168.524L173.959,169.668L174.88,169.96L175.801,170.583L176.722,169.531L177.643,169.106L178.564,170.336L179.485,171.222L180.406,172.901L181.327,173.898L182.248,173.981L183.169,173.399L184.09,172.256L185.011,172.224L185.932,172.383L186.853,172.577L187.774,171.82L188.695,171.468L189.616,170.136L190.537,168.69L191.458,167.228L192.379,166.981L193.3,166.786L194.221,166.962L195.142,166.335L196.063,165.966L196.984,165.59L197.905,166.577L198.826,167.733L199.747,170.02L200.668,168.846L201.589,169.858L202.51,169.379L203.431,168.202L204.352,168.43L205.273,170.075L206.194,170.046L207.115,169.925L208.036,169.592L208.957,168.736L209.878,168.091L210.799,168.04L211.72,168.317L212.641,169.349L213.562,169.497L214.483,170.13L215.404,170.491L216.325,170.374L217.246,171.072L218.167,173.061L219.088,174.635L220.009,174.731L220.93,174.89L221.851,174.699L222.772,174.329L223.693,175.925L224.614,174.959L225.535,175.182L226.456,176.424L227.377,174.932L228.298,174.408L229.219,173.2L230.14,172.78L231.061,173.29L231.982,173.061L232.903,173.79L233.824,173.8L234.745,173.333L235.666,172.788L236.587,172.172L237.508,172.853L238.429,173.283L239.351,175.056L240.272,174.065L241.193,174.497L242.114,174.456L243.035,175.107L243.955,175.869L244.876,176.792L245.797,176.778L246.718,177.009L247.639,177.119L248.56,176.421L249.481,176.539L250.402,177.062L251.324,177.335L252.244,177.774L253.165,178.057L254.086,177.759L255.008,177.03L255.929,176.662L256.85,177.327L257.771,177.417L258.692,177.748L259.613,177.901L260.534,177.574L261.455,176.725L262.376,176.693L263.297,176.283L264.218,176.441L265.139,176.327L266.06,176.355L266.981,175.682L267.902,175.172L268.823,174.815L269.744,178.13L270.665,178.902L271.586,178.285L272.506,178.194L273.428,177.128L274.349,176.427L275.27,176.211L276.191,176.344L277.112,176.647L278.033,176.738L278.954,176.03L279.875,175.164L280.796,174.287L281.717,174.413L282.638,173.714L283.559,174.324L284.48,173.887L285.401,173.912L286.322,172.471L287.243,171.321L288.164,171.24L289.085,171.28L290.006,172.08L290.927,172.211L291.848,172.403L292.769,171.398L293.69,170.396L294.611,170.518L295.533,170.236L296.453,170.683L297.374,170.087L298.295,170.074L299.216,169.3L300.137,168.013L301.058,167.635L301.979,166.205L302.9,166.481L303.821,166.323L304.742,166.3L305.663,165.771L306.584,164.96L307.515,164.593L308.426,165.332L309.347,166.362L310.268,166.83L311.189,167.888L312.11,167.998L313.031,168.088L313.952,168.656L314.873,170.384L315.794,164.386L316.715,164.849L317.636,166.016L318.557,165.694L319.478,164.655L320.399,163.862L321.32,163.137L322.241,165.146L323.162,165.064L324.083,165.244L325.004,165.762L325.925,164.872L326.846,164.64L327.768,165.472L328.688,166.088L329.609,167.32L330.53,166.82L331.451,167.115L332.372,167.029L333.293,167.192L334.214,167.811L335.135,168.811L336.056,170.644L336.977,169.776L337.898,170.481L338.819,170.076L339.74,170.333L340.661,170.433L341.582,171.609L342.503,172.44L343.424,172.626L344.345,172.988L345.266,172.106L346.187,171.847L347.108,172.026L348.029,173.442L348.95,173.866L349.871,173.078L350.792,172.944L351.713,173.152L352.634,173.688L353.555,174.006L354.476,174.688L355.397,174.205L356.318,173.786L357.24,172.674L358.16,171.307L359.081,171.597L360.002,171.21L360.923,171.624L361.844,171.142L362.765,170.751L363.686,169.213L364.609,167.775L365.528,167.387L366.449,167.261L367.37,167.35L368.291,166.703L369.212,167.341L370.134,166.164L371.054,164.592L371.975,164.66L372.896,164.254L373.817,165.054L374.738,165.095L375.66,164.783L376.58,163.01L377.501,162.001L378.422,161.608L379.343,160.09L380.264,160.927L381.186,161.446L382.106,161.809L383.398,161.546L384.377,160.467L385.266,161.036L386.185,161.558L387.105,162.723L387.632,163.683L388.554,163.763L389.475,163.474L390.396,163.335L391.317,163.94L392.238,164.694L393.159,165.922L394.496,167.04L395.395,167.981L396.316,168.795L397.237,168.795L398.158,169.349L399.08,170.304L400,171.598" stroke="#4c78a8" stroke-width="2"/></g></g><path class="foreground" aria-hidden="true" d="" display="none"/></g><g transform="translate(0,0)"><path class="background" aria-hidden="true" d="M0,0h400v200h-400Z"/><g><g class="mark-line role-mark marks" role="graphics-object" aria-roledescription="line mark container"><path aria-label="Date de la recherche: September 2024; Nombre de trajets: 351801; variable: total" role="graphics-symbol" aria-roledescription="line mark" d="M0,43.644L0.809,43.23L1.73,43.532L2.651,43.471L3.573,43.523L4.493,42.888L5.415,42.975L6.336,43.715L7.256,43.55L8.177,43.967L9.098,43.883L10.019,43.916L10.941,43.705L11.861,43.343L12.783,45.168L13.704,47.57L14.625,49.451L15.546,50.78L16.467,51.056L17.388,51.055L18.309,50.496L19.23,50.482L20.151,50.263L21.072,50.547L21.993,50.55L22.914,50.929L23.835,51.131L24.756,50.923L25.677,51.584L26.598,51.856L27.519,52.263L28.44,52.39L29.367,52.759L30.282,52.836L31.203,52.374L32.124,53.093L33.045,53.62L33.966,53.032L34.887,52.105L35.808,52.092L36.729,52.091L37.651,51.462L38.571,51.622L39.492,41.063L40.413,40.994L41.334,38.53L42.255,35.785L43.178,33.752L44.097,31.452L45.018,31.196L45.939,31.976L46.862,32.224L47.781,32.1L48.703,32.214L49.623,43.381L50.544,42.648L51.465,31.545L52.386,31.141L53.307,31.16L54.228,30.515L55.149,30.687L56.07,30.67L56.991,41.943L57.912,41.649L58.833,29.061L59.754,29.416L60.675,28.902L61.597,29.519L62.517,29.164L63.439,28.757L64.359,28.1L65.28,27.722L66.202,26.185L67.122,25.875L68.043,25.729L68.964,25.856L69.885,25.331L70.806,37.198L71.727,25.074L72.648,25.668L73.569,25.804L74.49,25.909L75.411,26.032L76.332,25.492L77.253,25.271L78.174,25.142L79.095,25.764L80.016,26.482L80.937,26.828L81.858,27.121L82.779,26.415L83.7,25.957L84.621,26.279L85.542,27.016L86.463,27.544L87.384,27.983L88.305,28.387L89.226,27.747L90.147,27.414L91.068,27.669L91.989,28.387L92.91,28.939L93.831,29.468L94.752,29.973L95.673,29.508L96.594,29.126L97.516,29.288L98.437,30.003L99.357,30.398L100.278,30.824L101.199,31.144L102.12,30.97L103.041,41.714L103.962,30.252L104.883,30.988L105.804,31.619L106.725,31.958L107.646,32.143L108.567,31.707L109.488,31.087L110.409,31.152L111.33,31.917L112.251,32.222L113.172,32.403L114.093,32.294L115.014,31.743L115.935,31.524L116.856,31.784L117.777,32.277L118.698,32.624L119.619,32.712L120.54,32.796L121.461,32.445L122.382,31.822L123.303,31.126L124.224,31.789L125.145,32.685L126.066,33.031L126.987,33.212L127.908,32.773L128.83,33.388L129.75,33.592L130.671,34.164L131.592,35.362L132.513,35.763L133.434,35.899L134.356,35.315L135.276,35.592L136.198,36.133L137.118,36.764L138.04,37.632L138.961,37.992L139.882,38.217L140.802,48.657L141.723,49.276L142.645,49.164L143.565,49.493L144.487,49.746L145.408,49.778L146.329,38.859L147.25,38.161L148.171,37.686L149.092,37.108L150.013,37.387L150.934,37.632L151.855,37.878L152.776,37.688L153.697,36.921L154.618,36.403L155.539,35.921L156.46,36.056L157.381,35.163L158.302,34.855L159.223,34.686L160.144,33.996L161.065,34.483L161.986,35.695L162.907,36.783L163.828,36.296L164.749,35.908L165.67,35.731L166.591,34.88L167.512,34.631L168.433,34.328L169.354,34.329L170.275,33.922L171.196,33.396L172.117,33.329L173.038,33.858L173.959,34.476L174.88,35.666L175.801,36.248L176.722,37.45L177.643,37.177L178.564,37.877L179.485,37.17L180.406,38.661L181.327,39.278L182.248,39.69L183.169,40.057L184.09,40.341L185.011,40.363L185.932,39.966L186.853,40.384L187.774,40.357L188.695,40.606L189.616,39.799L190.537,38.261L191.458,37.851L192.379,37.399L193.3,37.4L194.221,37.352L195.142,37.876L196.063,38.551L196.984,38.273L197.905,38.913L198.826,40.323L199.747,42.092L200.668,42.238L201.589,41.801L202.51,41.309L203.431,41.427L204.352,41.43L205.273,40.981L206.194,41.689L207.115,42.137L208.036,40.74L208.957,38.877L209.878,38.676L210.799,38.774L211.72,38.256L212.641,39.166L213.562,39.717L214.483,40.268L215.404,39.847L216.325,39.945L217.246,40.043L218.167,39.415L219.088,39.523L220.009,39.268L220.93,39.68L221.851,39.566L222.772,39.679L223.693,39.789L224.614,39.682L225.535,40.502L226.456,40.502L227.377,38.96L228.298,37.599L229.219,49.079L230.14,48.936L231.061,47.866L231.982,35.477L232.903,34.581L233.824,34.1L234.745,32.722L235.666,30.764L236.587,29.522L237.508,28.472L238.429,27.45L239.351,26.752L240.272,26.195L241.193,24.508L242.114,23.186L243.035,22.453L243.955,21.27L244.876,20.594L245.797,19.795L246.718,19.459L247.639,18.917L248.56,18.407L249.481,17.611L250.402,15.996L251.324,14.744L252.244,13.67L253.165,13.268L254.086,11.688L255.008,10.401L255.929,9.68L256.85,8.634L257.771,7.666L258.692,6.733L259.613,6.447L260.534,6.648L261.455,6.913L262.376,7.142L263.297,6.778L264.218,6.423L265.139,6.221L266.06,6.697L266.981,6.961L267.902,6.967L268.823,6.828L269.744,6.909L270.665,6.72L271.586,6.489L272.506,6.91L273.428,7.019L274.349,7.102L275.27,7.276L276.191,7L277.112,6.7L278.033,6.562L278.954,7.013L279.875,7.419L280.796,7.774L281.717,8.004L282.638,7.824L283.559,7.632L284.48,7.624L285.401,8.608L286.322,9.588L287.243,10.514L288.164,23.998L289.085,24.18L290.006,24.671L290.927,12.251L291.848,13.22L292.769,14.339L293.69,15.249L294.611,15.966L295.533,16.04L296.453,16.588L297.374,17.289L298.295,18.311L299.216,19.453L300.137,20.548L301.058,21.367L301.979,21.895L302.9,22.307L303.821,22.592L304.742,23.508L305.663,24.434L306.584,25.478L307.515,26.376L308.426,26.459L309.347,26.994L310.268,27.342L311.189,28.512L312.11,29.606L313.031,30.551L313.952,30.946L314.873,30.848L315.794,30.833L316.715,30.717L317.636,31.369L318.557,31.672L319.478,32.168L320.399,32.468L321.32,32.252L322.241,32.707L323.162,32.744L324.083,33.391L325.004,33.776L325.925,34.194L326.846,34.264L327.768,33.874L328.688,33.784L329.609,33.23L330.53,33.629L331.451,33.935L332.372,34.376L333.293,34.532L334.214,33.903L335.135,33.763L336.056,33.499L336.977,34.137L337.898,34.408L338.819,34.85L339.74,34.911L340.661,34.408L341.582,34.312L342.503,33.871L343.424,34.43L344.345,34.635L345.266,34.972L346.187,35.029L347.108,34.567L348.029,34.906L348.95,35.273L349.871,36.404L350.792,36.064L351.713,36.193L352.634,36.184L353.555,35.46L354.476,35.25L355.397,34.94L356.318,35.736L357.24,35.958L358.16,36.317L359.081,36.487L360.002,36.016L360.923,36.638L361.844,36.584L362.765,37.003L363.686,37.092L364.609,37.367L365.528,37.441L366.449,36.927L367.37,36.857L368.291,36.367L369.212,36.565L370.134,36.544L371.054,36.812L371.975,36.737L372.896,36.034L373.817,36.394L374.738,36.221L375.66,36.347L376.58,35.854L377.501,35.315L378.422,34.461L379.343,33.782L380.264,33.904L381.186,33.897L382.106,34.39L383.398,34.251L384.377,34.461L385.266,34.308L386.185,33.611L387.105,32.839L387.632,32.159L388.554,32.164L389.475,31.195L390.396,31.053L391.317,31.379L392.238,30.967L393.159,30.417L394.496,29.717L395.395,27.828L396.316,26.715L397.237,26.84L398.158,39.755L399.08,26.792L400,26.18" stroke="#f58518" stroke-width="2"/></g></g><path class="foreground" aria-hidden="true" d="" display="none"/></g></g><g class="mark-group role-legend" role="graphics-symbol" aria-roledescription="legend" aria-label="Symbol legend for stroke color with 2 values: disponible, total"><g transform="translate(0,-29)"><path class="background" aria-hidden="true" d="M0,0h108v11h-108Z" pointer-events="none"/><g><g class="mark-group role-legend-entry"><g transform="translate(0,0)"><path class="background" aria-hidden="true" d="M0,0h0v0h0Z" pointer-events="none"/><g><g class="mark-group role-scope" role="graphics-object" aria-roledescription="group mark container"><g transform="translate(0,0)"><path class="background" aria-hidden="true" d="M0,0h61.0341796875v11h-61.0341796875Z" pointer-events="none" opacity="1"/><g><g class="mark-symbol role-legend-symbol" pointer-events="none"><path transform="translate(6,6)" d="M-5,0L5,0" stroke="#4c78a8" stroke-width="1.5" opacity="1"/></g><g class="mark-text role-legend-label" pointer-events="none"><text text-anchor="start" transform="translate(16,9)" font-family="sans-serif" font-size="10px" fill="#000" opacity="1">disponible</text></g></g><path class="foreground" aria-hidden="true" d="" pointer-events="none" display="none"/></g><g transform="translate(73,0)"><path class="background" aria-hidden="true" d="M0,0h34.9013671875v11h-34.9013671875Z" pointer-events="none" opacity="1"/><g><g class="mark-symbol role-legend-symbol" pointer-events="none"><path transform="translate(6,6)" d="M-5,0L5,0" stroke="#f58518" stroke-width="1.5" opacity="1"/></g><g class="mark-text role-legend-label" pointer-events="none"><text text-anchor="start" transform="translate(16,9)" font-family="sans-serif" font-size="10px" fill="#000" opacity="1">total</text></g></g><path class="foreground" aria-hidden="true" d="" pointer-events="none" display="none"/></g></g></g><path class="foreground" aria-hidden="true" d="" pointer-events="none" display="none"/></g></g></g><path class="foreground" aria-hidden="true" d="" pointer-events="none" display="none"/></g></g><g class="mark-group role-title"><g transform="translate(200,-46)"><path class="background" aria-hidden="true" d="M0,0h0v0h0Z" pointer-events="none"/><g><g class="mark-text role-title-text" role="graphics-symbol" aria-roledescription="title" aria-label="Title text 'Historique du nombre de trajets MAXJEUNE et au total, disponibles chaque jour'" pointer-events="none"><text text-anchor="middle" transform="translate(0,10)" font-family="sans-serif" font-size="13px" font-weight="bold" fill="#000" opacity="1">Historique du nombre de trajets MAXJEUNE et au total, disponibles chaque jour</text></g></g><path class="foreground" aria-hidden="true" d="" pointer-events="none" display="none"/></g></g></g><path class="foreground" aria-hidden="true" d="" display="none"/></g></g></g></svg>