<svg xmlns="http://www.w3.org/2000/svg" xmlns:xlink="http://www.w3.org/1999/xlink" version="1.1" class="marks" width="517" height="328" viewBox="0 0 517 328"><rect width="517" height="328" fill="white"/><g fill="none" stroke-miterlimit="10" transform="translate(64,51)"><g class="mark-group role-frame root" role="graphics-object" aria-roledescription="group mark container"><g transform="translate(0,0)"><path class="background" aria-hidden="true" d="M0.5,0.5h400v200h-400Z" stroke="#ddd"/><g><g class="mark-group role-axis" aria-hidden="true"><g transform="translate(0.5,200.5)"><path class="background" aria-hidden="true" d="M0,0h0v0h0Z" pointer-events="none"/><g><g class="mark-rule role-axis-grid" pointer-events="none"><line transform="translate(2,-200)" x2="0" y2="200" stroke="#ddd" stroke-width="1" opacity="1"/><line transform="translate(52,-200)" x2="0" y2="200" stroke="#ddd" stroke-width="1" opacity="1"/><line transform="translate(101,-200)" x2="0" y2="200" stroke="#ddd" stroke-width="1" opacity="1"/><line transform="translate(150,-200)" x2="0" y2="200" stroke="#ddd" stroke-width="1" opacity="1"/><line transform="translate(200,-200)" x2="0" y2="200" stroke="#ddd" stroke-width="1" opacity="1"/><line transform="translate(249,-200)" x2="0" y2="200" stroke="#ddd" stroke-width="1" opacity="1"/><line transform="translate(298,-200)" x2="0" y2="200" stroke="#ddd" stroke-width="1" opacity="1"/><line transform="translate(347,-200)" x2="0" y2="200" stroke="#ddd" stroke-width="1" opacity="1"/><line transform="translate(397,-200)" x2="0" y2="200" stroke="#ddd" stroke-width="1" opacity="1"/></g></g><path class="foreground" aria-hidden="true" d="" pointer-events="none" display="none"/></g></g><g class="mark-group role-axis" aria-hidden="true"><g transform="translate(0.5,0.5)"><path class="background" aria-hidden="true" d="M0,0h0v0h0Z" pointer-events="none"/><g><g class="mark-rule role-axis-grid" pointer-events="none"><line transform="translate(0,200)" x2="400" y2="0" stroke="#ddd" stroke-width="1" opacity="1"/><line transform="translate(0,150)" x2="400" y2="0" stroke="#ddd" stroke-width="1" opacity="1"/><line transform="translate(0,100)" x2="400" y2="0" stroke="#ddd" stroke-width="1" opacity="1"/><line transform="translate(0,50)" x2="400" y2="0" stroke="#ddd" stroke-width="1" opacity="1"/><line transform="translate(0,0)" x2="400" y2="0" stroke="#ddd" stroke-width="1" opacity="1"/></g></g><path class="foreground" aria-hidden="true" d="" pointer-events="none" display="none"/></g></g><g class="mark-group role-axis" role="graphics-symbol" aria-roledescription="axis" aria-label="X-axis titled 'Date de la recherche' for a time scale with values from September 2024 to October 2026"><g transform="translate(0.5,200.5)"><path class="background" aria-hidden="true" d="M0,0h0v0h0Z" pointer-events="none"/><g><g class="mark-rule role-axis-tick" pointer-events="none"><line transform="translate(2,0)" x2="0" y2="5" stroke="#888" stroke-width="1" opacity="1"/><line transform="translate(52,0)" x2="0" y2="5" stroke="#888" stroke-width="1" opacity="1"/><line transform="translate(101,0)" x2="0" y2="5" stroke="#888" stroke-width="1" opacity="1"/><line transform="translate(150,0)" x2="0" y2="5" stroke="#888" stroke-width="1" opacity="1"/><line transform="translate(200,0)" x2="0" y2="5" stroke="#888" stroke-width="1" opacity="1"/><line transform="translate(249,0)" x2="0" y2="5" stroke="#888" stroke-width="1" opacity="1"/><line transform="translate(298,0)" x2="0" y2="5" stroke="#888" stroke-width="1" opacity="1"/><line transform="translate(347,0)" x2="0" y2="5" stroke="#888" stroke-width="1" opacity="1"/><line transform="translate(397,0)" x2="0" y2="5" stroke="#888" stroke-width="1" opacity="1"/></g><g class="mark-text role-axis-label" pointer-events="none"><text text-anchor="start" transform="translate(2.3595810715897545,7) rotate(45) translate(0,8)" font-family="sans-serif" font-size="10px" fill="#000" opacity="1">October 2024</text><text text-anchor="start" transform="translate(52.0598506198493,7) rotate(45) translate(0,8)" font-family="sans-serif" font-size="10px" fill="#000" opacity="0">January 2025</text><text text-anchor="start" transform="translate(100.67967952575539,7) rotate(45) translate(0,8)" font-family="sans-serif" font-size="10px" fill="#000" opacity="1">April 2025</text><text text-anchor="start" transform="translate(149.8397287528382,7) rotate(45) translate(0,8)" font-family="sans-serif" font-size="10px" fill="#000" opacity="0">July 2025</text><text text-anchor="start" transform="translate(199.53999830109774,7) rotate(45) translate(0,8)" font-family="sans-serif" font-size="10px" fill="#000" opacity="1">October 2025</text><text text-anchor="start" transform="translate(249.2402678493573,7) rotate(45) translate(0,8)" font-family="sans-serif" font-size="10px" fill="#000" opacity="0">January 2026</text><text text-anchor="start" transform="translate(297.8600967552634,7) rotate(45) translate(0,8)" font-family="sans-serif" font-size="10px" fill="#000" opacity="1">April 2026</text><text text-anchor="start" transform="translate(347.0201459823462,7) rotate(45) translate(0,8)" font-family="sans-serif" font-size="10px" fill="#000" opacity="0">July 2026</text><text text-anchor="start" transform="translate(396.72041553060575,7) rotate(45) translate(0,8)" font-family="sans-serif" font-size="10px" fill="#000" opacity="1">October 2026</text></g><g class="mark-rule role-axis-domain" pointer-events="none"><line transform="translate(0,0)" x2="400" y2="0" stroke="#888" stroke-width="1" opacity="1"/></g><g class="mark-text role-axis-title" pointer-events="none"><text text-anchor="middle" transform="translate(200,69.91870040231984)" font-family="sans-serif" font-size="11px" font-weight="bold" fill="#000" opacity="1">Date de la recherche</text></g></g><path class="foreground" aria-hidden="true" d="" pointer-events="none" display="none"/></g></g><g class="mark-group role-axis" role="graphics-symbol" aria-roledescription="axis" aria-label="Y-axis titled 'Nombre de trajets' for a linear scale with values from 0 to 400,000"><g transform="translate(0.5,0.5)"><path class="background" aria-hidden="true" d="M0,0h0v0h0Z" pointer-events="none"/><g><g class="mark-rule role-axis-tick" pointer-events="none"><line transform="translate(0,200)" x2="-5" y2="0" stroke="#888" stroke-width="1" opacity="1"/><line transform="translate(0,150)" x2="-5" y2="0" stroke="#888" stroke-width="1" opacity="1"/><line transform="translate(0,100)" x2="-5" y2="0" stroke="#888" stroke-width="1" opacity="1"/><line transform="translate(0,50)" x2="-5" y2="0" stroke="#888" stroke-width="1" opacity="1"/><line transform="translate(0,0)" x2="-5" y2="0" stroke="#888" stroke-width="1" opacity="1"/></g><g class="mark-text role-axis-label" pointer-events="none"><text text-anchor="end" transform="translate(-7,203)" font-family="sans-serif" font-size="10px" fill="#000" opacity="1">0</text><text text-anchor="end" transform="translate(-7,153)" font-family="sans-serif" font-size="10px" fill="#000" opacity="1">100,000</text><text text-anchor="end" transform="translate(-7,103)" font-family="sans-serif" font-size="10px" fill="#000" opacity="1">200,000</text><text text-anchor="end" transform="translate(-7,53)" font-family="sans-serif" font-size="10px" fill="#000" opacity="1">300,000</text><text text-anchor="end" transform="translate(-7,3)" font-family="sans-serif" font-size="10px" fill="#000" opacity="1">400,000</text></g><g class="mark-rule role-axis-domain" pointer-events="none"><line transform="translate(0,200)" x2="0" y2="-200" stroke="#888" stroke-width="1" opacity="1"/></g><g class="mark-text role-axis-title" pointer-events="none"><text text-anchor="middle" transform="translate(-47.1474609375,100) rotate(-90) translate(0,-2)" font-family="sans-serif" font-size="11px" font-weight="bold" fill="#000" opacity="1">Nombre de trajets</text></g></g><path class="foreground" aria-hidden="true" d="" pointer-events="none" display="none"/></g></g><g class="mark-group role-scope pathgroup" role="graphics-object" aria-roledescription="group mark container"><g transform="translate(0,0)"><path class="background" aria-hidden="true" d="M0,0h400v200h-400Z"/><g><g class="mark-line role-mark marks" role="graphics-object" aria-roledescription="line mark container"><path aria-label="Date de la recherche: September 2024; Nombre de trajets: 90064; variable: disponible" role="graphics-symbol" aria-roledescription="line mark" d="M0,154.968L0.475,155.733L1.015,155.849L1.555,155.249L2.095,154.706L2.636,155.647L3.176,156.936L3.716,158.611L4.256,159.578L4.797,161.051L5.337,160.232L5.877,158.887L6.417,159.757L6.957,162.622L7.498,161.186L8.038,162.517L8.578,163.314L9.118,164.01L9.659,164.032L10.199,165.467L10.739,166.043L11.279,166.883L11.819,167.187L12.36,167.45L12.9,165.395L13.44,164.165L13.98,164.939L14.521,163.463L15.061,165.186L15.601,163.209L16.141,163.971L16.681,160.982L17.226,159.082L17.762,161.376L18.302,159.478L18.842,161.072L19.382,159.24L19.923,158.471L20.463,156.976L21.003,155.186L21.543,155.206L22.084,154.501L22.624,156.687L23.164,155.87L23.704,155.975L24.245,153.544L24.785,151.81L25.326,149.657L25.865,150.119L26.405,148.968L26.946,149.665L27.487,151.587L28.026,150.725L28.567,150.247L29.106,151.977L29.647,152.725L30.187,153.898L30.727,154.616L31.267,154.978L31.807,155.274L32.348,155.354L32.888,157.015L33.428,158.365L33.969,159.98L34.509,161.327L35.049,162.333L35.589,162.388L36.13,162.251L36.67,163.458L37.21,163.83L37.75,164.564L38.29,164.539L38.831,165.319L39.371,164.379L39.911,163.203L40.451,162.973L40.991,162.518L41.531,162.586L42.072,160.835L42.612,161.142L43.152,159.983L43.692,158.101L44.233,158.467L44.773,157.526L45.313,157.444L45.853,155.239L46.393,154.588L46.934,152.251L47.474,150.225L48.014,148.563L48.554,144.291L49.095,143.67L49.635,141.894L50.175,141.173L50.715,139.108L51.255,136.98L51.796,134.989L52.336,132.763L52.876,132.524L53.416,135.188L53.957,136.135L54.497,132.697L55.037,130.95L55.577,131.578L56.117,131.561L56.658,132.339L57.198,133.284L57.738,135.399L58.278,135.847L58.819,135.858L59.359,137.406L59.899,138.04L60.439,140.126L60.979,141.915L61.52,143.074L62.06,143.981L62.6,143.375L63.14,143.9L63.681,145.535L64.221,146.599L64.761,149.389L65.301,150.987L65.841,151.445L66.382,150.679L66.922,151.062L67.462,151.618L68.002,152.229L68.542,154.046L69.083,154.351L69.623,154.412L70.163,153.406L70.703,153.367L71.244,153.888L71.784,156.04L72.324,156.669L72.864,157.81L73.404,157.313L73.945,157.047L74.485,157.575L75.025,158.166L75.565,159.431L76.106,159.706L76.646,159.848L77.186,158.995L77.726,157.945L78.266,158.136L78.807,156.106L79.347,157.462L79.887,157.265L80.427,157.476L80.968,154.421L81.508,152.787L82.048,152.041L82.588,150.938L83.128,152.365L83.669,152.195L84.209,152.643L84.749,151.262L85.289,150.001L85.829,150.645L86.37,151.037L86.91,153.158L87.45,152.225L87.99,153.922L88.531,152.442L89.071,151.259L89.611,151.191L90.151,151.477L90.691,152.743L91.232,154.781L91.772,155.208L92.312,155.551L92.852,154.8L93.393,155.283L93.933,156.148L94.473,157.605L95.013,158.325L95.553,159.373L96.094,160.304L96.634,160.171L97.174,160.969L97.714,161.308L98.255,162.091L98.795,162.944L99.335,163.317L99.875,163.501L100.415,162.836L100.956,164.858L101.496,164.829L102.036,166.086L102.576,166.43L103.117,167.135L103.657,165.96L104.197,165.495L104.737,166.877L105.278,167.849L105.818,169.688L106.358,170.789L106.898,170.875L107.438,170.221L107.979,168.943L108.519,168.904L109.059,169.053L109.599,169.255L110.139,168.412L110.68,168.02L111.22,166.532L111.76,164.924L112.3,163.313L112.841,163.048L113.381,162.82L113.921,162.997L114.461,162.291L115.001,161.905L115.542,161.49L116.082,162.601L116.622,163.887L117.162,166.459L117.702,165.131L118.243,166.265L118.783,165.732L119.323,164.419L119.863,164.685L120.404,166.554L120.944,166.527L121.484,166.396L122.024,166.035L122.564,165.078L123.105,164.366L123.645,164.313L124.185,164.62L124.725,165.77L125.266,165.935L125.806,166.64L126.346,167.049L126.886,166.921L127.426,167.69L127.967,169.905L128.507,171.652L129.047,171.735L129.587,171.918L130.128,171.688L130.668,171.282L131.208,173.049L131.748,171.97L132.288,172.23L132.829,173.612L133.369,171.945L133.909,171.366L134.449,170.02L134.99,169.554L135.53,170.116L136.07,169.844L136.61,170.659L137.151,170.679L137.691,170.16L138.231,169.553L138.771,168.868L139.311,169.634L139.852,170.104L140.392,172.084L140.932,170.968L141.472,171.455L142.013,171.414L142.553,172.162L143.093,173L143.633,174.038L144.173,174.015L144.713,174.271L145.254,174.377L145.794,173.602L146.334,173.737L146.874,174.319L147.415,174.612L147.955,175.106L148.495,175.429L149.035,175.097L149.576,174.282L150.116,173.871L150.656,174.614L151.196,174.699L151.736,175.073L152.277,175.245L152.817,174.872L153.357,173.92L153.897,173.889L154.438,173.422L154.978,173.601L155.518,173.471L156.058,173.506L156.598,172.75L157.139,172.175L157.679,171.774L158.219,175.505L158.759,176.378L159.3,175.686L159.84,175.588L160.38,174.388L160.92,173.605L161.461,173.373L162.001,173.515L162.541,173.844L163.081,173.947L163.621,173.151L164.161,172.167L164.702,171.187L165.242,171.332L165.782,170.541L166.322,171.215L166.863,170.732L167.403,170.771L167.943,169.151L168.483,167.868L169.023,167.786L169.564,167.82L170.104,168.715L170.644,168.859L171.184,169.08L171.725,167.953L172.265,166.84L172.805,166.977L173.346,166.657L173.885,167.146L174.426,166.484L174.966,166.475L175.506,165.623L176.046,164.178L176.587,163.778L177.127,162.162L177.667,162.437L178.207,162.265L178.747,162.317L179.288,161.742L179.828,160.848L180.374,160.444L180.908,161.271L181.449,162.424L181.989,163.016L182.529,164.217L183.069,164.319L183.609,164.418L184.15,165.054L184.69,166.983L185.23,160.232L185.77,160.738L186.31,162.052L186.851,161.678L187.391,160.509L187.931,159.6L188.471,158.795L189.012,161.033L189.552,160.935L190.092,161.135L190.632,161.704L191.172,160.708L191.713,160.444L192.253,161.365L192.793,162.053L193.333,163.443L193.874,162.892L194.414,163.207L194.954,163.107L195.494,163.285L196.034,163.972L196.575,165.093L197.115,167.142L197.655,166.188L198.195,166.971L198.736,166.514L199.276,166.797L199.816,166.898L200.356,168.219L200.896,169.148L201.437,169.359L201.977,169.754L202.517,168.774L203.057,168.487L203.598,168.685L204.138,170.267L204.678,170.754L205.218,169.882L205.758,169.748L206.299,169.979L206.839,170.59L207.379,170.941L207.919,171.71L208.459,171.203L209,170.738L209.54,169.486L210.08,167.974L210.62,168.298L211.161,167.867L211.701,168.346L212.241,167.821L212.781,167.402L213.321,165.689L213.862,164.094L214.402,163.656L214.942,163.5L215.482,163.587L216.023,162.873L216.563,163.597L217.103,162.261L217.643,160.504L218.183,160.572L218.724,160.1L219.264,160.98L219.804,161.035L220.345,160.705L220.885,158.704L221.425,157.564L221.965,157.112L222.505,155.393L223.045,156.323L223.586,156.904L224.126,157.334L224.883,157.028L225.457,155.821L225.979,156.472L226.518,157.061L227.058,158.366L227.367,159.443L227.907,159.592L228.448,159.266L228.988,159.113L229.528,159.8L230.068,160.641L230.609,162.019L231.393,163.283L231.92,164.362L232.461,165.269L233.001,165.269L233.541,165.882L234.082,166.94L234.621,168.382L235.162,169.732L235.702,170.182L236.242,169.737L236.783,168.081L237.324,167.658L237.865,167.31L238.404,167.822L238.944,166.598L239.483,166.586L240.024,165.885L240.333,164.085L240.873,164.059L241.413,164.067L241.953,164.733L242.493,162.967L243.034,163.781L243.574,161.834L244.114,160.089L244.654,158.98L245.194,156.998L245.735,156.787L246.275,155.466L246.815,154.703L247.355,152.749L247.896,150.484L248.436,148.73L248.976,147.071L249.516,146.313L250.056,145.653L250.597,144.94L251.137,142.597L251.677,140.436L252.217,135.323L252.758,136.51L253.298,186.612L253.838,142.499L254.378,144.484L254.918,144.958L255.459,143.886L255.999,142.659L256.539,144.224L257.079,147.405L257.62,149.643L258.16,150.798L258.7,152.713L259.24,151.395L259.78,151.076L260.554,152.824L261.094,156.59L261.633,157.584L262.173,157.599L262.714,158.775L263.254,157.593L263.794,158.066L264.335,159.612L264.877,161.791L265.416,162.439L265.955,161.866L266.496,161.353L267.577,159.422L268.117,158.908L268.657,160.134L269.197,160.994L269.737,160.624L270.278,162.154L270.818,160.64L271.359,160.16L271.898,162.131L272.439,162.968L272.979,165.794L273.52,164.55L274.059,164.01L274.599,162.283L275.141,162.883L275.68,164.48L276.22,166.041L276.76,165.287L277.3,157.145L277.84,155.509L278.382,152.648L278.921,150.842L279.461,151.924L280.002,153.325L280.541,153.163L281.081,153.38L281.622,152.399L282.164,149.456L282.702,147.11L283.243,151.1L283.783,153.679L284.323,155.268L284.863,155.663L285.403,156.453L285.944,154.444L286.538,157.331L287.024,155.027L287.564,157.028L288.105,158.713L288.645,159.183L289.185,159.058L289.727,157.368L290.266,156.17L290.806,157.493L291.347,158.891L291.886,159.772L292.426,159.804L292.967,160.852L293.507,159.328L294.049,159.454L294.588,160.263L295.128,162.363L295.668,163.375L296.208,163.219L296.748,163.618L297.289,162.513L297.829,163.617L298.37,166.213L298.91,167.492L299.452,168.22L299.99,167.684L300.53,166.231L301.071,165.418L301.612,162.63L302.151,162.329L302.691,165.363L303.231,166.432L303.771,167.006L304.312,167.114L304.853,165.606L305.394,166.39L305.933,169.147L306.473,170.416L307.013,171.303L307.553,170.868L308.093,170.361L308.634,168.448L309.174,167.833L309.715,169.48L310.255,171.923L310.795,171.957L311.335,171.626L311.875,171.257L312.416,169.863L312.957,170.026L313.498,171.757L314.037,173.432L314.577,173.786L315.116,172.98L315.657,173.008L316.199,171.686L316.739,171.955L317.279,173.996L317.82,176.16L318.359,176.206L318.898,175.764L319.439,175.52L319.98,174.699L320.522,174.605L321.063,176.335L321.601,177.263L322.141,177.601L322.68,176.626L323.221,175.119L323.762,173.596L324.304,173.364L324.846,174.979L325.386,176.135L325.923,176.146L326.462,175.688L327.003,174.663L327.544,173.213L328.087,171.439L328.629,171.314L329.169,173.985L329.708,174.964L330.245,174.958L330.785,174.471L331.334,172.756L331.874,172.646L332.415,175.347L332.95,176.283L333.488,176.951L334.027,176.495L334.568,176.959L335.111,176.336L335.652,177.427L336.193,179.275L336.734,180.343L337.272,179.645L337.809,179.364L338.35,179.946L338.897,179.177L339.434,179.681L339.974,181.224L340.516,182.289L341.049,182.461L341.591,182.09L342.132,181.819L342.675,181.911L343.212,181.943L343.753,182.117L344.294,182.424L344.832,182.771L345.371,182.943L345.911,182.865L346.451,182.233L346.994,181.968L347.534,182.655L348.073,184.191L348.612,183.772L349.152,183.955L349.692,184.191L350.234,183.16L350.773,183.563L351.314,184.258L351.856,184.504L352.394,183.656L352.932,182.757L353.475,183.347L354.014,182.955L354.554,182.663L355.095,183.048L356.173,183.317L356.714,182.808L357.254,182.046L357.795,180.681L358.335,180.789L358.876,180.965L359.416,182.024L359.957,181.847L360.496,180.594L361.037,180.113L361.578,178.63L362.118,179.719L362.658,181.319L363.199,183.071L363.739,182.819L364.278,181.276L364.819,179.744L365.359,178.025L365.9,177.49L366.456,177.153L367.045,181.051L367.527,178.295L368.064,177.879L368.605,177.201L369.148,176.215L369.69,176.013L370.23,176.876L370.771,177.833L371.303,177.255L371.842,175.954L372.382,175.151L372.923,173.978L373.464,172.442L374.004,172.543L374.546,173.315L375.084,173.046L375.624,172.43L376.164,171.785L376.706,170.11L377.247,169.165L377.89,171.255L378.493,168.548L378.978,170.555L379.444,170.257L379.99,169.416L380.544,168.617L381.062,168.666L381.603,169.024L382.139,170.841L382.68,169.976L383.216,170.279L383.757,169.156L384.308,168.189L384.845,167.595L385.384,168.133L385.923,168.954L386.466,167.634L386.999,168.094L387.544,166.996L388.093,166.016L388.629,166.036L389.173,167.393L389.709,168.451L390.248,168.391L390.783,169.23L391.326,168.715L391.88,168.187L392.416,168.52L392.953,170.062L393.494,171.463L394.036,172.195L394.577,172.204L395.121,171.964L395.688,171.314L396.212,171.925L396.752,172.691L397.3,173.765L397.83,174.211L398.381,175.058L398.906,174.409L399.475,173.737L400,174.032" stroke="#4c78a8" stroke-width="2"/></g></g><path class="foreground" aria-hidden="true" d="" display="none"/></g><g transform="translate(0,0)"><path class="background" aria-hidden="true" d="M0,0h400v200h-400Z"/><g><g class="mark-line role-mark marks" role="graphics-object" aria-roledescription="line mark container"><path aria-label="Date de la recherche: September 2024; Nombre de trajets: 316947; variable: total" role="graphics-symbol" aria-roledescription="line mark" d="M0,41.527L0.475,41.049L1.015,41.365L1.555,41.288L2.095,41.358L2.636,40.661L3.176,40.8L3.716,41.647L4.256,41.43L4.797,41.781L5.337,41.611L5.877,41.656L6.417,41.43L6.957,41.03L7.498,43.01L8.038,45.596L8.578,47.643L9.118,49.087L9.659,49.384L10.199,49.365L10.739,48.839L11.279,48.832L11.819,48.585L12.36,48.91L12.9,48.899L13.44,49.331L13.98,49.564L14.521,49.321L15.061,50.066L15.601,50.34L16.141,50.805L16.681,50.942L17.226,51.354L17.762,51.45L18.302,50.957L18.842,51.726L19.382,52.334L19.923,51.669L20.463,50.57L21.003,50.564L21.543,50.562L22.084,49.876L22.624,50.093L23.164,38.228L23.704,38.143L24.245,35.371L24.785,32.326L25.326,30.021L25.865,27.456L26.405,27.215L26.946,28.117L27.487,28.444L28.026,28.367L28.567,28.557L29.106,41.151L29.647,40.42L30.187,28.041L30.727,27.611L31.267,27.705L31.807,27.039L32.348,27.306L32.888,27.371L33.428,40.039L33.969,39.766L34.509,25.754L35.049,26.212L35.589,25.675L36.13,26.382L36.67,26.069L37.21,25.719L37.75,25.039L38.29,24.65L38.831,23.12L39.371,22.817L39.911,22.71L40.451,22.94L40.991,22.407L41.531,35.535L42.072,22.16L42.612,22.744L43.152,22.89L43.692,23.04L44.233,23.195L44.773,22.626L45.313,22.355L45.853,22.304L46.393,22.991L46.934,23.55L47.474,24.107L48.014,24.576L48.554,23.818L49.095,23.341L49.635,23.676L50.175,24.5L50.715,25.115L51.255,25.657L51.796,26.126L52.336,25.436L52.876,24.98L53.416,25.17L53.957,25.974L54.497,26.597L55.037,27.242L55.577,27.815L56.117,27.286L56.658,26.791L57.198,26.904L57.738,27.712L58.278,28.178L58.819,28.689L59.359,29.084L59.899,28.919L60.439,40.807L60.979,28.083L61.52,28.901L62.06,29.61L62.6,30.048L63.14,30.29L63.681,29.815L64.221,29.11L64.761,28.935L65.301,29.696L65.841,30.018L66.382,30.221L66.922,30.265L67.462,29.649L68.002,29.249L68.542,29.627L69.083,30.194L69.623,30.682L70.163,30.869L70.703,31.018L71.244,30.63L71.784,29.898L72.324,29.063L72.864,29.787L73.404,30.791L73.945,31.233L74.485,31.43L75.025,30.925L75.565,31.398L76.106,31.486L76.646,32.116L77.186,33.46L77.726,33.938L78.266,34.14L78.807,33.49L79.347,33.675L79.887,34.13L80.427,34.822L80.968,35.822L81.508,36.272L82.048,36.531L82.588,48.092L83.128,48.7L83.669,48.537L84.209,48.953L84.749,49.309L85.289,49.441L85.829,37.403L86.37,36.658L86.91,36.172L87.45,35.573L87.99,35.953L88.531,36.352L89.071,36.749L89.611,36.606L90.151,35.803L90.691,35.27L91.232,34.746L91.772,34.945L92.312,34.238L92.852,34.09L93.393,33.953L93.933,33.214L94.473,33.749L95.013,35.042L95.553,36.193L96.094,35.709L96.634,35.329L97.174,35.163L97.714,34.246L98.255,33.944L98.795,33.472L99.335,33.717L99.875,33.352L100.415,32.816L100.956,32.633L101.496,33.048L102.036,33.438L102.576,34.651L103.117,35.16L103.657,36.488L104.197,36.186L104.737,36.929L105.278,35.987L105.818,37.685L106.358,38.249L106.898,38.674L107.438,39.089L107.979,39.408L108.519,39.365L109.059,38.758L109.599,39.11L110.139,38.964L110.68,39.274L111.22,38.372L111.76,36.711L112.3,36.258L112.841,35.788L113.381,35.793L113.921,35.479L114.461,35.973L115.001,36.414L115.542,36.152L116.082,36.902L116.622,38.521L117.162,40.467L117.702,40.691L118.243,40.384L118.783,40.043L119.323,40.336L119.863,40.649L120.404,40.256L120.944,41.172L121.484,41.592L122.024,40.08L122.564,38.132L123.105,38.1L123.645,38.331L124.185,37.88L124.725,38.948L125.266,39.611L125.806,40.357L126.346,40.06L126.886,40.349L127.426,40.586L127.967,40.189L128.507,40.399L129.047,40.158L129.587,40.715L130.128,40.699L130.668,40.983L131.208,41.231L131.748,41.256L132.288,42.185L132.829,42.09L133.369,40.438L133.909,39.02L134.449,52.049L134.99,51.912L135.53,50.752L136.07,36.969L136.61,35.983L137.151,35.548L137.691,34.173L138.231,32.211L138.771,30.981L139.311,29.89L139.852,28.866L140.392,28.1L140.932,27.683L141.472,25.971L142.013,24.683L142.553,23.962L143.093,22.735L143.633,22.033L144.173,21.19L144.713,20.884L145.254,20.419L145.794,19.985L146.334,19.168L146.874,17.456L147.415,16.19L147.955,15.035L148.495,14.634L149.035,13.064L149.576,11.864L150.116,11.148L150.656,10.03L151.196,9.048L151.736,8.079L152.277,7.898L152.817,8.097L153.357,8.432L153.897,8.631L154.438,8.218L154.978,7.851L155.518,7.582L156.058,8.117L156.598,8.381L157.139,8.445L157.679,8.299L158.219,8.35L158.759,8.168L159.3,7.874L159.84,8.324L160.38,8.467L160.92,8.599L161.461,8.763L162.001,8.411L162.541,8.105L163.081,7.916L163.621,8.394L164.161,8.785L164.702,9.192L165.242,9.444L165.782,9.189L166.322,8.868L166.863,8.691L167.403,9.589L167.943,10.45L168.483,11.298L169.023,26.241L169.564,26.255L170.104,26.615L170.644,12.424L171.184,13.281L171.725,14.295L172.265,15.142L172.805,15.736L173.346,15.622L173.885,16.027L174.426,16.613L174.966,17.571L175.506,18.592L176.046,19.595L176.587,20.28L177.127,21.004L177.667,21.29L178.207,21.409L178.747,22.259L179.288,23.083L179.828,24.075L180.374,24.892L180.908,24.815L181.449,25.244L181.989,25.441L182.529,26.561L183.069,27.699L183.609,28.712L184.15,29.141L184.69,29.038L185.23,28.923L185.77,28.652L186.31,29.351L186.851,29.653L187.391,30.2L187.931,30.52L188.471,30.271L189.012,30.71L189.552,30.667L190.092,31.361L190.632,31.769L191.172,32.228L191.713,32.306L192.253,31.876L192.793,31.782L193.333,31.17L193.874,31.611L194.414,31.946L194.954,32.459L195.494,32.654L196.034,31.981L196.575,31.844L197.115,31.574L197.655,32.295L198.195,32.595L198.736,33.111L199.276,33.202L199.816,32.672L200.356,32.566L200.896,32.081L201.437,32.709L201.977,33.048L202.517,33.56L203.057,33.638L203.598,33.176L204.138,33.573L204.678,33.975L205.218,35.29L205.758,34.936L206.299,35.158L206.839,35.173L207.379,34.383L207.919,34.136L208.459,33.757L209,34.643L209.54,34.921L210.08,35.372L210.62,35.572L211.161,35.004L211.701,35.725L212.241,35.591L212.781,36.046L213.321,36.129L213.862,36.411L214.402,36.495L214.942,35.929L215.482,35.871L216.023,35.301L216.563,35.509L217.103,35.509L217.643,35.814L218.183,35.738L218.724,34.966L219.264,35.394L219.804,35.18L220.345,35.303L220.885,34.746L221.425,34.16L221.965,33.165L222.505,32.445L223.045,32.579L223.586,32.374L224.126,32.739L224.883,32.449L225.457,32.556L225.979,32.219L226.518,31.284L227.058,30.231L227.367,29.282L227.907,29.126L228.448,27.921L228.988,27.676L229.528,27.879L230.068,27.284L230.609,26.502L231.393,25.553L231.92,25.661L232.461,24.935L233.001,25.109L233.541,39.657L234.082,25.119L234.621,24.443L235.162,23.78L235.702,24.181L236.242,23.443L236.783,23.422L237.324,23.494L237.865,22.861L238.404,22.395L238.944,21.859L239.483,22.405L240.024,22.175L240.333,22.17L240.873,22.253L241.413,21.71L241.953,21.394L242.493,21.258L243.034,21.857L243.574,22.439L244.114,23.033L244.654,23.395L245.194,23.27L245.735,23.237L246.275,22.803L246.815,23.117L247.355,23.798L247.896,24.517L248.436,24.92L248.976,25.031L249.516,24.564L250.056,24.028L250.597,24.176L251.137,24.738L251.677,25.347L252.217,25.513L252.758,24.879L253.298,178.925L253.838,24.768L254.378,25.453L254.918,25.789L255.459,26.089L255.999,26.18L256.539,25.529L257.079,24.935L257.62,25.871L258.16,26.7L258.7,26.965L259.24,27.343L259.78,27.483L260.554,26.915L261.094,25.784L261.633,25.331L262.173,25.67L262.714,26.047L263.254,26.418L263.794,26.584L264.335,25.747L264.877,24.838L265.416,24.454L265.955,25.225L266.496,25.757L267.577,26.757L268.117,20.622L268.657,19.107L269.197,19.508L269.737,19.581L270.278,22.066L270.818,20.829L271.359,21.273L271.898,22.379L272.439,21.385L272.979,28.397L273.52,29.265L274.059,30.309L274.599,30.947L275.141,31.184L275.68,31.307L276.22,30.804L276.76,43.911L277.3,30.944L277.84,32.2L278.382,32.687L278.921,32.757L279.461,32.246L280.002,32.696L280.541,32.761L281.081,33.153L281.622,33.895L282.164,34.136L282.702,33.849L283.243,46.143L283.783,33.753L284.323,47.188L284.863,34.039L285.403,34.177L285.944,34.329L286.538,33.267L287.024,33.268L287.564,32.668L288.105,32.063L288.645,32.191L289.185,31.584L289.727,31.104L290.266,30.611L290.806,29.618L291.347,28.862L291.886,28.18L292.426,28.195L292.967,27.639L293.507,27.317L294.049,26.919L294.588,26.202L295.128,25.59L295.668,25.094L296.208,24.981L296.748,24.293L297.289,24.025L297.829,23.605L298.37,23.514L298.91,38.195L299.452,23.591L299.99,23.62L300.53,23.126L301.071,22.481L301.612,21.836L302.151,22.956L302.691,24.642L303.231,25.048L303.771,25.572L304.312,25.685L304.853,25.649L305.394,26.46L305.933,28.086L306.473,29.301L307.013,29.777L307.553,30.062L308.093,30.337L308.634,30.683L309.174,30.862L309.715,30.483L310.255,31.076L310.795,32.202L311.335,32.795L311.875,32.826L312.416,33.245L312.957,33.375L313.498,32.973L314.037,34.928L314.577,37.514L315.116,36.911L315.657,36.672L316.199,37.031L316.739,37.233L317.279,36.831L317.82,37.958L318.359,38.688L318.898,37.592L319.439,35.882L319.98,35.505L320.522,35.705L321.063,35.534L321.601,37.132L322.141,36.506L322.68,34.895L323.221,33.21L323.762,32.989L324.304,33.196L324.846,32.891L325.386,34.187L325.923,34.311L326.462,34.83L327.003,34.581L327.544,33.776L328.087,33.948L328.629,33.8L329.169,33.731L329.708,33.793L330.245,33.977L330.785,32.434L331.334,32.262L331.874,32.271L332.415,33.838L332.95,31.081L333.488,29.878L334.027,29.621L334.568,27.811L335.111,26.97L335.652,26.513L336.193,24.832L336.734,22.982L337.272,21.944L337.809,21.636L338.35,19.741L338.897,18.955L339.434,18.282L339.974,17.225L340.516,16.294L341.049,15.385L341.591,15.522L342.132,13.793L342.675,13.233L343.212,12.636L343.753,11.626L344.294,10.479L344.832,9.595L345.371,9.612L345.911,8.875L346.451,8.211L346.994,7.492L347.534,6.448L348.073,5.774L348.612,5.453L349.152,5.497L349.692,5.292L350.234,5.518L350.773,5.651L351.314,5.245L351.856,4.994L352.394,4.767L352.932,5.143L353.475,5.462L354.014,5.791L354.554,5.815L355.095,5.767L356.173,5.376L356.714,5.895L357.254,6.157L357.795,6.451L358.335,6.577L358.876,6.159L359.416,5.872L359.957,5.651L360.496,5.919L361.037,6.223L361.578,6.51L362.118,6.847L362.658,6.71L363.199,6.109L363.739,5.991L364.278,6.075L364.819,6.921L365.359,7.658L365.9,8.129L366.456,8.048L367.045,8.518L367.527,8.483L368.064,9.289L368.605,10.048L369.148,10.722L369.69,11.227L370.23,11.136L370.771,11.641L371.303,11.602L371.842,12.479L372.382,13.244L372.923,14.031L373.464,14.675L374.004,14.834L374.546,15.833L375.084,16.088L375.624,17.119L376.164,17.908L376.706,18.766L377.247,19.502L377.89,20.483L378.493,21.194L378.978,22.329L379.444,23.286L379.99,24.149L380.544,24.347L381.062,24.107L381.603,24.545L382.139,24.475L382.68,25.098L383.216,25.391L383.757,25.842L384.308,26.039L384.845,25.711L385.384,25.927L385.923,25.832L386.466,40.935L386.999,40.997L387.544,41.347L388.093,41.447L388.629,40.989L389.173,40.836L389.709,40.509L390.248,40.746L390.783,40.261L391.326,40.357L391.88,40.271L392.416,39.833L392.953,40.091L393.494,39.646L394.036,39.955L394.577,39.715L395.121,39.881L395.688,39.749L396.212,39.28L396.752,39.31L397.3,39.026L397.83,39.29L398.381,39.024L398.906,39.24L399.475,39.289L400,38.856" stroke="#f58518" stroke-width="2"/></g></g><path class="foreground" aria-hidden="true" d="" display="none"/></g></g><g class="mark-group role-legend" role="graphics-symbol" aria-roledescription="legend" aria-label="Symbol legend for stroke color with 2 values: disponible, total"><g transform="translate(0,-29)"><path class="background" aria-hidden="true" d="M0,0h108v11h-108Z" pointer-events="none"/><g><g class="mark-group role-legend-entry"><g transform="translate(0,0)"><path class="background" aria-hidden="true" d="M0,0h0v0h0Z" pointer-events="none"/><g><g class="mark-group role-scope" role="graphics-object" aria-roledescription="group mark container"><g transform="translate(0,0)"><path class="background" aria-hidden="true" d="M0,0h61.0341796875v11h-61.0341796875Z" pointer-events="none" opacity="1"/><g><g class="mark-symbol role-legend-symbol" pointer-events="none"><path transform="translate(6,6)" d="M-5,0L5,0" stroke="#4c78a8" stroke-width="1.5" opacity="1"/></g><g class="mark-text role-legend-label" pointer-events="none"><text text-anchor="start" transform="translate(16,9)" font-family="sans-serif" font-size="10px" fill="#000" opacity="1">disponible</text></g></g><path class="foreground" aria-hidden="true" d="" pointer-events="none" display="none"/></g><g transform="translate(73,0)"><path class="background" aria-hidden="true" d="M0,0h34.9013671875v11h-34.9013671875Z" pointer-events="none" opacity="1"/><g><g class="mark-symbol role-legend-symbol" pointer-events="none"><path transform="translate(6,6)" d="M-5,0L5,0" stroke="#f58518" stroke-width="1.5" opacity="1"/></g><g class="mark-text role-legend-label" pointer-events="none"><text text-anchor="start" transform="translate(16,9)" font-family="sans-serif" font-size="10px" fill="#000" opacity="1">total</text></g></g><path class="foreground" aria-hidden="true" d="" pointer-events="none" display="none"/></g></g></g><path class="foreground" aria-hidden="true" d="" pointer-events="none" display="none"/></g></g></g><path class="foreground" aria-hidden="true" d="" pointer-events="none" display="none"/></g></g><g class="mark-group role-title"><g transform="translate(200,-46)"><path class="background" aria-hidden="true" d="M0,0h0v0h0Z" pointer-events="none"/><g><g class="mark-text role-title-text" role="graphics-symbol" aria-roledescription="title" aria-label="Title text 'Historique du nombre de trajets MAXJEUNE et au total, disponibles chaque jour'" pointer-events="none"><text text-anchor="middle" transform="translate(0,10)" font-family="sans-serif" font-size="13px" font-weight="bold" fill="#000" opacity="1">Historique du nombre de trajets MAXJEUNE et au total, disponibles chaque jour</text></g></g><path class="foreground" aria-hidden="true" d="" pointer-events="none" display="none"/></g></g></g><path class="foreground" aria-hidden="true" d="" display="none"/></g></g></g></svg>