<svg xmlns="http://www.w3.org/2000/svg" xmlns:xlink="http://www.w3.org/1999/xlink" version="1.1" class="marks" width="517" height="332" viewBox="0 0 517 332"><rect width="517" height="332" fill="white"/><g fill="none" stroke-miterlimit="10" transform="translate(64,51)"><g class="mark-group role-frame root" role="graphics-object" aria-roledescription="group mark container"><g transform="translate(0,0)"><path class="background" aria-hidden="true" d="M0.5,0.5h400v200h-400Z" stroke="#ddd"/><g><g class="mark-group role-axis" aria-hidden="true"><g transform="translate(0.5,200.5)"><path class="background" aria-hidden="true" d="M0,0h0v0h0Z" pointer-events="none"/><g><g class="mark-rule role-axis-grid" pointer-events="none"><line transform="translate(3,-200)" x2="0" y2="200" stroke="#ddd" stroke-width="1" opacity="1"/><line transform="translate(28,-200)" x2="0" y2="200" stroke="#ddd" stroke-width="1" opacity="1"/><line transform="translate(51,-200)" x2="0" y2="200" stroke="#ddd" stroke-width="1" opacity="1"/><line transform="translate(75,-200)" x2="0" y2="200" stroke="#ddd" stroke-width="1" opacity="1"/><line transform="translate(99,-200)" x2="0" y2="200" stroke="#ddd" stroke-width="1" opacity="1"/><line transform="translate(121,-200)" x2="0" y2="200" stroke="#ddd" stroke-width="1" opacity="1"/><line transform="translate(145,-200)" x2="0" y2="200" stroke="#ddd" stroke-width="1" opacity="1"/><line transform="translate(169,-200)" x2="0" y2="200" stroke="#ddd" stroke-width="1" opacity="1"/><line transform="translate(193,-200)" x2="0" y2="200" stroke="#ddd" stroke-width="1" opacity="1"/><line transform="translate(216,-200)" x2="0" y2="200" stroke="#ddd" stroke-width="1" opacity="1"/><line transform="translate(240,-200)" x2="0" y2="200" stroke="#ddd" stroke-width="1" opacity="1"/><line transform="translate(264,-200)" x2="0" y2="200" stroke="#ddd" stroke-width="1" opacity="1"/><line transform="translate(288,-200)" x2="0" y2="200" stroke="#ddd" stroke-width="1" opacity="1"/><line transform="translate(312,-200)" x2="0" y2="200" stroke="#ddd" stroke-width="1" opacity="1"/><line transform="translate(335,-200)" x2="0" y2="200" stroke="#ddd" stroke-width="1" opacity="1"/><line transform="translate(360,-200)" x2="0" y2="200" stroke="#ddd" stroke-width="1" opacity="1"/><line transform="translate(384,-200)" x2="0" y2="200" stroke="#ddd" stroke-width="1" opacity="1"/></g></g><path class="foreground" aria-hidden="true" d="" pointer-events="none" display="none"/></g></g><g class="mark-group role-axis" aria-hidden="true"><g transform="translate(0.5,0.5)"><path class="background" aria-hidden="true" d="M0,0h0v0h0Z" pointer-events="none"/><g><g class="mark-rule role-axis-grid" pointer-events="none"><line transform="translate(0,200)" x2="400" y2="0" stroke="#ddd" stroke-width="1" opacity="1"/><line transform="translate(0,150)" x2="400" y2="0" stroke="#ddd" stroke-width="1" opacity="1"/><line transform="translate(0,100)" x2="400" y2="0" stroke="#ddd" stroke-width="1" opacity="1"/><line transform="translate(0,50)" x2="400" y2="0" stroke="#ddd" stroke-width="1" opacity="1"/><line transform="translate(0,0)" x2="400" y2="0" stroke="#ddd" stroke-width="1" opacity="1"/></g></g><path class="foreground" aria-hidden="true" d="" pointer-events="none" display="none"/></g></g><g class="mark-group role-axis" role="graphics-symbol" aria-roledescription="axis" aria-label="X-axis titled 'Date de la recherche' for a time scale with values from September 2024 to February 2026"><g transform="translate(0.5,200.5)"><path class="background" aria-hidden="true" d="M0,0h0v0h0Z" pointer-events="none"/><g><g class="mark-rule role-axis-tick" pointer-events="none"><line transform="translate(3,0)" x2="0" y2="5" stroke="#888" stroke-width="1" opacity="1"/><line transform="translate(28,0)" x2="0" y2="5" stroke="#888" stroke-width="1" opacity="1"/><line transform="translate(51,0)" x2="0" y2="5" stroke="#888" stroke-width="1" opacity="1"/><line transform="translate(75,0)" x2="0" y2="5" stroke="#888" stroke-width="1" opacity="1"/><line transform="translate(99,0)" x2="0" y2="5" stroke="#888" stroke-width="1" opacity="1"/><line transform="translate(121,0)" x2="0" y2="5" stroke="#888" stroke-width="1" opacity="1"/><line transform="translate(145,0)" x2="0" y2="5" stroke="#888" stroke-width="1" opacity="1"/><line transform="translate(169,0)" x2="0" y2="5" stroke="#888" stroke-width="1" opacity="1"/><line transform="translate(193,0)" x2="0" y2="5" stroke="#888" stroke-width="1" opacity="1"/><line transform="translate(216,0)" x2="0" y2="5" stroke="#888" stroke-width="1" opacity="1"/><line transform="translate(240,0)" x2="0" y2="5" stroke="#888" stroke-width="1" opacity="1"/><line transform="translate(264,0)" x2="0" y2="5" stroke="#888" stroke-width="1" opacity="1"/><line transform="translate(288,0)" x2="0" y2="5" stroke="#888" stroke-width="1" opacity="1"/><line transform="translate(312,0)" x2="0" y2="5" stroke="#888" stroke-width="1" opacity="1"/><line transform="translate(335,0)" x2="0" y2="5" stroke="#888" stroke-width="1" opacity="1"/><line transform="translate(360,0)" x2="0" y2="5" stroke="#888" stroke-width="1" opacity="1"/><line transform="translate(384,0)" x2="0" y2="5" stroke="#888" stroke-width="1" opacity="1"/></g><g class="mark-text role-axis-label" pointer-events="none"><text text-anchor="start" transform="translate(3.403651306887692,7) rotate(45) translate(0,8)" font-family="sans-serif" font-size="10px" fill="#000" opacity="1">October 2024</text><text text-anchor="start" transform="translate(27.560638474610315,7) rotate(45) translate(0,8)" font-family="sans-serif" font-size="10px" fill="#000" opacity="0">November 2024</text><text text-anchor="start" transform="translate(50.93836799176123,7) rotate(45) translate(0,8)" font-family="sans-serif" font-size="10px" fill="#000" opacity="0">December 2024</text><text text-anchor="start" transform="translate(75.09535515948386,7) rotate(45) translate(0,8)" font-family="sans-serif" font-size="10px" fill="#000" opacity="0">January 2025</text><text text-anchor="start" transform="translate(99.25234232720648,7) rotate(45) translate(0,8)" font-family="sans-serif" font-size="10px" fill="#000" opacity="1">February 2025</text><text text-anchor="start" transform="translate(121.07155654321402,7) rotate(45) translate(0,8)" font-family="sans-serif" font-size="10px" fill="#000" opacity="0">March 2025</text><text text-anchor="start" transform="translate(145.22854371093663,7) rotate(45) translate(0,8)" font-family="sans-serif" font-size="10px" fill="#000" opacity="0">April 2025</text><text text-anchor="start" transform="translate(168.60627322808756,7) rotate(45) translate(0,8)" font-family="sans-serif" font-size="10px" fill="#000" opacity="0">May 2025</text><text text-anchor="start" transform="translate(192.76326039581016,7) rotate(45) translate(0,8)" font-family="sans-serif" font-size="10px" fill="#000" opacity="1">June 2025</text><text text-anchor="start" transform="translate(216.14098991296112,7) rotate(45) translate(0,8)" font-family="sans-serif" font-size="10px" fill="#000" opacity="0">July 2025</text><text text-anchor="start" transform="translate(240.29797708068372,7) rotate(45) translate(0,8)" font-family="sans-serif" font-size="10px" fill="#000" opacity="0">August 2025</text><text text-anchor="start" transform="translate(264.4549642484063,7) rotate(45) translate(0,8)" font-family="sans-serif" font-size="10px" fill="#000" opacity="0">September 2025</text><text text-anchor="start" transform="translate(287.8326937655573,7) rotate(45) translate(0,8)" font-family="sans-serif" font-size="10px" fill="#000" opacity="1">October 2025</text><text text-anchor="start" transform="translate(311.9896809332799,7) rotate(45) translate(0,8)" font-family="sans-serif" font-size="10px" fill="#000" opacity="0">November 2025</text><text text-anchor="start" transform="translate(335.36741045043084,7) rotate(45) translate(0,8)" font-family="sans-serif" font-size="10px" fill="#000" opacity="0">December 2025</text><text text-anchor="start" transform="translate(359.52439761815344,7) rotate(45) translate(0,8)" font-family="sans-serif" font-size="10px" fill="#000" opacity="0">January 2026</text><text text-anchor="start" transform="translate(383.6813847858761,7) rotate(45) translate(0,8)" font-family="sans-serif" font-size="10px" fill="#000" opacity="1">February 2026</text></g><g class="mark-rule role-axis-domain" pointer-events="none"><line transform="translate(0,0)" x2="400" y2="0" stroke="#888" stroke-width="1" opacity="1"/></g><g class="mark-text role-axis-title" pointer-events="none"><text text-anchor="middle" transform="translate(200,73.06062994763118)" font-family="sans-serif" font-size="11px" font-weight="bold" fill="#000" opacity="1">Date de la recherche</text></g></g><path class="foreground" aria-hidden="true" d="" pointer-events="none" display="none"/></g></g><g class="mark-group role-axis" role="graphics-symbol" aria-roledescription="axis" aria-label="Y-axis titled 'Nombre de trajets' for a linear scale with values from 0 to 400,000"><g transform="translate(0.5,0.5)"><path class="background" aria-hidden="true" d="M0,0h0v0h0Z" pointer-events="none"/><g><g class="mark-rule role-axis-tick" pointer-events="none"><line transform="translate(0,200)" x2="-5" y2="0" stroke="#888" stroke-width="1" opacity="1"/><line transform="translate(0,150)" x2="-5" y2="0" stroke="#888" stroke-width="1" opacity="1"/><line transform="translate(0,100)" x2="-5" y2="0" stroke="#888" stroke-width="1" opacity="1"/><line transform="translate(0,50)" x2="-5" y2="0" stroke="#888" stroke-width="1" opacity="1"/><line transform="translate(0,0)" x2="-5" y2="0" stroke="#888" stroke-width="1" opacity="1"/></g><g class="mark-text role-axis-label" pointer-events="none"><text text-anchor="end" transform="translate(-7,203)" font-family="sans-serif" font-size="10px" fill="#000" opacity="1">0</text><text text-anchor="end" transform="translate(-7,153)" font-family="sans-serif" font-size="10px" fill="#000" opacity="1">100,000</text><text text-anchor="end" transform="translate(-7,103)" font-family="sans-serif" font-size="10px" fill="#000" opacity="1">200,000</text><text text-anchor="end" transform="translate(-7,53)" font-family="sans-serif" font-size="10px" fill="#000" opacity="1">300,000</text><text text-anchor="end" transform="translate(-7,3)" font-family="sans-serif" font-size="10px" fill="#000" opacity="1">400,000</text></g><g class="mark-rule role-axis-domain" pointer-events="none"><line transform="translate(0,200)" x2="0" y2="-200" stroke="#888" stroke-width="1" opacity="1"/></g><g class="mark-text role-axis-title" pointer-events="none"><text text-anchor="middle" transform="translate(-47.1474609375,100) rotate(-90) translate(0,-2)" font-family="sans-serif" font-size="11px" font-weight="bold" fill="#000" opacity="1">Nombre de trajets</text></g></g><path class="foreground" aria-hidden="true" d="" pointer-events="none" display="none"/></g></g><g class="mark-group role-scope pathgroup" role="graphics-object" aria-roledescription="group mark container"><g transform="translate(0,0)"><path class="background" aria-hidden="true" d="M0,0h400v200h-400Z"/><g><g class="mark-line role-mark marks" role="graphics-object" aria-roledescription="line mark container"><path aria-label="Date de la recherche: September 2024; Nombre de trajets: 90064; variable: disponible" role="graphics-symbol" aria-roledescription="line mark" d="M0,154.968L0.685,155.733L1.464,155.849L2.243,155.249L3.023,154.706L3.802,155.647L4.582,156.936L5.361,158.611L6.14,159.578L6.919,161.051L7.698,160.232L8.477,158.887L9.257,159.757L10.036,162.622L10.815,161.186L11.594,162.517L12.374,163.314L13.153,164.01L13.932,164.032L14.711,165.467L15.491,166.043L16.27,166.883L17.049,167.187L17.828,167.45L18.608,165.395L19.387,164.165L20.166,164.939L20.946,163.463L21.725,165.186L22.504,163.209L23.283,163.971L24.063,160.982L24.848,159.082L25.621,161.376L26.401,159.478L27.18,161.072L27.959,159.24L28.739,158.471L29.517,156.976L30.297,155.186L31.076,155.206L31.856,154.501L32.634,156.687L33.414,155.87L34.193,155.975L34.972,153.544L35.751,151.81L36.532,149.657L37.31,150.119L38.089,148.968L38.869,149.665L39.65,151.587L40.427,150.725L41.207,150.247L41.985,151.977L42.765,152.725L43.544,153.898L44.323,154.616L45.103,154.978L45.882,155.274L46.661,155.354L47.44,157.015L48.219,158.365L48.999,159.98L49.778,161.327L50.557,162.333L51.337,162.388L52.117,162.251L52.895,163.458L53.675,163.83L54.454,164.564L55.233,164.539L56.013,165.319L56.792,164.379L57.571,163.203L58.35,162.973L59.129,162.518L59.908,162.586L60.688,160.835L61.467,161.142L62.246,159.983L63.025,158.101L63.805,158.467L64.584,157.526L65.363,157.444L66.142,155.239L66.922,154.588L67.701,152.251L68.48,150.225L69.259,148.563L70.039,144.291L70.818,143.67L71.597,141.894L72.377,141.173L73.156,139.108L73.935,136.98L74.714,134.989L75.493,132.763L76.273,132.524L77.052,135.188L77.831,136.135L78.611,132.697L79.39,130.95L80.169,131.578L80.948,131.561L81.728,132.339L82.507,133.284L83.286,135.399L84.065,135.847L84.845,135.858L85.624,137.406L86.403,138.04L87.182,140.126L87.962,141.915L88.741,143.074L89.52,143.981L90.299,143.375L91.079,143.9L91.858,145.535L92.637,146.599L93.416,149.389L94.196,150.987L94.975,151.445L95.754,150.679L96.533,151.062L97.313,151.618L98.092,152.229L98.871,154.046L99.65,154.351L100.43,154.412L101.209,153.406L101.988,153.367L102.768,153.888L103.547,156.04L104.326,156.669L105.105,157.81L105.885,157.313L106.664,157.047L107.443,157.575L108.222,158.166L109.002,159.431L109.781,159.706L110.56,159.848L111.339,158.995L112.119,157.945L112.898,158.136L113.677,156.106L114.456,157.462L115.236,157.265L116.015,157.476L116.794,154.421L117.573,152.787L118.353,152.041L119.132,150.938L119.911,152.365L120.69,152.195L121.47,152.643L122.249,151.262L123.028,150.001L123.807,150.645L124.587,151.037L125.366,153.158L126.145,152.225L126.924,153.922L127.704,152.442L128.483,151.259L129.262,151.191L130.042,151.477L130.821,152.743L131.6,154.781L132.379,155.208L133.159,155.551L133.938,154.8L134.717,155.283L135.496,156.148L136.276,157.605L137.055,158.325L137.834,159.373L138.613,160.304L139.393,160.171L140.172,160.969L140.951,161.308L141.73,162.091L142.51,162.944L143.289,163.317L144.068,163.501L144.847,162.836L145.627,164.858L146.406,164.829L147.185,166.086L147.964,166.43L148.744,167.135L149.523,165.96L150.302,165.495L151.081,166.877L151.861,167.849L152.64,169.688L153.419,170.789L154.198,170.875L154.978,170.221L155.757,168.943L156.536,168.904L157.315,169.053L158.095,169.255L158.874,168.412L159.653,168.02L160.433,166.532L161.212,164.924L161.991,163.313L162.77,163.048L163.55,162.82L164.329,162.997L165.108,162.291L165.887,161.905L166.667,161.49L167.446,162.601L168.225,163.887L169.004,166.459L169.784,165.131L170.563,166.265L171.342,165.732L172.121,164.419L172.901,164.685L173.68,166.554L174.459,166.527L175.238,166.396L176.018,166.035L176.797,165.078L177.576,164.366L178.355,164.313L179.135,164.62L179.914,165.77L180.693,165.935L181.472,166.64L182.252,167.049L183.031,166.921L183.81,167.69L184.589,169.905L185.369,171.652L186.148,171.735L186.927,171.918L187.706,171.688L188.486,171.282L189.265,173.049L190.044,171.97L190.824,172.23L191.603,173.612L192.382,171.945L193.161,171.366L193.941,170.02L194.72,169.554L195.499,170.116L196.278,169.844L197.058,170.659L197.837,170.679L198.616,170.16L199.396,169.553L200.175,168.868L200.954,169.634L201.733,170.104L202.513,172.084L203.292,170.968L204.071,171.455L204.851,171.414L205.63,172.162L206.409,173L207.188,174.038L207.967,174.015L208.746,174.271L209.526,174.377L210.305,173.602L211.084,173.737L211.864,174.319L212.643,174.612L213.422,175.106L214.201,175.429L214.981,175.097L215.76,174.282L216.539,173.871L217.318,174.614L218.098,174.699L218.877,175.073L219.656,175.245L220.435,174.872L221.215,173.92L221.994,173.889L222.773,173.422L223.552,173.601L224.332,173.471L225.111,173.506L225.89,172.75L226.67,172.175L227.449,171.774L228.228,175.505L229.007,176.378L229.787,175.686L230.566,175.588L231.345,174.388L232.124,173.605L232.904,173.373L233.683,173.515L234.462,173.844L235.242,173.947L236.021,173.151L236.8,172.167L237.579,171.187L238.358,171.332L239.138,170.541L239.917,171.215L240.696,170.732L241.475,170.771L242.255,169.151L243.034,167.868L243.813,167.786L244.593,167.82L245.372,168.715L246.151,168.859L246.93,169.08L247.709,167.953L248.489,166.84L249.268,166.977L250.048,166.657L250.826,167.146L251.606,166.484L252.385,166.475L253.164,165.623L253.944,164.178L254.723,163.778L255.502,162.162L256.281,162.437L257.06,162.265L257.84,162.317L258.619,161.742L259.398,160.848L260.186,160.444L260.957,161.271L261.736,162.424L262.515,163.016L263.295,164.217L264.074,164.319L264.853,164.418L265.632,165.054L266.412,166.983L267.191,160.232L267.97,160.738L268.749,162.052L269.529,161.678L270.308,160.509L271.087,159.6L271.866,158.795L272.646,161.033L273.425,160.935L274.204,161.135L274.983,161.704L275.763,160.708L276.542,160.444L277.322,161.365L278.101,162.053L278.88,163.443L279.659,162.892L280.438,163.207L281.218,163.107L281.997,163.285L282.776,163.972L283.555,165.093L284.335,167.142L285.114,166.188L285.893,166.971L286.672,166.514L287.452,166.797L288.231,166.898L289.01,168.219L289.789,169.148L290.569,169.359L291.348,169.754L292.127,168.774L292.906,168.487L293.686,168.685L294.465,170.267L295.244,170.754L296.023,169.882L296.803,169.748L297.582,169.979L298.361,170.59L299.14,170.941L299.92,171.71L300.699,171.203L301.478,170.738L302.258,169.486L303.037,167.974L303.816,168.298L304.595,167.867L305.374,168.346L306.154,167.821L306.933,167.402L307.712,165.689L308.493,164.094L309.271,163.656L310.05,163.5L310.829,163.587L311.608,162.873L312.388,163.597L313.167,162.261L313.946,160.504L314.726,160.572L315.505,160.1L316.284,160.98L317.063,161.035L317.843,160.705L318.622,158.704L319.401,157.564L320.18,157.112L320.96,155.393L321.739,156.323L322.519,156.904L323.297,157.334L324.39,157.028L325.218,155.821L325.971,156.472L326.748,157.061L327.527,158.366L327.973,159.443L328.752,159.592L329.532,159.266L330.311,159.113L331.09,159.8L331.869,160.641L332.648,162.019L333.78,163.283L334.541,164.362L335.32,165.269L336.1,165.269L336.878,165.882L337.658,166.94L338.437,168.382L339.216,169.732L339.995,170.182L340.774,169.737L341.554,168.081L342.335,167.658L343.116,167.31L343.893,167.822L344.672,166.598L345.45,166.586L346.23,165.885L346.675,164.085L347.454,164.059L348.234,164.067L349.013,164.733L349.792,162.967L350.572,163.781L351.351,161.834L352.13,160.089L352.909,158.98L353.688,156.998L354.468,156.787L355.247,155.466L356.026,154.703L356.806,152.749L357.585,150.484L358.364,148.73L359.143,147.071L359.923,146.313L360.702,145.653L361.481,144.94L362.26,142.597L363.04,140.436L363.819,135.323L364.598,136.51L365.377,186.612L366.157,142.499L366.936,144.484L367.715,144.958L368.494,143.886L369.274,142.659L370.053,144.224L370.832,147.405L371.611,149.643L372.391,150.798L373.17,152.713L373.949,151.395L374.728,151.076L375.844,152.824L376.622,156.59L377.401,157.584L378.18,157.599L378.96,158.775L379.739,157.593L380.518,158.066L381.298,159.612L382.08,161.791L382.857,162.439L383.636,161.866L384.415,161.353L385.974,159.422L386.754,158.908L387.533,160.134L388.312,160.994L389.091,160.624L389.871,162.154L390.65,160.64L391.43,160.16L392.208,162.131L392.988,162.968L393.768,165.794L394.547,164.55L395.324,164.01L396.104,162.283L396.886,162.883L397.663,164.48L398.442,166.041L399.221,165.287L400,157.145" stroke="#4c78a8" stroke-width="2"/></g></g><path class="foreground" aria-hidden="true" d="" display="none"/></g><g transform="translate(0,0)"><path class="background" aria-hidden="true" d="M0,0h400v200h-400Z"/><g><g class="mark-line role-mark marks" role="graphics-object" aria-roledescription="line mark container"><path aria-label="Date de la recherche: September 2024; Nombre de trajets: 316947; variable: total" role="graphics-symbol" aria-roledescription="line mark" d="M0,41.527L0.685,41.049L1.464,41.365L2.243,41.288L3.023,41.358L3.802,40.661L4.582,40.8L5.361,41.647L6.14,41.43L6.919,41.781L7.698,41.611L8.477,41.656L9.257,41.43L10.036,41.03L10.815,43.01L11.594,45.596L12.374,47.643L13.153,49.087L13.932,49.384L14.711,49.365L15.491,48.839L16.27,48.832L17.049,48.585L17.828,48.91L18.608,48.899L19.387,49.331L20.166,49.564L20.946,49.321L21.725,50.066L22.504,50.34L23.283,50.805L24.063,50.942L24.848,51.354L25.621,51.45L26.401,50.957L27.18,51.726L27.959,52.334L28.739,51.669L29.517,50.57L30.297,50.564L31.076,50.562L31.856,49.876L32.634,50.093L33.414,38.228L34.193,38.143L34.972,35.371L35.751,32.326L36.532,30.021L37.31,27.456L38.089,27.215L38.869,28.117L39.65,28.444L40.427,28.367L41.207,28.557L41.985,41.151L42.765,40.42L43.544,28.041L44.323,27.611L45.103,27.705L45.882,27.039L46.661,27.306L47.44,27.371L48.219,40.039L48.999,39.766L49.778,25.754L50.557,26.212L51.337,25.675L52.117,26.382L52.895,26.069L53.675,25.719L54.454,25.039L55.233,24.65L56.013,23.12L56.792,22.817L57.571,22.71L58.35,22.94L59.129,22.407L59.908,35.535L60.688,22.16L61.467,22.744L62.246,22.89L63.025,23.04L63.805,23.195L64.584,22.626L65.363,22.355L66.142,22.304L66.922,22.991L67.701,23.55L68.48,24.107L69.259,24.576L70.039,23.818L70.818,23.341L71.597,23.676L72.377,24.5L73.156,25.115L73.935,25.657L74.714,26.126L75.493,25.436L76.273,24.98L77.052,25.17L77.831,25.974L78.611,26.597L79.39,27.242L80.169,27.815L80.948,27.286L81.728,26.791L82.507,26.904L83.286,27.712L84.065,28.178L84.845,28.689L85.624,29.084L86.403,28.919L87.182,40.807L87.962,28.083L88.741,28.901L89.52,29.61L90.299,30.048L91.079,30.29L91.858,29.815L92.637,29.11L93.416,28.935L94.196,29.696L94.975,30.018L95.754,30.221L96.533,30.265L97.313,29.649L98.092,29.249L98.871,29.627L99.65,30.194L100.43,30.682L101.209,30.869L101.988,31.018L102.768,30.63L103.547,29.898L104.326,29.063L105.105,29.787L105.885,30.791L106.664,31.233L107.443,31.43L108.222,30.925L109.002,31.398L109.781,31.486L110.56,32.116L111.339,33.46L112.119,33.938L112.898,34.14L113.677,33.49L114.456,33.675L115.236,34.13L116.015,34.822L116.794,35.822L117.573,36.272L118.353,36.531L119.132,48.092L119.911,48.7L120.69,48.537L121.47,48.953L122.249,49.309L123.028,49.441L123.807,37.403L124.587,36.658L125.366,36.172L126.145,35.573L126.924,35.953L127.704,36.352L128.483,36.749L129.262,36.606L130.042,35.803L130.821,35.27L131.6,34.746L132.379,34.945L133.159,34.238L133.938,34.09L134.717,33.953L135.496,33.214L136.276,33.749L137.055,35.042L137.834,36.193L138.613,35.709L139.393,35.329L140.172,35.163L140.951,34.246L141.73,33.944L142.51,33.472L143.289,33.717L144.068,33.352L144.847,32.816L145.627,32.633L146.406,33.048L147.185,33.438L147.964,34.651L148.744,35.16L149.523,36.488L150.302,36.186L151.081,36.929L151.861,35.987L152.64,37.685L153.419,38.249L154.198,38.674L154.978,39.089L155.757,39.408L156.536,39.365L157.315,38.758L158.095,39.11L158.874,38.964L159.653,39.274L160.433,38.372L161.212,36.711L161.991,36.258L162.77,35.788L163.55,35.793L164.329,35.479L165.108,35.973L165.887,36.414L166.667,36.152L167.446,36.902L168.225,38.521L169.004,40.467L169.784,40.691L170.563,40.384L171.342,40.043L172.121,40.336L172.901,40.649L173.68,40.256L174.459,41.172L175.238,41.592L176.018,40.08L176.797,38.132L177.576,38.1L178.355,38.331L179.135,37.88L179.914,38.948L180.693,39.611L181.472,40.357L182.252,40.06L183.031,40.349L183.81,40.586L184.589,40.189L185.369,40.399L186.148,40.158L186.927,40.715L187.706,40.699L188.486,40.983L189.265,41.231L190.044,41.256L190.824,42.185L191.603,42.09L192.382,40.438L193.161,39.02L193.941,52.049L194.72,51.912L195.499,50.752L196.278,36.969L197.058,35.983L197.837,35.548L198.616,34.173L199.396,32.211L200.175,30.981L200.954,29.89L201.733,28.866L202.513,28.1L203.292,27.683L204.071,25.971L204.851,24.683L205.63,23.962L206.409,22.735L207.188,22.033L207.967,21.19L208.746,20.884L209.526,20.419L210.305,19.985L211.084,19.168L211.864,17.456L212.643,16.19L213.422,15.035L214.201,14.634L214.981,13.064L215.76,11.864L216.539,11.148L217.318,10.03L218.098,9.048L218.877,8.079L219.656,7.898L220.435,8.097L221.215,8.432L221.994,8.631L222.773,8.218L223.552,7.851L224.332,7.582L225.111,8.117L225.89,8.381L226.67,8.445L227.449,8.299L228.228,8.35L229.007,8.168L229.787,7.874L230.566,8.324L231.345,8.467L232.124,8.599L232.904,8.763L233.683,8.411L234.462,8.105L235.242,7.916L236.021,8.394L236.8,8.785L237.579,9.192L238.358,9.444L239.138,9.189L239.917,8.868L240.696,8.691L241.475,9.589L242.255,10.45L243.034,11.298L243.813,26.241L244.593,26.255L245.372,26.615L246.151,12.424L246.93,13.281L247.709,14.295L248.489,15.142L249.268,15.736L250.048,15.622L250.826,16.027L251.606,16.613L252.385,17.571L253.164,18.592L253.944,19.595L254.723,20.28L255.502,21.004L256.281,21.29L257.06,21.409L257.84,22.259L258.619,23.083L259.398,24.075L260.186,24.892L260.957,24.815L261.736,25.244L262.515,25.441L263.295,26.561L264.074,27.699L264.853,28.712L265.632,29.141L266.412,29.038L267.191,28.923L267.97,28.652L268.749,29.351L269.529,29.653L270.308,30.2L271.087,30.52L271.866,30.271L272.646,30.71L273.425,30.667L274.204,31.361L274.983,31.769L275.763,32.228L276.542,32.306L277.322,31.876L278.101,31.782L278.88,31.17L279.659,31.611L280.438,31.946L281.218,32.459L281.997,32.654L282.776,31.981L283.555,31.844L284.335,31.574L285.114,32.295L285.893,32.595L286.672,33.111L287.452,33.202L288.231,32.672L289.01,32.566L289.789,32.081L290.569,32.709L291.348,33.048L292.127,33.56L292.906,33.638L293.686,33.176L294.465,33.573L295.244,33.975L296.023,35.29L296.803,34.936L297.582,35.158L298.361,35.173L299.14,34.383L299.92,34.136L300.699,33.757L301.478,34.643L302.258,34.921L303.037,35.372L303.816,35.572L304.595,35.004L305.374,35.725L306.154,35.591L306.933,36.046L307.712,36.129L308.493,36.411L309.271,36.495L310.05,35.929L310.829,35.871L311.608,35.301L312.388,35.509L313.167,35.509L313.946,35.814L314.726,35.738L315.505,34.966L316.284,35.394L317.063,35.18L317.843,35.303L318.622,34.746L319.401,34.16L320.18,33.165L320.96,32.445L321.739,32.579L322.519,32.374L323.297,32.739L324.39,32.449L325.218,32.556L325.971,32.219L326.748,31.284L327.527,30.231L327.973,29.282L328.752,29.126L329.532,27.921L330.311,27.676L331.09,27.879L331.869,27.284L332.648,26.502L333.78,25.553L334.541,25.661L335.32,24.935L336.1,25.109L336.878,39.657L337.658,25.119L338.437,24.443L339.216,23.78L339.995,24.181L340.774,23.443L341.554,23.422L342.335,23.494L343.116,22.861L343.893,22.395L344.672,21.859L345.45,22.405L346.23,22.175L346.675,22.17L347.454,22.253L348.234,21.71L349.013,21.394L349.792,21.258L350.572,21.857L351.351,22.439L352.13,23.033L352.909,23.395L353.688,23.27L354.468,23.237L355.247,22.803L356.026,23.117L356.806,23.798L357.585,24.517L358.364,24.92L359.143,25.031L359.923,24.564L360.702,24.028L361.481,24.176L362.26,24.738L363.04,25.347L363.819,25.513L364.598,24.879L365.377,178.925L366.157,24.768L366.936,25.453L367.715,25.789L368.494,26.089L369.274,26.18L370.053,25.529L370.832,24.935L371.611,25.871L372.391,26.7L373.17,26.965L373.949,27.343L374.728,27.483L375.844,26.915L376.622,25.784L377.401,25.331L378.18,25.67L378.96,26.047L379.739,26.418L380.518,26.584L381.298,25.747L382.08,24.838L382.857,24.454L383.636,25.225L384.415,25.757L385.974,26.757L386.754,20.622L387.533,19.107L388.312,19.508L389.091,19.581L389.871,22.066L390.65,20.829L391.43,21.273L392.208,22.379L392.988,21.385L393.768,28.397L394.547,29.265L395.324,30.309L396.104,30.947L396.886,31.184L397.663,31.307L398.442,30.804L399.221,43.911L400,30.944" stroke="#f58518" stroke-width="2"/></g></g><path class="foreground" aria-hidden="true" d="" display="none"/></g></g><g class="mark-group role-legend" role="graphics-symbol" aria-roledescription="legend" aria-label="Symbol legend for stroke color with 2 values: disponible, total"><g transform="translate(0,-29)"><path class="background" aria-hidden="true" d="M0,0h108v11h-108Z" pointer-events="none"/><g><g class="mark-group role-legend-entry"><g transform="translate(0,0)"><path class="background" aria-hidden="true" d="M0,0h0v0h0Z" pointer-events="none"/><g><g class="mark-group role-scope" role="graphics-object" aria-roledescription="group mark container"><g transform="translate(0,0)"><path class="background" aria-hidden="true" d="M0,0h61.0341796875v11h-61.0341796875Z" pointer-events="none" opacity="1"/><g><g class="mark-symbol role-legend-symbol" pointer-events="none"><path transform="translate(6,6)" d="M-5,0L5,0" stroke="#4c78a8" stroke-width="1.5" opacity="1"/></g><g class="mark-text role-legend-label" pointer-events="none"><text text-anchor="start" transform="translate(16,9)" font-family="sans-serif" font-size="10px" fill="#000" opacity="1">disponible</text></g></g><path class="foreground" aria-hidden="true" d="" pointer-events="none" display="none"/></g><g transform="translate(73,0)"><path class="background" aria-hidden="true" d="M0,0h34.9013671875v11h-34.9013671875Z" pointer-events="none" opacity="1"/><g><g class="mark-symbol role-legend-symbol" pointer-events="none"><path transform="translate(6,6)" d="M-5,0L5,0" stroke="#f58518" stroke-width="1.5" opacity="1"/></g><g class="mark-text role-legend-label" pointer-events="none"><text text-anchor="start" transform="translate(16,9)" font-family="sans-serif" font-size="10px" fill="#000" opacity="1">total</text></g></g><path class="foreground" aria-hidden="true" d="" pointer-events="none" display="none"/></g></g></g><path class="foreground" aria-hidden="true" d="" pointer-events="none" display="none"/></g></g></g><path class="foreground" aria-hidden="true" d="" pointer-events="none" display="none"/></g></g><g class="mark-group role-title"><g transform="translate(200,-46)"><path class="background" aria-hidden="true" d="M0,0h0v0h0Z" pointer-events="none"/><g><g class="mark-text role-title-text" role="graphics-symbol" aria-roledescription="title" aria-label="Title text 'Historique du nombre de trajets MAXJEUNE et au total, disponibles chaque jour'" pointer-events="none"><text text-anchor="middle" transform="translate(0,10)" font-family="sans-serif" font-size="13px" font-weight="bold" fill="#000" opacity="1">Historique du nombre de trajets MAXJEUNE et au total, disponibles chaque jour</text></g></g><path class="foreground" aria-hidden="true" d="" pointer-events="none" display="none"/></g></g></g><path class="foreground" aria-hidden="true" d="" display="none"/></g></g></g></svg>