<svg xmlns="http://www.w3.org/2000/svg" xmlns:xlink="http://www.w3.org/1999/xlink" version="1.1" class="marks" width="517" height="336" viewBox="0 0 517 336"><rect width="517" height="336" fill="white"/><g fill="none" stroke-miterlimit="10" transform="translate(64,51)"><g class="mark-group role-frame root" role="graphics-object" aria-roledescription="group mark container"><g transform="translate(0,0)"><path class="background" aria-hidden="true" d="M0.5,0.5h400v200h-400Z" stroke="#ddd"/><g><g class="mark-group role-axis" aria-hidden="true"><g transform="translate(0.5,200.5)"><path class="background" aria-hidden="true" d="M0,0h0v0h0Z" pointer-events="none"/><g><g class="mark-rule role-axis-grid" pointer-events="none"><line transform="translate(4,-200)" x2="0" y2="200" stroke="#ddd" stroke-width="1" opacity="1"/><line transform="translate(33,-200)" x2="0" y2="200" stroke="#ddd" stroke-width="1" opacity="1"/><line transform="translate(61,-200)" x2="0" y2="200" stroke="#ddd" stroke-width="1" opacity="1"/><line transform="translate(90,-200)" x2="0" y2="200" stroke="#ddd" stroke-width="1" opacity="1"/><line transform="translate(119,-200)" x2="0" y2="200" stroke="#ddd" stroke-width="1" opacity="1"/><line transform="translate(145,-200)" x2="0" y2="200" stroke="#ddd" stroke-width="1" opacity="1"/><line transform="translate(174,-200)" x2="0" y2="200" stroke="#ddd" stroke-width="1" opacity="1"/><line transform="translate(202,-200)" x2="0" y2="200" stroke="#ddd" stroke-width="1" opacity="1"/><line transform="translate(231,-200)" x2="0" y2="200" stroke="#ddd" stroke-width="1" opacity="1"/><line transform="translate(259,-200)" x2="0" y2="200" stroke="#ddd" stroke-width="1" opacity="1"/><line transform="translate(288,-200)" x2="0" y2="200" stroke="#ddd" stroke-width="1" opacity="1"/><line transform="translate(317,-200)" x2="0" y2="200" stroke="#ddd" stroke-width="1" opacity="1"/><line transform="translate(345,-200)" x2="0" y2="200" stroke="#ddd" stroke-width="1" opacity="1"/><line transform="translate(374,-200)" x2="0" y2="200" stroke="#ddd" stroke-width="1" opacity="1"/></g></g><path class="foreground" aria-hidden="true" d="" pointer-events="none" display="none"/></g></g><g class="mark-group role-axis" aria-hidden="true"><g transform="translate(0.5,0.5)"><path class="background" aria-hidden="true" d="M0,0h0v0h0Z" pointer-events="none"/><g><g class="mark-rule role-axis-grid" pointer-events="none"><line transform="translate(0,200)" x2="400" y2="0" stroke="#ddd" stroke-width="1" opacity="1"/><line transform="translate(0,156)" x2="400" y2="0" stroke="#ddd" stroke-width="1" opacity="1"/><line transform="translate(0,111)" x2="400" y2="0" stroke="#ddd" stroke-width="1" opacity="1"/><line transform="translate(0,67)" x2="400" y2="0" stroke="#ddd" stroke-width="1" opacity="1"/><line transform="translate(0,22)" x2="400" y2="0" stroke="#ddd" stroke-width="1" opacity="1"/></g></g><path class="foreground" aria-hidden="true" d="" pointer-events="none" display="none"/></g></g><g class="mark-group role-axis" role="graphics-symbol" aria-roledescription="axis" aria-label="X-axis titled 'Date de la recherche' for a time scale with values from September 2024 to November 2025"><g transform="translate(0.5,200.5)"><path class="background" aria-hidden="true" d="M0,0h0v0h0Z" pointer-events="none"/><g><g class="mark-rule role-axis-tick" pointer-events="none"><line transform="translate(4,0)" x2="0" y2="5" stroke="#888" stroke-width="1" opacity="1"/><line transform="translate(33,0)" x2="0" y2="5" stroke="#888" stroke-width="1" opacity="1"/><line transform="translate(61,0)" x2="0" y2="5" stroke="#888" stroke-width="1" opacity="1"/><line transform="translate(90,0)" x2="0" y2="5" stroke="#888" stroke-width="1" opacity="1"/><line transform="translate(119,0)" x2="0" y2="5" stroke="#888" stroke-width="1" opacity="1"/><line transform="translate(145,0)" x2="0" y2="5" stroke="#888" stroke-width="1" opacity="1"/><line transform="translate(174,0)" x2="0" y2="5" stroke="#888" stroke-width="1" opacity="1"/><line transform="translate(202,0)" x2="0" y2="5" stroke="#888" stroke-width="1" opacity="1"/><line transform="translate(231,0)" x2="0" y2="5" stroke="#888" stroke-width="1" opacity="1"/><line transform="translate(259,0)" x2="0" y2="5" stroke="#888" stroke-width="1" opacity="1"/><line transform="translate(288,0)" x2="0" y2="5" stroke="#888" stroke-width="1" opacity="1"/><line transform="translate(317,0)" x2="0" y2="5" stroke="#888" stroke-width="1" opacity="1"/><line transform="translate(345,0)" x2="0" y2="5" stroke="#888" stroke-width="1" opacity="1"/><line transform="translate(374,0)" x2="0" y2="5" stroke="#888" stroke-width="1" opacity="1"/></g><g class="mark-text role-axis-label" pointer-events="none"><text text-anchor="start" transform="translate(4.07891063427038,7) rotate(45) translate(0,8)" font-family="sans-serif" font-size="10px" fill="#000" opacity="1">October 2024</text><text text-anchor="start" transform="translate(33.02846596943685,7) rotate(45) translate(0,8)" font-family="sans-serif" font-size="10px" fill="#000" opacity="0">November 2024</text><text text-anchor="start" transform="translate(61.04416468088827,7) rotate(45) translate(0,8)" font-family="sans-serif" font-size="10px" fill="#000" opacity="1">December 2024</text><text text-anchor="start" transform="translate(89.99372001605474,7) rotate(45) translate(0,8)" font-family="sans-serif" font-size="10px" fill="#000" opacity="0">January 2025</text><text text-anchor="start" transform="translate(118.9432753512212,7) rotate(45) translate(0,8)" font-family="sans-serif" font-size="10px" fill="#000" opacity="1">February 2025</text><text text-anchor="start" transform="translate(145.09126081524252,7) rotate(45) translate(0,8)" font-family="sans-serif" font-size="10px" fill="#000" opacity="0">March 2025</text><text text-anchor="start" transform="translate(174.04081615040897,7) rotate(45) translate(0,8)" font-family="sans-serif" font-size="10px" fill="#000" opacity="1">April 2025</text><text text-anchor="start" transform="translate(202.0565148618604,7) rotate(45) translate(0,8)" font-family="sans-serif" font-size="10px" fill="#000" opacity="0">May 2025</text><text text-anchor="start" transform="translate(231.0060701970269,7) rotate(45) translate(0,8)" font-family="sans-serif" font-size="10px" fill="#000" opacity="1">June 2025</text><text text-anchor="start" transform="translate(259.0217689084783,7) rotate(45) translate(0,8)" font-family="sans-serif" font-size="10px" fill="#000" opacity="0">July 2025</text><text text-anchor="start" transform="translate(287.97132424364474,7) rotate(45) translate(0,8)" font-family="sans-serif" font-size="10px" fill="#000" opacity="1">August 2025</text><text text-anchor="start" transform="translate(316.92087957881125,7) rotate(45) translate(0,8)" font-family="sans-serif" font-size="10px" fill="#000" opacity="0">September 2025</text><text text-anchor="start" transform="translate(344.9365782902627,7) rotate(45) translate(0,8)" font-family="sans-serif" font-size="10px" fill="#000" opacity="1">October 2025</text><text text-anchor="start" transform="translate(373.8861336254291,7) rotate(45) translate(0,8)" font-family="sans-serif" font-size="10px" fill="#000" opacity="0">November 2025</text></g><g class="mark-rule role-axis-domain" pointer-events="none"><line transform="translate(0,0)" x2="400" y2="0" stroke="#888" stroke-width="1" opacity="1"/></g><g class="mark-text role-axis-title" pointer-events="none"><text text-anchor="middle" transform="translate(200,77.38337257480674)" font-family="sans-serif" font-size="11px" font-weight="bold" fill="#000" opacity="1">Date de la recherche</text></g></g><path class="foreground" aria-hidden="true" d="" pointer-events="none" display="none"/></g></g><g class="mark-group role-axis" role="graphics-symbol" aria-roledescription="axis" aria-label="Y-axis titled 'Nombre de trajets' for a linear scale with values from 0 to 450,000"><g transform="translate(0.5,0.5)"><path class="background" aria-hidden="true" d="M0,0h0v0h0Z" pointer-events="none"/><g><g class="mark-rule role-axis-tick" pointer-events="none"><line transform="translate(0,200)" x2="-5" y2="0" stroke="#888" stroke-width="1" opacity="1"/><line transform="translate(0,156)" x2="-5" y2="0" stroke="#888" stroke-width="1" opacity="1"/><line transform="translate(0,111)" x2="-5" y2="0" stroke="#888" stroke-width="1" opacity="1"/><line transform="translate(0,67)" x2="-5" y2="0" stroke="#888" stroke-width="1" opacity="1"/><line transform="translate(0,22)" x2="-5" y2="0" stroke="#888" stroke-width="1" opacity="1"/></g><g class="mark-text role-axis-label" pointer-events="none"><text text-anchor="end" transform="translate(-7,203)" font-family="sans-serif" font-size="10px" fill="#000" opacity="1">0</text><text text-anchor="end" transform="translate(-7,158.55555555555557)" font-family="sans-serif" font-size="10px" fill="#000" opacity="1">100,000</text><text text-anchor="end" transform="translate(-7,114.11111111111111)" font-family="sans-serif" font-size="10px" fill="#000" opacity="1">200,000</text><text text-anchor="end" transform="translate(-7,69.66666666666667)" font-family="sans-serif" font-size="10px" fill="#000" opacity="1">300,000</text><text text-anchor="end" transform="translate(-7,25.222222222222232)" font-family="sans-serif" font-size="10px" fill="#000" opacity="1">400,000</text></g><g class="mark-rule role-axis-domain" pointer-events="none"><line transform="translate(0,200)" x2="0" y2="-200" stroke="#888" stroke-width="1" opacity="1"/></g><g class="mark-text role-axis-title" pointer-events="none"><text text-anchor="middle" transform="translate(-47.1474609375,100) rotate(-90) translate(0,-2)" font-family="sans-serif" font-size="11px" font-weight="bold" fill="#000" opacity="1">Nombre de trajets</text></g></g><path class="foreground" aria-hidden="true" d="" pointer-events="none" display="none"/></g></g><g class="mark-group role-scope pathgroup" role="graphics-object" aria-roledescription="group mark container"><g transform="translate(0,0)"><path class="background" aria-hidden="true" d="M0,0h400v200h-400Z"/><g><g class="mark-line role-mark marks" role="graphics-object" aria-roledescription="line mark container"><path aria-label="Date de la recherche: September 2024; Nombre de trajets: 91488; variable: disponible" role="graphics-symbol" aria-roledescription="line mark" d="M0,159.339L0.821,160.009L1.755,160.25L2.688,159.721L3.622,159.224L4.556,160.066L5.491,161.226L6.424,162.729L7.358,163.599L8.292,164.927L9.225,164.272L10.159,163.069L11.093,163.83L12.027,166.394L12.961,165.123L13.895,166.305L14.829,167.015L15.762,167.638L16.696,167.648L17.63,168.931L18.564,169.444L19.498,170.203L20.432,170.474L21.366,170.704L22.299,168.872L23.233,167.766L24.167,168.451L25.101,167.16L26.035,168.696L26.969,166.936L27.903,167.617L28.836,164.943L29.777,163.236L30.704,165.275L31.638,163.601L32.572,165.017L33.506,163.38L34.44,162.688L35.373,161.357L36.307,159.746L37.241,159.755L38.177,159.142L39.109,161.116L40.043,160.392L40.976,160.483L41.911,158.316L42.844,156.748L43.78,154.82L44.712,155.253L45.646,154.239L46.58,154.859L47.516,156.557L48.447,155.787L49.382,155.331L50.315,156.853L51.249,157.538L52.183,158.599L53.117,159.242L54.051,159.566L54.984,159.835L55.918,159.906L56.852,161.397L57.786,162.616L58.72,164.062L59.654,165.294L60.588,166.184L61.521,166.252L62.456,166.133L63.389,167.211L64.324,167.551L65.257,168.202L66.191,168.182L67.125,168.864L68.059,168.023L68.992,166.956L69.926,166.728L70.86,166.308L71.794,166.35L72.727,164.781L73.661,165.02L74.595,163.984L75.529,162.302L76.463,162.622L77.397,161.783L78.331,161.712L79.265,159.731L80.199,159.145L81.132,157.033L82.066,155.203L83,153.702L83.934,149.882L84.868,149.315L85.802,147.688L86.735,147.022L87.669,145.158L88.603,143.235L89.537,141.419L90.471,139.417L91.405,139.184L92.339,141.537L93.272,142.381L94.206,139.298L95.14,137.729L96.074,138.287L97.008,138.306L97.942,139.025L98.876,139.891L99.81,141.793L100.743,142.216L101.677,142.23L102.611,143.622L103.545,144.212L104.479,146.113L105.412,147.762L106.346,148.816L107.28,149.653L108.214,149.103L109.148,149.572L110.082,151.036L111.016,152.019L111.95,154.556L112.883,155.987L113.817,156.427L114.751,155.749L115.685,156.068L116.619,156.588L117.553,157.142L118.486,158.761L119.42,159.033L120.354,159.104L121.288,158.219L122.222,158.195L123.156,158.685L124.09,160.639L125.024,161.217L125.957,162.238L126.891,161.805L127.825,161.569L128.759,162.052L129.693,162.612L130.627,163.765L131.56,164.016L132.494,164.144L133.428,163.397L134.362,162.463L135.296,162.635L136.23,160.836L137.164,162.052L138.098,161.876L139.031,162.061L139.965,159.33L140.899,157.85L141.833,157.162L142.767,156.173L143.701,157.449L144.635,157.287L145.568,157.682L146.502,156.434L147.436,155.299L148.37,155.873L149.304,156.232L150.238,158.153L151.172,157.316L152.105,158.821L153.039,157.497L153.973,156.43L154.907,156.36L155.841,156.624L156.775,157.757L157.708,159.565L158.642,159.94L159.576,160.216L160.51,159.533L161.444,159.946L162.378,160.72L163.312,162.035L164.246,162.685L165.179,163.619L166.113,164.437L167.047,164.308L167.981,164.997L168.915,165.332L169.849,166.06L170.783,166.832L171.716,167.163L172.65,167.356L173.584,166.756L174.518,168.562L175.452,168.524L176.386,169.668L177.319,169.96L178.253,170.583L179.187,169.531L180.121,169.106L181.055,170.336L181.989,171.222L182.923,172.901L183.857,173.898L184.79,173.981L185.724,173.399L186.658,172.256L187.592,172.224L188.526,172.383L189.46,172.577L190.393,171.82L191.327,171.468L192.261,170.136L193.195,168.69L194.129,167.228L195.063,166.981L195.997,166.786L196.93,166.962L197.864,166.335L198.798,165.966L199.732,165.59L200.666,166.577L201.6,167.733L202.534,170.02L203.467,168.846L204.401,169.858L205.335,169.379L206.269,168.202L207.203,168.43L208.137,170.075L209.071,170.046L210.004,169.925L210.938,169.592L211.872,168.736L212.806,168.091L213.74,168.04L214.674,168.317L215.608,169.349L216.541,169.497L217.475,170.13L218.409,170.491L219.343,170.374L220.277,171.072L221.211,173.061L222.145,174.635L223.078,174.731L224.012,174.89L224.946,174.699L225.88,174.329L226.814,175.925L227.748,174.959L228.682,175.182L229.616,176.424L230.549,174.932L231.483,174.408L232.417,173.2L233.351,172.78L234.285,173.29L235.219,173.061L236.153,173.79L237.086,173.8L238.02,173.333L238.954,172.788L239.888,172.172L240.822,172.853L241.756,173.283L242.69,175.056L243.624,174.065L244.558,174.497L245.491,174.456L246.425,175.107L247.359,175.869L248.292,176.792L249.226,176.778L250.16,177.009L251.094,177.119L252.028,176.421L252.962,176.539L253.896,177.062L254.83,177.335L255.763,177.774L256.697,178.057L257.631,177.759L258.565,177.03L259.499,176.662L260.433,177.327L261.367,177.417L262.301,177.748L263.234,177.901L264.168,177.574L265.102,176.725L266.036,176.693L266.97,176.283L267.904,176.441L268.838,176.327L269.771,176.355L270.705,175.682L271.639,175.172L272.573,174.815L273.507,178.13L274.44,178.902L275.375,178.285L276.308,178.194L277.242,177.128L278.176,176.427L279.11,176.211L280.044,176.344L280.978,176.647L281.912,176.738L282.845,176.03L283.779,175.164L284.713,174.287L285.647,174.413L286.581,173.714L287.515,174.324L288.448,173.887L289.382,173.912L290.316,172.471L291.25,171.321L292.184,171.24L293.118,171.28L294.052,172.08L294.985,172.211L295.919,172.403L296.853,171.398L297.787,170.396L298.721,170.518L299.656,170.236L300.589,170.683L301.522,170.087L302.456,170.074L303.39,169.3L304.324,168.013L305.258,167.635L306.192,166.205L307.126,166.481L308.059,166.323L308.993,166.3L309.927,165.771L310.861,164.96L311.805,164.593L312.729,165.332L313.663,166.362L314.596,166.83L315.53,167.888L316.464,167.998L317.398,168.088L318.332,168.656L319.266,170.384L320.2,164.386L321.133,164.849L322.067,166.016L323.001,165.694L323.935,164.655L324.869,163.862L325.803,163.137L326.737,165.146L327.67,165.064L328.604,165.244L329.538,165.762L330.472,164.872L331.406,164.64L332.34,165.472L333.274,166.088L334.208,167.32L335.141,166.82L336.075,167.115L337.009,167.029L337.943,167.192L338.877,167.811L339.811,168.811L340.744,170.644L341.678,169.776L342.612,170.481L343.546,170.076L344.48,170.333L345.414,170.433L346.348,171.609L347.281,172.44L348.215,172.626L349.149,172.988L350.083,172.106L351.017,171.847L351.951,172.026L352.885,173.442L353.819,173.866L354.752,173.078L355.686,172.944L356.62,173.152L357.554,173.688L358.488,174.006L359.422,174.688L360.355,174.205L361.289,173.786L362.223,172.674L363.157,171.307L364.091,171.597L365.025,171.21L365.958,171.624L366.892,171.142L367.826,170.751L368.76,169.213L369.695,167.775L370.628,167.387L371.562,167.261L372.496,167.35L373.429,166.703L374.363,167.341L375.297,166.164L376.231,164.592L377.165,164.66L378.099,164.254L379.032,165.054L379.966,165.095L380.901,164.783L381.834,163.01L382.768,162.001L383.702,161.608L384.636,160.09L385.569,160.927L386.504,161.446L387.437,161.809L388.747,161.546L389.739,160.467L390.641,161.036L391.572,161.558L392.505,162.723L393.04,163.683L393.974,163.763L394.908,163.474L395.842,163.335L396.776,163.94L397.71,164.694L398.643,165.922L400,167.04" stroke="#4c78a8" stroke-width="2"/></g></g><path class="foreground" aria-hidden="true" d="" display="none"/></g><g transform="translate(0,0)"><path class="background" aria-hidden="true" d="M0,0h400v200h-400Z"/><g><g class="mark-line role-mark marks" role="graphics-object" aria-roledescription="line mark container"><path aria-label="Date de la recherche: September 2024; Nombre de trajets: 351801; variable: total" role="graphics-symbol" aria-roledescription="line mark" d="M0,43.644L0.821,43.23L1.755,43.532L2.688,43.471L3.622,43.523L4.556,42.888L5.491,42.975L6.424,43.715L7.358,43.55L8.292,43.967L9.225,43.883L10.159,43.916L11.093,43.705L12.027,43.343L12.961,45.168L13.895,47.57L14.829,49.451L15.762,50.78L16.696,51.056L17.63,51.055L18.564,50.496L19.498,50.482L20.432,50.263L21.366,50.547L22.299,50.55L23.233,50.929L24.167,51.131L25.101,50.923L26.035,51.584L26.969,51.856L27.903,52.263L28.836,52.39L29.777,52.759L30.704,52.836L31.638,52.374L32.572,53.093L33.506,53.62L34.44,53.032L35.373,52.105L36.307,52.092L37.241,52.091L38.177,51.462L39.109,51.622L40.043,41.063L40.976,40.994L41.911,38.53L42.844,35.785L43.78,33.752L44.712,31.452L45.646,31.196L46.58,31.976L47.516,32.224L48.447,32.1L49.382,32.214L50.315,43.381L51.249,42.648L52.183,31.545L53.117,31.141L54.051,31.16L54.984,30.515L55.918,30.687L56.852,30.67L57.786,41.943L58.72,41.649L59.654,29.061L60.588,29.416L61.521,28.902L62.456,29.519L63.389,29.164L64.324,28.757L65.257,28.1L66.191,27.722L67.125,26.185L68.059,25.875L68.992,25.729L69.926,25.856L70.86,25.331L71.794,37.198L72.727,25.074L73.661,25.668L74.595,25.804L75.529,25.909L76.463,26.032L77.397,25.492L78.331,25.271L79.265,25.142L80.199,25.764L81.132,26.482L82.066,26.828L83,27.121L83.934,26.415L84.868,25.957L85.802,26.279L86.735,27.016L87.669,27.544L88.603,27.983L89.537,28.387L90.471,27.747L91.405,27.414L92.339,27.669L93.272,28.387L94.206,28.939L95.14,29.468L96.074,29.973L97.008,29.508L97.942,29.126L98.876,29.288L99.81,30.003L100.743,30.398L101.677,30.824L102.611,31.144L103.545,30.97L104.479,41.714L105.412,30.252L106.346,30.988L107.28,31.619L108.214,31.958L109.148,32.143L110.082,31.707L111.016,31.087L111.95,31.152L112.883,31.917L113.817,32.222L114.751,32.403L115.685,32.294L116.619,31.743L117.553,31.524L118.486,31.784L119.42,32.277L120.354,32.624L121.288,32.712L122.222,32.796L123.156,32.445L124.09,31.822L125.024,31.126L125.957,31.789L126.891,32.685L127.825,33.031L128.759,33.212L129.693,32.773L130.627,33.388L131.56,33.592L132.494,34.164L133.428,35.362L134.362,35.763L135.296,35.899L136.23,35.315L137.164,35.592L138.098,36.133L139.031,36.764L139.965,37.632L140.899,37.992L141.833,38.217L142.767,48.657L143.701,49.276L144.635,49.164L145.568,49.493L146.502,49.746L147.436,49.778L148.37,38.859L149.304,38.161L150.238,37.686L151.172,37.108L152.105,37.387L153.039,37.632L153.973,37.878L154.907,37.688L155.841,36.921L156.775,36.403L157.708,35.921L158.642,36.056L159.576,35.163L160.51,34.855L161.444,34.686L162.378,33.996L163.312,34.483L164.246,35.695L165.179,36.783L166.113,36.296L167.047,35.908L167.981,35.731L168.915,34.88L169.849,34.631L170.783,34.328L171.716,34.329L172.65,33.922L173.584,33.396L174.518,33.329L175.452,33.858L176.386,34.476L177.319,35.666L178.253,36.248L179.187,37.45L180.121,37.177L181.055,37.877L181.989,37.17L182.923,38.661L183.857,39.278L184.79,39.69L185.724,40.057L186.658,40.341L187.592,40.363L188.526,39.966L189.46,40.384L190.393,40.357L191.327,40.606L192.261,39.799L193.195,38.261L194.129,37.851L195.063,37.399L195.997,37.4L196.93,37.352L197.864,37.876L198.798,38.551L199.732,38.273L200.666,38.913L201.6,40.323L202.534,42.092L203.467,42.238L204.401,41.801L205.335,41.309L206.269,41.427L207.203,41.43L208.137,40.981L209.071,41.689L210.004,42.137L210.938,40.74L211.872,38.877L212.806,38.676L213.74,38.774L214.674,38.256L215.608,39.166L216.541,39.717L217.475,40.268L218.409,39.847L219.343,39.945L220.277,40.043L221.211,39.415L222.145,39.523L223.078,39.268L224.012,39.68L224.946,39.566L225.88,39.679L226.814,39.789L227.748,39.682L228.682,40.502L229.616,40.502L230.549,38.96L231.483,37.599L232.417,49.079L233.351,48.936L234.285,47.866L235.219,35.477L236.153,34.581L237.086,34.1L238.02,32.722L238.954,30.764L239.888,29.522L240.822,28.472L241.756,27.45L242.69,26.752L243.624,26.195L244.558,24.508L245.491,23.186L246.425,22.453L247.359,21.27L248.292,20.594L249.226,19.795L250.16,19.459L251.094,18.917L252.028,18.407L252.962,17.611L253.896,15.996L254.83,14.744L255.763,13.67L256.697,13.268L257.631,11.688L258.565,10.401L259.499,9.68L260.433,8.634L261.367,7.666L262.301,6.733L263.234,6.447L264.168,6.648L265.102,6.913L266.036,7.142L266.97,6.778L267.904,6.423L268.838,6.221L269.771,6.697L270.705,6.961L271.639,6.967L272.573,6.828L273.507,6.909L274.44,6.72L275.375,6.489L276.308,6.91L277.242,7.019L278.176,7.102L279.11,7.276L280.044,7L280.978,6.7L281.912,6.562L282.845,7.013L283.779,7.419L284.713,7.774L285.647,8.004L286.581,7.824L287.515,7.632L288.448,7.624L289.382,8.608L290.316,9.588L291.25,10.514L292.184,23.998L293.118,24.18L294.052,24.671L294.985,12.251L295.919,13.22L296.853,14.339L297.787,15.249L298.721,15.966L299.656,16.04L300.589,16.588L301.522,17.289L302.456,18.311L303.39,19.453L304.324,20.548L305.258,21.367L306.192,21.895L307.126,22.307L308.059,22.592L308.993,23.508L309.927,24.434L310.861,25.478L311.805,26.376L312.729,26.459L313.663,26.994L314.596,27.342L315.53,28.512L316.464,29.606L317.398,30.551L318.332,30.946L319.266,30.848L320.2,30.833L321.133,30.717L322.067,31.369L323.001,31.672L323.935,32.168L324.869,32.468L325.803,32.252L326.737,32.707L327.67,32.744L328.604,33.391L329.538,33.776L330.472,34.194L331.406,34.264L332.34,33.874L333.274,33.784L334.208,33.23L335.141,33.629L336.075,33.935L337.009,34.376L337.943,34.532L338.877,33.903L339.811,33.763L340.744,33.499L341.678,34.137L342.612,34.408L343.546,34.85L344.48,34.911L345.414,34.408L346.348,34.312L347.281,33.871L348.215,34.43L349.149,34.635L350.083,34.972L351.017,35.029L351.951,34.567L352.885,34.906L353.819,35.273L354.752,36.404L355.686,36.064L356.62,36.193L357.554,36.184L358.488,35.46L359.422,35.25L360.355,34.94L361.289,35.736L362.223,35.958L363.157,36.317L364.091,36.487L365.025,36.016L365.958,36.638L366.892,36.584L367.826,37.003L368.76,37.092L369.695,37.367L370.628,37.441L371.562,36.927L372.496,36.857L373.429,36.367L374.363,36.565L375.297,36.544L376.231,36.812L377.165,36.737L378.099,36.034L379.032,36.394L379.966,36.221L380.901,36.347L381.834,35.854L382.768,35.315L383.702,34.461L384.636,33.782L385.569,33.904L386.504,33.897L387.437,34.39L388.747,34.251L389.739,34.461L390.641,34.308L391.572,33.611L392.505,32.839L393.04,32.159L393.974,32.164L394.908,31.195L395.842,31.053L396.776,31.379L397.71,30.967L398.643,30.417L400,29.717" stroke="#f58518" stroke-width="2"/></g></g><path class="foreground" aria-hidden="true" d="" display="none"/></g></g><g class="mark-group role-legend" role="graphics-symbol" aria-roledescription="legend" aria-label="Symbol legend for stroke color with 2 values: disponible, total"><g transform="translate(0,-29)"><path class="background" aria-hidden="true" d="M0,0h108v11h-108Z" pointer-events="none"/><g><g class="mark-group role-legend-entry"><g transform="translate(0,0)"><path class="background" aria-hidden="true" d="M0,0h0v0h0Z" pointer-events="none"/><g><g class="mark-group role-scope" role="graphics-object" aria-roledescription="group mark container"><g transform="translate(0,0)"><path class="background" aria-hidden="true" d="M0,0h61.0341796875v11h-61.0341796875Z" pointer-events="none" opacity="1"/><g><g class="mark-symbol role-legend-symbol" pointer-events="none"><path transform="translate(6,6)" d="M-5,0L5,0" stroke="#4c78a8" stroke-width="1.5" opacity="1"/></g><g class="mark-text role-legend-label" pointer-events="none"><text text-anchor="start" transform="translate(16,9)" font-family="sans-serif" font-size="10px" fill="#000" opacity="1">disponible</text></g></g><path class="foreground" aria-hidden="true" d="" pointer-events="none" display="none"/></g><g transform="translate(73,0)"><path class="background" aria-hidden="true" d="M0,0h34.9013671875v11h-34.9013671875Z" pointer-events="none" opacity="1"/><g><g class="mark-symbol role-legend-symbol" pointer-events="none"><path transform="translate(6,6)" d="M-5,0L5,0" stroke="#f58518" stroke-width="1.5" opacity="1"/></g><g class="mark-text role-legend-label" pointer-events="none"><text text-anchor="start" transform="translate(16,9)" font-family="sans-serif" font-size="10px" fill="#000" opacity="1">total</text></g></g><path class="foreground" aria-hidden="true" d="" pointer-events="none" display="none"/></g></g></g><path class="foreground" aria-hidden="true" d="" pointer-events="none" display="none"/></g></g></g><path class="foreground" aria-hidden="true" d="" pointer-events="none" display="none"/></g></g><g class="mark-group role-title"><g transform="translate(200,-46)"><path class="background" aria-hidden="true" d="M0,0h0v0h0Z" pointer-events="none"/><g><g class="mark-text role-title-text" role="graphics-symbol" aria-roledescription="title" aria-label="Title text 'Historique du nombre de trajets MAXJEUNE et au total, disponibles chaque jour'" pointer-events="none"><text text-anchor="middle" transform="translate(0,10)" font-family="sans-serif" font-size="13px" font-weight="bold" fill="#000" opacity="1">Historique du nombre de trajets MAXJEUNE et au total, disponibles chaque jour</text></g></g><path class="foreground" aria-hidden="true" d="" pointer-events="none" display="none"/></g></g></g><path class="foreground" aria-hidden="true" d="" display="none"/></g></g></g></svg>