<svg xmlns="http://www.w3.org/2000/svg" xmlns:xlink="http://www.w3.org/1999/xlink" version="1.1" class="marks" width="517" height="336" viewBox="0 0 517 336"><rect width="517" height="336" fill="white"/><g fill="none" stroke-miterlimit="10" transform="translate(64,51)"><g class="mark-group role-frame root" role="graphics-object" aria-roledescription="group mark container"><g transform="translate(0,0)"><path class="background" aria-hidden="true" d="M0.5,0.5h400v200h-400Z" stroke="#ddd"/><g><g class="mark-group role-axis" aria-hidden="true"><g transform="translate(0.5,200.5)"><path class="background" aria-hidden="true" d="M0,0h0v0h0Z" pointer-events="none"/><g><g class="mark-rule role-axis-grid" pointer-events="none"><line transform="translate(4,-200)" x2="0" y2="200" stroke="#ddd" stroke-width="1" opacity="1"/><line transform="translate(34,-200)" x2="0" y2="200" stroke="#ddd" stroke-width="1" opacity="1"/><line transform="translate(62,-200)" x2="0" y2="200" stroke="#ddd" stroke-width="1" opacity="1"/><line transform="translate(92,-200)" x2="0" y2="200" stroke="#ddd" stroke-width="1" opacity="1"/><line transform="translate(122,-200)" x2="0" y2="200" stroke="#ddd" stroke-width="1" opacity="1"/><line transform="translate(148,-200)" x2="0" y2="200" stroke="#ddd" stroke-width="1" opacity="1"/><line transform="translate(178,-200)" x2="0" y2="200" stroke="#ddd" stroke-width="1" opacity="1"/><line transform="translate(206,-200)" x2="0" y2="200" stroke="#ddd" stroke-width="1" opacity="1"/><line transform="translate(236,-200)" x2="0" y2="200" stroke="#ddd" stroke-width="1" opacity="1"/><line transform="translate(265,-200)" x2="0" y2="200" stroke="#ddd" stroke-width="1" opacity="1"/><line transform="translate(294,-200)" x2="0" y2="200" stroke="#ddd" stroke-width="1" opacity="1"/><line transform="translate(324,-200)" x2="0" y2="200" stroke="#ddd" stroke-width="1" opacity="1"/><line transform="translate(352,-200)" x2="0" y2="200" stroke="#ddd" stroke-width="1" opacity="1"/><line transform="translate(382,-200)" x2="0" y2="200" stroke="#ddd" stroke-width="1" opacity="1"/></g></g><path class="foreground" aria-hidden="true" d="" pointer-events="none" display="none"/></g></g><g class="mark-group role-axis" aria-hidden="true"><g transform="translate(0.5,0.5)"><path class="background" aria-hidden="true" d="M0,0h0v0h0Z" pointer-events="none"/><g><g class="mark-rule role-axis-grid" pointer-events="none"><line transform="translate(0,200)" x2="400" y2="0" stroke="#ddd" stroke-width="1" opacity="1"/><line transform="translate(0,156)" x2="400" y2="0" stroke="#ddd" stroke-width="1" opacity="1"/><line transform="translate(0,111)" x2="400" y2="0" stroke="#ddd" stroke-width="1" opacity="1"/><line transform="translate(0,67)" x2="400" y2="0" stroke="#ddd" stroke-width="1" opacity="1"/><line transform="translate(0,22)" x2="400" y2="0" stroke="#ddd" stroke-width="1" opacity="1"/></g></g><path class="foreground" aria-hidden="true" d="" pointer-events="none" display="none"/></g></g><g class="mark-group role-axis" role="graphics-symbol" aria-roledescription="axis" aria-label="X-axis titled 'Date de la recherche' for a time scale with values from September 2024 to November 2025"><g transform="translate(0.5,200.5)"><path class="background" aria-hidden="true" d="M0,0h0v0h0Z" pointer-events="none"/><g><g class="mark-rule role-axis-tick" pointer-events="none"><line transform="translate(4,0)" x2="0" y2="5" stroke="#888" stroke-width="1" opacity="1"/><line transform="translate(34,0)" x2="0" y2="5" stroke="#888" stroke-width="1" opacity="1"/><line transform="translate(62,0)" x2="0" y2="5" stroke="#888" stroke-width="1" opacity="1"/><line transform="translate(92,0)" x2="0" y2="5" stroke="#888" stroke-width="1" opacity="1"/><line transform="translate(122,0)" x2="0" y2="5" stroke="#888" stroke-width="1" opacity="1"/><line transform="translate(148,0)" x2="0" y2="5" stroke="#888" stroke-width="1" opacity="1"/><line transform="translate(178,0)" x2="0" y2="5" stroke="#888" stroke-width="1" opacity="1"/><line transform="translate(206,0)" x2="0" y2="5" stroke="#888" stroke-width="1" opacity="1"/><line transform="translate(236,0)" x2="0" y2="5" stroke="#888" stroke-width="1" opacity="1"/><line transform="translate(265,0)" x2="0" y2="5" stroke="#888" stroke-width="1" opacity="1"/><line transform="translate(294,0)" x2="0" y2="5" stroke="#888" stroke-width="1" opacity="1"/><line transform="translate(324,0)" x2="0" y2="5" stroke="#888" stroke-width="1" opacity="1"/><line transform="translate(352,0)" x2="0" y2="5" stroke="#888" stroke-width="1" opacity="1"/><line transform="translate(382,0)" x2="0" y2="5" stroke="#888" stroke-width="1" opacity="1"/></g><g class="mark-text role-axis-label" pointer-events="none"><text text-anchor="start" transform="translate(4.166699336748782,7) rotate(45) translate(0,8)" font-family="sans-serif" font-size="10px" fill="#000" opacity="1">October 2024</text><text text-anchor="start" transform="translate(33.73932394900314,7) rotate(45) translate(0,8)" font-family="sans-serif" font-size="10px" fill="#000" opacity="0">November 2024</text><text text-anchor="start" transform="translate(62.35799292860413,7) rotate(45) translate(0,8)" font-family="sans-serif" font-size="10px" fill="#000" opacity="1">December 2024</text><text text-anchor="start" transform="translate(91.93061754085849,7) rotate(45) translate(0,8)" font-family="sans-serif" font-size="10px" fill="#000" opacity="0">January 2025</text><text text-anchor="start" transform="translate(121.50324215311285,7) rotate(45) translate(0,8)" font-family="sans-serif" font-size="10px" fill="#000" opacity="1">February 2025</text><text text-anchor="start" transform="translate(148.21399986740713,7) rotate(45) translate(0,8)" font-family="sans-serif" font-size="10px" fill="#000" opacity="0">March 2025</text><text text-anchor="start" transform="translate(177.7866244796615,7) rotate(45) translate(0,8)" font-family="sans-serif" font-size="10px" fill="#000" opacity="1">April 2025</text><text text-anchor="start" transform="translate(206.40529345926248,7) rotate(45) translate(0,8)" font-family="sans-serif" font-size="10px" fill="#000" opacity="0">May 2025</text><text text-anchor="start" transform="translate(235.97791807151683,7) rotate(45) translate(0,8)" font-family="sans-serif" font-size="10px" fill="#000" opacity="1">June 2025</text><text text-anchor="start" transform="translate(264.5965870511178,7) rotate(45) translate(0,8)" font-family="sans-serif" font-size="10px" fill="#000" opacity="0">July 2025</text><text text-anchor="start" transform="translate(294.1692116633722,7) rotate(45) translate(0,8)" font-family="sans-serif" font-size="10px" fill="#000" opacity="1">August 2025</text><text text-anchor="start" transform="translate(323.74183627562655,7) rotate(45) translate(0,8)" font-family="sans-serif" font-size="10px" fill="#000" opacity="0">September 2025</text><text text-anchor="start" transform="translate(352.36050525522757,7) rotate(45) translate(0,8)" font-family="sans-serif" font-size="10px" fill="#000" opacity="1">October 2025</text><text text-anchor="start" transform="translate(381.9331298674819,7) rotate(45) translate(0,8)" font-family="sans-serif" font-size="10px" fill="#000" opacity="0">November 2025</text></g><g class="mark-rule role-axis-domain" pointer-events="none"><line transform="translate(0,0)" x2="400" y2="0" stroke="#888" stroke-width="1" opacity="1"/></g><g class="mark-text role-axis-title" pointer-events="none"><text text-anchor="middle" transform="translate(200,77.38337257480673)" font-family="sans-serif" font-size="11px" font-weight="bold" fill="#000" opacity="1">Date de la recherche</text></g></g><path class="foreground" aria-hidden="true" d="" pointer-events="none" display="none"/></g></g><g class="mark-group role-axis" role="graphics-symbol" aria-roledescription="axis" aria-label="Y-axis titled 'Nombre de trajets' for a linear scale with values from 0 to 450,000"><g transform="translate(0.5,0.5)"><path class="background" aria-hidden="true" d="M0,0h0v0h0Z" pointer-events="none"/><g><g class="mark-rule role-axis-tick" pointer-events="none"><line transform="translate(0,200)" x2="-5" y2="0" stroke="#888" stroke-width="1" opacity="1"/><line transform="translate(0,156)" x2="-5" y2="0" stroke="#888" stroke-width="1" opacity="1"/><line transform="translate(0,111)" x2="-5" y2="0" stroke="#888" stroke-width="1" opacity="1"/><line transform="translate(0,67)" x2="-5" y2="0" stroke="#888" stroke-width="1" opacity="1"/><line transform="translate(0,22)" x2="-5" y2="0" stroke="#888" stroke-width="1" opacity="1"/></g><g class="mark-text role-axis-label" pointer-events="none"><text text-anchor="end" transform="translate(-7,203)" font-family="sans-serif" font-size="10px" fill="#000" opacity="1">0</text><text text-anchor="end" transform="translate(-7,158.55555555555557)" font-family="sans-serif" font-size="10px" fill="#000" opacity="1">100,000</text><text text-anchor="end" transform="translate(-7,114.11111111111111)" font-family="sans-serif" font-size="10px" fill="#000" opacity="1">200,000</text><text text-anchor="end" transform="translate(-7,69.66666666666667)" font-family="sans-serif" font-size="10px" fill="#000" opacity="1">300,000</text><text text-anchor="end" transform="translate(-7,25.222222222222232)" font-family="sans-serif" font-size="10px" fill="#000" opacity="1">400,000</text></g><g class="mark-rule role-axis-domain" pointer-events="none"><line transform="translate(0,200)" x2="0" y2="-200" stroke="#888" stroke-width="1" opacity="1"/></g><g class="mark-text role-axis-title" pointer-events="none"><text text-anchor="middle" transform="translate(-47.1474609375,100) rotate(-90) translate(0,-2)" font-family="sans-serif" font-size="11px" font-weight="bold" fill="#000" opacity="1">Nombre de trajets</text></g></g><path class="foreground" aria-hidden="true" d="" pointer-events="none" display="none"/></g></g><g class="mark-group role-scope pathgroup" role="graphics-object" aria-roledescription="group mark container"><g transform="translate(0,0)"><path class="background" aria-hidden="true" d="M0,0h400v200h-400Z"/><g><g class="mark-line role-mark marks" role="graphics-object" aria-roledescription="line mark container"><path aria-label="Date de la recherche: September 2024; Nombre de trajets: 91488; variable: disponible" role="graphics-symbol" aria-roledescription="line mark" d="M0,159.339L0.838,160.009L1.792,160.25L2.746,159.721L3.7,159.224L4.654,160.066L5.609,161.226L6.563,162.729L7.516,163.599L8.47,164.927L9.424,164.272L10.378,163.069L11.332,163.83L12.286,166.394L13.24,165.123L14.194,166.305L15.148,167.015L16.102,167.638L17.056,167.648L18.01,168.931L18.964,169.444L19.918,170.203L20.871,170.474L21.825,170.704L22.779,168.872L23.733,167.766L24.687,168.451L25.641,167.16L26.595,168.696L27.549,166.936L28.503,167.617L29.457,164.943L30.418,163.236L31.365,165.275L32.319,163.601L33.273,165.017L34.227,163.38L35.181,162.688L36.135,161.357L37.089,159.746L38.043,159.755L38.998,159.142L39.951,161.116L40.905,160.392L41.858,160.483L42.813,158.316L43.766,156.748L44.722,154.82L45.674,155.253L46.628,154.239L47.582,154.859L48.539,156.557L49.49,155.787L50.445,155.331L51.398,156.853L52.352,157.538L53.306,158.599L54.26,159.242L55.214,159.566L56.168,159.835L57.122,159.906L58.076,161.397L59.03,162.616L59.984,164.062L60.938,165.294L61.892,166.184L62.846,166.252L63.8,166.133L64.754,167.211L65.708,167.551L66.662,168.202L67.615,168.182L68.57,168.864L69.524,168.023L70.477,166.956L71.431,166.728L72.385,166.308L73.339,166.35L74.293,164.781L75.247,165.02L76.201,163.984L77.155,162.302L78.109,162.622L79.063,161.783L80.017,161.712L80.971,159.731L81.925,159.145L82.878,157.033L83.832,155.203L84.786,153.702L85.74,149.882L86.694,149.315L87.648,147.688L88.602,147.022L89.556,145.158L90.51,143.235L91.464,141.419L92.418,139.417L93.372,139.184L94.326,141.537L95.28,142.381L96.234,139.298L97.188,137.729L98.142,138.287L99.096,138.306L100.05,139.025L101.004,139.891L101.958,141.793L102.912,142.216L103.866,142.23L104.819,143.622L105.773,144.212L106.727,146.113L107.681,147.762L108.635,148.816L109.589,149.653L110.543,149.103L111.497,149.572L112.451,151.036L113.405,152.019L114.359,154.556L115.313,155.987L116.267,156.427L117.221,155.749L118.175,156.068L119.129,156.588L120.083,157.142L121.037,158.761L121.991,159.033L122.945,159.104L123.899,158.219L124.853,158.195L125.806,158.685L126.76,160.639L127.714,161.217L128.668,162.238L129.622,161.805L130.576,161.569L131.53,162.052L132.484,162.612L133.438,163.765L134.392,164.016L135.346,164.144L136.3,163.397L137.254,162.463L138.208,162.635L139.162,160.836L140.116,162.052L141.07,161.876L142.024,162.061L142.978,159.33L143.932,157.85L144.886,157.162L145.84,156.173L146.793,157.449L147.747,157.287L148.701,157.682L149.655,156.434L150.609,155.299L151.563,155.873L152.517,156.232L153.471,158.153L154.425,157.316L155.379,158.821L156.333,157.497L157.287,156.43L158.241,156.36L159.195,156.624L160.149,157.757L161.103,159.565L162.057,159.94L163.011,160.216L163.965,159.533L164.919,159.946L165.873,160.72L166.826,162.035L167.781,162.685L168.734,163.619L169.688,164.437L170.642,164.308L171.596,164.997L172.55,165.332L173.504,166.06L174.458,166.832L175.412,167.163L176.366,167.356L177.32,166.756L178.274,168.562L179.228,168.524L180.182,169.668L181.136,169.96L182.09,170.583L183.044,169.531L183.998,169.106L184.952,170.336L185.906,171.222L186.86,172.901L187.814,173.898L188.767,173.981L189.721,173.399L190.675,172.256L191.629,172.224L192.583,172.383L193.537,172.577L194.491,171.82L195.445,171.468L196.399,170.136L197.353,168.69L198.307,167.228L199.261,166.981L200.215,166.786L201.169,166.962L202.123,166.335L203.077,165.966L204.031,165.59L204.985,166.577L205.939,167.733L206.893,170.02L207.847,168.846L208.801,169.858L209.754,169.379L210.708,168.202L211.662,168.43L212.616,170.075L213.57,170.046L214.524,169.925L215.478,169.592L216.432,168.736L217.386,168.091L218.34,168.04L219.294,168.317L220.248,169.349L221.202,169.497L222.156,170.13L223.11,170.491L224.064,170.374L225.018,171.072L225.972,173.061L226.926,174.635L227.88,174.731L228.834,174.89L229.787,174.699L230.741,174.329L231.695,175.925L232.649,174.959L233.603,175.182L234.557,176.424L235.511,174.932L236.465,174.408L237.419,173.2L238.373,172.78L239.327,173.29L240.281,173.061L241.235,173.79L242.189,173.8L243.143,173.333L244.097,172.788L245.051,172.172L246.005,172.853L246.959,173.283L247.913,175.056L248.867,174.065L249.821,174.497L250.775,174.456L251.729,175.107L252.682,175.869L253.636,176.792L254.59,176.778L255.544,177.009L256.498,177.119L257.452,176.421L258.406,176.539L259.36,177.062L260.314,177.335L261.268,177.774L262.222,178.057L263.176,177.759L264.13,177.03L265.084,176.662L266.038,177.327L266.992,177.417L267.946,177.748L268.9,177.901L269.854,177.574L270.808,176.725L271.762,176.693L272.716,176.283L273.67,176.441L274.624,176.327L275.578,176.355L276.532,175.682L277.485,175.172L278.439,174.815L279.393,178.13L280.347,178.902L281.301,178.285L282.255,178.194L283.209,177.128L284.163,176.427L285.117,176.211L286.071,176.344L287.025,176.647L287.979,176.738L288.933,176.03L289.887,175.164L290.841,174.287L291.795,174.413L292.749,173.714L293.703,174.324L294.657,173.887L295.61,173.912L296.565,172.471L297.518,171.321L298.472,171.24L299.427,171.28L300.38,172.08L301.334,172.211L302.288,172.403L303.242,171.398L304.196,170.396L305.15,170.518L306.105,170.236L307.058,170.683L308.012,170.087L308.966,170.074L309.92,169.3L310.874,168.013L311.828,167.635L312.782,166.205L313.736,166.481L314.69,166.323L315.644,166.3L316.598,165.771L317.551,164.96L318.516,164.593L319.459,165.332L320.413,166.362L321.367,166.83L322.322,167.888L323.275,167.998L324.229,168.088L325.183,168.656L326.137,170.384L327.091,164.386L328.045,164.849L328.999,166.016L329.953,165.694L330.907,164.655L331.861,163.862L332.815,163.137L333.769,165.146L334.723,165.064L335.677,165.244L336.631,165.762L337.585,164.872L338.539,164.64L339.493,165.472L340.447,166.088L341.401,167.32L342.354,166.82L343.308,167.115L344.262,167.029L345.216,167.192L346.17,167.811L347.124,168.811L348.078,170.644L349.032,169.776L349.986,170.481L350.94,170.076L351.894,170.333L352.848,170.433L353.802,171.609L354.756,172.44L355.71,172.626L356.664,172.988L357.618,172.106L358.572,171.847L359.526,172.026L360.48,173.442L361.434,173.866L362.387,173.078L363.341,172.944L364.295,173.152L365.249,173.688L366.203,174.006L367.157,174.688L368.111,174.205L369.065,173.786L370.019,172.674L370.973,171.307L371.927,171.597L372.881,171.21L373.835,171.624L374.789,171.142L375.743,170.751L376.697,169.213L377.652,167.775L378.605,167.387L379.559,167.261L380.513,167.35L381.466,166.703L382.42,167.341L383.375,166.164L384.328,164.592L385.282,164.66L386.236,164.254L387.19,165.054L388.144,165.095L389.098,164.783L390.052,163.01L391.006,162.001L391.96,161.608L392.914,160.09L393.868,160.927L394.823,161.446L395.776,161.809L397.114,161.546L398.127,160.467L399.049,161.036L400,161.558" stroke="#4c78a8" stroke-width="2"/></g></g><path class="foreground" aria-hidden="true" d="" display="none"/></g><g transform="translate(0,0)"><path class="background" aria-hidden="true" d="M0,0h400v200h-400Z"/><g><g class="mark-line role-mark marks" role="graphics-object" aria-roledescription="line mark container"><path aria-label="Date de la recherche: September 2024; Nombre de trajets: 351801; variable: total" role="graphics-symbol" aria-roledescription="line mark" d="M0,43.644L0.838,43.23L1.792,43.532L2.746,43.471L3.7,43.523L4.654,42.888L5.609,42.975L6.563,43.715L7.516,43.55L8.47,43.967L9.424,43.883L10.378,43.916L11.332,43.705L12.286,43.343L13.24,45.168L14.194,47.57L15.148,49.451L16.102,50.78L17.056,51.056L18.01,51.055L18.964,50.496L19.918,50.482L20.871,50.263L21.825,50.547L22.779,50.55L23.733,50.929L24.687,51.131L25.641,50.923L26.595,51.584L27.549,51.856L28.503,52.263L29.457,52.39L30.418,52.759L31.365,52.836L32.319,52.374L33.273,53.093L34.227,53.62L35.181,53.032L36.135,52.105L37.089,52.092L38.043,52.091L38.998,51.462L39.951,51.622L40.905,41.063L41.858,40.994L42.813,38.53L43.766,35.785L44.722,33.752L45.674,31.452L46.628,31.196L47.582,31.976L48.539,32.224L49.49,32.1L50.445,32.214L51.398,43.381L52.352,42.648L53.306,31.545L54.26,31.141L55.214,31.16L56.168,30.515L57.122,30.687L58.076,30.67L59.03,41.943L59.984,41.649L60.938,29.061L61.892,29.416L62.846,28.902L63.8,29.519L64.754,29.164L65.708,28.757L66.662,28.1L67.615,27.722L68.57,26.185L69.524,25.875L70.477,25.729L71.431,25.856L72.385,25.331L73.339,37.198L74.293,25.074L75.247,25.668L76.201,25.804L77.155,25.909L78.109,26.032L79.063,25.492L80.017,25.271L80.971,25.142L81.925,25.764L82.878,26.482L83.832,26.828L84.786,27.121L85.74,26.415L86.694,25.957L87.648,26.279L88.602,27.016L89.556,27.544L90.51,27.983L91.464,28.387L92.418,27.747L93.372,27.414L94.326,27.669L95.28,28.387L96.234,28.939L97.188,29.468L98.142,29.973L99.096,29.508L100.05,29.126L101.004,29.288L101.958,30.003L102.912,30.398L103.866,30.824L104.819,31.144L105.773,30.97L106.727,41.714L107.681,30.252L108.635,30.988L109.589,31.619L110.543,31.958L111.497,32.143L112.451,31.707L113.405,31.087L114.359,31.152L115.313,31.917L116.267,32.222L117.221,32.403L118.175,32.294L119.129,31.743L120.083,31.524L121.037,31.784L121.991,32.277L122.945,32.624L123.899,32.712L124.853,32.796L125.806,32.445L126.76,31.822L127.714,31.126L128.668,31.789L129.622,32.685L130.576,33.031L131.53,33.212L132.484,32.773L133.438,33.388L134.392,33.592L135.346,34.164L136.3,35.362L137.254,35.763L138.208,35.899L139.162,35.315L140.116,35.592L141.07,36.133L142.024,36.764L142.978,37.632L143.932,37.992L144.886,38.217L145.84,48.657L146.793,49.276L147.747,49.164L148.701,49.493L149.655,49.746L150.609,49.778L151.563,38.859L152.517,38.161L153.471,37.686L154.425,37.108L155.379,37.387L156.333,37.632L157.287,37.878L158.241,37.688L159.195,36.921L160.149,36.403L161.103,35.921L162.057,36.056L163.011,35.163L163.965,34.855L164.919,34.686L165.873,33.996L166.826,34.483L167.781,35.695L168.734,36.783L169.688,36.296L170.642,35.908L171.596,35.731L172.55,34.88L173.504,34.631L174.458,34.328L175.412,34.329L176.366,33.922L177.32,33.396L178.274,33.329L179.228,33.858L180.182,34.476L181.136,35.666L182.09,36.248L183.044,37.45L183.998,37.177L184.952,37.877L185.906,37.17L186.86,38.661L187.814,39.278L188.767,39.69L189.721,40.057L190.675,40.341L191.629,40.363L192.583,39.966L193.537,40.384L194.491,40.357L195.445,40.606L196.399,39.799L197.353,38.261L198.307,37.851L199.261,37.399L200.215,37.4L201.169,37.352L202.123,37.876L203.077,38.551L204.031,38.273L204.985,38.913L205.939,40.323L206.893,42.092L207.847,42.238L208.801,41.801L209.754,41.309L210.708,41.427L211.662,41.43L212.616,40.981L213.57,41.689L214.524,42.137L215.478,40.74L216.432,38.877L217.386,38.676L218.34,38.774L219.294,38.256L220.248,39.166L221.202,39.717L222.156,40.268L223.11,39.847L224.064,39.945L225.018,40.043L225.972,39.415L226.926,39.523L227.88,39.268L228.834,39.68L229.787,39.566L230.741,39.679L231.695,39.789L232.649,39.682L233.603,40.502L234.557,40.502L235.511,38.96L236.465,37.599L237.419,49.079L238.373,48.936L239.327,47.866L240.281,35.477L241.235,34.581L242.189,34.1L243.143,32.722L244.097,30.764L245.051,29.522L246.005,28.472L246.959,27.45L247.913,26.752L248.867,26.195L249.821,24.508L250.775,23.186L251.729,22.453L252.682,21.27L253.636,20.594L254.59,19.795L255.544,19.459L256.498,18.917L257.452,18.407L258.406,17.611L259.36,15.996L260.314,14.744L261.268,13.67L262.222,13.268L263.176,11.688L264.13,10.401L265.084,9.68L266.038,8.634L266.992,7.666L267.946,6.733L268.9,6.447L269.854,6.648L270.808,6.913L271.762,7.142L272.716,6.778L273.67,6.423L274.624,6.221L275.578,6.697L276.532,6.961L277.485,6.967L278.439,6.828L279.393,6.909L280.347,6.72L281.301,6.489L282.255,6.91L283.209,7.019L284.163,7.102L285.117,7.276L286.071,7L287.025,6.7L287.979,6.562L288.933,7.013L289.887,7.419L290.841,7.774L291.795,8.004L292.749,7.824L293.703,7.632L294.657,7.624L295.61,8.608L296.565,9.588L297.518,10.514L298.472,23.998L299.427,24.18L300.38,24.671L301.334,12.251L302.288,13.22L303.242,14.339L304.196,15.249L305.15,15.966L306.105,16.04L307.058,16.588L308.012,17.289L308.966,18.311L309.92,19.453L310.874,20.548L311.828,21.367L312.782,21.895L313.736,22.307L314.69,22.592L315.644,23.508L316.598,24.434L317.551,25.478L318.516,26.376L319.459,26.459L320.413,26.994L321.367,27.342L322.322,28.512L323.275,29.606L324.229,30.551L325.183,30.946L326.137,30.848L327.091,30.833L328.045,30.717L328.999,31.369L329.953,31.672L330.907,32.168L331.861,32.468L332.815,32.252L333.769,32.707L334.723,32.744L335.677,33.391L336.631,33.776L337.585,34.194L338.539,34.264L339.493,33.874L340.447,33.784L341.401,33.23L342.354,33.629L343.308,33.935L344.262,34.376L345.216,34.532L346.17,33.903L347.124,33.763L348.078,33.499L349.032,34.137L349.986,34.408L350.94,34.85L351.894,34.911L352.848,34.408L353.802,34.312L354.756,33.871L355.71,34.43L356.664,34.635L357.618,34.972L358.572,35.029L359.526,34.567L360.48,34.906L361.434,35.273L362.387,36.404L363.341,36.064L364.295,36.193L365.249,36.184L366.203,35.46L367.157,35.25L368.111,34.94L369.065,35.736L370.019,35.958L370.973,36.317L371.927,36.487L372.881,36.016L373.835,36.638L374.789,36.584L375.743,37.003L376.697,37.092L377.652,37.367L378.605,37.441L379.559,36.927L380.513,36.857L381.466,36.367L382.42,36.565L383.375,36.544L384.328,36.812L385.282,36.737L386.236,36.034L387.19,36.394L388.144,36.221L389.098,36.347L390.052,35.854L391.006,35.315L391.96,34.461L392.914,33.782L393.868,33.904L394.823,33.897L395.776,34.39L397.114,34.251L398.127,34.461L399.049,34.308L400,33.611" stroke="#f58518" stroke-width="2"/></g></g><path class="foreground" aria-hidden="true" d="" display="none"/></g></g><g class="mark-group role-legend" role="graphics-symbol" aria-roledescription="legend" aria-label="Symbol legend for stroke color with 2 values: disponible, total"><g transform="translate(0,-29)"><path class="background" aria-hidden="true" d="M0,0h108v11h-108Z" pointer-events="none"/><g><g class="mark-group role-legend-entry"><g transform="translate(0,0)"><path class="background" aria-hidden="true" d="M0,0h0v0h0Z" pointer-events="none"/><g><g class="mark-group role-scope" role="graphics-object" aria-roledescription="group mark container"><g transform="translate(0,0)"><path class="background" aria-hidden="true" d="M0,0h61.0341796875v11h-61.0341796875Z" pointer-events="none" opacity="1"/><g><g class="mark-symbol role-legend-symbol" pointer-events="none"><path transform="translate(6,6)" d="M-5,0L5,0" stroke="#4c78a8" stroke-width="1.5" opacity="1"/></g><g class="mark-text role-legend-label" pointer-events="none"><text text-anchor="start" transform="translate(16,9)" font-family="sans-serif" font-size="10px" fill="#000" opacity="1">disponible</text></g></g><path class="foreground" aria-hidden="true" d="" pointer-events="none" display="none"/></g><g transform="translate(73,0)"><path class="background" aria-hidden="true" d="M0,0h34.9013671875v11h-34.9013671875Z" pointer-events="none" opacity="1"/><g><g class="mark-symbol role-legend-symbol" pointer-events="none"><path transform="translate(6,6)" d="M-5,0L5,0" stroke="#f58518" stroke-width="1.5" opacity="1"/></g><g class="mark-text role-legend-label" pointer-events="none"><text text-anchor="start" transform="translate(16,9)" font-family="sans-serif" font-size="10px" fill="#000" opacity="1">total</text></g></g><path class="foreground" aria-hidden="true" d="" pointer-events="none" display="none"/></g></g></g><path class="foreground" aria-hidden="true" d="" pointer-events="none" display="none"/></g></g></g><path class="foreground" aria-hidden="true" d="" pointer-events="none" display="none"/></g></g><g class="mark-group role-title"><g transform="translate(200,-46)"><path class="background" aria-hidden="true" d="M0,0h0v0h0Z" pointer-events="none"/><g><g class="mark-text role-title-text" role="graphics-symbol" aria-roledescription="title" aria-label="Title text 'Historique du nombre de trajets MAXJEUNE et au total, disponibles chaque jour'" pointer-events="none"><text text-anchor="middle" transform="translate(0,10)" font-family="sans-serif" font-size="13px" font-weight="bold" fill="#000" opacity="1">Historique du nombre de trajets MAXJEUNE et au total, disponibles chaque jour</text></g></g><path class="foreground" aria-hidden="true" d="" pointer-events="none" display="none"/></g></g></g><path class="foreground" aria-hidden="true" d="" display="none"/></g></g></g></svg>