<svg xmlns="http://www.w3.org/2000/svg" xmlns:xlink="http://www.w3.org/1999/xlink" version="1.1" class="marks" width="519" height="336" viewBox="0 0 519 336"><rect width="519" height="336" fill="white"/><g fill="none" stroke-miterlimit="10" transform="translate(64,51)"><g class="mark-group role-frame root" role="graphics-object" aria-roledescription="group mark container"><g transform="translate(0,0)"><path class="background" aria-hidden="true" d="M0.5,0.5h400v200h-400Z" stroke="#ddd"/><g><g class="mark-group role-axis" aria-hidden="true"><g transform="translate(0.5,200.5)"><path class="background" aria-hidden="true" d="M0,0h0v0h0Z" pointer-events="none"/><g><g class="mark-rule role-axis-grid" pointer-events="none"><line transform="translate(4,-200)" x2="0" y2="200" stroke="#ddd" stroke-width="1" opacity="1"/><line transform="translate(33,-200)" x2="0" y2="200" stroke="#ddd" stroke-width="1" opacity="1"/><line transform="translate(61,-200)" x2="0" y2="200" stroke="#ddd" stroke-width="1" opacity="1"/><line transform="translate(89,-200)" x2="0" y2="200" stroke="#ddd" stroke-width="1" opacity="1"/><line transform="translate(118,-200)" x2="0" y2="200" stroke="#ddd" stroke-width="1" opacity="1"/><line transform="translate(144,-200)" x2="0" y2="200" stroke="#ddd" stroke-width="1" opacity="1"/><line transform="translate(173,-200)" x2="0" y2="200" stroke="#ddd" stroke-width="1" opacity="1"/><line transform="translate(201,-200)" x2="0" y2="200" stroke="#ddd" stroke-width="1" opacity="1"/><line transform="translate(229,-200)" x2="0" y2="200" stroke="#ddd" stroke-width="1" opacity="1"/><line transform="translate(257,-200)" x2="0" y2="200" stroke="#ddd" stroke-width="1" opacity="1"/><line transform="translate(286,-200)" x2="0" y2="200" stroke="#ddd" stroke-width="1" opacity="1"/><line transform="translate(315,-200)" x2="0" y2="200" stroke="#ddd" stroke-width="1" opacity="1"/><line transform="translate(343,-200)" x2="0" y2="200" stroke="#ddd" stroke-width="1" opacity="1"/><line transform="translate(371,-200)" x2="0" y2="200" stroke="#ddd" stroke-width="1" opacity="1"/><line transform="translate(399,-200)" x2="0" y2="200" stroke="#ddd" stroke-width="1" opacity="1"/></g></g><path class="foreground" aria-hidden="true" d="" pointer-events="none" display="none"/></g></g><g class="mark-group role-axis" aria-hidden="true"><g transform="translate(0.5,0.5)"><path class="background" aria-hidden="true" d="M0,0h0v0h0Z" pointer-events="none"/><g><g class="mark-rule role-axis-grid" pointer-events="none"><line transform="translate(0,200)" x2="400" y2="0" stroke="#ddd" stroke-width="1" opacity="1"/><line transform="translate(0,156)" x2="400" y2="0" stroke="#ddd" stroke-width="1" opacity="1"/><line transform="translate(0,111)" x2="400" y2="0" stroke="#ddd" stroke-width="1" opacity="1"/><line transform="translate(0,67)" x2="400" y2="0" stroke="#ddd" stroke-width="1" opacity="1"/><line transform="translate(0,22)" x2="400" y2="0" stroke="#ddd" stroke-width="1" opacity="1"/></g></g><path class="foreground" aria-hidden="true" d="" pointer-events="none" display="none"/></g></g><g class="mark-group role-axis" role="graphics-symbol" aria-roledescription="axis" aria-label="X-axis titled 'Date de la recherche' for a time scale with values from September 2024 to December 2025"><g transform="translate(0.5,200.5)"><path class="background" aria-hidden="true" d="M0,0h0v0h0Z" pointer-events="none"/><g><g class="mark-rule role-axis-tick" pointer-events="none"><line transform="translate(4,0)" x2="0" y2="5" stroke="#888" stroke-width="1" opacity="1"/><line transform="translate(33,0)" x2="0" y2="5" stroke="#888" stroke-width="1" opacity="1"/><line transform="translate(61,0)" x2="0" y2="5" stroke="#888" stroke-width="1" opacity="1"/><line transform="translate(89,0)" x2="0" y2="5" stroke="#888" stroke-width="1" opacity="1"/><line transform="translate(118,0)" x2="0" y2="5" stroke="#888" stroke-width="1" opacity="1"/><line transform="translate(144,0)" x2="0" y2="5" stroke="#888" stroke-width="1" opacity="1"/><line transform="translate(173,0)" x2="0" y2="5" stroke="#888" stroke-width="1" opacity="1"/><line transform="translate(201,0)" x2="0" y2="5" stroke="#888" stroke-width="1" opacity="1"/><line transform="translate(229,0)" x2="0" y2="5" stroke="#888" stroke-width="1" opacity="1"/><line transform="translate(257,0)" x2="0" y2="5" stroke="#888" stroke-width="1" opacity="1"/><line transform="translate(286,0)" x2="0" y2="5" stroke="#888" stroke-width="1" opacity="1"/><line transform="translate(315,0)" x2="0" y2="5" stroke="#888" stroke-width="1" opacity="1"/><line transform="translate(343,0)" x2="0" y2="5" stroke="#888" stroke-width="1" opacity="1"/><line transform="translate(371,0)" x2="0" y2="5" stroke="#888" stroke-width="1" opacity="1"/><line transform="translate(399,0)" x2="0" y2="5" stroke="#888" stroke-width="1" opacity="1"/></g><g class="mark-text role-axis-label" pointer-events="none"><text text-anchor="start" transform="translate(4.0507655980671515,7) rotate(45) translate(0,8)" font-family="sans-serif" font-size="10px" fill="#000" opacity="1">October 2024</text><text text-anchor="start" transform="translate(32.80056507780253,7) rotate(45) translate(0,8)" font-family="sans-serif" font-size="10px" fill="#000" opacity="0">November 2024</text><text text-anchor="start" transform="translate(60.62295167109484,7) rotate(45) translate(0,8)" font-family="sans-serif" font-size="10px" fill="#000" opacity="1">December 2024</text><text text-anchor="start" transform="translate(89.37275115083023,7) rotate(45) translate(0,8)" font-family="sans-serif" font-size="10px" fill="#000" opacity="0">January 2025</text><text text-anchor="start" transform="translate(118.1225506305656,7) rotate(45) translate(0,8)" font-family="sans-serif" font-size="10px" fill="#000" opacity="1">February 2025</text><text text-anchor="start" transform="translate(144.09011145097176,7) rotate(45) translate(0,8)" font-family="sans-serif" font-size="10px" fill="#000" opacity="0">March 2025</text><text text-anchor="start" transform="translate(172.83991093070713,7) rotate(45) translate(0,8)" font-family="sans-serif" font-size="10px" fill="#000" opacity="1">April 2025</text><text text-anchor="start" transform="translate(200.66229752399946,7) rotate(45) translate(0,8)" font-family="sans-serif" font-size="10px" fill="#000" opacity="0">May 2025</text><text text-anchor="start" transform="translate(229.41209700373483,7) rotate(45) translate(0,8)" font-family="sans-serif" font-size="10px" fill="#000" opacity="1">June 2025</text><text text-anchor="start" transform="translate(257.2344835970271,7) rotate(45) translate(0,8)" font-family="sans-serif" font-size="10px" fill="#000" opacity="0">July 2025</text><text text-anchor="start" transform="translate(285.98428307676255,7) rotate(45) translate(0,8)" font-family="sans-serif" font-size="10px" fill="#000" opacity="1">August 2025</text><text text-anchor="start" transform="translate(314.7340825564979,7) rotate(45) translate(0,8)" font-family="sans-serif" font-size="10px" fill="#000" opacity="0">September 2025</text><text text-anchor="start" transform="translate(342.5564691497902,7) rotate(45) translate(0,8)" font-family="sans-serif" font-size="10px" fill="#000" opacity="1">October 2025</text><text text-anchor="start" transform="translate(371.3062686295256,7) rotate(45) translate(0,8)" font-family="sans-serif" font-size="10px" fill="#000" opacity="0">November 2025</text><text text-anchor="start" transform="translate(399.12865522281794,7) rotate(45) translate(0,8)" font-family="sans-serif" font-size="10px" fill="#000" opacity="1">December 2025</text></g><g class="mark-rule role-axis-domain" pointer-events="none"><line transform="translate(0,0)" x2="400" y2="0" stroke="#888" stroke-width="1" opacity="1"/></g><g class="mark-text role-axis-title" pointer-events="none"><text text-anchor="middle" transform="translate(200,77.38337257480674)" font-family="sans-serif" font-size="11px" font-weight="bold" fill="#000" opacity="1">Date de la recherche</text></g></g><path class="foreground" aria-hidden="true" d="" pointer-events="none" display="none"/></g></g><g class="mark-group role-axis" role="graphics-symbol" aria-roledescription="axis" aria-label="Y-axis titled 'Nombre de trajets' for a linear scale with values from 0 to 450,000"><g transform="translate(0.5,0.5)"><path class="background" aria-hidden="true" d="M0,0h0v0h0Z" pointer-events="none"/><g><g class="mark-rule role-axis-tick" pointer-events="none"><line transform="translate(0,200)" x2="-5" y2="0" stroke="#888" stroke-width="1" opacity="1"/><line transform="translate(0,156)" x2="-5" y2="0" stroke="#888" stroke-width="1" opacity="1"/><line transform="translate(0,111)" x2="-5" y2="0" stroke="#888" stroke-width="1" opacity="1"/><line transform="translate(0,67)" x2="-5" y2="0" stroke="#888" stroke-width="1" opacity="1"/><line transform="translate(0,22)" x2="-5" y2="0" stroke="#888" stroke-width="1" opacity="1"/></g><g class="mark-text role-axis-label" pointer-events="none"><text text-anchor="end" transform="translate(-7,203)" font-family="sans-serif" font-size="10px" fill="#000" opacity="1">0</text><text text-anchor="end" transform="translate(-7,158.55555555555557)" font-family="sans-serif" font-size="10px" fill="#000" opacity="1">100,000</text><text text-anchor="end" transform="translate(-7,114.11111111111111)" font-family="sans-serif" font-size="10px" fill="#000" opacity="1">200,000</text><text text-anchor="end" transform="translate(-7,69.66666666666667)" font-family="sans-serif" font-size="10px" fill="#000" opacity="1">300,000</text><text text-anchor="end" transform="translate(-7,25.222222222222232)" font-family="sans-serif" font-size="10px" fill="#000" opacity="1">400,000</text></g><g class="mark-rule role-axis-domain" pointer-events="none"><line transform="translate(0,200)" x2="0" y2="-200" stroke="#888" stroke-width="1" opacity="1"/></g><g class="mark-text role-axis-title" pointer-events="none"><text text-anchor="middle" transform="translate(-47.1474609375,100) rotate(-90) translate(0,-2)" font-family="sans-serif" font-size="11px" font-weight="bold" fill="#000" opacity="1">Nombre de trajets</text></g></g><path class="foreground" aria-hidden="true" d="" pointer-events="none" display="none"/></g></g><g class="mark-group role-scope pathgroup" role="graphics-object" aria-roledescription="group mark container"><g transform="translate(0,0)"><path class="background" aria-hidden="true" d="M0,0h400v200h-400Z"/><g><g class="mark-line role-mark marks" role="graphics-object" aria-roledescription="line mark container"><path aria-label="Date de la recherche: September 2024; Nombre de trajets: 91488; variable: disponible" role="graphics-symbol" aria-roledescription="line mark" d="M0,159.339L0.815,160.009L1.742,160.25L2.67,159.721L3.597,159.224L4.525,160.066L5.453,161.226L6.38,162.729L7.307,163.599L8.234,164.927L9.162,164.272L10.089,163.069L11.017,163.83L11.944,166.394L12.872,165.123L13.799,166.305L14.726,167.015L15.654,167.638L16.581,167.648L17.508,168.931L18.436,169.444L19.363,170.203L20.291,170.474L21.218,170.704L22.146,168.872L23.073,167.766L24,168.451L24.928,167.16L25.855,168.696L26.783,166.936L27.71,167.617L28.638,164.943L29.572,163.236L30.492,165.275L31.42,163.601L32.347,165.017L33.275,163.38L34.202,162.688L35.129,161.357L36.057,159.746L36.984,159.755L37.913,159.142L38.839,161.116L39.766,160.392L40.694,160.483L41.621,158.316L42.549,156.748L43.478,154.82L44.404,155.253L45.331,154.239L46.258,154.859L47.188,156.557L48.113,155.787L49.041,155.331L49.968,156.853L50.895,157.538L51.823,158.599L52.75,159.242L53.678,159.566L54.605,159.835L55.532,159.906L56.46,161.397L57.387,162.616L58.315,164.062L59.242,165.294L60.169,166.184L61.097,166.252L62.025,166.133L62.952,167.211L63.88,167.551L64.807,168.202L65.734,168.182L66.662,168.864L67.589,168.023L68.516,166.956L69.444,166.728L70.371,166.308L71.298,166.35L72.226,164.781L73.153,165.02L74.081,163.984L75.008,162.302L75.935,162.622L76.863,161.783L77.79,161.712L78.718,159.731L79.645,159.145L80.572,157.033L81.5,155.203L82.427,153.702L83.355,149.882L84.282,149.315L85.209,147.688L86.137,147.022L87.064,145.158L87.992,143.235L88.919,141.419L89.847,139.417L90.774,139.184L91.701,141.537L92.629,142.381L93.556,139.298L94.484,137.729L95.411,138.287L96.339,138.306L97.266,139.025L98.194,139.891L99.121,141.793L100.048,142.216L100.976,142.23L101.903,143.622L102.83,144.212L103.758,146.113L104.685,147.762L105.613,148.816L106.54,149.653L107.467,149.103L108.395,149.572L109.322,151.036L110.25,152.019L111.177,154.556L112.105,155.987L113.032,156.427L113.959,155.749L114.887,156.068L115.814,156.588L116.742,157.142L117.669,158.761L118.596,159.033L119.524,159.104L120.451,158.219L121.379,158.195L122.306,158.685L123.233,160.639L124.161,161.217L125.088,162.238L126.016,161.805L126.943,161.569L127.87,162.052L128.798,162.612L129.725,163.765L130.653,164.016L131.58,164.144L132.508,163.397L133.435,162.463L134.362,162.635L135.29,160.836L136.217,162.052L137.145,161.876L138.072,162.061L139,159.33L139.927,157.85L140.854,157.162L141.782,156.173L142.709,157.449L143.637,157.287L144.564,157.682L145.491,156.434L146.419,155.299L147.346,155.873L148.274,156.232L149.201,158.153L150.128,157.316L151.056,158.821L151.983,157.497L152.911,156.43L153.838,156.36L154.766,156.624L155.693,157.757L156.62,159.565L157.548,159.94L158.475,160.216L159.403,159.533L160.33,159.946L161.257,160.72L162.185,162.035L163.112,162.685L164.04,163.619L164.967,164.437L165.894,164.308L166.822,164.997L167.749,165.332L168.677,166.06L169.604,166.832L170.531,167.163L171.459,167.356L172.386,166.756L173.314,168.562L174.241,168.524L175.168,169.668L176.096,169.96L177.023,170.583L177.951,169.531L178.878,169.106L179.806,170.336L180.733,171.222L181.66,172.901L182.588,173.898L183.515,173.981L184.443,173.399L185.37,172.256L186.297,172.224L187.225,172.383L188.152,172.577L189.08,171.82L190.007,171.468L190.935,170.136L191.862,168.69L192.789,167.228L193.717,166.981L194.644,166.786L195.572,166.962L196.499,166.335L197.426,165.966L198.354,165.59L199.281,166.577L200.209,167.733L201.136,170.02L202.063,168.846L202.991,169.858L203.918,169.379L204.846,168.202L205.773,168.43L206.701,170.075L207.628,170.046L208.555,169.925L209.483,169.592L210.41,168.736L211.338,168.091L212.265,168.04L213.192,168.317L214.12,169.349L215.047,169.497L215.975,170.13L216.902,170.491L217.829,170.374L218.757,171.072L219.684,173.061L220.612,174.635L221.539,174.731L222.466,174.89L223.394,174.699L224.321,174.329L225.249,175.925L226.176,174.959L227.104,175.182L228.031,176.424L228.959,174.932L229.886,174.408L230.813,173.2L231.741,172.78L232.668,173.29L233.596,173.061L234.523,173.79L235.451,173.8L236.378,173.333L237.305,172.788L238.233,172.172L239.16,172.853L240.088,173.283L241.015,175.056L241.943,174.065L242.87,174.497L243.798,174.456L244.725,175.107L245.652,175.869L246.579,176.792L247.507,176.778L248.434,177.009L249.361,177.119L250.289,176.421L251.216,176.539L252.144,177.062L253.071,177.335L253.999,177.774L254.926,178.057L255.853,177.759L256.781,177.03L257.708,176.662L258.636,177.327L259.563,177.417L260.491,177.748L261.418,177.901L262.345,177.574L263.273,176.725L264.2,176.693L265.128,176.283L266.055,176.441L266.983,176.327L267.91,176.355L268.837,175.682L269.765,175.172L270.692,174.815L271.619,178.13L272.547,178.902L273.474,178.285L274.402,178.194L275.329,177.128L276.257,176.427L277.184,176.211L278.111,176.344L279.039,176.647L279.967,176.738L280.894,176.03L281.821,175.164L282.748,174.287L283.676,174.413L284.603,173.714L285.531,174.324L286.458,173.887L287.385,173.912L288.313,172.471L289.24,171.321L290.168,171.24L291.095,171.28L292.023,172.08L292.95,172.211L293.877,172.403L294.805,171.398L295.732,170.396L296.66,170.518L297.588,170.236L298.515,170.683L299.442,170.087L300.369,170.074L301.297,169.3L302.224,168.013L303.152,167.635L304.079,166.205L305.006,166.481L305.934,166.323L306.861,166.3L307.789,165.771L308.716,164.96L309.653,164.593L310.571,165.332L311.498,166.362L312.426,166.83L313.353,167.888L314.28,167.998L315.208,168.088L316.135,168.656L317.063,170.384L317.99,164.386L318.918,164.849L319.845,166.016L320.772,165.694L321.7,164.655L322.627,163.862L323.555,163.137L324.482,165.146L325.409,165.064L326.337,165.244L327.264,165.762L328.192,164.872L329.119,164.64L330.047,165.472L330.974,166.088L331.902,167.32L332.829,166.82L333.756,167.115L334.684,167.029L335.611,167.192L336.538,167.811L337.466,168.811L338.393,170.644L339.321,169.776L340.248,170.481L341.175,170.076L342.103,170.333L343.03,170.433L343.958,171.609L344.885,172.44L345.813,172.626L346.74,172.988L347.667,172.106L348.595,171.847L349.522,172.026L350.45,173.442L351.377,173.866L352.304,173.078L353.232,172.944L354.159,173.152L355.087,173.688L356.014,174.006L356.941,174.688L357.869,174.205L358.796,173.786L359.724,172.674L360.651,171.307L361.579,171.597L362.506,171.21L363.433,171.624L364.361,171.142L365.288,170.751L366.216,169.213L367.144,167.775L368.07,167.387L368.998,167.261L369.925,167.35L370.853,166.703L371.78,167.341L372.708,166.164L373.635,164.592L374.562,164.66L375.49,164.254L376.417,165.054L377.345,165.095L378.272,164.783L379.199,163.01L380.127,162.001L381.054,161.608L381.982,160.09L382.909,160.927L383.837,161.446L384.764,161.809L386.064,161.546L387.05,160.467L387.946,161.036L388.87,161.558L389.797,162.723L390.328,163.683L391.256,163.763L392.183,163.474L393.111,163.335L394.038,163.94L394.965,164.694L395.893,165.922L397.24,167.04L398.145,167.981L399.072,168.795L400,168.795" stroke="#4c78a8" stroke-width="2"/></g></g><path class="foreground" aria-hidden="true" d="" display="none"/></g><g transform="translate(0,0)"><path class="background" aria-hidden="true" d="M0,0h400v200h-400Z"/><g><g class="mark-line role-mark marks" role="graphics-object" aria-roledescription="line mark container"><path aria-label="Date de la recherche: September 2024; Nombre de trajets: 351801; variable: total" role="graphics-symbol" aria-roledescription="line mark" d="M0,43.644L0.815,43.23L1.742,43.532L2.67,43.471L3.597,43.523L4.525,42.888L5.453,42.975L6.38,43.715L7.307,43.55L8.234,43.967L9.162,43.883L10.089,43.916L11.017,43.705L11.944,43.343L12.872,45.168L13.799,47.57L14.726,49.451L15.654,50.78L16.581,51.056L17.508,51.055L18.436,50.496L19.363,50.482L20.291,50.263L21.218,50.547L22.146,50.55L23.073,50.929L24,51.131L24.928,50.923L25.855,51.584L26.783,51.856L27.71,52.263L28.638,52.39L29.572,52.759L30.492,52.836L31.42,52.374L32.347,53.093L33.275,53.62L34.202,53.032L35.129,52.105L36.057,52.092L36.984,52.091L37.913,51.462L38.839,51.622L39.766,41.063L40.694,40.994L41.621,38.53L42.549,35.785L43.478,33.752L44.404,31.452L45.331,31.196L46.258,31.976L47.188,32.224L48.113,32.1L49.041,32.214L49.968,43.381L50.895,42.648L51.823,31.545L52.75,31.141L53.678,31.16L54.605,30.515L55.532,30.687L56.46,30.67L57.387,41.943L58.315,41.649L59.242,29.061L60.169,29.416L61.097,28.902L62.025,29.519L62.952,29.164L63.88,28.757L64.807,28.1L65.734,27.722L66.662,26.185L67.589,25.875L68.516,25.729L69.444,25.856L70.371,25.331L71.298,37.198L72.226,25.074L73.153,25.668L74.081,25.804L75.008,25.909L75.935,26.032L76.863,25.492L77.79,25.271L78.718,25.142L79.645,25.764L80.572,26.482L81.5,26.828L82.427,27.121L83.355,26.415L84.282,25.957L85.209,26.279L86.137,27.016L87.064,27.544L87.992,27.983L88.919,28.387L89.847,27.747L90.774,27.414L91.701,27.669L92.629,28.387L93.556,28.939L94.484,29.468L95.411,29.973L96.339,29.508L97.266,29.126L98.194,29.288L99.121,30.003L100.048,30.398L100.976,30.824L101.903,31.144L102.83,30.97L103.758,41.714L104.685,30.252L105.613,30.988L106.54,31.619L107.467,31.958L108.395,32.143L109.322,31.707L110.25,31.087L111.177,31.152L112.105,31.917L113.032,32.222L113.959,32.403L114.887,32.294L115.814,31.743L116.742,31.524L117.669,31.784L118.596,32.277L119.524,32.624L120.451,32.712L121.379,32.796L122.306,32.445L123.233,31.822L124.161,31.126L125.088,31.789L126.016,32.685L126.943,33.031L127.87,33.212L128.798,32.773L129.725,33.388L130.653,33.592L131.58,34.164L132.508,35.362L133.435,35.763L134.362,35.899L135.29,35.315L136.217,35.592L137.145,36.133L138.072,36.764L139,37.632L139.927,37.992L140.854,38.217L141.782,48.657L142.709,49.276L143.637,49.164L144.564,49.493L145.491,49.746L146.419,49.778L147.346,38.859L148.274,38.161L149.201,37.686L150.128,37.108L151.056,37.387L151.983,37.632L152.911,37.878L153.838,37.688L154.766,36.921L155.693,36.403L156.62,35.921L157.548,36.056L158.475,35.163L159.403,34.855L160.33,34.686L161.257,33.996L162.185,34.483L163.112,35.695L164.04,36.783L164.967,36.296L165.894,35.908L166.822,35.731L167.749,34.88L168.677,34.631L169.604,34.328L170.531,34.329L171.459,33.922L172.386,33.396L173.314,33.329L174.241,33.858L175.168,34.476L176.096,35.666L177.023,36.248L177.951,37.45L178.878,37.177L179.806,37.877L180.733,37.17L181.66,38.661L182.588,39.278L183.515,39.69L184.443,40.057L185.37,40.341L186.297,40.363L187.225,39.966L188.152,40.384L189.08,40.357L190.007,40.606L190.935,39.799L191.862,38.261L192.789,37.851L193.717,37.399L194.644,37.4L195.572,37.352L196.499,37.876L197.426,38.551L198.354,38.273L199.281,38.913L200.209,40.323L201.136,42.092L202.063,42.238L202.991,41.801L203.918,41.309L204.846,41.427L205.773,41.43L206.701,40.981L207.628,41.689L208.555,42.137L209.483,40.74L210.41,38.877L211.338,38.676L212.265,38.774L213.192,38.256L214.12,39.166L215.047,39.717L215.975,40.268L216.902,39.847L217.829,39.945L218.757,40.043L219.684,39.415L220.612,39.523L221.539,39.268L222.466,39.68L223.394,39.566L224.321,39.679L225.249,39.789L226.176,39.682L227.104,40.502L228.031,40.502L228.959,38.96L229.886,37.599L230.813,49.079L231.741,48.936L232.668,47.866L233.596,35.477L234.523,34.581L235.451,34.1L236.378,32.722L237.305,30.764L238.233,29.522L239.16,28.472L240.088,27.45L241.015,26.752L241.943,26.195L242.87,24.508L243.798,23.186L244.725,22.453L245.652,21.27L246.579,20.594L247.507,19.795L248.434,19.459L249.361,18.917L250.289,18.407L251.216,17.611L252.144,15.996L253.071,14.744L253.999,13.67L254.926,13.268L255.853,11.688L256.781,10.401L257.708,9.68L258.636,8.634L259.563,7.666L260.491,6.733L261.418,6.447L262.345,6.648L263.273,6.913L264.2,7.142L265.128,6.778L266.055,6.423L266.983,6.221L267.91,6.697L268.837,6.961L269.765,6.967L270.692,6.828L271.619,6.909L272.547,6.72L273.474,6.489L274.402,6.91L275.329,7.019L276.257,7.102L277.184,7.276L278.111,7L279.039,6.7L279.967,6.562L280.894,7.013L281.821,7.419L282.748,7.774L283.676,8.004L284.603,7.824L285.531,7.632L286.458,7.624L287.385,8.608L288.313,9.588L289.24,10.514L290.168,23.998L291.095,24.18L292.023,24.671L292.95,12.251L293.877,13.22L294.805,14.339L295.732,15.249L296.66,15.966L297.588,16.04L298.515,16.588L299.442,17.289L300.369,18.311L301.297,19.453L302.224,20.548L303.152,21.367L304.079,21.895L305.006,22.307L305.934,22.592L306.861,23.508L307.789,24.434L308.716,25.478L309.653,26.376L310.571,26.459L311.498,26.994L312.426,27.342L313.353,28.512L314.28,29.606L315.208,30.551L316.135,30.946L317.063,30.848L317.99,30.833L318.918,30.717L319.845,31.369L320.772,31.672L321.7,32.168L322.627,32.468L323.555,32.252L324.482,32.707L325.409,32.744L326.337,33.391L327.264,33.776L328.192,34.194L329.119,34.264L330.047,33.874L330.974,33.784L331.902,33.23L332.829,33.629L333.756,33.935L334.684,34.376L335.611,34.532L336.538,33.903L337.466,33.763L338.393,33.499L339.321,34.137L340.248,34.408L341.175,34.85L342.103,34.911L343.03,34.408L343.958,34.312L344.885,33.871L345.813,34.43L346.74,34.635L347.667,34.972L348.595,35.029L349.522,34.567L350.45,34.906L351.377,35.273L352.304,36.404L353.232,36.064L354.159,36.193L355.087,36.184L356.014,35.46L356.941,35.25L357.869,34.94L358.796,35.736L359.724,35.958L360.651,36.317L361.579,36.487L362.506,36.016L363.433,36.638L364.361,36.584L365.288,37.003L366.216,37.092L367.144,37.367L368.07,37.441L368.998,36.927L369.925,36.857L370.853,36.367L371.78,36.565L372.708,36.544L373.635,36.812L374.562,36.737L375.49,36.034L376.417,36.394L377.345,36.221L378.272,36.347L379.199,35.854L380.127,35.315L381.054,34.461L381.982,33.782L382.909,33.904L383.837,33.897L384.764,34.39L386.064,34.251L387.05,34.461L387.946,34.308L388.87,33.611L389.797,32.839L390.328,32.159L391.256,32.164L392.183,31.195L393.111,31.053L394.038,31.379L394.965,30.967L395.893,30.417L397.24,29.717L398.145,27.828L399.072,26.715L400,26.84" stroke="#f58518" stroke-width="2"/></g></g><path class="foreground" aria-hidden="true" d="" display="none"/></g></g><g class="mark-group role-legend" role="graphics-symbol" aria-roledescription="legend" aria-label="Symbol legend for stroke color with 2 values: disponible, total"><g transform="translate(0,-29)"><path class="background" aria-hidden="true" d="M0,0h108v11h-108Z" pointer-events="none"/><g><g class="mark-group role-legend-entry"><g transform="translate(0,0)"><path class="background" aria-hidden="true" d="M0,0h0v0h0Z" pointer-events="none"/><g><g class="mark-group role-scope" role="graphics-object" aria-roledescription="group mark container"><g transform="translate(0,0)"><path class="background" aria-hidden="true" d="M0,0h61.0341796875v11h-61.0341796875Z" pointer-events="none" opacity="1"/><g><g class="mark-symbol role-legend-symbol" pointer-events="none"><path transform="translate(6,6)" d="M-5,0L5,0" stroke="#4c78a8" stroke-width="1.5" opacity="1"/></g><g class="mark-text role-legend-label" pointer-events="none"><text text-anchor="start" transform="translate(16,9)" font-family="sans-serif" font-size="10px" fill="#000" opacity="1">disponible</text></g></g><path class="foreground" aria-hidden="true" d="" pointer-events="none" display="none"/></g><g transform="translate(73,0)"><path class="background" aria-hidden="true" d="M0,0h34.9013671875v11h-34.9013671875Z" pointer-events="none" opacity="1"/><g><g class="mark-symbol role-legend-symbol" pointer-events="none"><path transform="translate(6,6)" d="M-5,0L5,0" stroke="#f58518" stroke-width="1.5" opacity="1"/></g><g class="mark-text role-legend-label" pointer-events="none"><text text-anchor="start" transform="translate(16,9)" font-family="sans-serif" font-size="10px" fill="#000" opacity="1">total</text></g></g><path class="foreground" aria-hidden="true" d="" pointer-events="none" display="none"/></g></g></g><path class="foreground" aria-hidden="true" d="" pointer-events="none" display="none"/></g></g></g><path class="foreground" aria-hidden="true" d="" pointer-events="none" display="none"/></g></g><g class="mark-group role-title"><g transform="translate(200,-46)"><path class="background" aria-hidden="true" d="M0,0h0v0h0Z" pointer-events="none"/><g><g class="mark-text role-title-text" role="graphics-symbol" aria-roledescription="title" aria-label="Title text 'Historique du nombre de trajets MAXJEUNE et au total, disponibles chaque jour'" pointer-events="none"><text text-anchor="middle" transform="translate(0,10)" font-family="sans-serif" font-size="13px" font-weight="bold" fill="#000" opacity="1">Historique du nombre de trajets MAXJEUNE et au total, disponibles chaque jour</text></g></g><path class="foreground" aria-hidden="true" d="" pointer-events="none" display="none"/></g></g></g><path class="foreground" aria-hidden="true" d="" display="none"/></g></g></g></svg>