<svg xmlns="http://www.w3.org/2000/svg" xmlns:xlink="http://www.w3.org/1999/xlink" version="1.1" class="marks" width="517" height="336" viewBox="0 0 517 336"><rect width="517" height="336" fill="white"/><g fill="none" stroke-miterlimit="10" transform="translate(64,51)"><g class="mark-group role-frame root" role="graphics-object" aria-roledescription="group mark container"><g transform="translate(0,0)"><path class="background" aria-hidden="true" d="M0.5,0.5h400v200h-400Z" stroke="#ddd"/><g><g class="mark-group role-axis" aria-hidden="true"><g transform="translate(0.5,200.5)"><path class="background" aria-hidden="true" d="M0,0h0v0h0Z" pointer-events="none"/><g><g class="mark-rule role-axis-grid" pointer-events="none"><line transform="translate(4,-200)" x2="0" y2="200" stroke="#ddd" stroke-width="1" opacity="1"/><line transform="translate(34,-200)" x2="0" y2="200" stroke="#ddd" stroke-width="1" opacity="1"/><line transform="translate(63,-200)" x2="0" y2="200" stroke="#ddd" stroke-width="1" opacity="1"/><line transform="translate(92,-200)" x2="0" y2="200" stroke="#ddd" stroke-width="1" opacity="1"/><line transform="translate(122,-200)" x2="0" y2="200" stroke="#ddd" stroke-width="1" opacity="1"/><line transform="translate(149,-200)" x2="0" y2="200" stroke="#ddd" stroke-width="1" opacity="1"/><line transform="translate(179,-200)" x2="0" y2="200" stroke="#ddd" stroke-width="1" opacity="1"/><line transform="translate(207,-200)" x2="0" y2="200" stroke="#ddd" stroke-width="1" opacity="1"/><line transform="translate(237,-200)" x2="0" y2="200" stroke="#ddd" stroke-width="1" opacity="1"/><line transform="translate(266,-200)" x2="0" y2="200" stroke="#ddd" stroke-width="1" opacity="1"/><line transform="translate(296,-200)" x2="0" y2="200" stroke="#ddd" stroke-width="1" opacity="1"/><line transform="translate(325,-200)" x2="0" y2="200" stroke="#ddd" stroke-width="1" opacity="1"/><line transform="translate(354,-200)" x2="0" y2="200" stroke="#ddd" stroke-width="1" opacity="1"/><line transform="translate(384,-200)" x2="0" y2="200" stroke="#ddd" stroke-width="1" opacity="1"/></g></g><path class="foreground" aria-hidden="true" d="" pointer-events="none" display="none"/></g></g><g class="mark-group role-axis" aria-hidden="true"><g transform="translate(0.5,0.5)"><path class="background" aria-hidden="true" d="M0,0h0v0h0Z" pointer-events="none"/><g><g class="mark-rule role-axis-grid" pointer-events="none"><line transform="translate(0,200)" x2="400" y2="0" stroke="#ddd" stroke-width="1" opacity="1"/><line transform="translate(0,156)" x2="400" y2="0" stroke="#ddd" stroke-width="1" opacity="1"/><line transform="translate(0,111)" x2="400" y2="0" stroke="#ddd" stroke-width="1" opacity="1"/><line transform="translate(0,67)" x2="400" y2="0" stroke="#ddd" stroke-width="1" opacity="1"/><line transform="translate(0,22)" x2="400" y2="0" stroke="#ddd" stroke-width="1" opacity="1"/></g></g><path class="foreground" aria-hidden="true" d="" pointer-events="none" display="none"/></g></g><g class="mark-group role-axis" role="graphics-symbol" aria-roledescription="axis" aria-label="X-axis titled 'Date de la recherche' for a time scale with values from September 2024 to November 2025"><g transform="translate(0.5,200.5)"><path class="background" aria-hidden="true" d="M0,0h0v0h0Z" pointer-events="none"/><g><g class="mark-rule role-axis-tick" pointer-events="none"><line transform="translate(4,0)" x2="0" y2="5" stroke="#888" stroke-width="1" opacity="1"/><line transform="translate(34,0)" x2="0" y2="5" stroke="#888" stroke-width="1" opacity="1"/><line transform="translate(63,0)" x2="0" y2="5" stroke="#888" stroke-width="1" opacity="1"/><line transform="translate(92,0)" x2="0" y2="5" stroke="#888" stroke-width="1" opacity="1"/><line transform="translate(122,0)" x2="0" y2="5" stroke="#888" stroke-width="1" opacity="1"/><line transform="translate(149,0)" x2="0" y2="5" stroke="#888" stroke-width="1" opacity="1"/><line transform="translate(179,0)" x2="0" y2="5" stroke="#888" stroke-width="1" opacity="1"/><line transform="translate(207,0)" x2="0" y2="5" stroke="#888" stroke-width="1" opacity="1"/><line transform="translate(237,0)" x2="0" y2="5" stroke="#888" stroke-width="1" opacity="1"/><line transform="translate(266,0)" x2="0" y2="5" stroke="#888" stroke-width="1" opacity="1"/><line transform="translate(296,0)" x2="0" y2="5" stroke="#888" stroke-width="1" opacity="1"/><line transform="translate(325,0)" x2="0" y2="5" stroke="#888" stroke-width="1" opacity="1"/><line transform="translate(354,0)" x2="0" y2="5" stroke="#888" stroke-width="1" opacity="1"/><line transform="translate(384,0)" x2="0" y2="5" stroke="#888" stroke-width="1" opacity="1"/></g><g class="mark-text role-axis-label" pointer-events="none"><text text-anchor="start" transform="translate(4.185881134159332,7) rotate(45) translate(0,8)" font-family="sans-serif" font-size="10px" fill="#000" opacity="1">October 2024</text><text text-anchor="start" transform="translate(33.93457727733457,7) rotate(45) translate(0,8)" font-family="sans-serif" font-size="10px" fill="#000" opacity="0">November 2024</text><text text-anchor="start" transform="translate(62.684995026443524,7) rotate(45) translate(0,8)" font-family="sans-serif" font-size="10px" fill="#000" opacity="1">December 2024</text><text text-anchor="start" transform="translate(92.39376003385611,7) rotate(45) translate(0,8)" font-family="sans-serif" font-size="10px" fill="#000" opacity="0">January 2025</text><text text-anchor="start" transform="translate(122.10252504126868,7) rotate(45) translate(0,8)" font-family="sans-serif" font-size="10px" fill="#000" opacity="1">February 2025</text><text text-anchor="start" transform="translate(148.9362482737704,7) rotate(45) translate(0,8)" font-family="sans-serif" font-size="10px" fill="#000" opacity="0">March 2025</text><text text-anchor="start" transform="translate(178.6050821454203,7) rotate(45) translate(0,8)" font-family="sans-serif" font-size="10px" fill="#000" opacity="1">April 2025</text><text text-anchor="start" transform="translate(207.3554998945293,7) rotate(45) translate(0,8)" font-family="sans-serif" font-size="10px" fill="#000" opacity="0">May 2025</text><text text-anchor="start" transform="translate(237.06426490194184,7) rotate(45) translate(0,8)" font-family="sans-serif" font-size="10px" fill="#000" opacity="1">June 2025</text><text text-anchor="start" transform="translate(265.8146826510508,7) rotate(45) translate(0,8)" font-family="sans-serif" font-size="10px" fill="#000" opacity="0">July 2025</text><text text-anchor="start" transform="translate(295.5234476584634,7) rotate(45) translate(0,8)" font-family="sans-serif" font-size="10px" fill="#000" opacity="1">August 2025</text><text text-anchor="start" transform="translate(325.232212665876,7) rotate(45) translate(0,8)" font-family="sans-serif" font-size="10px" fill="#000" opacity="0">September 2025</text><text text-anchor="start" transform="translate(353.98263041498495,7) rotate(45) translate(0,8)" font-family="sans-serif" font-size="10px" fill="#000" opacity="1">October 2025</text><text text-anchor="start" transform="translate(383.73132655816016,7) rotate(45) translate(0,8)" font-family="sans-serif" font-size="10px" fill="#000" opacity="0">November 2025</text></g><g class="mark-rule role-axis-domain" pointer-events="none"><line transform="translate(0,0)" x2="400" y2="0" stroke="#888" stroke-width="1" opacity="1"/></g><g class="mark-text role-axis-title" pointer-events="none"><text text-anchor="middle" transform="translate(200,77.38337257480674)" font-family="sans-serif" font-size="11px" font-weight="bold" fill="#000" opacity="1">Date de la recherche</text></g></g><path class="foreground" aria-hidden="true" d="" pointer-events="none" display="none"/></g></g><g class="mark-group role-axis" role="graphics-symbol" aria-roledescription="axis" aria-label="Y-axis titled 'Nombre de trajets' for a linear scale with values from 0 to 450,000"><g transform="translate(0.5,0.5)"><path class="background" aria-hidden="true" d="M0,0h0v0h0Z" pointer-events="none"/><g><g class="mark-rule role-axis-tick" pointer-events="none"><line transform="translate(0,200)" x2="-5" y2="0" stroke="#888" stroke-width="1" opacity="1"/><line transform="translate(0,156)" x2="-5" y2="0" stroke="#888" stroke-width="1" opacity="1"/><line transform="translate(0,111)" x2="-5" y2="0" stroke="#888" stroke-width="1" opacity="1"/><line transform="translate(0,67)" x2="-5" y2="0" stroke="#888" stroke-width="1" opacity="1"/><line transform="translate(0,22)" x2="-5" y2="0" stroke="#888" stroke-width="1" opacity="1"/></g><g class="mark-text role-axis-label" pointer-events="none"><text text-anchor="end" transform="translate(-7,203)" font-family="sans-serif" font-size="10px" fill="#000" opacity="1">0</text><text text-anchor="end" transform="translate(-7,158.55555555555557)" font-family="sans-serif" font-size="10px" fill="#000" opacity="1">100,000</text><text text-anchor="end" transform="translate(-7,114.11111111111111)" font-family="sans-serif" font-size="10px" fill="#000" opacity="1">200,000</text><text text-anchor="end" transform="translate(-7,69.66666666666667)" font-family="sans-serif" font-size="10px" fill="#000" opacity="1">300,000</text><text text-anchor="end" transform="translate(-7,25.222222222222232)" font-family="sans-serif" font-size="10px" fill="#000" opacity="1">400,000</text></g><g class="mark-rule role-axis-domain" pointer-events="none"><line transform="translate(0,200)" x2="0" y2="-200" stroke="#888" stroke-width="1" opacity="1"/></g><g class="mark-text role-axis-title" pointer-events="none"><text text-anchor="middle" transform="translate(-47.1474609375,100) rotate(-90) translate(0,-2)" font-family="sans-serif" font-size="11px" font-weight="bold" fill="#000" opacity="1">Nombre de trajets</text></g></g><path class="foreground" aria-hidden="true" d="" pointer-events="none" display="none"/></g></g><g class="mark-group role-scope pathgroup" role="graphics-object" aria-roledescription="group mark container"><g transform="translate(0,0)"><path class="background" aria-hidden="true" d="M0,0h400v200h-400Z"/><g><g class="mark-line role-mark marks" role="graphics-object" aria-roledescription="line mark container"><path aria-label="Date de la recherche: September 2024; Nombre de trajets: 91488; variable: disponible" role="graphics-symbol" aria-roledescription="line mark" d="M0,159.339L0.842,160.009L1.801,160.25L2.759,159.721L3.717,159.224L4.676,160.066L5.635,161.226L6.593,162.729L7.551,163.599L8.509,164.927L9.467,164.272L10.426,163.069L11.384,163.83L12.342,166.394L13.301,165.123L14.259,166.305L15.217,167.015L16.176,167.638L17.134,167.648L18.092,168.931L19.051,169.444L20.009,170.203L20.968,170.474L21.926,170.704L22.884,168.872L23.843,167.766L24.801,168.451L25.759,167.16L26.718,168.696L27.676,166.936L28.634,167.617L29.633,164.943L30.598,163.236L31.549,165.275L32.508,163.601L33.466,165.017L34.424,163.38L35.383,162.688L36.341,161.357L37.299,159.746L38.258,159.755L39.218,159.142L40.174,161.116L41.133,160.392L42.091,160.483L43.05,158.316L44.008,156.748L44.968,154.82L45.925,155.253L46.883,154.239L47.841,154.859L48.802,156.557L49.758,155.787L50.717,155.331L51.674,156.853L52.633,157.538L53.591,158.599L54.55,159.242L55.508,159.566L56.466,159.835L57.425,159.906L58.383,161.397L59.341,162.616L60.3,164.062L61.258,165.294L62.216,166.184L63.175,166.252L64.134,166.133L65.092,167.211L66.05,167.551L67.008,168.202L67.967,168.182L68.926,168.864L69.884,168.023L70.842,166.956L71.8,166.728L72.758,166.308L73.716,166.35L74.675,164.781L75.633,165.02L76.592,163.984L77.55,162.302L78.508,162.622L79.467,161.783L80.425,161.712L81.383,159.731L82.342,159.145L83.3,157.033L84.258,155.203L85.217,153.702L86.175,149.882L87.133,149.315L88.092,147.688L89.05,147.022L90.008,145.158L90.967,143.235L91.925,141.419L92.883,139.417L93.842,139.184L94.8,141.537L95.758,142.381L96.717,139.298L97.675,137.729L98.634,138.287L99.592,138.306L100.55,139.025L101.509,139.891L102.467,141.793L103.425,142.216L104.384,142.23L105.342,143.622L106.3,144.212L107.259,146.113L108.217,147.762L109.175,148.816L110.134,149.653L111.092,149.103L112.05,149.572L113.009,151.036L113.967,152.019L114.925,154.556L115.884,155.987L116.842,156.427L117.8,155.749L118.759,156.068L119.717,156.588L120.675,157.142L121.634,158.761L122.592,159.033L123.551,159.104L124.509,158.219L125.467,158.195L126.426,158.685L127.384,160.639L128.342,161.217L129.301,162.238L130.259,161.805L131.217,161.569L132.176,162.052L133.134,162.612L134.092,163.765L135.051,164.016L136.009,164.144L136.967,163.397L137.926,162.463L138.884,162.635L139.843,160.836L140.801,162.052L141.759,161.876L142.717,162.061L143.676,159.33L144.634,157.85L145.593,157.162L146.551,156.173L147.509,157.449L148.468,157.287L149.426,157.682L150.384,156.434L151.343,155.299L152.301,155.873L153.259,156.232L154.218,158.153L155.176,157.316L156.134,158.821L157.093,157.497L158.051,156.43L159.01,156.36L159.968,156.624L160.926,157.757L161.884,159.565L162.843,159.94L163.801,160.216L164.759,159.533L165.718,159.946L166.676,160.72L167.634,162.035L168.593,162.685L169.551,163.619L170.51,164.437L171.468,164.308L172.426,164.997L173.385,165.332L174.343,166.06L175.301,166.832L176.26,167.163L177.178,167.356L178.136,166.756L179.095,168.562L180.053,168.524L181.011,169.668L181.97,169.96L182.928,170.583L183.886,169.531L184.845,169.106L185.803,170.336L186.762,171.222L187.72,172.901L188.678,173.898L189.636,173.981L190.595,173.399L191.553,172.256L192.511,172.224L193.47,172.383L194.428,172.577L195.387,171.82L196.345,171.468L197.303,170.136L198.262,168.69L199.22,167.228L200.178,166.981L201.137,166.786L202.095,166.962L203.053,166.335L204.012,165.966L204.97,165.59L205.928,166.577L206.887,167.733L207.845,170.02L208.803,168.846L209.762,169.858L210.72,169.379L211.678,168.202L212.637,168.43L213.595,170.075L214.553,170.046L215.512,169.925L216.47,169.592L217.429,168.736L218.387,168.091L219.345,168.04L220.304,168.317L221.262,169.349L222.22,169.497L223.179,170.13L224.137,170.491L225.095,170.374L226.054,171.072L227.012,173.061L227.97,174.635L228.929,174.731L229.887,174.89L230.845,174.699L231.804,174.329L232.762,175.925L233.72,174.959L234.679,175.182L235.637,176.424L236.596,174.932L237.554,174.408L238.512,173.2L239.471,172.78L240.429,173.29L241.387,173.061L242.346,173.79L243.304,173.8L244.262,173.333L245.221,172.788L246.179,172.172L247.138,172.853L248.096,173.283L249.054,175.056L250.013,174.065L250.971,174.497L251.93,174.456L252.888,175.107L253.846,175.869L254.804,176.792L255.762,176.778L256.721,177.009L257.679,177.119L258.637,176.421L259.596,176.539L260.554,177.062L261.513,177.335L262.471,177.774L263.429,178.057L264.388,177.759L265.346,177.03L266.304,176.662L267.263,177.327L268.221,177.417L269.179,177.748L270.138,177.901L271.096,177.574L272.054,176.725L273.013,176.693L273.971,176.283L274.929,176.441L275.888,176.327L276.846,176.355L277.805,175.682L278.763,175.172L279.721,174.815L280.679,178.13L281.638,178.902L282.596,178.285L283.554,178.194L284.513,177.128L285.471,176.427L286.43,176.211L287.388,176.344L288.346,176.647L289.305,176.738L290.263,176.03L291.221,175.164L292.18,174.287L293.138,174.413L294.096,173.714L295.055,174.324L296.013,173.887L296.971,173.912L297.93,172.471L298.888,171.321L299.846,171.24L300.805,171.28L301.763,172.08L302.722,172.211L303.68,172.403L304.638,171.398L305.596,170.396L306.555,170.518L307.515,170.236L308.472,170.683L309.43,170.087L310.388,170.074L311.347,169.3L312.305,168.013L313.263,167.635L314.222,166.205L315.18,166.481L316.138,166.323L317.097,166.3L318.055,165.771L319.013,164.96L319.982,164.593L320.93,165.332L321.888,166.362L322.847,166.83L323.805,167.888L324.763,167.998L325.722,168.088L326.68,168.656L327.639,170.384L328.597,164.386L329.555,164.849L330.514,166.016L331.472,165.694L332.43,164.655L333.389,163.862L334.347,163.137L335.305,165.146L336.264,165.064L337.222,165.244L338.18,165.762L339.139,164.872L340.097,164.64L341.056,165.472L342.014,166.088L342.972,167.32L343.93,166.82L344.889,167.115L345.847,167.029L346.806,167.192L347.764,167.811L348.722,168.811L349.681,170.644L350.639,169.776L351.597,170.481L352.556,170.076L353.514,170.333L354.472,170.433L355.431,171.609L356.389,172.44L357.347,172.626L358.306,172.988L359.264,172.106L360.222,171.847L361.181,172.026L362.139,173.442L363.098,173.866L364.056,173.078L365.014,172.944L365.972,173.152L366.931,173.688L367.889,174.006L368.847,174.688L369.806,174.205L370.764,173.786L371.723,172.674L372.681,171.307L373.639,171.597L374.598,171.21L375.556,171.624L376.514,171.142L377.473,170.751L378.471,169.213L379.43,167.775L380.388,167.387L381.346,167.261L382.304,167.35L383.263,166.703L384.221,167.341L385.18,166.164L386.138,164.592L387.096,164.66L388.054,164.254L389.013,165.054L389.971,165.095L390.93,164.783L391.888,163.01L392.846,162.001L393.804,161.608L394.763,160.09L395.721,160.927L396.68,161.446L397.638,161.809L398.982,161.546L400,160.467" stroke="#4c78a8" stroke-width="2"/></g></g><path class="foreground" aria-hidden="true" d="" display="none"/></g><g transform="translate(0,0)"><path class="background" aria-hidden="true" d="M0,0h400v200h-400Z"/><g><g class="mark-line role-mark marks" role="graphics-object" aria-roledescription="line mark container"><path aria-label="Date de la recherche: September 2024; Nombre de trajets: 351801; variable: total" role="graphics-symbol" aria-roledescription="line mark" d="M0,43.644L0.842,43.23L1.801,43.532L2.759,43.471L3.717,43.523L4.676,42.888L5.635,42.975L6.593,43.715L7.551,43.55L8.509,43.967L9.467,43.883L10.426,43.916L11.384,43.705L12.342,43.343L13.301,45.168L14.259,47.57L15.217,49.451L16.176,50.78L17.134,51.056L18.092,51.055L19.051,50.496L20.009,50.482L20.968,50.263L21.926,50.547L22.884,50.55L23.843,50.929L24.801,51.131L25.759,50.923L26.718,51.584L27.676,51.856L28.634,52.263L29.633,52.39L30.598,52.759L31.549,52.836L32.508,52.374L33.466,53.093L34.424,53.62L35.383,53.032L36.341,52.105L37.299,52.092L38.258,52.091L39.218,51.462L40.174,51.622L41.133,41.063L42.091,40.994L43.05,38.53L44.008,35.785L44.968,33.752L45.925,31.452L46.883,31.196L47.841,31.976L48.802,32.224L49.758,32.1L50.717,32.214L51.674,43.381L52.633,42.648L53.591,31.545L54.55,31.141L55.508,31.16L56.466,30.515L57.425,30.687L58.383,30.67L59.341,41.943L60.3,41.649L61.258,29.061L62.216,29.416L63.175,28.902L64.134,29.519L65.092,29.164L66.05,28.757L67.008,28.1L67.967,27.722L68.926,26.185L69.884,25.875L70.842,25.729L71.8,25.856L72.758,25.331L73.716,37.198L74.675,25.074L75.633,25.668L76.592,25.804L77.55,25.909L78.508,26.032L79.467,25.492L80.425,25.271L81.383,25.142L82.342,25.764L83.3,26.482L84.258,26.828L85.217,27.121L86.175,26.415L87.133,25.957L88.092,26.279L89.05,27.016L90.008,27.544L90.967,27.983L91.925,28.387L92.883,27.747L93.842,27.414L94.8,27.669L95.758,28.387L96.717,28.939L97.675,29.468L98.634,29.973L99.592,29.508L100.55,29.126L101.509,29.288L102.467,30.003L103.425,30.398L104.384,30.824L105.342,31.144L106.3,30.97L107.259,41.714L108.217,30.252L109.175,30.988L110.134,31.619L111.092,31.958L112.05,32.143L113.009,31.707L113.967,31.087L114.925,31.152L115.884,31.917L116.842,32.222L117.8,32.403L118.759,32.294L119.717,31.743L120.675,31.524L121.634,31.784L122.592,32.277L123.551,32.624L124.509,32.712L125.467,32.796L126.426,32.445L127.384,31.822L128.342,31.126L129.301,31.789L130.259,32.685L131.217,33.031L132.176,33.212L133.134,32.773L134.092,33.388L135.051,33.592L136.009,34.164L136.967,35.362L137.926,35.763L138.884,35.899L139.843,35.315L140.801,35.592L141.759,36.133L142.717,36.764L143.676,37.632L144.634,37.992L145.593,38.217L146.551,48.657L147.509,49.276L148.468,49.164L149.426,49.493L150.384,49.746L151.343,49.778L152.301,38.859L153.259,38.161L154.218,37.686L155.176,37.108L156.134,37.387L157.093,37.632L158.051,37.878L159.01,37.688L159.968,36.921L160.926,36.403L161.884,35.921L162.843,36.056L163.801,35.163L164.759,34.855L165.718,34.686L166.676,33.996L167.634,34.483L168.593,35.695L169.551,36.783L170.51,36.296L171.468,35.908L172.426,35.731L173.385,34.88L174.343,34.631L175.301,34.328L176.26,34.329L177.178,33.922L178.136,33.396L179.095,33.329L180.053,33.858L181.011,34.476L181.97,35.666L182.928,36.248L183.886,37.45L184.845,37.177L185.803,37.877L186.762,37.17L187.72,38.661L188.678,39.278L189.636,39.69L190.595,40.057L191.553,40.341L192.511,40.363L193.47,39.966L194.428,40.384L195.387,40.357L196.345,40.606L197.303,39.799L198.262,38.261L199.22,37.851L200.178,37.399L201.137,37.4L202.095,37.352L203.053,37.876L204.012,38.551L204.97,38.273L205.928,38.913L206.887,40.323L207.845,42.092L208.803,42.238L209.762,41.801L210.72,41.309L211.678,41.427L212.637,41.43L213.595,40.981L214.553,41.689L215.512,42.137L216.47,40.74L217.429,38.877L218.387,38.676L219.345,38.774L220.304,38.256L221.262,39.166L222.22,39.717L223.179,40.268L224.137,39.847L225.095,39.945L226.054,40.043L227.012,39.415L227.97,39.523L228.929,39.268L229.887,39.68L230.845,39.566L231.804,39.679L232.762,39.789L233.72,39.682L234.679,40.502L235.637,40.502L236.596,38.96L237.554,37.599L238.512,49.079L239.471,48.936L240.429,47.866L241.387,35.477L242.346,34.581L243.304,34.1L244.262,32.722L245.221,30.764L246.179,29.522L247.138,28.472L248.096,27.45L249.054,26.752L250.013,26.195L250.971,24.508L251.93,23.186L252.888,22.453L253.846,21.27L254.804,20.594L255.762,19.795L256.721,19.459L257.679,18.917L258.637,18.407L259.596,17.611L260.554,15.996L261.513,14.744L262.471,13.67L263.429,13.268L264.388,11.688L265.346,10.401L266.304,9.68L267.263,8.634L268.221,7.666L269.179,6.733L270.138,6.447L271.096,6.648L272.054,6.913L273.013,7.142L273.971,6.778L274.929,6.423L275.888,6.221L276.846,6.697L277.805,6.961L278.763,6.967L279.721,6.828L280.679,6.909L281.638,6.72L282.596,6.489L283.554,6.91L284.513,7.019L285.471,7.102L286.43,7.276L287.388,7L288.346,6.7L289.305,6.562L290.263,7.013L291.221,7.419L292.18,7.774L293.138,8.004L294.096,7.824L295.055,7.632L296.013,7.624L296.971,8.608L297.93,9.588L298.888,10.514L299.846,23.998L300.805,24.18L301.763,24.671L302.722,12.251L303.68,13.22L304.638,14.339L305.596,15.249L306.555,15.966L307.515,16.04L308.472,16.588L309.43,17.289L310.388,18.311L311.347,19.453L312.305,20.548L313.263,21.367L314.222,21.895L315.18,22.307L316.138,22.592L317.097,23.508L318.055,24.434L319.013,25.478L319.982,26.376L320.93,26.459L321.888,26.994L322.847,27.342L323.805,28.512L324.763,29.606L325.722,30.551L326.68,30.946L327.639,30.848L328.597,30.833L329.555,30.717L330.514,31.369L331.472,31.672L332.43,32.168L333.389,32.468L334.347,32.252L335.305,32.707L336.264,32.744L337.222,33.391L338.18,33.776L339.139,34.194L340.097,34.264L341.056,33.874L342.014,33.784L342.972,33.23L343.93,33.629L344.889,33.935L345.847,34.376L346.806,34.532L347.764,33.903L348.722,33.763L349.681,33.499L350.639,34.137L351.597,34.408L352.556,34.85L353.514,34.911L354.472,34.408L355.431,34.312L356.389,33.871L357.347,34.43L358.306,34.635L359.264,34.972L360.222,35.029L361.181,34.567L362.139,34.906L363.098,35.273L364.056,36.404L365.014,36.064L365.972,36.193L366.931,36.184L367.889,35.46L368.847,35.25L369.806,34.94L370.764,35.736L371.723,35.958L372.681,36.317L373.639,36.487L374.598,36.016L375.556,36.638L376.514,36.584L377.473,37.003L378.471,37.092L379.43,37.367L380.388,37.441L381.346,36.927L382.304,36.857L383.263,36.367L384.221,36.565L385.18,36.544L386.138,36.812L387.096,36.737L388.054,36.034L389.013,36.394L389.971,36.221L390.93,36.347L391.888,35.854L392.846,35.315L393.804,34.461L394.763,33.782L395.721,33.904L396.68,33.897L397.638,34.39L398.982,34.251L400,34.461" stroke="#f58518" stroke-width="2"/></g></g><path class="foreground" aria-hidden="true" d="" display="none"/></g></g><g class="mark-group role-legend" role="graphics-symbol" aria-roledescription="legend" aria-label="Symbol legend for stroke color with 2 values: disponible, total"><g transform="translate(0,-29)"><path class="background" aria-hidden="true" d="M0,0h108v11h-108Z" pointer-events="none"/><g><g class="mark-group role-legend-entry"><g transform="translate(0,0)"><path class="background" aria-hidden="true" d="M0,0h0v0h0Z" pointer-events="none"/><g><g class="mark-group role-scope" role="graphics-object" aria-roledescription="group mark container"><g transform="translate(0,0)"><path class="background" aria-hidden="true" d="M0,0h61.0341796875v11h-61.0341796875Z" pointer-events="none" opacity="1"/><g><g class="mark-symbol role-legend-symbol" pointer-events="none"><path transform="translate(6,6)" d="M-5,0L5,0" stroke="#4c78a8" stroke-width="1.5" opacity="1"/></g><g class="mark-text role-legend-label" pointer-events="none"><text text-anchor="start" transform="translate(16,9)" font-family="sans-serif" font-size="10px" fill="#000" opacity="1">disponible</text></g></g><path class="foreground" aria-hidden="true" d="" pointer-events="none" display="none"/></g><g transform="translate(73,0)"><path class="background" aria-hidden="true" d="M0,0h34.9013671875v11h-34.9013671875Z" pointer-events="none" opacity="1"/><g><g class="mark-symbol role-legend-symbol" pointer-events="none"><path transform="translate(6,6)" d="M-5,0L5,0" stroke="#f58518" stroke-width="1.5" opacity="1"/></g><g class="mark-text role-legend-label" pointer-events="none"><text text-anchor="start" transform="translate(16,9)" font-family="sans-serif" font-size="10px" fill="#000" opacity="1">total</text></g></g><path class="foreground" aria-hidden="true" d="" pointer-events="none" display="none"/></g></g></g><path class="foreground" aria-hidden="true" d="" pointer-events="none" display="none"/></g></g></g><path class="foreground" aria-hidden="true" d="" pointer-events="none" display="none"/></g></g><g class="mark-group role-title"><g transform="translate(200,-46)"><path class="background" aria-hidden="true" d="M0,0h0v0h0Z" pointer-events="none"/><g><g class="mark-text role-title-text" role="graphics-symbol" aria-roledescription="title" aria-label="Title text 'Historique du nombre de trajets MAXJEUNE et au total, disponibles chaque jour'" pointer-events="none"><text text-anchor="middle" transform="translate(0,10)" font-family="sans-serif" font-size="13px" font-weight="bold" fill="#000" opacity="1">Historique du nombre de trajets MAXJEUNE et au total, disponibles chaque jour</text></g></g><path class="foreground" aria-hidden="true" d="" pointer-events="none" display="none"/></g></g></g><path class="foreground" aria-hidden="true" d="" display="none"/></g></g></g></svg>