<svg xmlns="http://www.w3.org/2000/svg" xmlns:xlink="http://www.w3.org/1999/xlink" version="1.1" class="marks" width="517" height="328" viewBox="0 0 517 328"><rect width="517" height="328" fill="white"/><g fill="none" stroke-miterlimit="10" transform="translate(64,51)"><g class="mark-group role-frame root" role="graphics-object" aria-roledescription="group mark container"><g transform="translate(0,0)"><path class="background" aria-hidden="true" d="M0.5,0.5h400v200h-400Z" stroke="#ddd"/><g><g class="mark-group role-axis" aria-hidden="true"><g transform="translate(0.5,200.5)"><path class="background" aria-hidden="true" d="M0,0h0v0h0Z" pointer-events="none"/><g><g class="mark-rule role-axis-grid" pointer-events="none"><line transform="translate(2,-200)" x2="0" y2="200" stroke="#ddd" stroke-width="1" opacity="1"/><line transform="translate(55,-200)" x2="0" y2="200" stroke="#ddd" stroke-width="1" opacity="1"/><line transform="translate(106,-200)" x2="0" y2="200" stroke="#ddd" stroke-width="1" opacity="1"/><line transform="translate(158,-200)" x2="0" y2="200" stroke="#ddd" stroke-width="1" opacity="1"/><line transform="translate(211,-200)" x2="0" y2="200" stroke="#ddd" stroke-width="1" opacity="1"/><line transform="translate(263,-200)" x2="0" y2="200" stroke="#ddd" stroke-width="1" opacity="1"/><line transform="translate(314,-200)" x2="0" y2="200" stroke="#ddd" stroke-width="1" opacity="1"/><line transform="translate(366,-200)" x2="0" y2="200" stroke="#ddd" stroke-width="1" opacity="1"/></g></g><path class="foreground" aria-hidden="true" d="" pointer-events="none" display="none"/></g></g><g class="mark-group role-axis" aria-hidden="true"><g transform="translate(0.5,0.5)"><path class="background" aria-hidden="true" d="M0,0h0v0h0Z" pointer-events="none"/><g><g class="mark-rule role-axis-grid" pointer-events="none"><line transform="translate(0,200)" x2="400" y2="0" stroke="#ddd" stroke-width="1" opacity="1"/><line transform="translate(0,150)" x2="400" y2="0" stroke="#ddd" stroke-width="1" opacity="1"/><line transform="translate(0,100)" x2="400" y2="0" stroke="#ddd" stroke-width="1" opacity="1"/><line transform="translate(0,50)" x2="400" y2="0" stroke="#ddd" stroke-width="1" opacity="1"/><line transform="translate(0,0)" x2="400" y2="0" stroke="#ddd" stroke-width="1" opacity="1"/></g></g><path class="foreground" aria-hidden="true" d="" pointer-events="none" display="none"/></g></g><g class="mark-group role-axis" role="graphics-symbol" aria-roledescription="axis" aria-label="X-axis titled 'Date de la recherche' for a time scale with values from September 2024 to August 2026"><g transform="translate(0.5,200.5)"><path class="background" aria-hidden="true" d="M0,0h0v0h0Z" pointer-events="none"/><g><g class="mark-rule role-axis-tick" pointer-events="none"><line transform="translate(2,0)" x2="0" y2="5" stroke="#888" stroke-width="1" opacity="1"/><line transform="translate(55,0)" x2="0" y2="5" stroke="#888" stroke-width="1" opacity="1"/><line transform="translate(106,0)" x2="0" y2="5" stroke="#888" stroke-width="1" opacity="1"/><line transform="translate(158,0)" x2="0" y2="5" stroke="#888" stroke-width="1" opacity="1"/><line transform="translate(211,0)" x2="0" y2="5" stroke="#888" stroke-width="1" opacity="1"/><line transform="translate(263,0)" x2="0" y2="5" stroke="#888" stroke-width="1" opacity="1"/><line transform="translate(314,0)" x2="0" y2="5" stroke="#888" stroke-width="1" opacity="1"/><line transform="translate(366,0)" x2="0" y2="5" stroke="#888" stroke-width="1" opacity="1"/></g><g class="mark-text role-axis-label" pointer-events="none"><text text-anchor="start" transform="translate(2.4904659098916024,7) rotate(45) translate(0,8)" font-family="sans-serif" font-size="10px" fill="#000" opacity="1">October 2024</text><text text-anchor="start" transform="translate(54.94758574047669,7) rotate(45) translate(0,8)" font-family="sans-serif" font-size="10px" fill="#000" opacity="1">January 2025</text><text text-anchor="start" transform="translate(106.26433340083166,7) rotate(45) translate(0,8)" font-family="sans-serif" font-size="10px" fill="#000" opacity="1">April 2025</text><text text-anchor="start" transform="translate(158.1512671463017,7) rotate(45) translate(0,8)" font-family="sans-serif" font-size="10px" fill="#000" opacity="1">July 2025</text><text text-anchor="start" transform="translate(210.6083869768868,7) rotate(45) translate(0,8)" font-family="sans-serif" font-size="10px" fill="#000" opacity="1">October 2025</text><text text-anchor="start" transform="translate(263.0655068074719,7) rotate(45) translate(0,8)" font-family="sans-serif" font-size="10px" fill="#000" opacity="1">January 2026</text><text text-anchor="start" transform="translate(314.38225446782684,7) rotate(45) translate(0,8)" font-family="sans-serif" font-size="10px" fill="#000" opacity="1">April 2026</text><text text-anchor="start" transform="translate(366.26918821329684,7) rotate(45) translate(0,8)" font-family="sans-serif" font-size="10px" fill="#000" opacity="1">July 2026</text></g><g class="mark-rule role-axis-domain" pointer-events="none"><line transform="translate(0,0)" x2="400" y2="0" stroke="#888" stroke-width="1" opacity="1"/></g><g class="mark-text role-axis-title" pointer-events="none"><text text-anchor="middle" transform="translate(200,69.92215307214985)" font-family="sans-serif" font-size="11px" font-weight="bold" fill="#000" opacity="1">Date de la recherche</text></g></g><path class="foreground" aria-hidden="true" d="" pointer-events="none" display="none"/></g></g><g class="mark-group role-axis" role="graphics-symbol" aria-roledescription="axis" aria-label="Y-axis titled 'Nombre de trajets' for a linear scale with values from 0 to 400,000"><g transform="translate(0.5,0.5)"><path class="background" aria-hidden="true" d="M0,0h0v0h0Z" pointer-events="none"/><g><g class="mark-rule role-axis-tick" pointer-events="none"><line transform="translate(0,200)" x2="-5" y2="0" stroke="#888" stroke-width="1" opacity="1"/><line transform="translate(0,150)" x2="-5" y2="0" stroke="#888" stroke-width="1" opacity="1"/><line transform="translate(0,100)" x2="-5" y2="0" stroke="#888" stroke-width="1" opacity="1"/><line transform="translate(0,50)" x2="-5" y2="0" stroke="#888" stroke-width="1" opacity="1"/><line transform="translate(0,0)" x2="-5" y2="0" stroke="#888" stroke-width="1" opacity="1"/></g><g class="mark-text role-axis-label" pointer-events="none"><text text-anchor="end" transform="translate(-7,203)" font-family="sans-serif" font-size="10px" fill="#000" opacity="1">0</text><text text-anchor="end" transform="translate(-7,153)" font-family="sans-serif" font-size="10px" fill="#000" opacity="1">100,000</text><text text-anchor="end" transform="translate(-7,103)" font-family="sans-serif" font-size="10px" fill="#000" opacity="1">200,000</text><text text-anchor="end" transform="translate(-7,53)" font-family="sans-serif" font-size="10px" fill="#000" opacity="1">300,000</text><text text-anchor="end" transform="translate(-7,3)" font-family="sans-serif" font-size="10px" fill="#000" opacity="1">400,000</text></g><g class="mark-rule role-axis-domain" pointer-events="none"><line transform="translate(0,200)" x2="0" y2="-200" stroke="#888" stroke-width="1" opacity="1"/></g><g class="mark-text role-axis-title" pointer-events="none"><text text-anchor="middle" transform="translate(-47.1474609375,100) rotate(-90) translate(0,-2)" font-family="sans-serif" font-size="11px" font-weight="bold" fill="#000" opacity="1">Nombre de trajets</text></g></g><path class="foreground" aria-hidden="true" d="" pointer-events="none" display="none"/></g></g><g class="mark-group role-scope pathgroup" role="graphics-object" aria-roledescription="group mark container"><g transform="translate(0,0)"><path class="background" aria-hidden="true" d="M0,0h400v200h-400Z"/><g><g class="mark-line role-mark marks" role="graphics-object" aria-roledescription="line mark container"><path aria-label="Date de la recherche: September 2024; Nombre de trajets: 90064; variable: disponible" role="graphics-symbol" aria-roledescription="line mark" d="M0,154.968L0.501,155.733L1.071,155.849L1.641,155.249L2.212,154.706L2.782,155.647L3.352,156.936L3.923,158.611L4.492,159.578L5.063,161.051L5.633,160.232L6.203,158.887L6.773,159.757L7.343,162.622L7.914,161.186L8.484,162.517L9.054,163.314L9.624,164.01L10.194,164.032L10.764,165.467L11.335,166.043L11.905,166.883L12.475,167.187L13.045,167.45L13.615,165.395L14.186,164.165L14.756,164.939L15.326,163.463L15.896,165.186L16.466,163.209L17.037,163.971L17.607,160.982L18.181,159.082L18.747,161.376L19.317,159.478L19.887,161.072L20.458,159.24L21.028,158.471L21.598,156.976L22.168,155.186L22.738,155.206L23.31,154.501L23.879,156.687L24.449,155.87L25.019,155.975L25.589,153.544L26.159,151.81L26.731,149.657L27.3,150.119L27.87,148.968L28.44,149.665L29.012,151.587L29.581,150.725L30.151,150.247L30.721,151.977L31.291,152.725L31.861,153.898L32.431,154.616L33.002,154.978L33.572,155.274L34.142,155.354L34.712,157.015L35.282,158.365L35.853,159.98L36.423,161.327L36.993,162.333L37.563,162.388L38.134,162.251L38.704,163.458L39.274,163.83L39.844,164.564L40.414,164.539L40.985,165.319L41.555,164.379L42.125,163.203L42.695,162.973L43.265,162.518L43.835,162.586L44.405,160.835L44.976,161.142L45.546,159.983L46.116,158.101L46.686,158.467L47.256,157.526L47.826,157.444L48.397,155.239L48.967,154.588L49.537,152.251L50.107,150.225L50.677,148.563L51.248,144.291L51.818,143.67L52.388,141.894L52.958,141.173L53.528,139.108L54.099,136.98L54.669,134.989L55.239,132.763L55.809,132.524L56.379,135.188L56.949,136.135L57.52,132.697L58.09,130.95L58.66,131.578L59.23,131.561L59.8,132.339L60.371,133.284L60.941,135.399L61.511,135.847L62.081,135.858L62.651,137.406L63.222,138.04L63.792,140.126L64.362,141.915L64.932,143.074L65.502,143.981L66.072,143.375L66.643,143.9L67.213,145.535L67.783,146.599L68.353,149.389L68.923,150.987L69.494,151.445L70.064,150.679L70.634,151.062L71.204,151.618L71.774,152.229L72.344,154.046L72.915,154.351L73.485,154.412L74.055,153.406L74.625,153.367L75.195,153.888L75.766,156.04L76.336,156.669L76.906,157.81L77.476,157.313L78.046,157.047L78.617,157.575L79.187,158.166L79.757,159.431L80.327,159.706L80.897,159.848L81.467,158.995L82.038,157.945L82.608,158.136L83.178,156.106L83.748,157.462L84.318,157.265L84.889,157.476L85.459,154.421L86.029,152.787L86.599,152.041L87.169,150.938L87.739,152.365L88.31,152.195L88.88,152.643L89.45,151.262L90.02,150.001L90.59,150.645L91.161,151.037L91.731,153.158L92.301,152.225L92.871,153.922L93.441,152.442L94.012,151.259L94.582,151.191L95.152,151.477L95.722,152.743L96.292,154.781L96.862,155.208L97.433,155.551L98.003,154.8L98.573,155.283L99.143,156.148L99.713,157.605L100.284,158.325L100.854,159.373L101.424,160.304L101.994,160.171L102.564,160.969L103.135,161.308L103.705,162.091L104.275,162.944L104.845,163.317L105.415,163.501L105.985,162.836L106.556,164.858L107.126,164.829L107.696,166.086L108.266,166.43L108.836,167.135L109.407,165.96L109.977,165.495L110.547,166.877L111.117,167.849L111.687,169.688L112.258,170.789L112.828,170.875L113.398,170.221L113.968,168.943L114.538,168.904L115.108,169.053L115.679,169.255L116.249,168.412L116.819,168.02L117.389,166.532L117.959,164.924L118.53,163.313L119.1,163.048L119.67,162.82L120.24,162.997L120.81,162.291L121.38,161.905L121.951,161.49L122.521,162.601L123.091,163.887L123.661,166.459L124.231,165.131L124.802,166.265L125.372,165.732L125.942,164.419L126.512,164.685L127.082,166.554L127.652,166.527L128.223,166.396L128.793,166.035L129.363,165.078L129.933,164.366L130.503,164.313L131.074,164.62L131.644,165.77L132.214,165.935L132.784,166.64L133.354,167.049L133.925,166.921L134.495,167.69L135.065,169.905L135.635,171.652L136.205,171.735L136.775,171.918L137.346,171.688L137.916,171.282L138.486,173.049L139.056,171.97L139.626,172.23L140.197,173.612L140.767,171.945L141.337,171.366L141.907,170.02L142.477,169.554L143.048,170.116L143.618,169.844L144.188,170.659L144.758,170.679L145.328,170.16L145.899,169.553L146.469,168.868L147.039,169.634L147.609,170.104L148.179,172.084L148.75,170.968L149.32,171.455L149.89,171.414L150.46,172.162L151.03,173L151.6,174.038L152.17,174.015L152.741,174.271L153.311,174.377L153.881,173.602L154.451,173.737L155.021,174.319L155.592,174.612L156.162,175.106L156.732,175.429L157.302,175.097L157.872,174.282L158.443,173.871L159.013,174.614L159.583,174.699L160.153,175.073L160.723,175.245L161.294,174.872L161.864,173.92L162.434,173.889L163.004,173.422L163.574,173.601L164.145,173.471L164.715,173.506L165.285,172.75L165.855,172.175L166.425,171.774L166.995,175.505L167.566,176.378L168.136,175.686L168.706,175.588L169.276,174.388L169.846,173.605L170.417,173.373L170.987,173.515L171.557,173.844L172.127,173.947L172.697,173.151L173.267,172.167L173.838,171.187L174.408,171.332L174.978,170.541L175.548,171.215L176.118,170.732L176.688,170.771L177.259,169.151L177.829,167.868L178.399,167.786L178.969,167.82L179.539,168.715L180.11,168.859L180.68,169.08L181.25,167.953L181.82,166.84L182.39,166.977L182.961,166.657L183.531,167.146L184.101,166.484L184.671,166.475L185.241,165.623L185.812,164.178L186.382,163.778L186.952,162.162L187.522,162.437L188.092,162.265L188.662,162.317L189.233,161.742L189.803,160.848L190.379,160.444L190.943,161.271L191.513,162.424L192.084,163.016L192.654,164.217L193.224,164.319L193.794,164.418L194.364,165.054L194.934,166.983L195.505,160.232L196.075,160.738L196.645,162.052L197.215,161.678L197.785,160.509L198.356,159.6L198.926,158.795L199.496,161.033L200.066,160.935L200.636,161.135L201.207,161.704L201.777,160.708L202.347,160.444L202.917,161.365L203.487,162.053L204.058,163.443L204.628,162.892L205.198,163.207L205.768,163.107L206.338,163.285L206.908,163.972L207.479,165.093L208.049,167.142L208.619,166.188L209.189,166.971L209.759,166.514L210.329,166.797L210.9,166.898L211.47,168.219L212.04,169.148L212.61,169.359L213.18,169.754L213.751,168.774L214.321,168.487L214.891,168.685L215.461,170.267L216.031,170.754L216.602,169.882L217.172,169.748L217.742,169.979L218.312,170.59L218.882,170.941L219.452,171.71L220.023,171.203L220.593,170.738L221.163,169.486L221.733,167.974L222.303,168.298L222.874,167.867L223.444,168.346L224.014,167.821L224.584,167.402L225.154,165.689L225.725,164.094L226.295,163.656L226.865,163.5L227.435,163.587L228.005,162.873L228.575,163.597L229.146,162.261L229.716,160.504L230.286,160.572L230.856,160.1L231.426,160.98L231.997,161.035L232.567,160.705L233.137,158.704L233.707,157.564L234.277,157.112L234.847,155.393L235.418,156.323L235.988,156.904L236.558,157.334L237.358,157.028L237.963,155.821L238.514,156.472L239.083,157.061L239.653,158.366L239.979,159.443L240.549,159.592L241.12,159.266L241.69,159.113L242.26,159.8L242.83,160.641L243.4,162.019L244.229,163.283L244.785,164.362L245.355,165.269L245.925,165.269L246.495,165.882L247.066,166.94L247.636,168.382L248.206,169.732L248.776,170.182L249.346,169.737L249.917,168.081L250.488,167.658L251.06,167.31L251.628,167.822L252.198,166.598L252.767,166.586L253.338,165.885L253.664,164.085L254.234,164.059L254.804,164.067L255.374,164.733L255.944,162.967L256.515,163.781L257.085,161.834L257.655,160.089L258.225,158.98L258.795,156.998L259.365,156.787L259.936,155.466L260.506,154.703L261.076,152.749L261.646,150.484L262.216,148.73L262.787,147.071L263.357,146.313L263.927,145.653L264.497,144.94L265.067,142.597L265.638,140.436L266.208,135.323L266.778,136.51L267.348,186.612L267.918,142.499L268.488,144.484L269.059,144.958L269.629,143.886L270.199,142.659L270.769,144.224L271.339,147.405L271.91,149.643L272.48,150.798L273.05,152.713L273.62,151.395L274.19,151.076L275.006,152.824L275.576,156.59L276.146,157.584L276.716,157.599L277.286,158.775L277.857,157.593L278.427,158.066L278.998,159.612L279.569,161.791L280.138,162.439L280.708,161.866L281.278,161.353L282.419,159.422L282.989,158.908L283.559,160.134L284.129,160.994L284.7,160.624L285.27,162.154L285.84,160.64L286.411,160.16L286.981,162.131L287.551,162.968L288.121,165.794L288.692,164.55L289.261,164.01L289.831,162.283L290.403,162.883L290.972,164.48L291.542,166.041L292.112,165.287L292.682,157.145L293.252,155.509L293.823,152.648L294.393,150.842L294.963,151.924L295.533,153.325L296.103,153.163L296.673,153.38L297.243,152.399L297.816,149.456L298.384,147.11L298.954,151.1L299.524,153.679L300.095,155.268L300.664,155.663L301.234,156.453L301.805,154.444L302.432,157.331L302.945,155.027L303.515,157.028L304.086,158.713L304.656,159.183L305.226,159.058L305.798,157.368L306.367,156.17L306.937,157.493L307.508,158.891L308.077,159.772L308.647,159.804L309.217,160.852L309.788,159.328L310.359,159.454L310.928,160.263L311.498,162.363L312.069,163.375L312.639,163.219L313.209,163.618L313.779,162.513L314.35,163.617L314.92,166.213L315.49,167.492L316.062,168.22L316.63,167.684L317.2,166.231L317.771,165.418L318.342,162.63L318.911,162.329L319.482,165.363L320.052,166.432L320.621,167.006L321.192,167.114L321.763,165.606L322.334,166.39L322.903,169.147L323.473,170.416L324.043,171.303L324.613,170.868L325.183,170.361L325.754,168.448L326.324,167.833L326.895,169.48L327.464,171.923L328.034,171.957L328.604,171.626L329.175,171.257L329.746,169.863L330.317,170.026L330.887,171.757L331.456,173.432L332.026,173.786L332.596,172.98L333.166,173.008L333.739,171.686L334.308,171.955L334.879,173.996L335.45,176.16L336.019,176.206L336.587,175.764L337.158,175.52L337.729,174.699L338.301,174.605L338.872,176.335L339.441,177.263L340.01,177.601L340.579,176.626L341.15,175.119L341.721,173.596L342.293,173.364L342.865,174.979L343.435,176.135L344.002,176.146L344.571,175.688L345.142,174.663L345.713,173.213L346.286,171.439L346.858,171.314L347.427,173.985L347.997,174.964L348.563,174.958L349.134,174.471L349.713,172.756L350.283,172.646L350.854,175.347L351.419,176.283L351.986,176.951L352.556,176.495L353.126,176.959L353.7,176.336L354.271,177.427L354.842,179.275L355.412,180.343L355.98,179.645L356.547,179.364L357.118,179.946L357.696,179.177L358.263,179.681L358.832,181.224L359.405,182.289L359.966,182.461L360.539,182.09L361.109,181.819L361.683,181.911L362.25,181.943L362.82,182.117L363.392,182.424L363.96,182.771L364.529,182.943L365.099,182.865L365.668,182.233L366.242,181.968L366.812,182.655L367.38,184.191L367.949,183.772L368.519,183.955L369.09,184.191L369.662,183.16L370.231,183.563L370.801,184.258L371.374,184.504L371.941,183.656L372.509,182.757L373.082,183.347L373.651,182.955L374.221,182.663L374.791,183.048L375.93,183.317L376.5,182.808L377.071,182.046L377.642,180.681L378.212,180.789L378.783,180.965L379.353,182.024L379.924,181.847L380.493,180.594L381.064,180.113L381.634,178.63L382.204,179.719L382.774,181.319L383.346,183.071L383.915,182.819L384.484,181.276L385.055,179.744L385.625,178.025L386.196,177.49L386.783,177.153L387.404,181.051L387.913,178.295L388.48,177.879L389.051,177.201L389.624,176.215L390.197,176.013L390.767,176.876L391.337,177.833L391.899,177.255L392.468,175.954L393.038,175.151L393.609,173.978L394.179,172.442L394.75,172.543L395.322,173.315L395.89,173.046L396.459,172.43L397.029,171.785L397.602,170.11L398.173,169.165L398.851,171.255L399.488,168.548L400,170.555" stroke="#4c78a8" stroke-width="2"/></g></g><path class="foreground" aria-hidden="true" d="" display="none"/></g><g transform="translate(0,0)"><path class="background" aria-hidden="true" d="M0,0h400v200h-400Z"/><g><g class="mark-line role-mark marks" role="graphics-object" aria-roledescription="line mark container"><path aria-label="Date de la recherche: September 2024; Nombre de trajets: 316947; variable: total" role="graphics-symbol" aria-roledescription="line mark" d="M0,41.527L0.501,41.049L1.071,41.365L1.641,41.288L2.212,41.358L2.782,40.661L3.352,40.8L3.923,41.647L4.492,41.43L5.063,41.781L5.633,41.611L6.203,41.656L6.773,41.43L7.343,41.03L7.914,43.01L8.484,45.596L9.054,47.643L9.624,49.087L10.194,49.384L10.764,49.365L11.335,48.839L11.905,48.832L12.475,48.585L13.045,48.91L13.615,48.899L14.186,49.331L14.756,49.564L15.326,49.321L15.896,50.066L16.466,50.34L17.037,50.805L17.607,50.942L18.181,51.354L18.747,51.45L19.317,50.957L19.887,51.726L20.458,52.334L21.028,51.669L21.598,50.57L22.168,50.564L22.738,50.562L23.31,49.876L23.879,50.093L24.449,38.228L25.019,38.143L25.589,35.371L26.159,32.326L26.731,30.021L27.3,27.456L27.87,27.215L28.44,28.117L29.012,28.444L29.581,28.367L30.151,28.557L30.721,41.151L31.291,40.42L31.861,28.041L32.431,27.611L33.002,27.705L33.572,27.039L34.142,27.306L34.712,27.371L35.282,40.039L35.853,39.766L36.423,25.754L36.993,26.212L37.563,25.675L38.134,26.382L38.704,26.069L39.274,25.719L39.844,25.039L40.414,24.65L40.985,23.12L41.555,22.817L42.125,22.71L42.695,22.94L43.265,22.407L43.835,35.535L44.405,22.16L44.976,22.744L45.546,22.89L46.116,23.04L46.686,23.195L47.256,22.626L47.826,22.355L48.397,22.304L48.967,22.991L49.537,23.55L50.107,24.107L50.677,24.576L51.248,23.818L51.818,23.341L52.388,23.676L52.958,24.5L53.528,25.115L54.099,25.657L54.669,26.126L55.239,25.436L55.809,24.98L56.379,25.17L56.949,25.974L57.52,26.597L58.09,27.242L58.66,27.815L59.23,27.286L59.8,26.791L60.371,26.904L60.941,27.712L61.511,28.178L62.081,28.689L62.651,29.084L63.222,28.919L63.792,40.807L64.362,28.083L64.932,28.901L65.502,29.61L66.072,30.048L66.643,30.29L67.213,29.815L67.783,29.11L68.353,28.935L68.923,29.696L69.494,30.018L70.064,30.221L70.634,30.265L71.204,29.649L71.774,29.249L72.344,29.627L72.915,30.194L73.485,30.682L74.055,30.869L74.625,31.018L75.195,30.63L75.766,29.898L76.336,29.063L76.906,29.787L77.476,30.791L78.046,31.233L78.617,31.43L79.187,30.925L79.757,31.398L80.327,31.486L80.897,32.116L81.467,33.46L82.038,33.938L82.608,34.14L83.178,33.49L83.748,33.675L84.318,34.13L84.889,34.822L85.459,35.822L86.029,36.272L86.599,36.531L87.169,48.092L87.739,48.7L88.31,48.537L88.88,48.953L89.45,49.309L90.02,49.441L90.59,37.403L91.161,36.658L91.731,36.172L92.301,35.573L92.871,35.953L93.441,36.352L94.012,36.749L94.582,36.606L95.152,35.803L95.722,35.27L96.292,34.746L96.862,34.945L97.433,34.238L98.003,34.09L98.573,33.953L99.143,33.214L99.713,33.749L100.284,35.042L100.854,36.193L101.424,35.709L101.994,35.329L102.564,35.163L103.135,34.246L103.705,33.944L104.275,33.472L104.845,33.717L105.415,33.352L105.985,32.816L106.556,32.633L107.126,33.048L107.696,33.438L108.266,34.651L108.836,35.16L109.407,36.488L109.977,36.186L110.547,36.929L111.117,35.987L111.687,37.685L112.258,38.249L112.828,38.674L113.398,39.089L113.968,39.408L114.538,39.365L115.108,38.758L115.679,39.11L116.249,38.964L116.819,39.274L117.389,38.372L117.959,36.711L118.53,36.258L119.1,35.788L119.67,35.793L120.24,35.479L120.81,35.973L121.38,36.414L121.951,36.152L122.521,36.902L123.091,38.521L123.661,40.467L124.231,40.691L124.802,40.384L125.372,40.043L125.942,40.336L126.512,40.649L127.082,40.256L127.652,41.172L128.223,41.592L128.793,40.08L129.363,38.132L129.933,38.1L130.503,38.331L131.074,37.88L131.644,38.948L132.214,39.611L132.784,40.357L133.354,40.06L133.925,40.349L134.495,40.586L135.065,40.189L135.635,40.399L136.205,40.158L136.775,40.715L137.346,40.699L137.916,40.983L138.486,41.231L139.056,41.256L139.626,42.185L140.197,42.09L140.767,40.438L141.337,39.02L141.907,52.049L142.477,51.912L143.048,50.752L143.618,36.969L144.188,35.983L144.758,35.548L145.328,34.173L145.899,32.211L146.469,30.981L147.039,29.89L147.609,28.866L148.179,28.1L148.75,27.683L149.32,25.971L149.89,24.683L150.46,23.962L151.03,22.735L151.6,22.033L152.17,21.19L152.741,20.884L153.311,20.419L153.881,19.985L154.451,19.168L155.021,17.456L155.592,16.19L156.162,15.035L156.732,14.634L157.302,13.064L157.872,11.864L158.443,11.148L159.013,10.03L159.583,9.048L160.153,8.079L160.723,7.898L161.294,8.097L161.864,8.432L162.434,8.631L163.004,8.218L163.574,7.851L164.145,7.582L164.715,8.117L165.285,8.381L165.855,8.445L166.425,8.299L166.995,8.35L167.566,8.168L168.136,7.874L168.706,8.324L169.276,8.467L169.846,8.599L170.417,8.763L170.987,8.411L171.557,8.105L172.127,7.916L172.697,8.394L173.267,8.785L173.838,9.192L174.408,9.444L174.978,9.189L175.548,8.868L176.118,8.691L176.688,9.589L177.259,10.45L177.829,11.298L178.399,26.241L178.969,26.255L179.539,26.615L180.11,12.424L180.68,13.281L181.25,14.295L181.82,15.142L182.39,15.736L182.961,15.622L183.531,16.027L184.101,16.613L184.671,17.571L185.241,18.592L185.812,19.595L186.382,20.28L186.952,21.004L187.522,21.29L188.092,21.409L188.662,22.259L189.233,23.083L189.803,24.075L190.379,24.892L190.943,24.815L191.513,25.244L192.084,25.441L192.654,26.561L193.224,27.699L193.794,28.712L194.364,29.141L194.934,29.038L195.505,28.923L196.075,28.652L196.645,29.351L197.215,29.653L197.785,30.2L198.356,30.52L198.926,30.271L199.496,30.71L200.066,30.667L200.636,31.361L201.207,31.769L201.777,32.228L202.347,32.306L202.917,31.876L203.487,31.782L204.058,31.17L204.628,31.611L205.198,31.946L205.768,32.459L206.338,32.654L206.908,31.981L207.479,31.844L208.049,31.574L208.619,32.295L209.189,32.595L209.759,33.111L210.329,33.202L210.9,32.672L211.47,32.566L212.04,32.081L212.61,32.709L213.18,33.048L213.751,33.56L214.321,33.638L214.891,33.176L215.461,33.573L216.031,33.975L216.602,35.29L217.172,34.936L217.742,35.158L218.312,35.173L218.882,34.383L219.452,34.136L220.023,33.757L220.593,34.643L221.163,34.921L221.733,35.372L222.303,35.572L222.874,35.004L223.444,35.725L224.014,35.591L224.584,36.046L225.154,36.129L225.725,36.411L226.295,36.495L226.865,35.929L227.435,35.871L228.005,35.301L228.575,35.509L229.146,35.509L229.716,35.814L230.286,35.738L230.856,34.966L231.426,35.394L231.997,35.18L232.567,35.303L233.137,34.746L233.707,34.16L234.277,33.165L234.847,32.445L235.418,32.579L235.988,32.374L236.558,32.739L237.358,32.449L237.963,32.556L238.514,32.219L239.083,31.284L239.653,30.231L239.979,29.282L240.549,29.126L241.12,27.921L241.69,27.676L242.26,27.879L242.83,27.284L243.4,26.502L244.229,25.553L244.785,25.661L245.355,24.935L245.925,25.109L246.495,39.657L247.066,25.119L247.636,24.443L248.206,23.78L248.776,24.181L249.346,23.443L249.917,23.422L250.488,23.494L251.06,22.861L251.628,22.395L252.198,21.859L252.767,22.405L253.338,22.175L253.664,22.17L254.234,22.253L254.804,21.71L255.374,21.394L255.944,21.258L256.515,21.857L257.085,22.439L257.655,23.033L258.225,23.395L258.795,23.27L259.365,23.237L259.936,22.803L260.506,23.117L261.076,23.798L261.646,24.517L262.216,24.92L262.787,25.031L263.357,24.564L263.927,24.028L264.497,24.176L265.067,24.738L265.638,25.347L266.208,25.513L266.778,24.879L267.348,178.925L267.918,24.768L268.488,25.453L269.059,25.789L269.629,26.089L270.199,26.18L270.769,25.529L271.339,24.935L271.91,25.871L272.48,26.7L273.05,26.965L273.62,27.343L274.19,27.483L275.006,26.915L275.576,25.784L276.146,25.331L276.716,25.67L277.286,26.047L277.857,26.418L278.427,26.584L278.998,25.747L279.569,24.838L280.138,24.454L280.708,25.225L281.278,25.757L282.419,26.757L282.989,20.622L283.559,19.107L284.129,19.508L284.7,19.581L285.27,22.066L285.84,20.829L286.411,21.273L286.981,22.379L287.551,21.385L288.121,28.397L288.692,29.265L289.261,30.309L289.831,30.947L290.403,31.184L290.972,31.307L291.542,30.804L292.112,43.911L292.682,30.944L293.252,32.2L293.823,32.687L294.393,32.757L294.963,32.246L295.533,32.696L296.103,32.761L296.673,33.153L297.243,33.895L297.816,34.136L298.384,33.849L298.954,46.143L299.524,33.753L300.095,47.188L300.664,34.039L301.234,34.177L301.805,34.329L302.432,33.267L302.945,33.268L303.515,32.668L304.086,32.063L304.656,32.191L305.226,31.584L305.798,31.104L306.367,30.611L306.937,29.618L307.508,28.862L308.077,28.18L308.647,28.195L309.217,27.639L309.788,27.317L310.359,26.919L310.928,26.202L311.498,25.59L312.069,25.094L312.639,24.981L313.209,24.293L313.779,24.025L314.35,23.605L314.92,23.514L315.49,38.195L316.062,23.591L316.63,23.62L317.2,23.126L317.771,22.481L318.342,21.836L318.911,22.956L319.482,24.642L320.052,25.048L320.621,25.572L321.192,25.685L321.763,25.649L322.334,26.46L322.903,28.086L323.473,29.301L324.043,29.777L324.613,30.062L325.183,30.337L325.754,30.683L326.324,30.862L326.895,30.483L327.464,31.076L328.034,32.202L328.604,32.795L329.175,32.826L329.746,33.245L330.317,33.375L330.887,32.973L331.456,34.928L332.026,37.514L332.596,36.911L333.166,36.672L333.739,37.031L334.308,37.233L334.879,36.831L335.45,37.958L336.019,38.688L336.587,37.592L337.158,35.882L337.729,35.505L338.301,35.705L338.872,35.534L339.441,37.132L340.01,36.506L340.579,34.895L341.15,33.21L341.721,32.989L342.293,33.196L342.865,32.891L343.435,34.187L344.002,34.311L344.571,34.83L345.142,34.581L345.713,33.776L346.286,33.948L346.858,33.8L347.427,33.731L347.997,33.793L348.563,33.977L349.134,32.434L349.713,32.262L350.283,32.271L350.854,33.838L351.419,31.081L351.986,29.878L352.556,29.621L353.126,27.811L353.7,26.97L354.271,26.513L354.842,24.832L355.412,22.982L355.98,21.944L356.547,21.636L357.118,19.741L357.696,18.955L358.263,18.282L358.832,17.225L359.405,16.294L359.966,15.385L360.539,15.522L361.109,13.793L361.683,13.233L362.25,12.636L362.82,11.626L363.392,10.479L363.96,9.595L364.529,9.612L365.099,8.875L365.668,8.211L366.242,7.492L366.812,6.448L367.38,5.774L367.949,5.453L368.519,5.497L369.09,5.292L369.662,5.518L370.231,5.651L370.801,5.245L371.374,4.994L371.941,4.767L372.509,5.143L373.082,5.462L373.651,5.791L374.221,5.815L374.791,5.767L375.93,5.376L376.5,5.895L377.071,6.157L377.642,6.451L378.212,6.577L378.783,6.159L379.353,5.872L379.924,5.651L380.493,5.919L381.064,6.223L381.634,6.51L382.204,6.847L382.774,6.71L383.346,6.109L383.915,5.991L384.484,6.075L385.055,6.921L385.625,7.658L386.196,8.129L386.783,8.048L387.404,8.518L387.913,8.483L388.48,9.289L389.051,10.048L389.624,10.722L390.197,11.227L390.767,11.136L391.337,11.641L391.899,11.602L392.468,12.479L393.038,13.244L393.609,14.031L394.179,14.675L394.75,14.834L395.322,15.833L395.89,16.088L396.459,17.119L397.029,17.908L397.602,18.766L398.173,19.502L398.851,20.483L399.488,21.194L400,22.329" stroke="#f58518" stroke-width="2"/></g></g><path class="foreground" aria-hidden="true" d="" display="none"/></g></g><g class="mark-group role-legend" role="graphics-symbol" aria-roledescription="legend" aria-label="Symbol legend for stroke color with 2 values: disponible, total"><g transform="translate(0,-29)"><path class="background" aria-hidden="true" d="M0,0h108v11h-108Z" pointer-events="none"/><g><g class="mark-group role-legend-entry"><g transform="translate(0,0)"><path class="background" aria-hidden="true" d="M0,0h0v0h0Z" pointer-events="none"/><g><g class="mark-group role-scope" role="graphics-object" aria-roledescription="group mark container"><g transform="translate(0,0)"><path class="background" aria-hidden="true" d="M0,0h61.0341796875v11h-61.0341796875Z" pointer-events="none" opacity="1"/><g><g class="mark-symbol role-legend-symbol" pointer-events="none"><path transform="translate(6,6)" d="M-5,0L5,0" stroke="#4c78a8" stroke-width="1.5" opacity="1"/></g><g class="mark-text role-legend-label" pointer-events="none"><text text-anchor="start" transform="translate(16,9)" font-family="sans-serif" font-size="10px" fill="#000" opacity="1">disponible</text></g></g><path class="foreground" aria-hidden="true" d="" pointer-events="none" display="none"/></g><g transform="translate(73,0)"><path class="background" aria-hidden="true" d="M0,0h34.9013671875v11h-34.9013671875Z" pointer-events="none" opacity="1"/><g><g class="mark-symbol role-legend-symbol" pointer-events="none"><path transform="translate(6,6)" d="M-5,0L5,0" stroke="#f58518" stroke-width="1.5" opacity="1"/></g><g class="mark-text role-legend-label" pointer-events="none"><text text-anchor="start" transform="translate(16,9)" font-family="sans-serif" font-size="10px" fill="#000" opacity="1">total</text></g></g><path class="foreground" aria-hidden="true" d="" pointer-events="none" display="none"/></g></g></g><path class="foreground" aria-hidden="true" d="" pointer-events="none" display="none"/></g></g></g><path class="foreground" aria-hidden="true" d="" pointer-events="none" display="none"/></g></g><g class="mark-group role-title"><g transform="translate(200,-46)"><path class="background" aria-hidden="true" d="M0,0h0v0h0Z" pointer-events="none"/><g><g class="mark-text role-title-text" role="graphics-symbol" aria-roledescription="title" aria-label="Title text 'Historique du nombre de trajets MAXJEUNE et au total, disponibles chaque jour'" pointer-events="none"><text text-anchor="middle" transform="translate(0,10)" font-family="sans-serif" font-size="13px" font-weight="bold" fill="#000" opacity="1">Historique du nombre de trajets MAXJEUNE et au total, disponibles chaque jour</text></g></g><path class="foreground" aria-hidden="true" d="" pointer-events="none" display="none"/></g></g></g><path class="foreground" aria-hidden="true" d="" display="none"/></g></g></g></svg>