<svg xmlns="http://www.w3.org/2000/svg" xmlns:xlink="http://www.w3.org/1999/xlink" version="1.1" class="marks" width="517" height="336" viewBox="0 0 517 336"><rect width="517" height="336" fill="white"/><g fill="none" stroke-miterlimit="10" transform="translate(64,51)"><g class="mark-group role-frame root" role="graphics-object" aria-roledescription="group mark container"><g transform="translate(0,0)"><path class="background" aria-hidden="true" d="M0.5,0.5h400v200h-400Z" stroke="#ddd"/><g><g class="mark-group role-axis" aria-hidden="true"><g transform="translate(0.5,200.5)"><path class="background" aria-hidden="true" d="M0,0h0v0h0Z" pointer-events="none"/><g><g class="mark-rule role-axis-grid" pointer-events="none"><line transform="translate(4,-200)" x2="0" y2="200" stroke="#ddd" stroke-width="1" opacity="1"/><line transform="translate(33,-200)" x2="0" y2="200" stroke="#ddd" stroke-width="1" opacity="1"/><line transform="translate(62,-200)" x2="0" y2="200" stroke="#ddd" stroke-width="1" opacity="1"/><line transform="translate(91,-200)" x2="0" y2="200" stroke="#ddd" stroke-width="1" opacity="1"/><line transform="translate(121,-200)" x2="0" y2="200" stroke="#ddd" stroke-width="1" opacity="1"/><line transform="translate(147,-200)" x2="0" y2="200" stroke="#ddd" stroke-width="1" opacity="1"/><line transform="translate(177,-200)" x2="0" y2="200" stroke="#ddd" stroke-width="1" opacity="1"/><line transform="translate(205,-200)" x2="0" y2="200" stroke="#ddd" stroke-width="1" opacity="1"/><line transform="translate(234,-200)" x2="0" y2="200" stroke="#ddd" stroke-width="1" opacity="1"/><line transform="translate(263,-200)" x2="0" y2="200" stroke="#ddd" stroke-width="1" opacity="1"/><line transform="translate(292,-200)" x2="0" y2="200" stroke="#ddd" stroke-width="1" opacity="1"/><line transform="translate(321,-200)" x2="0" y2="200" stroke="#ddd" stroke-width="1" opacity="1"/><line transform="translate(350,-200)" x2="0" y2="200" stroke="#ddd" stroke-width="1" opacity="1"/><line transform="translate(379,-200)" x2="0" y2="200" stroke="#ddd" stroke-width="1" opacity="1"/></g></g><path class="foreground" aria-hidden="true" d="" pointer-events="none" display="none"/></g></g><g class="mark-group role-axis" aria-hidden="true"><g transform="translate(0.5,0.5)"><path class="background" aria-hidden="true" d="M0,0h0v0h0Z" pointer-events="none"/><g><g class="mark-rule role-axis-grid" pointer-events="none"><line transform="translate(0,200)" x2="400" y2="0" stroke="#ddd" stroke-width="1" opacity="1"/><line transform="translate(0,156)" x2="400" y2="0" stroke="#ddd" stroke-width="1" opacity="1"/><line transform="translate(0,111)" x2="400" y2="0" stroke="#ddd" stroke-width="1" opacity="1"/><line transform="translate(0,67)" x2="400" y2="0" stroke="#ddd" stroke-width="1" opacity="1"/><line transform="translate(0,22)" x2="400" y2="0" stroke="#ddd" stroke-width="1" opacity="1"/></g></g><path class="foreground" aria-hidden="true" d="" pointer-events="none" display="none"/></g></g><g class="mark-group role-axis" role="graphics-symbol" aria-roledescription="axis" aria-label="X-axis titled 'Date de la recherche' for a time scale with values from September 2024 to November 2025"><g transform="translate(0.5,200.5)"><path class="background" aria-hidden="true" d="M0,0h0v0h0Z" pointer-events="none"/><g><g class="mark-rule role-axis-tick" pointer-events="none"><line transform="translate(4,0)" x2="0" y2="5" stroke="#888" stroke-width="1" opacity="1"/><line transform="translate(33,0)" x2="0" y2="5" stroke="#888" stroke-width="1" opacity="1"/><line transform="translate(62,0)" x2="0" y2="5" stroke="#888" stroke-width="1" opacity="1"/><line transform="translate(91,0)" x2="0" y2="5" stroke="#888" stroke-width="1" opacity="1"/><line transform="translate(121,0)" x2="0" y2="5" stroke="#888" stroke-width="1" opacity="1"/><line transform="translate(147,0)" x2="0" y2="5" stroke="#888" stroke-width="1" opacity="1"/><line transform="translate(177,0)" x2="0" y2="5" stroke="#888" stroke-width="1" opacity="1"/><line transform="translate(205,0)" x2="0" y2="5" stroke="#888" stroke-width="1" opacity="1"/><line transform="translate(234,0)" x2="0" y2="5" stroke="#888" stroke-width="1" opacity="1"/><line transform="translate(263,0)" x2="0" y2="5" stroke="#888" stroke-width="1" opacity="1"/><line transform="translate(292,0)" x2="0" y2="5" stroke="#888" stroke-width="1" opacity="1"/><line transform="translate(321,0)" x2="0" y2="5" stroke="#888" stroke-width="1" opacity="1"/><line transform="translate(350,0)" x2="0" y2="5" stroke="#888" stroke-width="1" opacity="1"/><line transform="translate(379,0)" x2="0" y2="5" stroke="#888" stroke-width="1" opacity="1"/></g><g class="mark-text role-axis-label" pointer-events="none"><text text-anchor="start" transform="translate(4.137103246619857,7) rotate(45) translate(0,8)" font-family="sans-serif" font-size="10px" fill="#000" opacity="1">October 2024</text><text text-anchor="start" transform="translate(33.49967333066434,7) rotate(45) translate(0,8)" font-family="sans-serif" font-size="10px" fill="#000" opacity="0">November 2024</text><text text-anchor="start" transform="translate(61.915063734578354,7) rotate(45) translate(0,8)" font-family="sans-serif" font-size="10px" fill="#000" opacity="1">December 2024</text><text text-anchor="start" transform="translate(91.27763381862285,7) rotate(45) translate(0,8)" font-family="sans-serif" font-size="10px" fill="#000" opacity="0">January 2025</text><text text-anchor="start" transform="translate(120.64020390266732,7) rotate(45) translate(0,8)" font-family="sans-serif" font-size="10px" fill="#000" opacity="1">February 2025</text><text text-anchor="start" transform="translate(147.1612349463204,7) rotate(45) translate(0,8)" font-family="sans-serif" font-size="10px" fill="#000" opacity="0">March 2025</text><text text-anchor="start" transform="translate(176.52380503036488,7) rotate(45) translate(0,8)" font-family="sans-serif" font-size="10px" fill="#000" opacity="1">April 2025</text><text text-anchor="start" transform="translate(204.93919543427893,7) rotate(45) translate(0,8)" font-family="sans-serif" font-size="10px" fill="#000" opacity="0">May 2025</text><text text-anchor="start" transform="translate(234.3017655183234,7) rotate(45) translate(0,8)" font-family="sans-serif" font-size="10px" fill="#000" opacity="1">June 2025</text><text text-anchor="start" transform="translate(262.71715592223745,7) rotate(45) translate(0,8)" font-family="sans-serif" font-size="10px" fill="#000" opacity="0">July 2025</text><text text-anchor="start" transform="translate(292.07972600628193,7) rotate(45) translate(0,8)" font-family="sans-serif" font-size="10px" fill="#000" opacity="1">August 2025</text><text text-anchor="start" transform="translate(321.4422960903264,7) rotate(45) translate(0,8)" font-family="sans-serif" font-size="10px" fill="#000" opacity="0">September 2025</text><text text-anchor="start" transform="translate(349.85768649424045,7) rotate(45) translate(0,8)" font-family="sans-serif" font-size="10px" fill="#000" opacity="1">October 2025</text><text text-anchor="start" transform="translate(379.22025657828493,7) rotate(45) translate(0,8)" font-family="sans-serif" font-size="10px" fill="#000" opacity="0">November 2025</text></g><g class="mark-rule role-axis-domain" pointer-events="none"><line transform="translate(0,0)" x2="400" y2="0" stroke="#888" stroke-width="1" opacity="1"/></g><g class="mark-text role-axis-title" pointer-events="none"><text text-anchor="middle" transform="translate(200,77.38337257480673)" font-family="sans-serif" font-size="11px" font-weight="bold" fill="#000" opacity="1">Date de la recherche</text></g></g><path class="foreground" aria-hidden="true" d="" pointer-events="none" display="none"/></g></g><g class="mark-group role-axis" role="graphics-symbol" aria-roledescription="axis" aria-label="Y-axis titled 'Nombre de trajets' for a linear scale with values from 0 to 450,000"><g transform="translate(0.5,0.5)"><path class="background" aria-hidden="true" d="M0,0h0v0h0Z" pointer-events="none"/><g><g class="mark-rule role-axis-tick" pointer-events="none"><line transform="translate(0,200)" x2="-5" y2="0" stroke="#888" stroke-width="1" opacity="1"/><line transform="translate(0,156)" x2="-5" y2="0" stroke="#888" stroke-width="1" opacity="1"/><line transform="translate(0,111)" x2="-5" y2="0" stroke="#888" stroke-width="1" opacity="1"/><line transform="translate(0,67)" x2="-5" y2="0" stroke="#888" stroke-width="1" opacity="1"/><line transform="translate(0,22)" x2="-5" y2="0" stroke="#888" stroke-width="1" opacity="1"/></g><g class="mark-text role-axis-label" pointer-events="none"><text text-anchor="end" transform="translate(-7,203)" font-family="sans-serif" font-size="10px" fill="#000" opacity="1">0</text><text text-anchor="end" transform="translate(-7,158.55555555555557)" font-family="sans-serif" font-size="10px" fill="#000" opacity="1">100,000</text><text text-anchor="end" transform="translate(-7,114.11111111111111)" font-family="sans-serif" font-size="10px" fill="#000" opacity="1">200,000</text><text text-anchor="end" transform="translate(-7,69.66666666666667)" font-family="sans-serif" font-size="10px" fill="#000" opacity="1">300,000</text><text text-anchor="end" transform="translate(-7,25.222222222222232)" font-family="sans-serif" font-size="10px" fill="#000" opacity="1">400,000</text></g><g class="mark-rule role-axis-domain" pointer-events="none"><line transform="translate(0,200)" x2="0" y2="-200" stroke="#888" stroke-width="1" opacity="1"/></g><g class="mark-text role-axis-title" pointer-events="none"><text text-anchor="middle" transform="translate(-47.1474609375,100) rotate(-90) translate(0,-2)" font-family="sans-serif" font-size="11px" font-weight="bold" fill="#000" opacity="1">Nombre de trajets</text></g></g><path class="foreground" aria-hidden="true" d="" pointer-events="none" display="none"/></g></g><g class="mark-group role-scope pathgroup" role="graphics-object" aria-roledescription="group mark container"><g transform="translate(0,0)"><path class="background" aria-hidden="true" d="M0,0h400v200h-400Z"/><g><g class="mark-line role-mark marks" role="graphics-object" aria-roledescription="line mark container"><path aria-label="Date de la recherche: September 2024; Nombre de trajets: 91488; variable: disponible" role="graphics-symbol" aria-roledescription="line mark" d="M0,159.339L0.832,160.009L1.78,160.25L2.727,159.721L3.674,159.224L4.621,160.066L5.569,161.226L6.516,162.729L7.463,163.599L8.41,164.927L9.357,164.272L10.304,163.069L11.251,163.83L12.199,166.394L13.146,165.123L14.093,166.305L15.04,167.015L15.987,167.638L16.935,167.648L17.882,168.931L18.829,169.444L19.776,170.203L20.723,170.474L21.67,170.704L22.618,168.872L23.565,167.766L24.512,168.451L25.459,167.16L26.406,168.696L27.353,166.936L28.301,167.617L29.248,164.943L30.202,163.236L31.142,165.275L32.09,163.601L33.037,165.017L33.984,163.38L34.931,162.688L35.878,161.357L36.825,159.746L37.772,159.755L38.721,159.142L39.667,161.116L40.614,160.392L41.561,160.483L42.509,158.316L43.455,156.748L44.405,154.82L45.35,155.253L46.297,154.239L47.244,154.859L48.194,156.557L49.139,155.787L50.087,155.331L51.033,156.853L51.98,157.538L52.927,158.599L53.874,159.242L54.822,159.566L55.769,159.835L56.716,159.906L57.663,161.397L58.61,162.616L59.558,164.062L60.505,165.294L61.452,166.184L62.399,166.252L63.347,166.133L64.294,167.211L65.241,167.551L66.188,168.202L67.135,168.182L68.083,168.864L69.03,168.023L69.977,166.956L70.924,166.728L71.871,166.308L72.818,166.35L73.765,164.781L74.712,165.02L75.66,163.984L76.607,162.302L77.554,162.622L78.501,161.783L79.448,161.712L80.395,159.731L81.343,159.145L82.29,157.033L83.237,155.203L84.184,153.702L85.131,149.882L86.079,149.315L87.026,147.688L87.973,147.022L88.92,145.158L89.867,143.235L90.814,141.419L91.762,139.417L92.709,139.184L93.656,141.537L94.603,142.381L95.55,139.298L96.497,137.729L97.445,138.287L98.392,138.306L99.339,139.025L100.287,139.891L101.234,141.793L102.181,142.216L103.128,142.23L104.075,143.622L105.022,144.212L105.969,146.113L106.916,147.762L107.864,148.816L108.811,149.653L109.758,149.103L110.705,149.572L111.652,151.036L112.599,152.019L113.547,154.556L114.494,155.987L115.441,156.427L116.388,155.749L117.335,156.068L118.283,156.588L119.23,157.142L120.177,158.761L121.124,159.033L122.071,159.104L123.019,158.219L123.966,158.195L124.913,158.685L125.86,160.639L126.807,161.217L127.754,162.238L128.702,161.805L129.649,161.569L130.596,162.052L131.543,162.612L132.49,163.765L133.437,164.016L134.385,164.144L135.332,163.397L136.279,162.463L137.226,162.635L138.174,160.836L139.121,162.052L140.068,161.876L141.015,162.061L141.962,159.33L142.909,157.85L143.856,157.162L144.804,156.173L145.751,157.449L146.698,157.287L147.645,157.682L148.592,156.434L149.54,155.299L150.487,155.873L151.434,156.232L152.381,158.153L153.328,157.316L154.275,158.821L155.223,157.497L156.17,156.43L157.117,156.36L158.064,156.624L159.011,157.757L159.958,159.565L160.906,159.94L161.853,160.216L162.8,159.533L163.747,159.946L164.694,160.72L165.642,162.035L166.589,162.685L167.536,163.619L168.483,164.437L169.43,164.308L170.377,164.997L171.325,165.332L172.272,166.06L173.219,166.832L174.166,167.163L175.113,167.356L176.061,166.756L177.008,168.562L177.955,168.524L178.902,169.668L179.849,169.96L180.796,170.583L181.744,169.531L182.691,169.106L183.638,170.336L184.585,171.222L185.532,172.901L186.48,173.898L187.427,173.981L188.374,173.399L189.321,172.256L190.268,172.224L191.215,172.383L192.163,172.577L193.11,171.82L194.057,171.468L195.004,170.136L195.951,168.69L196.898,167.228L197.846,166.981L198.793,166.786L199.74,166.962L200.687,166.335L201.634,165.966L202.582,165.59L203.529,166.577L204.476,167.733L205.423,170.02L206.37,168.846L207.317,169.858L208.265,169.379L209.212,168.202L210.159,168.43L211.106,170.075L212.053,170.046L213,169.925L213.948,169.592L214.895,168.736L215.842,168.091L216.789,168.04L217.736,168.317L218.684,169.349L219.631,169.497L220.578,170.13L221.525,170.491L222.472,170.374L223.419,171.072L224.367,173.061L225.314,174.635L226.261,174.731L227.208,174.89L228.155,174.699L229.102,174.329L230.05,175.925L230.997,174.959L231.944,175.182L232.891,176.424L233.839,174.932L234.786,174.408L235.733,173.2L236.68,172.78L237.627,173.29L238.574,173.061L239.522,173.79L240.469,173.8L241.416,173.333L242.363,172.788L243.31,172.172L244.258,172.853L245.205,173.283L246.152,175.056L247.099,174.065L248.047,174.497L248.994,174.456L249.941,175.107L250.888,175.869L251.835,176.792L252.782,176.778L253.729,177.009L254.676,177.119L255.624,176.421L256.571,176.539L257.518,177.062L258.465,177.335L259.412,177.774L260.359,178.057L261.307,177.759L262.254,177.03L263.201,176.662L264.148,177.327L265.095,177.417L266.043,177.748L266.99,177.901L267.937,177.574L268.884,176.725L269.831,176.693L270.779,176.283L271.726,176.441L272.673,176.327L273.62,176.355L274.567,175.682L275.514,175.172L276.462,174.815L277.409,178.13L278.356,178.902L279.303,178.285L280.25,178.194L281.197,177.128L282.145,176.427L283.092,176.211L284.039,176.344L284.986,176.647L285.934,176.738L286.881,176.03L287.828,175.164L288.775,174.287L289.722,174.413L290.669,173.714L291.617,174.324L292.564,173.887L293.511,173.912L294.458,172.471L295.405,171.321L296.352,171.24L297.3,171.28L298.247,172.08L299.194,172.211L300.141,172.403L301.088,171.398L302.035,170.396L302.983,170.518L303.931,170.236L304.877,170.683L305.824,170.087L306.771,170.074L307.719,169.3L308.666,168.013L309.613,167.635L310.56,166.205L311.507,166.481L312.454,166.323L313.402,166.3L314.349,165.771L315.296,164.96L316.253,164.593L317.19,165.332L318.138,166.362L319.085,166.83L320.032,167.888L320.979,167.998L321.926,168.088L322.873,168.656L323.821,170.384L324.768,164.386L325.715,164.849L326.662,166.016L327.609,165.694L328.556,164.655L329.504,163.862L330.451,163.137L331.398,165.146L332.345,165.064L333.292,165.244L334.24,165.762L335.187,164.872L336.134,164.64L337.082,165.472L338.028,166.088L338.976,167.32L339.923,166.82L340.87,167.115L341.817,167.029L342.764,167.192L343.711,167.811L344.659,168.811L345.606,170.644L346.553,169.776L347.5,170.481L348.447,170.076L349.394,170.333L350.342,170.433L351.289,171.609L352.236,172.44L353.183,172.626L354.13,172.988L355.077,172.106L356.025,171.847L356.972,172.026L357.919,173.442L358.866,173.866L359.813,173.078L360.761,172.944L361.708,173.152L362.655,173.688L363.602,174.006L364.549,174.688L365.496,174.205L366.444,173.786L367.391,172.674L368.338,171.307L369.285,171.597L370.232,171.21L371.179,171.624L372.127,171.142L373.074,170.751L374.021,169.213L374.97,167.775L375.915,167.387L376.863,167.261L377.81,167.35L378.757,166.703L379.704,167.341L380.652,166.164L381.598,164.592L382.546,164.66L383.493,164.254L384.44,165.054L385.387,165.095L386.335,164.783L387.282,163.01L388.229,162.001L389.176,161.608L390.123,160.09L391.07,160.927L392.018,161.446L392.965,161.809L394.293,161.546L395.299,160.467L396.214,161.036L397.159,161.558L398.105,162.723L399.053,163.683L400,163.763" stroke="#4c78a8" stroke-width="2"/></g></g><path class="foreground" aria-hidden="true" d="" display="none"/></g><g transform="translate(0,0)"><path class="background" aria-hidden="true" d="M0,0h400v200h-400Z"/><g><g class="mark-line role-mark marks" role="graphics-object" aria-roledescription="line mark container"><path aria-label="Date de la recherche: September 2024; Nombre de trajets: 351801; variable: total" role="graphics-symbol" aria-roledescription="line mark" d="M0,43.644L0.832,43.23L1.78,43.532L2.727,43.471L3.674,43.523L4.621,42.888L5.569,42.975L6.516,43.715L7.463,43.55L8.41,43.967L9.357,43.883L10.304,43.916L11.251,43.705L12.199,43.343L13.146,45.168L14.093,47.57L15.04,49.451L15.987,50.78L16.935,51.056L17.882,51.055L18.829,50.496L19.776,50.482L20.723,50.263L21.67,50.547L22.618,50.55L23.565,50.929L24.512,51.131L25.459,50.923L26.406,51.584L27.353,51.856L28.301,52.263L29.248,52.39L30.202,52.759L31.142,52.836L32.09,52.374L33.037,53.093L33.984,53.62L34.931,53.032L35.878,52.105L36.825,52.092L37.772,52.091L38.721,51.462L39.667,51.622L40.614,41.063L41.561,40.994L42.509,38.53L43.455,35.785L44.405,33.752L45.35,31.452L46.297,31.196L47.244,31.976L48.194,32.224L49.139,32.1L50.087,32.214L51.033,43.381L51.98,42.648L52.927,31.545L53.874,31.141L54.822,31.16L55.769,30.515L56.716,30.687L57.663,30.67L58.61,41.943L59.558,41.649L60.505,29.061L61.452,29.416L62.399,28.902L63.347,29.519L64.294,29.164L65.241,28.757L66.188,28.1L67.135,27.722L68.083,26.185L69.03,25.875L69.977,25.729L70.924,25.856L71.871,25.331L72.818,37.198L73.765,25.074L74.712,25.668L75.66,25.804L76.607,25.909L77.554,26.032L78.501,25.492L79.448,25.271L80.395,25.142L81.343,25.764L82.29,26.482L83.237,26.828L84.184,27.121L85.131,26.415L86.079,25.957L87.026,26.279L87.973,27.016L88.92,27.544L89.867,27.983L90.814,28.387L91.762,27.747L92.709,27.414L93.656,27.669L94.603,28.387L95.55,28.939L96.497,29.468L97.445,29.973L98.392,29.508L99.339,29.126L100.287,29.288L101.234,30.003L102.181,30.398L103.128,30.824L104.075,31.144L105.022,30.97L105.969,41.714L106.916,30.252L107.864,30.988L108.811,31.619L109.758,31.958L110.705,32.143L111.652,31.707L112.599,31.087L113.547,31.152L114.494,31.917L115.441,32.222L116.388,32.403L117.335,32.294L118.283,31.743L119.23,31.524L120.177,31.784L121.124,32.277L122.071,32.624L123.019,32.712L123.966,32.796L124.913,32.445L125.86,31.822L126.807,31.126L127.754,31.789L128.702,32.685L129.649,33.031L130.596,33.212L131.543,32.773L132.49,33.388L133.437,33.592L134.385,34.164L135.332,35.362L136.279,35.763L137.226,35.899L138.174,35.315L139.121,35.592L140.068,36.133L141.015,36.764L141.962,37.632L142.909,37.992L143.856,38.217L144.804,48.657L145.751,49.276L146.698,49.164L147.645,49.493L148.592,49.746L149.54,49.778L150.487,38.859L151.434,38.161L152.381,37.686L153.328,37.108L154.275,37.387L155.223,37.632L156.17,37.878L157.117,37.688L158.064,36.921L159.011,36.403L159.958,35.921L160.906,36.056L161.853,35.163L162.8,34.855L163.747,34.686L164.694,33.996L165.642,34.483L166.589,35.695L167.536,36.783L168.483,36.296L169.43,35.908L170.377,35.731L171.325,34.88L172.272,34.631L173.219,34.328L174.166,34.329L175.113,33.922L176.061,33.396L177.008,33.329L177.955,33.858L178.902,34.476L179.849,35.666L180.796,36.248L181.744,37.45L182.691,37.177L183.638,37.877L184.585,37.17L185.532,38.661L186.48,39.278L187.427,39.69L188.374,40.057L189.321,40.341L190.268,40.363L191.215,39.966L192.163,40.384L193.11,40.357L194.057,40.606L195.004,39.799L195.951,38.261L196.898,37.851L197.846,37.399L198.793,37.4L199.74,37.352L200.687,37.876L201.634,38.551L202.582,38.273L203.529,38.913L204.476,40.323L205.423,42.092L206.37,42.238L207.317,41.801L208.265,41.309L209.212,41.427L210.159,41.43L211.106,40.981L212.053,41.689L213,42.137L213.948,40.74L214.895,38.877L215.842,38.676L216.789,38.774L217.736,38.256L218.684,39.166L219.631,39.717L220.578,40.268L221.525,39.847L222.472,39.945L223.419,40.043L224.367,39.415L225.314,39.523L226.261,39.268L227.208,39.68L228.155,39.566L229.102,39.679L230.05,39.789L230.997,39.682L231.944,40.502L232.891,40.502L233.839,38.96L234.786,37.599L235.733,49.079L236.68,48.936L237.627,47.866L238.574,35.477L239.522,34.581L240.469,34.1L241.416,32.722L242.363,30.764L243.31,29.522L244.258,28.472L245.205,27.45L246.152,26.752L247.099,26.195L248.047,24.508L248.994,23.186L249.941,22.453L250.888,21.27L251.835,20.594L252.782,19.795L253.729,19.459L254.676,18.917L255.624,18.407L256.571,17.611L257.518,15.996L258.465,14.744L259.412,13.67L260.359,13.268L261.307,11.688L262.254,10.401L263.201,9.68L264.148,8.634L265.095,7.666L266.043,6.733L266.99,6.447L267.937,6.648L268.884,6.913L269.831,7.142L270.779,6.778L271.726,6.423L272.673,6.221L273.62,6.697L274.567,6.961L275.514,6.967L276.462,6.828L277.409,6.909L278.356,6.72L279.303,6.489L280.25,6.91L281.197,7.019L282.145,7.102L283.092,7.276L284.039,7L284.986,6.7L285.934,6.562L286.881,7.013L287.828,7.419L288.775,7.774L289.722,8.004L290.669,7.824L291.617,7.632L292.564,7.624L293.511,8.608L294.458,9.588L295.405,10.514L296.352,23.998L297.3,24.18L298.247,24.671L299.194,12.251L300.141,13.22L301.088,14.339L302.035,15.249L302.983,15.966L303.931,16.04L304.877,16.588L305.824,17.289L306.771,18.311L307.719,19.453L308.666,20.548L309.613,21.367L310.56,21.895L311.507,22.307L312.454,22.592L313.402,23.508L314.349,24.434L315.296,25.478L316.253,26.376L317.19,26.459L318.138,26.994L319.085,27.342L320.032,28.512L320.979,29.606L321.926,30.551L322.873,30.946L323.821,30.848L324.768,30.833L325.715,30.717L326.662,31.369L327.609,31.672L328.556,32.168L329.504,32.468L330.451,32.252L331.398,32.707L332.345,32.744L333.292,33.391L334.24,33.776L335.187,34.194L336.134,34.264L337.082,33.874L338.028,33.784L338.976,33.23L339.923,33.629L340.87,33.935L341.817,34.376L342.764,34.532L343.711,33.903L344.659,33.763L345.606,33.499L346.553,34.137L347.5,34.408L348.447,34.85L349.394,34.911L350.342,34.408L351.289,34.312L352.236,33.871L353.183,34.43L354.13,34.635L355.077,34.972L356.025,35.029L356.972,34.567L357.919,34.906L358.866,35.273L359.813,36.404L360.761,36.064L361.708,36.193L362.655,36.184L363.602,35.46L364.549,35.25L365.496,34.94L366.444,35.736L367.391,35.958L368.338,36.317L369.285,36.487L370.232,36.016L371.179,36.638L372.127,36.584L373.074,37.003L374.021,37.092L374.97,37.367L375.915,37.441L376.863,36.927L377.81,36.857L378.757,36.367L379.704,36.565L380.652,36.544L381.598,36.812L382.546,36.737L383.493,36.034L384.44,36.394L385.387,36.221L386.335,36.347L387.282,35.854L388.229,35.315L389.176,34.461L390.123,33.782L391.07,33.904L392.018,33.897L392.965,34.39L394.293,34.251L395.299,34.461L396.214,34.308L397.159,33.611L398.105,32.839L399.053,32.159L400,32.164" stroke="#f58518" stroke-width="2"/></g></g><path class="foreground" aria-hidden="true" d="" display="none"/></g></g><g class="mark-group role-legend" role="graphics-symbol" aria-roledescription="legend" aria-label="Symbol legend for stroke color with 2 values: disponible, total"><g transform="translate(0,-29)"><path class="background" aria-hidden="true" d="M0,0h108v11h-108Z" pointer-events="none"/><g><g class="mark-group role-legend-entry"><g transform="translate(0,0)"><path class="background" aria-hidden="true" d="M0,0h0v0h0Z" pointer-events="none"/><g><g class="mark-group role-scope" role="graphics-object" aria-roledescription="group mark container"><g transform="translate(0,0)"><path class="background" aria-hidden="true" d="M0,0h61.0341796875v11h-61.0341796875Z" pointer-events="none" opacity="1"/><g><g class="mark-symbol role-legend-symbol" pointer-events="none"><path transform="translate(6,6)" d="M-5,0L5,0" stroke="#4c78a8" stroke-width="1.5" opacity="1"/></g><g class="mark-text role-legend-label" pointer-events="none"><text text-anchor="start" transform="translate(16,9)" font-family="sans-serif" font-size="10px" fill="#000" opacity="1">disponible</text></g></g><path class="foreground" aria-hidden="true" d="" pointer-events="none" display="none"/></g><g transform="translate(73,0)"><path class="background" aria-hidden="true" d="M0,0h34.9013671875v11h-34.9013671875Z" pointer-events="none" opacity="1"/><g><g class="mark-symbol role-legend-symbol" pointer-events="none"><path transform="translate(6,6)" d="M-5,0L5,0" stroke="#f58518" stroke-width="1.5" opacity="1"/></g><g class="mark-text role-legend-label" pointer-events="none"><text text-anchor="start" transform="translate(16,9)" font-family="sans-serif" font-size="10px" fill="#000" opacity="1">total</text></g></g><path class="foreground" aria-hidden="true" d="" pointer-events="none" display="none"/></g></g></g><path class="foreground" aria-hidden="true" d="" pointer-events="none" display="none"/></g></g></g><path class="foreground" aria-hidden="true" d="" pointer-events="none" display="none"/></g></g><g class="mark-group role-title"><g transform="translate(200,-46)"><path class="background" aria-hidden="true" d="M0,0h0v0h0Z" pointer-events="none"/><g><g class="mark-text role-title-text" role="graphics-symbol" aria-roledescription="title" aria-label="Title text 'Historique du nombre de trajets MAXJEUNE et au total, disponibles chaque jour'" pointer-events="none"><text text-anchor="middle" transform="translate(0,10)" font-family="sans-serif" font-size="13px" font-weight="bold" fill="#000" opacity="1">Historique du nombre de trajets MAXJEUNE et au total, disponibles chaque jour</text></g></g><path class="foreground" aria-hidden="true" d="" pointer-events="none" display="none"/></g></g></g><path class="foreground" aria-hidden="true" d="" display="none"/></g></g></g></svg>