<svg xmlns="http://www.w3.org/2000/svg" xmlns:xlink="http://www.w3.org/1999/xlink" version="1.1" class="marks" width="517" height="332" viewBox="0 0 517 332"><rect width="517" height="332" fill="white"/><g fill="none" stroke-miterlimit="10" transform="translate(64,51)"><g class="mark-group role-frame root" role="graphics-object" aria-roledescription="group mark container"><g transform="translate(0,0)"><path class="background" aria-hidden="true" d="M0.5,0.5h400v200h-400Z" stroke="#ddd"/><g><g class="mark-group role-axis" aria-hidden="true"><g transform="translate(0.5,200.5)"><path class="background" aria-hidden="true" d="M0,0h0v0h0Z" pointer-events="none"/><g><g class="mark-rule role-axis-grid" pointer-events="none"><line transform="translate(4,-200)" x2="0" y2="200" stroke="#ddd" stroke-width="1" opacity="1"/><line transform="translate(33,-200)" x2="0" y2="200" stroke="#ddd" stroke-width="1" opacity="1"/><line transform="translate(60,-200)" x2="0" y2="200" stroke="#ddd" stroke-width="1" opacity="1"/><line transform="translate(89,-200)" x2="0" y2="200" stroke="#ddd" stroke-width="1" opacity="1"/><line transform="translate(118,-200)" x2="0" y2="200" stroke="#ddd" stroke-width="1" opacity="1"/><line transform="translate(143,-200)" x2="0" y2="200" stroke="#ddd" stroke-width="1" opacity="1"/><line transform="translate(172,-200)" x2="0" y2="200" stroke="#ddd" stroke-width="1" opacity="1"/><line transform="translate(200,-200)" x2="0" y2="200" stroke="#ddd" stroke-width="1" opacity="1"/><line transform="translate(228,-200)" x2="0" y2="200" stroke="#ddd" stroke-width="1" opacity="1"/><line transform="translate(256,-200)" x2="0" y2="200" stroke="#ddd" stroke-width="1" opacity="1"/><line transform="translate(285,-200)" x2="0" y2="200" stroke="#ddd" stroke-width="1" opacity="1"/><line transform="translate(313,-200)" x2="0" y2="200" stroke="#ddd" stroke-width="1" opacity="1"/><line transform="translate(341,-200)" x2="0" y2="200" stroke="#ddd" stroke-width="1" opacity="1"/><line transform="translate(370,-200)" x2="0" y2="200" stroke="#ddd" stroke-width="1" opacity="1"/><line transform="translate(397,-200)" x2="0" y2="200" stroke="#ddd" stroke-width="1" opacity="1"/></g></g><path class="foreground" aria-hidden="true" d="" pointer-events="none" display="none"/></g></g><g class="mark-group role-axis" aria-hidden="true"><g transform="translate(0.5,0.5)"><path class="background" aria-hidden="true" d="M0,0h0v0h0Z" pointer-events="none"/><g><g class="mark-rule role-axis-grid" pointer-events="none"><line transform="translate(0,200)" x2="400" y2="0" stroke="#ddd" stroke-width="1" opacity="1"/><line transform="translate(0,156)" x2="400" y2="0" stroke="#ddd" stroke-width="1" opacity="1"/><line transform="translate(0,111)" x2="400" y2="0" stroke="#ddd" stroke-width="1" opacity="1"/><line transform="translate(0,67)" x2="400" y2="0" stroke="#ddd" stroke-width="1" opacity="1"/><line transform="translate(0,22)" x2="400" y2="0" stroke="#ddd" stroke-width="1" opacity="1"/></g></g><path class="foreground" aria-hidden="true" d="" pointer-events="none" display="none"/></g></g><g class="mark-group role-axis" role="graphics-symbol" aria-roledescription="axis" aria-label="X-axis titled 'Date de la recherche' for a time scale with values from September 2024 to December 2025"><g transform="translate(0.5,200.5)"><path class="background" aria-hidden="true" d="M0,0h0v0h0Z" pointer-events="none"/><g><g class="mark-rule role-axis-tick" pointer-events="none"><line transform="translate(4,0)" x2="0" y2="5" stroke="#888" stroke-width="1" opacity="1"/><line transform="translate(33,0)" x2="0" y2="5" stroke="#888" stroke-width="1" opacity="1"/><line transform="translate(60,0)" x2="0" y2="5" stroke="#888" stroke-width="1" opacity="1"/><line transform="translate(89,0)" x2="0" y2="5" stroke="#888" stroke-width="1" opacity="1"/><line transform="translate(118,0)" x2="0" y2="5" stroke="#888" stroke-width="1" opacity="1"/><line transform="translate(143,0)" x2="0" y2="5" stroke="#888" stroke-width="1" opacity="1"/><line transform="translate(172,0)" x2="0" y2="5" stroke="#888" stroke-width="1" opacity="1"/><line transform="translate(200,0)" x2="0" y2="5" stroke="#888" stroke-width="1" opacity="1"/><line transform="translate(228,0)" x2="0" y2="5" stroke="#888" stroke-width="1" opacity="1"/><line transform="translate(256,0)" x2="0" y2="5" stroke="#888" stroke-width="1" opacity="1"/><line transform="translate(285,0)" x2="0" y2="5" stroke="#888" stroke-width="1" opacity="1"/><line transform="translate(313,0)" x2="0" y2="5" stroke="#888" stroke-width="1" opacity="1"/><line transform="translate(341,0)" x2="0" y2="5" stroke="#888" stroke-width="1" opacity="1"/><line transform="translate(370,0)" x2="0" y2="5" stroke="#888" stroke-width="1" opacity="1"/><line transform="translate(397,0)" x2="0" y2="5" stroke="#888" stroke-width="1" opacity="1"/></g><g class="mark-text role-axis-label" pointer-events="none"><text text-anchor="start" transform="translate(4.032065169989229,7) rotate(45) translate(0,8)" font-family="sans-serif" font-size="10px" fill="#000" opacity="1">October 2024</text><text text-anchor="start" transform="translate(32.64914071287623,7) rotate(45) translate(0,8)" font-family="sans-serif" font-size="10px" fill="#000" opacity="0">November 2024</text><text text-anchor="start" transform="translate(60.343084786637846,7) rotate(45) translate(0,8)" font-family="sans-serif" font-size="10px" fill="#000" opacity="0">December 2024</text><text text-anchor="start" transform="translate(88.96016032952484,7) rotate(45) translate(0,8)" font-family="sans-serif" font-size="10px" fill="#000" opacity="0">January 2025</text><text text-anchor="start" transform="translate(117.57723587241185,7) rotate(45) translate(0,8)" font-family="sans-serif" font-size="10px" fill="#000" opacity="1">February 2025</text><text text-anchor="start" transform="translate(143.4249170079227,7) rotate(45) translate(0,8)" font-family="sans-serif" font-size="10px" fill="#000" opacity="0">March 2025</text><text text-anchor="start" transform="translate(172.04199255080968,7) rotate(45) translate(0,8)" font-family="sans-serif" font-size="10px" fill="#000" opacity="0">April 2025</text><text text-anchor="start" transform="translate(199.7359366245713,7) rotate(45) translate(0,8)" font-family="sans-serif" font-size="10px" fill="#000" opacity="0">May 2025</text><text text-anchor="start" transform="translate(228.3530121674583,7) rotate(45) translate(0,8)" font-family="sans-serif" font-size="10px" fill="#000" opacity="1">June 2025</text><text text-anchor="start" transform="translate(256.0469562412199,7) rotate(45) translate(0,8)" font-family="sans-serif" font-size="10px" fill="#000" opacity="0">July 2025</text><text text-anchor="start" transform="translate(284.6640317841069,7) rotate(45) translate(0,8)" font-family="sans-serif" font-size="10px" fill="#000" opacity="0">August 2025</text><text text-anchor="start" transform="translate(313.28110732699395,7) rotate(45) translate(0,8)" font-family="sans-serif" font-size="10px" fill="#000" opacity="0">September 2025</text><text text-anchor="start" transform="translate(340.9750514007555,7) rotate(45) translate(0,8)" font-family="sans-serif" font-size="10px" fill="#000" opacity="1">October 2025</text><text text-anchor="start" transform="translate(369.59212694364254,7) rotate(45) translate(0,8)" font-family="sans-serif" font-size="10px" fill="#000" opacity="0">November 2025</text><text text-anchor="start" transform="translate(397.28607101740414,7) rotate(45) translate(0,8)" font-family="sans-serif" font-size="10px" fill="#000" opacity="0">December 2025</text></g><g class="mark-rule role-axis-domain" pointer-events="none"><line transform="translate(0,0)" x2="400" y2="0" stroke="#888" stroke-width="1" opacity="1"/></g><g class="mark-text role-axis-title" pointer-events="none"><text text-anchor="middle" transform="translate(200,73.06062994763117)" font-family="sans-serif" font-size="11px" font-weight="bold" fill="#000" opacity="1">Date de la recherche</text></g></g><path class="foreground" aria-hidden="true" d="" pointer-events="none" display="none"/></g></g><g class="mark-group role-axis" role="graphics-symbol" aria-roledescription="axis" aria-label="Y-axis titled 'Nombre de trajets' for a linear scale with values from 0 to 450,000"><g transform="translate(0.5,0.5)"><path class="background" aria-hidden="true" d="M0,0h0v0h0Z" pointer-events="none"/><g><g class="mark-rule role-axis-tick" pointer-events="none"><line transform="translate(0,200)" x2="-5" y2="0" stroke="#888" stroke-width="1" opacity="1"/><line transform="translate(0,156)" x2="-5" y2="0" stroke="#888" stroke-width="1" opacity="1"/><line transform="translate(0,111)" x2="-5" y2="0" stroke="#888" stroke-width="1" opacity="1"/><line transform="translate(0,67)" x2="-5" y2="0" stroke="#888" stroke-width="1" opacity="1"/><line transform="translate(0,22)" x2="-5" y2="0" stroke="#888" stroke-width="1" opacity="1"/></g><g class="mark-text role-axis-label" pointer-events="none"><text text-anchor="end" transform="translate(-7,203)" font-family="sans-serif" font-size="10px" fill="#000" opacity="1">0</text><text text-anchor="end" transform="translate(-7,158.55555555555557)" font-family="sans-serif" font-size="10px" fill="#000" opacity="1">100,000</text><text text-anchor="end" transform="translate(-7,114.11111111111111)" font-family="sans-serif" font-size="10px" fill="#000" opacity="1">200,000</text><text text-anchor="end" transform="translate(-7,69.66666666666667)" font-family="sans-serif" font-size="10px" fill="#000" opacity="1">300,000</text><text text-anchor="end" transform="translate(-7,25.222222222222232)" font-family="sans-serif" font-size="10px" fill="#000" opacity="1">400,000</text></g><g class="mark-rule role-axis-domain" pointer-events="none"><line transform="translate(0,200)" x2="0" y2="-200" stroke="#888" stroke-width="1" opacity="1"/></g><g class="mark-text role-axis-title" pointer-events="none"><text text-anchor="middle" transform="translate(-47.1474609375,100) rotate(-90) translate(0,-2)" font-family="sans-serif" font-size="11px" font-weight="bold" fill="#000" opacity="1">Nombre de trajets</text></g></g><path class="foreground" aria-hidden="true" d="" pointer-events="none" display="none"/></g></g><g class="mark-group role-scope pathgroup" role="graphics-object" aria-roledescription="group mark container"><g transform="translate(0,0)"><path class="background" aria-hidden="true" d="M0,0h400v200h-400Z"/><g><g class="mark-line role-mark marks" role="graphics-object" aria-roledescription="line mark container"><path aria-label="Date de la recherche: September 2024; Nombre de trajets: 91488; variable: disponible" role="graphics-symbol" aria-roledescription="line mark" d="M0,159.339L0.811,160.009L1.734,160.25L2.658,159.721L3.581,159.224L4.504,160.066L5.428,161.226L6.351,162.729L7.273,163.599L8.196,164.927L9.119,164.272L10.043,163.069L10.966,163.83L11.889,166.394L12.812,165.123L13.735,166.305L14.658,167.015L15.581,167.638L16.505,167.648L17.428,168.931L18.351,169.444L19.274,170.203L20.197,170.474L21.12,170.704L22.043,168.872L22.966,167.766L23.89,168.451L24.813,167.16L25.736,168.696L26.659,166.936L27.582,167.617L28.505,164.943L29.435,163.236L30.351,165.275L31.275,163.601L32.198,165.017L33.121,163.38L34.045,162.688L34.967,161.357L35.89,159.746L36.813,159.755L37.738,159.142L38.66,161.116L39.583,160.392L40.506,160.483L41.429,158.316L42.352,156.748L43.277,154.82L44.199,155.253L45.122,154.239L46.045,154.859L46.97,156.557L47.891,155.787L48.815,155.331L49.737,156.853L50.66,157.538L51.583,158.599L52.507,159.242L53.43,159.566L54.353,159.835L55.276,159.906L56.199,161.397L57.122,162.616L58.046,164.062L58.969,165.294L59.892,166.184L60.815,166.252L61.739,166.133L62.661,167.211L63.585,167.551L64.508,168.202L65.431,168.182L66.355,168.864L67.277,168.023L68.2,166.956L69.123,166.728L70.046,166.308L70.969,166.35L71.892,164.781L72.815,165.02L73.739,163.984L74.662,162.302L75.585,162.622L76.508,161.783L77.431,161.712L78.354,159.731L79.277,159.145L80.2,157.033L81.124,155.203L82.047,153.702L82.97,149.882L83.893,149.315L84.816,147.688L85.739,147.022L86.662,145.158L87.586,143.235L88.509,141.419L89.432,139.417L90.355,139.184L91.278,141.537L92.201,142.381L93.124,139.298L94.047,137.729L94.971,138.287L95.894,138.306L96.817,139.025L97.741,139.891L98.664,141.793L99.586,142.216L100.509,142.23L101.433,143.622L102.356,144.212L103.279,146.113L104.202,147.762L105.125,148.816L106.048,149.653L106.971,149.103L107.894,149.572L108.818,151.036L109.741,152.019L110.664,154.556L111.587,155.987L112.51,156.427L113.433,155.749L114.356,156.068L115.279,156.588L116.203,157.142L117.126,158.761L118.049,159.033L118.972,159.104L119.895,158.219L120.818,158.195L121.741,158.685L122.665,160.639L123.588,161.217L124.511,162.238L125.434,161.805L126.357,161.569L127.28,162.052L128.203,162.612L129.127,163.765L130.05,164.016L130.973,164.144L131.896,163.397L132.819,162.463L133.742,162.635L134.665,160.836L135.588,162.052L136.512,161.876L137.435,162.061L138.358,159.33L139.281,157.85L140.204,157.162L141.127,156.173L142.05,157.449L142.973,157.287L143.897,157.682L144.82,156.434L145.743,155.299L146.666,155.873L147.589,156.232L148.512,158.153L149.435,157.316L150.358,158.821L151.282,157.497L152.205,156.43L153.128,156.36L154.051,156.624L154.974,157.757L155.897,159.565L156.82,159.94L157.744,160.216L158.667,159.533L159.59,159.946L160.513,160.72L161.436,162.035L162.359,162.685L163.282,163.619L164.205,164.437L165.129,164.308L166.052,164.997L166.975,165.332L167.898,166.06L168.821,166.832L169.744,167.163L170.667,167.356L171.59,166.756L172.514,168.562L173.437,168.524L174.36,169.668L175.283,169.96L176.206,170.583L177.129,169.531L178.052,169.106L178.975,170.336L179.899,171.222L180.822,172.901L181.745,173.898L182.668,173.981L183.591,173.399L184.514,172.256L185.437,172.224L186.361,172.383L187.284,172.577L188.207,171.82L189.13,171.468L190.053,170.136L190.976,168.69L191.899,167.228L192.823,166.981L193.746,166.786L194.669,166.962L195.592,166.335L196.515,165.966L197.438,165.59L198.361,166.577L199.284,167.733L200.208,170.02L201.131,168.846L202.054,169.858L202.977,169.379L203.9,168.202L204.823,168.43L205.746,170.075L206.669,170.046L207.593,169.925L208.516,169.592L209.439,168.736L210.362,168.091L211.285,168.04L212.208,168.317L213.131,169.349L214.054,169.497L214.978,170.13L215.901,170.491L216.824,170.374L217.747,171.072L218.67,173.061L219.593,174.635L220.516,174.731L221.439,174.89L222.363,174.699L223.286,174.329L224.209,175.925L225.132,174.959L226.055,175.182L226.978,176.424L227.902,174.932L228.825,174.408L229.748,173.2L230.671,172.78L231.594,173.29L232.517,173.061L233.44,173.79L234.364,173.8L235.287,173.333L236.21,172.788L237.133,172.172L238.056,172.853L238.979,173.283L239.902,175.056L240.826,174.065L241.749,174.497L242.672,174.456L243.595,175.107L244.518,175.869L245.441,176.792L246.364,176.778L247.287,177.009L248.21,177.119L249.133,176.421L250.057,176.539L250.98,177.062L251.903,177.335L252.826,177.774L253.749,178.057L254.672,177.759L255.596,177.03L256.519,176.662L257.442,177.327L258.365,177.417L259.288,177.748L260.211,177.901L261.134,177.574L262.057,176.725L262.981,176.693L263.904,176.283L264.827,176.441L265.75,176.327L266.673,176.355L267.596,175.682L268.519,175.172L269.443,174.815L270.366,178.13L271.289,178.902L272.212,178.285L273.135,178.194L274.058,177.128L274.981,176.427L275.905,176.211L276.827,176.344L277.751,176.647L278.674,176.738L279.597,176.03L280.52,175.164L281.443,174.287L282.366,174.413L283.289,173.714L284.213,174.324L285.136,173.887L286.059,173.912L286.982,172.471L287.905,171.321L288.828,171.24L289.752,171.28L290.674,172.08L291.598,172.211L292.521,172.403L293.444,171.398L294.367,170.396L295.29,170.518L296.215,170.236L297.136,170.683L298.059,170.087L298.983,170.074L299.906,169.3L300.829,168.013L301.752,167.635L302.675,166.205L303.598,166.481L304.521,166.323L305.445,166.3L306.368,165.771L307.291,164.96L308.224,164.593L309.137,165.332L310.06,166.362L310.983,166.83L311.907,167.888L312.83,167.998L313.753,168.088L314.676,168.656L315.599,170.384L316.522,164.386L317.445,164.849L318.368,166.016L319.292,165.694L320.215,164.655L321.138,163.862L322.061,163.137L322.984,165.146L323.907,165.064L324.83,165.244L325.753,165.762L326.677,164.872L327.6,164.64L328.523,165.472L329.446,166.088L330.369,167.32L331.292,166.82L332.215,167.115L333.139,167.029L334.062,167.192L334.985,167.811L335.908,168.811L336.831,170.644L337.754,169.776L338.677,170.481L339.6,170.076L340.524,170.333L341.447,170.433L342.37,171.609L343.293,172.44L344.216,172.626L345.139,172.988L346.062,172.106L346.985,171.847L347.909,172.026L348.832,173.442L349.755,173.866L350.678,173.078L351.601,172.944L352.524,173.152L353.447,173.688L354.371,174.006L355.294,174.688L356.217,174.205L357.14,173.786L358.063,172.674L358.986,171.307L359.909,171.597L360.832,171.21L361.755,171.624L362.679,171.142L363.602,170.751L364.525,169.213L365.449,167.775L366.371,167.387L367.294,167.261L368.217,167.35L369.141,166.703L370.064,167.341L370.987,166.164L371.91,164.592L372.833,164.66L373.756,164.254L374.679,165.054L375.603,165.095L376.526,164.783L377.449,163.01L378.372,162.001L379.295,161.608L380.218,160.09L381.141,160.927L382.065,161.446L382.988,161.809L384.282,161.546L385.263,160.467L386.155,161.036L387.075,161.558L387.998,162.723L388.526,163.683L389.449,163.763L390.373,163.474L391.296,163.335L392.219,163.94L393.142,164.694L394.065,165.922L395.406,167.04L396.306,167.981L397.23,168.795L398.153,168.795L399.076,169.349L400,170.304" stroke="#4c78a8" stroke-width="2"/></g></g><path class="foreground" aria-hidden="true" d="" display="none"/></g><g transform="translate(0,0)"><path class="background" aria-hidden="true" d="M0,0h400v200h-400Z"/><g><g class="mark-line role-mark marks" role="graphics-object" aria-roledescription="line mark container"><path aria-label="Date de la recherche: September 2024; Nombre de trajets: 351801; variable: total" role="graphics-symbol" aria-roledescription="line mark" d="M0,43.644L0.811,43.23L1.734,43.532L2.658,43.471L3.581,43.523L4.504,42.888L5.428,42.975L6.351,43.715L7.273,43.55L8.196,43.967L9.119,43.883L10.043,43.916L10.966,43.705L11.889,43.343L12.812,45.168L13.735,47.57L14.658,49.451L15.581,50.78L16.505,51.056L17.428,51.055L18.351,50.496L19.274,50.482L20.197,50.263L21.12,50.547L22.043,50.55L22.966,50.929L23.89,51.131L24.813,50.923L25.736,51.584L26.659,51.856L27.582,52.263L28.505,52.39L29.435,52.759L30.351,52.836L31.275,52.374L32.198,53.093L33.121,53.62L34.045,53.032L34.967,52.105L35.89,52.092L36.813,52.091L37.738,51.462L38.66,51.622L39.583,41.063L40.506,40.994L41.429,38.53L42.352,35.785L43.277,33.752L44.199,31.452L45.122,31.196L46.045,31.976L46.97,32.224L47.891,32.1L48.815,32.214L49.737,43.381L50.66,42.648L51.583,31.545L52.507,31.141L53.43,31.16L54.353,30.515L55.276,30.687L56.199,30.67L57.122,41.943L58.046,41.649L58.969,29.061L59.892,29.416L60.815,28.902L61.739,29.519L62.661,29.164L63.585,28.757L64.508,28.1L65.431,27.722L66.355,26.185L67.277,25.875L68.2,25.729L69.123,25.856L70.046,25.331L70.969,37.198L71.892,25.074L72.815,25.668L73.739,25.804L74.662,25.909L75.585,26.032L76.508,25.492L77.431,25.271L78.354,25.142L79.277,25.764L80.2,26.482L81.124,26.828L82.047,27.121L82.97,26.415L83.893,25.957L84.816,26.279L85.739,27.016L86.662,27.544L87.586,27.983L88.509,28.387L89.432,27.747L90.355,27.414L91.278,27.669L92.201,28.387L93.124,28.939L94.047,29.468L94.971,29.973L95.894,29.508L96.817,29.126L97.741,29.288L98.664,30.003L99.586,30.398L100.509,30.824L101.433,31.144L102.356,30.97L103.279,41.714L104.202,30.252L105.125,30.988L106.048,31.619L106.971,31.958L107.894,32.143L108.818,31.707L109.741,31.087L110.664,31.152L111.587,31.917L112.51,32.222L113.433,32.403L114.356,32.294L115.279,31.743L116.203,31.524L117.126,31.784L118.049,32.277L118.972,32.624L119.895,32.712L120.818,32.796L121.741,32.445L122.665,31.822L123.588,31.126L124.511,31.789L125.434,32.685L126.357,33.031L127.28,33.212L128.203,32.773L129.127,33.388L130.05,33.592L130.973,34.164L131.896,35.362L132.819,35.763L133.742,35.899L134.665,35.315L135.588,35.592L136.512,36.133L137.435,36.764L138.358,37.632L139.281,37.992L140.204,38.217L141.127,48.657L142.05,49.276L142.973,49.164L143.897,49.493L144.82,49.746L145.743,49.778L146.666,38.859L147.589,38.161L148.512,37.686L149.435,37.108L150.358,37.387L151.282,37.632L152.205,37.878L153.128,37.688L154.051,36.921L154.974,36.403L155.897,35.921L156.82,36.056L157.744,35.163L158.667,34.855L159.59,34.686L160.513,33.996L161.436,34.483L162.359,35.695L163.282,36.783L164.205,36.296L165.129,35.908L166.052,35.731L166.975,34.88L167.898,34.631L168.821,34.328L169.744,34.329L170.667,33.922L171.59,33.396L172.514,33.329L173.437,33.858L174.36,34.476L175.283,35.666L176.206,36.248L177.129,37.45L178.052,37.177L178.975,37.877L179.899,37.17L180.822,38.661L181.745,39.278L182.668,39.69L183.591,40.057L184.514,40.341L185.437,40.363L186.361,39.966L187.284,40.384L188.207,40.357L189.13,40.606L190.053,39.799L190.976,38.261L191.899,37.851L192.823,37.399L193.746,37.4L194.669,37.352L195.592,37.876L196.515,38.551L197.438,38.273L198.361,38.913L199.284,40.323L200.208,42.092L201.131,42.238L202.054,41.801L202.977,41.309L203.9,41.427L204.823,41.43L205.746,40.981L206.669,41.689L207.593,42.137L208.516,40.74L209.439,38.877L210.362,38.676L211.285,38.774L212.208,38.256L213.131,39.166L214.054,39.717L214.978,40.268L215.901,39.847L216.824,39.945L217.747,40.043L218.67,39.415L219.593,39.523L220.516,39.268L221.439,39.68L222.363,39.566L223.286,39.679L224.209,39.789L225.132,39.682L226.055,40.502L226.978,40.502L227.902,38.96L228.825,37.599L229.748,49.079L230.671,48.936L231.594,47.866L232.517,35.477L233.44,34.581L234.364,34.1L235.287,32.722L236.21,30.764L237.133,29.522L238.056,28.472L238.979,27.45L239.902,26.752L240.826,26.195L241.749,24.508L242.672,23.186L243.595,22.453L244.518,21.27L245.441,20.594L246.364,19.795L247.287,19.459L248.21,18.917L249.133,18.407L250.057,17.611L250.98,15.996L251.903,14.744L252.826,13.67L253.749,13.268L254.672,11.688L255.596,10.401L256.519,9.68L257.442,8.634L258.365,7.666L259.288,6.733L260.211,6.447L261.134,6.648L262.057,6.913L262.981,7.142L263.904,6.778L264.827,6.423L265.75,6.221L266.673,6.697L267.596,6.961L268.519,6.967L269.443,6.828L270.366,6.909L271.289,6.72L272.212,6.489L273.135,6.91L274.058,7.019L274.981,7.102L275.905,7.276L276.827,7L277.751,6.7L278.674,6.562L279.597,7.013L280.52,7.419L281.443,7.774L282.366,8.004L283.289,7.824L284.213,7.632L285.136,7.624L286.059,8.608L286.982,9.588L287.905,10.514L288.828,23.998L289.752,24.18L290.674,24.671L291.598,12.251L292.521,13.22L293.444,14.339L294.367,15.249L295.29,15.966L296.215,16.04L297.136,16.588L298.059,17.289L298.983,18.311L299.906,19.453L300.829,20.548L301.752,21.367L302.675,21.895L303.598,22.307L304.521,22.592L305.445,23.508L306.368,24.434L307.291,25.478L308.224,26.376L309.137,26.459L310.06,26.994L310.983,27.342L311.907,28.512L312.83,29.606L313.753,30.551L314.676,30.946L315.599,30.848L316.522,30.833L317.445,30.717L318.368,31.369L319.292,31.672L320.215,32.168L321.138,32.468L322.061,32.252L322.984,32.707L323.907,32.744L324.83,33.391L325.753,33.776L326.677,34.194L327.6,34.264L328.523,33.874L329.446,33.784L330.369,33.23L331.292,33.629L332.215,33.935L333.139,34.376L334.062,34.532L334.985,33.903L335.908,33.763L336.831,33.499L337.754,34.137L338.677,34.408L339.6,34.85L340.524,34.911L341.447,34.408L342.37,34.312L343.293,33.871L344.216,34.43L345.139,34.635L346.062,34.972L346.985,35.029L347.909,34.567L348.832,34.906L349.755,35.273L350.678,36.404L351.601,36.064L352.524,36.193L353.447,36.184L354.371,35.46L355.294,35.25L356.217,34.94L357.14,35.736L358.063,35.958L358.986,36.317L359.909,36.487L360.832,36.016L361.755,36.638L362.679,36.584L363.602,37.003L364.525,37.092L365.449,37.367L366.371,37.441L367.294,36.927L368.217,36.857L369.141,36.367L370.064,36.565L370.987,36.544L371.91,36.812L372.833,36.737L373.756,36.034L374.679,36.394L375.603,36.221L376.526,36.347L377.449,35.854L378.372,35.315L379.295,34.461L380.218,33.782L381.141,33.904L382.065,33.897L382.988,34.39L384.282,34.251L385.263,34.461L386.155,34.308L387.075,33.611L387.998,32.839L388.526,32.159L389.449,32.164L390.373,31.195L391.296,31.053L392.219,31.379L393.142,30.967L394.065,30.417L395.406,29.717L396.306,27.828L397.23,26.715L398.153,26.84L399.076,39.755L400,26.792" stroke="#f58518" stroke-width="2"/></g></g><path class="foreground" aria-hidden="true" d="" display="none"/></g></g><g class="mark-group role-legend" role="graphics-symbol" aria-roledescription="legend" aria-label="Symbol legend for stroke color with 2 values: disponible, total"><g transform="translate(0,-29)"><path class="background" aria-hidden="true" d="M0,0h108v11h-108Z" pointer-events="none"/><g><g class="mark-group role-legend-entry"><g transform="translate(0,0)"><path class="background" aria-hidden="true" d="M0,0h0v0h0Z" pointer-events="none"/><g><g class="mark-group role-scope" role="graphics-object" aria-roledescription="group mark container"><g transform="translate(0,0)"><path class="background" aria-hidden="true" d="M0,0h61.0341796875v11h-61.0341796875Z" pointer-events="none" opacity="1"/><g><g class="mark-symbol role-legend-symbol" pointer-events="none"><path transform="translate(6,6)" d="M-5,0L5,0" stroke="#4c78a8" stroke-width="1.5" opacity="1"/></g><g class="mark-text role-legend-label" pointer-events="none"><text text-anchor="start" transform="translate(16,9)" font-family="sans-serif" font-size="10px" fill="#000" opacity="1">disponible</text></g></g><path class="foreground" aria-hidden="true" d="" pointer-events="none" display="none"/></g><g transform="translate(73,0)"><path class="background" aria-hidden="true" d="M0,0h34.9013671875v11h-34.9013671875Z" pointer-events="none" opacity="1"/><g><g class="mark-symbol role-legend-symbol" pointer-events="none"><path transform="translate(6,6)" d="M-5,0L5,0" stroke="#f58518" stroke-width="1.5" opacity="1"/></g><g class="mark-text role-legend-label" pointer-events="none"><text text-anchor="start" transform="translate(16,9)" font-family="sans-serif" font-size="10px" fill="#000" opacity="1">total</text></g></g><path class="foreground" aria-hidden="true" d="" pointer-events="none" display="none"/></g></g></g><path class="foreground" aria-hidden="true" d="" pointer-events="none" display="none"/></g></g></g><path class="foreground" aria-hidden="true" d="" pointer-events="none" display="none"/></g></g><g class="mark-group role-title"><g transform="translate(200,-46)"><path class="background" aria-hidden="true" d="M0,0h0v0h0Z" pointer-events="none"/><g><g class="mark-text role-title-text" role="graphics-symbol" aria-roledescription="title" aria-label="Title text 'Historique du nombre de trajets MAXJEUNE et au total, disponibles chaque jour'" pointer-events="none"><text text-anchor="middle" transform="translate(0,10)" font-family="sans-serif" font-size="13px" font-weight="bold" fill="#000" opacity="1">Historique du nombre de trajets MAXJEUNE et au total, disponibles chaque jour</text></g></g><path class="foreground" aria-hidden="true" d="" pointer-events="none" display="none"/></g></g></g><path class="foreground" aria-hidden="true" d="" display="none"/></g></g></g></svg>