<svg xmlns="http://www.w3.org/2000/svg" xmlns:xlink="http://www.w3.org/1999/xlink" version="1.1" class="marks" width="517" height="336" viewBox="0 0 517 336"><rect width="517" height="336" fill="white"/><g fill="none" stroke-miterlimit="10" transform="translate(64,51)"><g class="mark-group role-frame root" role="graphics-object" aria-roledescription="group mark container"><g transform="translate(0,0)"><path class="background" aria-hidden="true" d="M0.5,0.5h400v200h-400Z" stroke="#ddd"/><g><g class="mark-group role-axis" aria-hidden="true"><g transform="translate(0.5,200.5)"><path class="background" aria-hidden="true" d="M0,0h0v0h0Z" pointer-events="none"/><g><g class="mark-rule role-axis-grid" pointer-events="none"><line transform="translate(4,-200)" x2="0" y2="200" stroke="#ddd" stroke-width="1" opacity="1"/><line transform="translate(34,-200)" x2="0" y2="200" stroke="#ddd" stroke-width="1" opacity="1"/><line transform="translate(62,-200)" x2="0" y2="200" stroke="#ddd" stroke-width="1" opacity="1"/><line transform="translate(91,-200)" x2="0" y2="200" stroke="#ddd" stroke-width="1" opacity="1"/><line transform="translate(121,-200)" x2="0" y2="200" stroke="#ddd" stroke-width="1" opacity="1"/><line transform="translate(148,-200)" x2="0" y2="200" stroke="#ddd" stroke-width="1" opacity="1"/><line transform="translate(177,-200)" x2="0" y2="200" stroke="#ddd" stroke-width="1" opacity="1"/><line transform="translate(205,-200)" x2="0" y2="200" stroke="#ddd" stroke-width="1" opacity="1"/><line transform="translate(235,-200)" x2="0" y2="200" stroke="#ddd" stroke-width="1" opacity="1"/><line transform="translate(263,-200)" x2="0" y2="200" stroke="#ddd" stroke-width="1" opacity="1"/><line transform="translate(293,-200)" x2="0" y2="200" stroke="#ddd" stroke-width="1" opacity="1"/><line transform="translate(322,-200)" x2="0" y2="200" stroke="#ddd" stroke-width="1" opacity="1"/><line transform="translate(351,-200)" x2="0" y2="200" stroke="#ddd" stroke-width="1" opacity="1"/><line transform="translate(380,-200)" x2="0" y2="200" stroke="#ddd" stroke-width="1" opacity="1"/></g></g><path class="foreground" aria-hidden="true" d="" pointer-events="none" display="none"/></g></g><g class="mark-group role-axis" aria-hidden="true"><g transform="translate(0.5,0.5)"><path class="background" aria-hidden="true" d="M0,0h0v0h0Z" pointer-events="none"/><g><g class="mark-rule role-axis-grid" pointer-events="none"><line transform="translate(0,200)" x2="400" y2="0" stroke="#ddd" stroke-width="1" opacity="1"/><line transform="translate(0,156)" x2="400" y2="0" stroke="#ddd" stroke-width="1" opacity="1"/><line transform="translate(0,111)" x2="400" y2="0" stroke="#ddd" stroke-width="1" opacity="1"/><line transform="translate(0,67)" x2="400" y2="0" stroke="#ddd" stroke-width="1" opacity="1"/><line transform="translate(0,22)" x2="400" y2="0" stroke="#ddd" stroke-width="1" opacity="1"/></g></g><path class="foreground" aria-hidden="true" d="" pointer-events="none" display="none"/></g></g><g class="mark-group role-axis" role="graphics-symbol" aria-roledescription="axis" aria-label="X-axis titled 'Date de la recherche' for a time scale with values from September 2024 to November 2025"><g transform="translate(0.5,200.5)"><path class="background" aria-hidden="true" d="M0,0h0v0h0Z" pointer-events="none"/><g><g class="mark-rule role-axis-tick" pointer-events="none"><line transform="translate(4,0)" x2="0" y2="5" stroke="#888" stroke-width="1" opacity="1"/><line transform="translate(34,0)" x2="0" y2="5" stroke="#888" stroke-width="1" opacity="1"/><line transform="translate(62,0)" x2="0" y2="5" stroke="#888" stroke-width="1" opacity="1"/><line transform="translate(91,0)" x2="0" y2="5" stroke="#888" stroke-width="1" opacity="1"/><line transform="translate(121,0)" x2="0" y2="5" stroke="#888" stroke-width="1" opacity="1"/><line transform="translate(148,0)" x2="0" y2="5" stroke="#888" stroke-width="1" opacity="1"/><line transform="translate(177,0)" x2="0" y2="5" stroke="#888" stroke-width="1" opacity="1"/><line transform="translate(205,0)" x2="0" y2="5" stroke="#888" stroke-width="1" opacity="1"/><line transform="translate(235,0)" x2="0" y2="5" stroke="#888" stroke-width="1" opacity="1"/><line transform="translate(263,0)" x2="0" y2="5" stroke="#888" stroke-width="1" opacity="1"/><line transform="translate(293,0)" x2="0" y2="5" stroke="#888" stroke-width="1" opacity="1"/><line transform="translate(322,0)" x2="0" y2="5" stroke="#888" stroke-width="1" opacity="1"/><line transform="translate(351,0)" x2="0" y2="5" stroke="#888" stroke-width="1" opacity="1"/><line transform="translate(380,0)" x2="0" y2="5" stroke="#888" stroke-width="1" opacity="1"/></g><g class="mark-text role-axis-label" pointer-events="none"><text text-anchor="start" transform="translate(4.1469201302332115,7) rotate(45) translate(0,8)" font-family="sans-serif" font-size="10px" fill="#000" opacity="1">October 2024</text><text text-anchor="start" transform="translate(33.579164311326046,7) rotate(45) translate(0,8)" font-family="sans-serif" font-size="10px" fill="#000" opacity="0">November 2024</text><text text-anchor="start" transform="translate(62.06198126077073,7) rotate(45) translate(0,8)" font-family="sans-serif" font-size="10px" fill="#000" opacity="1">December 2024</text><text text-anchor="start" transform="translate(91.49422544186356,7) rotate(45) translate(0,8)" font-family="sans-serif" font-size="10px" fill="#000" opacity="0">January 2025</text><text text-anchor="start" transform="translate(120.92646962295639,7) rotate(45) translate(0,8)" font-family="sans-serif" font-size="10px" fill="#000" opacity="1">February 2025</text><text text-anchor="start" transform="translate(147.51043210910478,7) rotate(45) translate(0,8)" font-family="sans-serif" font-size="10px" fill="#000" opacity="0">March 2025</text><text text-anchor="start" transform="translate(176.9426762901976,7) rotate(45) translate(0,8)" font-family="sans-serif" font-size="10px" fill="#000" opacity="1">April 2025</text><text text-anchor="start" transform="translate(205.4254932396423,7) rotate(45) translate(0,8)" font-family="sans-serif" font-size="10px" fill="#000" opacity="0">May 2025</text><text text-anchor="start" transform="translate(234.8577374207351,7) rotate(45) translate(0,8)" font-family="sans-serif" font-size="10px" fill="#000" opacity="1">June 2025</text><text text-anchor="start" transform="translate(263.3405543701798,7) rotate(45) translate(0,8)" font-family="sans-serif" font-size="10px" fill="#000" opacity="0">July 2025</text><text text-anchor="start" transform="translate(292.7727985512727,7) rotate(45) translate(0,8)" font-family="sans-serif" font-size="10px" fill="#000" opacity="1">August 2025</text><text text-anchor="start" transform="translate(322.2050427323654,7) rotate(45) translate(0,8)" font-family="sans-serif" font-size="10px" fill="#000" opacity="0">September 2025</text><text text-anchor="start" transform="translate(350.68785968181015,7) rotate(45) translate(0,8)" font-family="sans-serif" font-size="10px" fill="#000" opacity="1">October 2025</text><text text-anchor="start" transform="translate(380.120103862903,7) rotate(45) translate(0,8)" font-family="sans-serif" font-size="10px" fill="#000" opacity="0">November 2025</text></g><g class="mark-rule role-axis-domain" pointer-events="none"><line transform="translate(0,0)" x2="400" y2="0" stroke="#888" stroke-width="1" opacity="1"/></g><g class="mark-text role-axis-title" pointer-events="none"><text text-anchor="middle" transform="translate(200,77.38337257480673)" font-family="sans-serif" font-size="11px" font-weight="bold" fill="#000" opacity="1">Date de la recherche</text></g></g><path class="foreground" aria-hidden="true" d="" pointer-events="none" display="none"/></g></g><g class="mark-group role-axis" role="graphics-symbol" aria-roledescription="axis" aria-label="Y-axis titled 'Nombre de trajets' for a linear scale with values from 0 to 450,000"><g transform="translate(0.5,0.5)"><path class="background" aria-hidden="true" d="M0,0h0v0h0Z" pointer-events="none"/><g><g class="mark-rule role-axis-tick" pointer-events="none"><line transform="translate(0,200)" x2="-5" y2="0" stroke="#888" stroke-width="1" opacity="1"/><line transform="translate(0,156)" x2="-5" y2="0" stroke="#888" stroke-width="1" opacity="1"/><line transform="translate(0,111)" x2="-5" y2="0" stroke="#888" stroke-width="1" opacity="1"/><line transform="translate(0,67)" x2="-5" y2="0" stroke="#888" stroke-width="1" opacity="1"/><line transform="translate(0,22)" x2="-5" y2="0" stroke="#888" stroke-width="1" opacity="1"/></g><g class="mark-text role-axis-label" pointer-events="none"><text text-anchor="end" transform="translate(-7,203)" font-family="sans-serif" font-size="10px" fill="#000" opacity="1">0</text><text text-anchor="end" transform="translate(-7,158.55555555555557)" font-family="sans-serif" font-size="10px" fill="#000" opacity="1">100,000</text><text text-anchor="end" transform="translate(-7,114.11111111111111)" font-family="sans-serif" font-size="10px" fill="#000" opacity="1">200,000</text><text text-anchor="end" transform="translate(-7,69.66666666666667)" font-family="sans-serif" font-size="10px" fill="#000" opacity="1">300,000</text><text text-anchor="end" transform="translate(-7,25.222222222222232)" font-family="sans-serif" font-size="10px" fill="#000" opacity="1">400,000</text></g><g class="mark-rule role-axis-domain" pointer-events="none"><line transform="translate(0,200)" x2="0" y2="-200" stroke="#888" stroke-width="1" opacity="1"/></g><g class="mark-text role-axis-title" pointer-events="none"><text text-anchor="middle" transform="translate(-47.1474609375,100) rotate(-90) translate(0,-2)" font-family="sans-serif" font-size="11px" font-weight="bold" fill="#000" opacity="1">Nombre de trajets</text></g></g><path class="foreground" aria-hidden="true" d="" pointer-events="none" display="none"/></g></g><g class="mark-group role-scope pathgroup" role="graphics-object" aria-roledescription="group mark container"><g transform="translate(0,0)"><path class="background" aria-hidden="true" d="M0,0h400v200h-400Z"/><g><g class="mark-line role-mark marks" role="graphics-object" aria-roledescription="line mark container"><path aria-label="Date de la recherche: September 2024; Nombre de trajets: 91488; variable: disponible" role="graphics-symbol" aria-roledescription="line mark" d="M0,159.339L0.834,160.009L1.784,160.25L2.733,159.721L3.683,159.224L4.632,160.066L5.582,161.226L6.531,162.729L7.48,163.599L8.43,164.927L9.379,164.272L10.329,163.069L11.278,163.83L12.228,166.394L13.177,165.123L14.126,166.305L15.076,167.015L16.025,167.638L16.975,167.648L17.924,168.931L18.874,169.444L19.823,170.203L20.772,170.474L21.722,170.704L22.671,168.872L23.621,167.766L24.57,168.451L25.52,167.16L26.469,168.696L27.418,166.936L28.368,167.617L29.317,164.943L30.274,163.236L31.216,165.275L32.166,163.601L33.115,165.017L34.064,163.38L35.014,162.688L35.963,161.357L36.913,159.746L37.862,159.755L38.813,159.142L39.761,161.116L40.71,160.392L41.66,160.483L42.609,158.316L43.559,156.748L44.51,154.82L45.458,155.253L46.407,154.239L47.356,154.859L48.308,156.557L49.255,155.787L50.206,155.331L51.154,156.853L52.103,157.538L53.053,158.599L54.002,159.242L54.952,159.566L55.901,159.835L56.851,159.906L57.8,161.397L58.749,162.616L59.699,164.062L60.648,165.294L61.598,166.184L62.547,166.252L63.497,166.133L64.446,167.211L65.396,167.551L66.345,168.202L67.295,168.182L68.245,168.864L69.194,168.023L70.143,166.956L71.092,166.728L72.041,166.308L72.991,166.35L73.94,164.781L74.89,165.02L75.839,163.984L76.788,162.302L77.738,162.622L78.687,161.783L79.637,161.712L80.586,159.731L81.536,159.145L82.485,157.033L83.435,155.203L84.384,153.702L85.333,149.882L86.283,149.315L87.232,147.688L88.182,147.022L89.131,145.158L90.081,143.235L91.03,141.419L91.979,139.417L92.929,139.184L93.878,141.537L94.828,142.381L95.777,139.298L96.726,137.729L97.676,138.287L98.625,138.306L99.575,139.025L100.525,139.891L101.474,141.793L102.423,142.216L103.372,142.23L104.322,143.622L105.271,144.212L106.221,146.113L107.17,147.762L108.12,148.816L109.069,149.653L110.018,149.103L110.968,149.572L111.917,151.036L112.867,152.019L113.816,154.556L114.766,155.987L115.715,156.427L116.664,155.749L117.614,156.068L118.563,156.588L119.513,157.142L120.462,158.761L121.411,159.033L122.361,159.104L123.311,158.219L124.26,158.195L125.209,158.685L126.159,160.639L127.108,161.217L128.058,162.238L129.007,161.805L129.957,161.569L130.906,162.052L131.855,162.612L132.805,163.765L133.754,164.016L134.704,164.144L135.653,163.397L136.602,162.463L137.552,162.635L138.501,160.836L139.451,162.052L140.4,161.876L141.35,162.061L142.299,159.33L143.248,157.85L144.198,157.162L145.147,156.173L146.097,157.449L147.046,157.287L147.995,157.682L148.945,156.434L149.894,155.299L150.844,155.873L151.793,156.232L152.743,158.153L153.692,157.316L154.641,158.821L155.591,157.497L156.54,156.43L157.49,156.36L158.439,156.624L159.389,157.757L160.338,159.565L161.287,159.94L162.237,160.216L163.186,159.533L164.136,159.946L165.085,160.72L166.035,162.035L166.984,162.685L167.934,163.619L168.883,164.437L169.832,164.308L170.782,164.997L171.731,165.332L172.681,166.06L173.63,166.832L174.579,167.163L175.529,167.356L176.478,166.756L177.428,168.562L178.377,168.524L179.327,169.668L180.276,169.96L181.225,170.583L182.175,169.531L183.124,169.106L184.074,170.336L185.023,171.222L185.973,172.901L186.922,173.898L187.871,173.981L188.821,173.399L189.77,172.256L190.72,172.224L191.669,172.383L192.619,172.577L193.568,171.82L194.517,171.468L195.467,170.136L196.416,168.69L197.366,167.228L198.315,166.981L199.265,166.786L200.214,166.962L201.163,166.335L202.113,165.966L203.062,165.59L204.012,166.577L204.961,167.733L205.911,170.02L206.86,168.846L207.809,169.858L208.759,169.379L209.708,168.202L210.658,168.43L211.607,170.075L212.556,170.046L213.506,169.925L214.455,169.592L215.405,168.736L216.354,168.091L217.304,168.04L218.253,168.317L219.202,169.349L220.152,169.497L221.101,170.13L222.051,170.491L223,170.374L223.95,171.072L224.899,173.061L225.848,174.635L226.798,174.731L227.747,174.89L228.697,174.699L229.646,174.329L230.596,175.925L231.545,174.959L232.494,175.182L233.444,176.424L234.393,174.932L235.343,174.408L236.292,173.2L237.242,172.78L238.191,173.29L239.141,173.061L240.09,173.79L241.039,173.8L241.989,173.333L242.938,172.788L243.888,172.172L244.837,172.853L245.787,173.283L246.736,175.056L247.686,174.065L248.635,174.497L249.585,174.456L250.534,175.107L251.483,175.869L252.432,176.792L253.382,176.778L254.331,177.009L255.281,177.119L256.23,176.421L257.179,176.539L258.129,177.062L259.079,177.335L260.028,177.774L260.977,178.057L261.927,177.759L262.876,177.03L263.826,176.662L264.775,177.327L265.725,177.417L266.674,177.748L267.623,177.901L268.573,177.574L269.522,176.725L270.472,176.693L271.421,176.283L272.37,176.441L273.32,176.327L274.269,176.355L275.219,175.682L276.168,175.172L277.118,174.815L278.067,178.13L279.016,178.902L279.966,178.285L280.915,178.194L281.865,177.128L282.814,176.427L283.764,176.211L284.713,176.344L285.662,176.647L286.612,176.738L287.561,176.03L288.511,175.164L289.46,174.287L290.41,174.413L291.359,173.714L292.309,174.324L293.258,173.887L294.207,173.912L295.157,172.471L296.106,171.321L297.056,171.24L298.005,171.28L298.954,172.08L299.904,172.211L300.853,172.403L301.803,171.398L302.752,170.396L303.702,170.518L304.652,170.236L305.6,170.683L306.55,170.087L307.499,170.074L308.449,169.3L309.398,168.013L310.348,167.635L311.297,166.205L312.247,166.481L313.196,166.323L314.145,166.3L315.095,165.771L316.044,164.96L317.004,164.593L317.943,165.332L318.892,166.362L319.842,166.83L320.791,167.888L321.741,167.998L322.69,168.088L323.64,168.656L324.589,170.384L325.538,164.386L326.488,164.849L327.437,166.016L328.387,165.694L329.336,164.655L330.286,163.862L331.235,163.137L332.185,165.146L333.134,165.064L334.083,165.244L335.033,165.762L335.982,164.872L336.931,164.64L337.882,165.472L338.83,166.088L339.78,167.32L340.729,166.82L341.679,167.115L342.628,167.029L343.578,167.192L344.527,167.811L345.476,168.811L346.426,170.644L347.375,169.776L348.325,170.481L349.274,170.076L350.223,170.333L351.173,170.433L352.122,171.609L353.072,172.44L354.021,172.626L354.971,172.988L355.92,172.106L356.869,171.847L357.819,172.026L358.768,173.442L359.718,173.866L360.667,173.078L361.617,172.944L362.566,173.152L363.515,173.688L364.465,174.006L365.414,174.688L366.364,174.205L367.313,173.786L368.263,172.674L369.212,171.307L370.162,171.597L371.111,171.21L372.06,171.624L373.01,171.142L373.959,170.751L374.909,169.213L375.859,167.775L376.807,167.387L377.757,167.261L378.706,167.35L379.656,166.703L380.605,167.341L381.555,166.164L382.504,164.592L383.453,164.66L384.403,164.254L385.352,165.054L386.302,165.095L387.251,164.783L388.201,163.01L389.15,162.001L390.099,161.608L391.049,160.09L391.998,160.927L392.948,161.446L393.897,161.809L395.228,161.546L396.237,160.467L397.154,161.036L398.101,161.558L399.05,162.723L400,163.683" stroke="#4c78a8" stroke-width="2"/></g></g><path class="foreground" aria-hidden="true" d="" display="none"/></g><g transform="translate(0,0)"><path class="background" aria-hidden="true" d="M0,0h400v200h-400Z"/><g><g class="mark-line role-mark marks" role="graphics-object" aria-roledescription="line mark container"><path aria-label="Date de la recherche: September 2024; Nombre de trajets: 351801; variable: total" role="graphics-symbol" aria-roledescription="line mark" d="M0,43.644L0.834,43.23L1.784,43.532L2.733,43.471L3.683,43.523L4.632,42.888L5.582,42.975L6.531,43.715L7.48,43.55L8.43,43.967L9.379,43.883L10.329,43.916L11.278,43.705L12.228,43.343L13.177,45.168L14.126,47.57L15.076,49.451L16.025,50.78L16.975,51.056L17.924,51.055L18.874,50.496L19.823,50.482L20.772,50.263L21.722,50.547L22.671,50.55L23.621,50.929L24.57,51.131L25.52,50.923L26.469,51.584L27.418,51.856L28.368,52.263L29.317,52.39L30.274,52.759L31.216,52.836L32.166,52.374L33.115,53.093L34.064,53.62L35.014,53.032L35.963,52.105L36.913,52.092L37.862,52.091L38.813,51.462L39.761,51.622L40.71,41.063L41.66,40.994L42.609,38.53L43.559,35.785L44.51,33.752L45.458,31.452L46.407,31.196L47.356,31.976L48.308,32.224L49.255,32.1L50.206,32.214L51.154,43.381L52.103,42.648L53.053,31.545L54.002,31.141L54.952,31.16L55.901,30.515L56.851,30.687L57.8,30.67L58.749,41.943L59.699,41.649L60.648,29.061L61.598,29.416L62.547,28.902L63.497,29.519L64.446,29.164L65.396,28.757L66.345,28.1L67.295,27.722L68.245,26.185L69.194,25.875L70.143,25.729L71.092,25.856L72.041,25.331L72.991,37.198L73.94,25.074L74.89,25.668L75.839,25.804L76.788,25.909L77.738,26.032L78.687,25.492L79.637,25.271L80.586,25.142L81.536,25.764L82.485,26.482L83.435,26.828L84.384,27.121L85.333,26.415L86.283,25.957L87.232,26.279L88.182,27.016L89.131,27.544L90.081,27.983L91.03,28.387L91.979,27.747L92.929,27.414L93.878,27.669L94.828,28.387L95.777,28.939L96.726,29.468L97.676,29.973L98.625,29.508L99.575,29.126L100.525,29.288L101.474,30.003L102.423,30.398L103.372,30.824L104.322,31.144L105.271,30.97L106.221,41.714L107.17,30.252L108.12,30.988L109.069,31.619L110.018,31.958L110.968,32.143L111.917,31.707L112.867,31.087L113.816,31.152L114.766,31.917L115.715,32.222L116.664,32.403L117.614,32.294L118.563,31.743L119.513,31.524L120.462,31.784L121.411,32.277L122.361,32.624L123.311,32.712L124.26,32.796L125.209,32.445L126.159,31.822L127.108,31.126L128.058,31.789L129.007,32.685L129.957,33.031L130.906,33.212L131.855,32.773L132.805,33.388L133.754,33.592L134.704,34.164L135.653,35.362L136.602,35.763L137.552,35.899L138.501,35.315L139.451,35.592L140.4,36.133L141.35,36.764L142.299,37.632L143.248,37.992L144.198,38.217L145.147,48.657L146.097,49.276L147.046,49.164L147.995,49.493L148.945,49.746L149.894,49.778L150.844,38.859L151.793,38.161L152.743,37.686L153.692,37.108L154.641,37.387L155.591,37.632L156.54,37.878L157.49,37.688L158.439,36.921L159.389,36.403L160.338,35.921L161.287,36.056L162.237,35.163L163.186,34.855L164.136,34.686L165.085,33.996L166.035,34.483L166.984,35.695L167.934,36.783L168.883,36.296L169.832,35.908L170.782,35.731L171.731,34.88L172.681,34.631L173.63,34.328L174.579,34.329L175.529,33.922L176.478,33.396L177.428,33.329L178.377,33.858L179.327,34.476L180.276,35.666L181.225,36.248L182.175,37.45L183.124,37.177L184.074,37.877L185.023,37.17L185.973,38.661L186.922,39.278L187.871,39.69L188.821,40.057L189.77,40.341L190.72,40.363L191.669,39.966L192.619,40.384L193.568,40.357L194.517,40.606L195.467,39.799L196.416,38.261L197.366,37.851L198.315,37.399L199.265,37.4L200.214,37.352L201.163,37.876L202.113,38.551L203.062,38.273L204.012,38.913L204.961,40.323L205.911,42.092L206.86,42.238L207.809,41.801L208.759,41.309L209.708,41.427L210.658,41.43L211.607,40.981L212.556,41.689L213.506,42.137L214.455,40.74L215.405,38.877L216.354,38.676L217.304,38.774L218.253,38.256L219.202,39.166L220.152,39.717L221.101,40.268L222.051,39.847L223,39.945L223.95,40.043L224.899,39.415L225.848,39.523L226.798,39.268L227.747,39.68L228.697,39.566L229.646,39.679L230.596,39.789L231.545,39.682L232.494,40.502L233.444,40.502L234.393,38.96L235.343,37.599L236.292,49.079L237.242,48.936L238.191,47.866L239.141,35.477L240.09,34.581L241.039,34.1L241.989,32.722L242.938,30.764L243.888,29.522L244.837,28.472L245.787,27.45L246.736,26.752L247.686,26.195L248.635,24.508L249.585,23.186L250.534,22.453L251.483,21.27L252.432,20.594L253.382,19.795L254.331,19.459L255.281,18.917L256.23,18.407L257.179,17.611L258.129,15.996L259.079,14.744L260.028,13.67L260.977,13.268L261.927,11.688L262.876,10.401L263.826,9.68L264.775,8.634L265.725,7.666L266.674,6.733L267.623,6.447L268.573,6.648L269.522,6.913L270.472,7.142L271.421,6.778L272.37,6.423L273.32,6.221L274.269,6.697L275.219,6.961L276.168,6.967L277.118,6.828L278.067,6.909L279.016,6.72L279.966,6.489L280.915,6.91L281.865,7.019L282.814,7.102L283.764,7.276L284.713,7L285.662,6.7L286.612,6.562L287.561,7.013L288.511,7.419L289.46,7.774L290.41,8.004L291.359,7.824L292.309,7.632L293.258,7.624L294.207,8.608L295.157,9.588L296.106,10.514L297.056,23.998L298.005,24.18L298.954,24.671L299.904,12.251L300.853,13.22L301.803,14.339L302.752,15.249L303.702,15.966L304.652,16.04L305.6,16.588L306.55,17.289L307.499,18.311L308.449,19.453L309.398,20.548L310.348,21.367L311.297,21.895L312.247,22.307L313.196,22.592L314.145,23.508L315.095,24.434L316.044,25.478L317.004,26.376L317.943,26.459L318.892,26.994L319.842,27.342L320.791,28.512L321.741,29.606L322.69,30.551L323.64,30.946L324.589,30.848L325.538,30.833L326.488,30.717L327.437,31.369L328.387,31.672L329.336,32.168L330.286,32.468L331.235,32.252L332.185,32.707L333.134,32.744L334.083,33.391L335.033,33.776L335.982,34.194L336.931,34.264L337.882,33.874L338.83,33.784L339.78,33.23L340.729,33.629L341.679,33.935L342.628,34.376L343.578,34.532L344.527,33.903L345.476,33.763L346.426,33.499L347.375,34.137L348.325,34.408L349.274,34.85L350.223,34.911L351.173,34.408L352.122,34.312L353.072,33.871L354.021,34.43L354.971,34.635L355.92,34.972L356.869,35.029L357.819,34.567L358.768,34.906L359.718,35.273L360.667,36.404L361.617,36.064L362.566,36.193L363.515,36.184L364.465,35.46L365.414,35.25L366.364,34.94L367.313,35.736L368.263,35.958L369.212,36.317L370.162,36.487L371.111,36.016L372.06,36.638L373.01,36.584L373.959,37.003L374.909,37.092L375.859,37.367L376.807,37.441L377.757,36.927L378.706,36.857L379.656,36.367L380.605,36.565L381.555,36.544L382.504,36.812L383.453,36.737L384.403,36.034L385.352,36.394L386.302,36.221L387.251,36.347L388.201,35.854L389.15,35.315L390.099,34.461L391.049,33.782L391.998,33.904L392.948,33.897L393.897,34.39L395.228,34.251L396.237,34.461L397.154,34.308L398.101,33.611L399.05,32.839L400,32.159" stroke="#f58518" stroke-width="2"/></g></g><path class="foreground" aria-hidden="true" d="" display="none"/></g></g><g class="mark-group role-legend" role="graphics-symbol" aria-roledescription="legend" aria-label="Symbol legend for stroke color with 2 values: disponible, total"><g transform="translate(0,-29)"><path class="background" aria-hidden="true" d="M0,0h108v11h-108Z" pointer-events="none"/><g><g class="mark-group role-legend-entry"><g transform="translate(0,0)"><path class="background" aria-hidden="true" d="M0,0h0v0h0Z" pointer-events="none"/><g><g class="mark-group role-scope" role="graphics-object" aria-roledescription="group mark container"><g transform="translate(0,0)"><path class="background" aria-hidden="true" d="M0,0h61.0341796875v11h-61.0341796875Z" pointer-events="none" opacity="1"/><g><g class="mark-symbol role-legend-symbol" pointer-events="none"><path transform="translate(6,6)" d="M-5,0L5,0" stroke="#4c78a8" stroke-width="1.5" opacity="1"/></g><g class="mark-text role-legend-label" pointer-events="none"><text text-anchor="start" transform="translate(16,9)" font-family="sans-serif" font-size="10px" fill="#000" opacity="1">disponible</text></g></g><path class="foreground" aria-hidden="true" d="" pointer-events="none" display="none"/></g><g transform="translate(73,0)"><path class="background" aria-hidden="true" d="M0,0h34.9013671875v11h-34.9013671875Z" pointer-events="none" opacity="1"/><g><g class="mark-symbol role-legend-symbol" pointer-events="none"><path transform="translate(6,6)" d="M-5,0L5,0" stroke="#f58518" stroke-width="1.5" opacity="1"/></g><g class="mark-text role-legend-label" pointer-events="none"><text text-anchor="start" transform="translate(16,9)" font-family="sans-serif" font-size="10px" fill="#000" opacity="1">total</text></g></g><path class="foreground" aria-hidden="true" d="" pointer-events="none" display="none"/></g></g></g><path class="foreground" aria-hidden="true" d="" pointer-events="none" display="none"/></g></g></g><path class="foreground" aria-hidden="true" d="" pointer-events="none" display="none"/></g></g><g class="mark-group role-title"><g transform="translate(200,-46)"><path class="background" aria-hidden="true" d="M0,0h0v0h0Z" pointer-events="none"/><g><g class="mark-text role-title-text" role="graphics-symbol" aria-roledescription="title" aria-label="Title text 'Historique du nombre de trajets MAXJEUNE et au total, disponibles chaque jour'" pointer-events="none"><text text-anchor="middle" transform="translate(0,10)" font-family="sans-serif" font-size="13px" font-weight="bold" fill="#000" opacity="1">Historique du nombre de trajets MAXJEUNE et au total, disponibles chaque jour</text></g></g><path class="foreground" aria-hidden="true" d="" pointer-events="none" display="none"/></g></g></g><path class="foreground" aria-hidden="true" d="" display="none"/></g></g></g></svg>