<svg xmlns="http://www.w3.org/2000/svg" xmlns:xlink="http://www.w3.org/1999/xlink" version="1.1" class="marks" width="517" height="336" viewBox="0 0 517 336"><rect width="517" height="336" fill="white"/><g fill="none" stroke-miterlimit="10" transform="translate(64,51)"><g class="mark-group role-frame root" role="graphics-object" aria-roledescription="group mark container"><g transform="translate(0,0)"><path class="background" aria-hidden="true" d="M0.5,0.5h400v200h-400Z" stroke="#ddd"/><g><g class="mark-group role-axis" aria-hidden="true"><g transform="translate(0.5,200.5)"><path class="background" aria-hidden="true" d="M0,0h0v0h0Z" pointer-events="none"/><g><g class="mark-rule role-axis-grid" pointer-events="none"><line transform="translate(4,-200)" x2="0" y2="200" stroke="#ddd" stroke-width="1" opacity="1"/><line transform="translate(34,-200)" x2="0" y2="200" stroke="#ddd" stroke-width="1" opacity="1"/><line transform="translate(63,-200)" x2="0" y2="200" stroke="#ddd" stroke-width="1" opacity="1"/><line transform="translate(92,-200)" x2="0" y2="200" stroke="#ddd" stroke-width="1" opacity="1"/><line transform="translate(122,-200)" x2="0" y2="200" stroke="#ddd" stroke-width="1" opacity="1"/><line transform="translate(149,-200)" x2="0" y2="200" stroke="#ddd" stroke-width="1" opacity="1"/><line transform="translate(179,-200)" x2="0" y2="200" stroke="#ddd" stroke-width="1" opacity="1"/><line transform="translate(207,-200)" x2="0" y2="200" stroke="#ddd" stroke-width="1" opacity="1"/><line transform="translate(237,-200)" x2="0" y2="200" stroke="#ddd" stroke-width="1" opacity="1"/><line transform="translate(266,-200)" x2="0" y2="200" stroke="#ddd" stroke-width="1" opacity="1"/><line transform="translate(296,-200)" x2="0" y2="200" stroke="#ddd" stroke-width="1" opacity="1"/><line transform="translate(325,-200)" x2="0" y2="200" stroke="#ddd" stroke-width="1" opacity="1"/><line transform="translate(354,-200)" x2="0" y2="200" stroke="#ddd" stroke-width="1" opacity="1"/><line transform="translate(384,-200)" x2="0" y2="200" stroke="#ddd" stroke-width="1" opacity="1"/></g></g><path class="foreground" aria-hidden="true" d="" pointer-events="none" display="none"/></g></g><g class="mark-group role-axis" aria-hidden="true"><g transform="translate(0.5,0.5)"><path class="background" aria-hidden="true" d="M0,0h0v0h0Z" pointer-events="none"/><g><g class="mark-rule role-axis-grid" pointer-events="none"><line transform="translate(0,200)" x2="400" y2="0" stroke="#ddd" stroke-width="1" opacity="1"/><line transform="translate(0,156)" x2="400" y2="0" stroke="#ddd" stroke-width="1" opacity="1"/><line transform="translate(0,111)" x2="400" y2="0" stroke="#ddd" stroke-width="1" opacity="1"/><line transform="translate(0,67)" x2="400" y2="0" stroke="#ddd" stroke-width="1" opacity="1"/><line transform="translate(0,22)" x2="400" y2="0" stroke="#ddd" stroke-width="1" opacity="1"/></g></g><path class="foreground" aria-hidden="true" d="" pointer-events="none" display="none"/></g></g><g class="mark-group role-axis" role="graphics-symbol" aria-roledescription="axis" aria-label="X-axis titled 'Date de la recherche' for a time scale with values from September 2024 to November 2025"><g transform="translate(0.5,200.5)"><path class="background" aria-hidden="true" d="M0,0h0v0h0Z" pointer-events="none"/><g><g class="mark-rule role-axis-tick" pointer-events="none"><line transform="translate(4,0)" x2="0" y2="5" stroke="#888" stroke-width="1" opacity="1"/><line transform="translate(34,0)" x2="0" y2="5" stroke="#888" stroke-width="1" opacity="1"/><line transform="translate(63,0)" x2="0" y2="5" stroke="#888" stroke-width="1" opacity="1"/><line transform="translate(92,0)" x2="0" y2="5" stroke="#888" stroke-width="1" opacity="1"/><line transform="translate(122,0)" x2="0" y2="5" stroke="#888" stroke-width="1" opacity="1"/><line transform="translate(149,0)" x2="0" y2="5" stroke="#888" stroke-width="1" opacity="1"/><line transform="translate(179,0)" x2="0" y2="5" stroke="#888" stroke-width="1" opacity="1"/><line transform="translate(207,0)" x2="0" y2="5" stroke="#888" stroke-width="1" opacity="1"/><line transform="translate(237,0)" x2="0" y2="5" stroke="#888" stroke-width="1" opacity="1"/><line transform="translate(266,0)" x2="0" y2="5" stroke="#888" stroke-width="1" opacity="1"/><line transform="translate(296,0)" x2="0" y2="5" stroke="#888" stroke-width="1" opacity="1"/><line transform="translate(325,0)" x2="0" y2="5" stroke="#888" stroke-width="1" opacity="1"/><line transform="translate(354,0)" x2="0" y2="5" stroke="#888" stroke-width="1" opacity="1"/><line transform="translate(384,0)" x2="0" y2="5" stroke="#888" stroke-width="1" opacity="1"/></g><g class="mark-text role-axis-label" pointer-events="none"><text text-anchor="start" transform="translate(4.1862990433479395,7) rotate(45) translate(0,8)" font-family="sans-serif" font-size="10px" fill="#000" opacity="1">October 2024</text><text text-anchor="start" transform="translate(33.89803010867781,7) rotate(45) translate(0,8)" font-family="sans-serif" font-size="10px" fill="#000" opacity="0">November 2024</text><text text-anchor="start" transform="translate(62.65131823641639,7) rotate(45) translate(0,8)" font-family="sans-serif" font-size="10px" fill="#000" opacity="1">December 2024</text><text text-anchor="start" transform="translate(92.36304930174626,7) rotate(45) translate(0,8)" font-family="sans-serif" font-size="10px" fill="#000" opacity="0">January 2025</text><text text-anchor="start" transform="translate(122.07478036707613,7) rotate(45) translate(0,8)" font-family="sans-serif" font-size="10px" fill="#000" opacity="1">February 2025</text><text text-anchor="start" transform="translate(148.91118261963214,7) rotate(45) translate(0,8)" font-family="sans-serif" font-size="10px" fill="#000" opacity="0">March 2025</text><text text-anchor="start" transform="translate(178.622913684962,7) rotate(45) translate(0,8)" font-family="sans-serif" font-size="10px" fill="#000" opacity="1">April 2025</text><text text-anchor="start" transform="translate(207.3762018127006,7) rotate(45) translate(0,8)" font-family="sans-serif" font-size="10px" fill="#000" opacity="0">May 2025</text><text text-anchor="start" transform="translate(237.08793287803047,7) rotate(45) translate(0,8)" font-family="sans-serif" font-size="10px" fill="#000" opacity="1">June 2025</text><text text-anchor="start" transform="translate(265.841221005769,7) rotate(45) translate(0,8)" font-family="sans-serif" font-size="10px" fill="#000" opacity="0">July 2025</text><text text-anchor="start" transform="translate(295.5529520710989,7) rotate(45) translate(0,8)" font-family="sans-serif" font-size="10px" fill="#000" opacity="1">August 2025</text><text text-anchor="start" transform="translate(325.26468313642874,7) rotate(45) translate(0,8)" font-family="sans-serif" font-size="10px" fill="#000" opacity="0">September 2025</text><text text-anchor="start" transform="translate(354.01797126416733,7) rotate(45) translate(0,8)" font-family="sans-serif" font-size="10px" fill="#000" opacity="1">October 2025</text><text text-anchor="start" transform="translate(383.72970232949723,7) rotate(45) translate(0,8)" font-family="sans-serif" font-size="10px" fill="#000" opacity="0">November 2025</text></g><g class="mark-rule role-axis-domain" pointer-events="none"><line transform="translate(0,0)" x2="400" y2="0" stroke="#888" stroke-width="1" opacity="1"/></g><g class="mark-text role-axis-title" pointer-events="none"><text text-anchor="middle" transform="translate(200,77.38337257480673)" font-family="sans-serif" font-size="11px" font-weight="bold" fill="#000" opacity="1">Date de la recherche</text></g></g><path class="foreground" aria-hidden="true" d="" pointer-events="none" display="none"/></g></g><g class="mark-group role-axis" role="graphics-symbol" aria-roledescription="axis" aria-label="Y-axis titled 'Nombre de trajets' for a linear scale with values from 0 to 450,000"><g transform="translate(0.5,0.5)"><path class="background" aria-hidden="true" d="M0,0h0v0h0Z" pointer-events="none"/><g><g class="mark-rule role-axis-tick" pointer-events="none"><line transform="translate(0,200)" x2="-5" y2="0" stroke="#888" stroke-width="1" opacity="1"/><line transform="translate(0,156)" x2="-5" y2="0" stroke="#888" stroke-width="1" opacity="1"/><line transform="translate(0,111)" x2="-5" y2="0" stroke="#888" stroke-width="1" opacity="1"/><line transform="translate(0,67)" x2="-5" y2="0" stroke="#888" stroke-width="1" opacity="1"/><line transform="translate(0,22)" x2="-5" y2="0" stroke="#888" stroke-width="1" opacity="1"/></g><g class="mark-text role-axis-label" pointer-events="none"><text text-anchor="end" transform="translate(-7,203)" font-family="sans-serif" font-size="10px" fill="#000" opacity="1">0</text><text text-anchor="end" transform="translate(-7,158.55555555555557)" font-family="sans-serif" font-size="10px" fill="#000" opacity="1">100,000</text><text text-anchor="end" transform="translate(-7,114.11111111111111)" font-family="sans-serif" font-size="10px" fill="#000" opacity="1">200,000</text><text text-anchor="end" transform="translate(-7,69.66666666666667)" font-family="sans-serif" font-size="10px" fill="#000" opacity="1">300,000</text><text text-anchor="end" transform="translate(-7,25.222222222222232)" font-family="sans-serif" font-size="10px" fill="#000" opacity="1">400,000</text></g><g class="mark-rule role-axis-domain" pointer-events="none"><line transform="translate(0,200)" x2="0" y2="-200" stroke="#888" stroke-width="1" opacity="1"/></g><g class="mark-text role-axis-title" pointer-events="none"><text text-anchor="middle" transform="translate(-47.1474609375,100) rotate(-90) translate(0,-2)" font-family="sans-serif" font-size="11px" font-weight="bold" fill="#000" opacity="1">Nombre de trajets</text></g></g><path class="foreground" aria-hidden="true" d="" pointer-events="none" display="none"/></g></g><g class="mark-group role-scope pathgroup" role="graphics-object" aria-roledescription="group mark container"><g transform="translate(0,0)"><path class="background" aria-hidden="true" d="M0,0h400v200h-400Z"/><g><g class="mark-line role-mark marks" role="graphics-object" aria-roledescription="line mark container"><path aria-label="Date de la recherche: September 2024; Nombre de trajets: 91488; variable: disponible" role="graphics-symbol" aria-roledescription="line mark" d="M0,159.339L0.842,160.009L1.801,160.25L2.759,159.721L3.718,159.224L4.676,160.066L5.635,161.226L6.594,162.729L7.551,163.599L8.51,164.927L9.468,164.272L10.427,163.069L11.385,163.83L12.344,166.394L13.302,165.123L14.261,166.305L15.219,167.015L16.177,167.638L17.136,167.648L18.094,168.931L19.053,169.444L20.011,170.203L20.97,170.474L21.928,170.704L22.887,168.872L23.845,167.766L24.803,168.451L25.762,167.16L26.72,168.696L27.679,166.936L28.637,167.617L29.596,164.943L30.561,163.236L31.512,165.275L32.471,163.601L33.429,165.017L34.388,163.38L35.347,162.688L36.305,161.357L37.263,159.746L38.221,159.755L39.182,159.142L40.138,161.116L41.097,160.392L42.055,160.483L43.014,158.316L43.972,156.748L44.933,154.82L45.889,155.253L46.848,154.239L47.806,154.859L48.767,156.557L49.723,155.787L50.682,155.331L51.64,156.853L52.598,157.538L53.557,158.599L54.515,159.242L55.474,159.566L56.432,159.835L57.39,159.906L58.349,161.397L59.307,162.616L60.266,164.062L61.224,165.294L62.183,166.184L63.141,166.252L64.1,166.133L65.058,167.211L66.017,167.551L66.975,168.202L67.934,168.182L68.893,168.864L69.851,168.023L70.809,166.956L71.767,166.728L72.725,166.308L73.684,166.35L74.642,164.781L75.601,165.02L76.559,163.984L77.518,162.302L78.476,162.622L79.435,161.783L80.393,161.712L81.351,159.731L82.31,159.145L83.268,157.033L84.227,155.203L85.185,153.702L86.144,149.882L87.102,149.315L88.06,147.688L89.019,147.022L89.977,145.158L90.936,143.235L91.894,141.419L92.853,139.417L93.811,139.184L94.77,141.537L95.728,142.381L96.687,139.298L97.645,137.729L98.603,138.287L99.562,138.306L100.52,139.025L101.479,139.891L102.438,141.793L103.396,142.216L104.354,142.23L105.313,143.622L106.271,144.212L107.229,146.113L108.188,147.762L109.146,148.816L110.105,149.653L111.063,149.103L112.022,149.572L112.98,151.036L113.938,152.019L114.897,154.556L115.855,155.987L116.814,156.427L117.772,155.749L118.731,156.068L119.689,156.588L120.648,157.142L121.606,158.761L122.564,159.033L123.523,159.104L124.481,158.219L125.44,158.195L126.398,158.685L127.357,160.639L128.315,161.217L129.274,162.238L130.232,161.805L131.191,161.569L132.149,162.052L133.107,162.612L134.066,163.765L135.024,164.016L135.983,164.144L136.941,163.397L137.9,162.463L138.858,162.635L139.817,160.836L140.775,162.052L141.733,161.876L142.692,162.061L143.65,159.33L144.609,157.85L145.567,157.162L146.526,156.173L147.484,157.449L148.442,157.287L149.401,157.682L150.359,156.434L151.318,155.299L152.276,155.873L153.235,156.232L154.193,158.153L155.152,157.316L156.11,158.821L157.068,157.497L158.027,156.43L158.986,156.36L159.944,156.624L160.902,157.757L161.861,159.565L162.819,159.94L163.777,160.216L164.736,159.533L165.694,159.946L166.653,160.72L167.611,162.035L168.57,162.685L169.528,163.619L170.487,164.437L171.445,164.308L172.403,164.997L173.362,165.332L174.32,166.06L175.279,166.832L176.237,167.163L177.196,167.356L178.154,166.756L179.113,168.562L180.071,168.524L181.029,169.668L181.988,169.96L182.946,170.583L183.905,169.531L184.863,169.106L185.822,170.336L186.78,171.222L187.738,172.901L188.697,173.898L189.655,173.981L190.614,173.399L191.572,172.256L192.531,172.224L193.489,172.383L194.448,172.577L195.406,171.82L196.365,171.468L197.323,170.136L198.281,168.69L199.24,167.228L200.198,166.981L201.157,166.786L202.115,166.962L203.074,166.335L204.032,165.966L204.991,165.59L205.949,166.577L206.907,167.733L207.866,170.02L208.824,168.846L209.783,169.858L210.741,169.379L211.7,168.202L212.658,168.43L213.617,170.075L214.575,170.046L215.533,169.925L216.492,169.592L217.45,168.736L218.409,168.091L219.367,168.04L220.326,168.317L221.284,169.349L222.242,169.497L223.201,170.13L224.159,170.491L225.118,170.374L226.076,171.072L227.035,173.061L227.993,174.635L228.952,174.731L229.91,174.89L230.868,174.699L231.827,174.329L232.785,175.925L233.744,174.959L234.702,175.182L235.661,176.424L236.619,174.932L237.578,174.408L238.536,173.2L239.495,172.78L240.453,173.29L241.411,173.061L242.37,173.79L243.328,173.8L244.287,173.333L245.245,172.788L246.204,172.172L247.162,172.853L248.121,173.283L249.079,175.056L250.038,174.065L250.996,174.497L251.955,174.456L252.913,175.107L253.871,175.869L254.829,176.792L255.788,176.778L256.746,177.009L257.705,177.119L258.663,176.421L259.622,176.539L260.58,177.062L261.539,177.335L262.497,177.774L263.456,178.057L264.414,177.759L265.373,177.03L266.331,176.662L267.289,177.327L268.248,177.417L269.206,177.748L270.165,177.901L271.123,177.574L272.082,176.725L273.04,176.693L273.999,176.283L274.957,176.441L275.916,176.327L276.874,176.355L277.832,175.682L278.791,175.172L279.749,174.815L280.708,178.13L281.666,178.902L282.625,178.285L283.583,178.194L284.541,177.128L285.5,176.427L286.459,176.211L287.417,176.344L288.375,176.647L289.334,176.738L290.292,176.03L291.25,175.164L292.209,174.287L293.167,174.413L294.126,173.714L295.084,174.324L296.043,173.887L297.001,173.912L297.96,172.471L298.918,171.321L299.876,171.24L300.835,171.28L301.793,172.08L302.752,172.211L303.71,172.403L304.669,171.398L305.627,170.396L306.586,170.518L307.545,170.236L308.502,170.683L309.461,170.087L310.419,170.074L311.378,169.3L312.336,168.013L313.295,167.635L314.253,166.205L315.212,166.481L316.17,166.323L317.128,166.3L318.087,165.771L319.045,164.96L320.014,164.593L320.962,165.332L321.921,166.362L322.879,166.83L323.838,167.888L324.796,167.998L325.754,168.088L326.713,168.656L327.671,170.384L328.63,164.386L329.588,164.849L330.547,166.016L331.505,165.694L332.463,164.655L333.422,163.862L334.38,163.137L335.339,165.146L336.297,165.064L337.256,165.244L338.214,165.762L339.173,164.872L340.131,164.64L341.09,165.472L342.048,166.088L343.007,167.32L343.965,166.82L344.923,167.115L345.882,167.029L346.84,167.192L347.799,167.811L348.757,168.811L349.715,170.644L350.674,169.776L351.632,170.481L352.591,170.076L353.549,170.333L354.508,170.433L355.466,171.609L356.425,172.44L357.383,172.626L358.341,172.988L359.3,172.106L360.258,171.847L361.217,172.026L362.175,173.442L363.134,173.866L364.092,173.078L365.051,172.944L366.009,173.152L366.967,173.688L367.926,174.006L368.884,174.688L369.843,174.205L370.801,173.786L371.76,172.674L372.718,171.307L373.677,171.597L374.635,171.21L375.593,171.624L376.552,171.142L377.51,170.751L378.469,169.213L379.428,167.775L380.386,167.387L381.344,167.261L382.302,167.35L383.261,166.703L384.219,167.341L385.178,166.164L386.136,164.592L387.095,164.66L388.053,164.254L389.012,165.054L389.97,165.095L390.929,164.783L391.887,163.01L392.845,162.001L393.804,161.608L394.762,160.09L395.721,160.927L396.68,161.446L397.638,161.809L398.982,161.546L400,160.467" stroke="#4c78a8" stroke-width="2"/></g></g><path class="foreground" aria-hidden="true" d="" display="none"/></g><g transform="translate(0,0)"><path class="background" aria-hidden="true" d="M0,0h400v200h-400Z"/><g><g class="mark-line role-mark marks" role="graphics-object" aria-roledescription="line mark container"><path aria-label="Date de la recherche: September 2024; Nombre de trajets: 351801; variable: total" role="graphics-symbol" aria-roledescription="line mark" d="M0,43.644L0.842,43.23L1.801,43.532L2.759,43.471L3.718,43.523L4.676,42.888L5.635,42.975L6.594,43.715L7.551,43.55L8.51,43.967L9.468,43.883L10.427,43.916L11.385,43.705L12.344,43.343L13.302,45.168L14.261,47.57L15.219,49.451L16.177,50.78L17.136,51.056L18.094,51.055L19.053,50.496L20.011,50.482L20.97,50.263L21.928,50.547L22.887,50.55L23.845,50.929L24.803,51.131L25.762,50.923L26.72,51.584L27.679,51.856L28.637,52.263L29.596,52.39L30.561,52.759L31.512,52.836L32.471,52.374L33.429,53.093L34.388,53.62L35.347,53.032L36.305,52.105L37.263,52.092L38.221,52.091L39.182,51.462L40.138,51.622L41.097,41.063L42.055,40.994L43.014,38.53L43.972,35.785L44.933,33.752L45.889,31.452L46.848,31.196L47.806,31.976L48.767,32.224L49.723,32.1L50.682,32.214L51.64,43.381L52.598,42.648L53.557,31.545L54.515,31.141L55.474,31.16L56.432,30.515L57.39,30.687L58.349,30.67L59.307,41.943L60.266,41.649L61.224,29.061L62.183,29.416L63.141,28.902L64.1,29.519L65.058,29.164L66.017,28.757L66.975,28.1L67.934,27.722L68.893,26.185L69.851,25.875L70.809,25.729L71.767,25.856L72.725,25.331L73.684,37.198L74.642,25.074L75.601,25.668L76.559,25.804L77.518,25.909L78.476,26.032L79.435,25.492L80.393,25.271L81.351,25.142L82.31,25.764L83.268,26.482L84.227,26.828L85.185,27.121L86.144,26.415L87.102,25.957L88.06,26.279L89.019,27.016L89.977,27.544L90.936,27.983L91.894,28.387L92.853,27.747L93.811,27.414L94.77,27.669L95.728,28.387L96.687,28.939L97.645,29.468L98.603,29.973L99.562,29.508L100.52,29.126L101.479,29.288L102.438,30.003L103.396,30.398L104.354,30.824L105.313,31.144L106.271,30.97L107.229,41.714L108.188,30.252L109.146,30.988L110.105,31.619L111.063,31.958L112.022,32.143L112.98,31.707L113.938,31.087L114.897,31.152L115.855,31.917L116.814,32.222L117.772,32.403L118.731,32.294L119.689,31.743L120.648,31.524L121.606,31.784L122.564,32.277L123.523,32.624L124.481,32.712L125.44,32.796L126.398,32.445L127.357,31.822L128.315,31.126L129.274,31.789L130.232,32.685L131.191,33.031L132.149,33.212L133.107,32.773L134.066,33.388L135.024,33.592L135.983,34.164L136.941,35.362L137.9,35.763L138.858,35.899L139.817,35.315L140.775,35.592L141.733,36.133L142.692,36.764L143.65,37.632L144.609,37.992L145.567,38.217L146.526,48.657L147.484,49.276L148.442,49.164L149.401,49.493L150.359,49.746L151.318,49.778L152.276,38.859L153.235,38.161L154.193,37.686L155.152,37.108L156.11,37.387L157.068,37.632L158.027,37.878L158.986,37.688L159.944,36.921L160.902,36.403L161.861,35.921L162.819,36.056L163.777,35.163L164.736,34.855L165.694,34.686L166.653,33.996L167.611,34.483L168.57,35.695L169.528,36.783L170.487,36.296L171.445,35.908L172.403,35.731L173.362,34.88L174.32,34.631L175.279,34.328L176.237,34.329L177.196,33.922L178.154,33.396L179.113,33.329L180.071,33.858L181.029,34.476L181.988,35.666L182.946,36.248L183.905,37.45L184.863,37.177L185.822,37.877L186.78,37.17L187.738,38.661L188.697,39.278L189.655,39.69L190.614,40.057L191.572,40.341L192.531,40.363L193.489,39.966L194.448,40.384L195.406,40.357L196.365,40.606L197.323,39.799L198.281,38.261L199.24,37.851L200.198,37.399L201.157,37.4L202.115,37.352L203.074,37.876L204.032,38.551L204.991,38.273L205.949,38.913L206.907,40.323L207.866,42.092L208.824,42.238L209.783,41.801L210.741,41.309L211.7,41.427L212.658,41.43L213.617,40.981L214.575,41.689L215.533,42.137L216.492,40.74L217.45,38.877L218.409,38.676L219.367,38.774L220.326,38.256L221.284,39.166L222.242,39.717L223.201,40.268L224.159,39.847L225.118,39.945L226.076,40.043L227.035,39.415L227.993,39.523L228.952,39.268L229.91,39.68L230.868,39.566L231.827,39.679L232.785,39.789L233.744,39.682L234.702,40.502L235.661,40.502L236.619,38.96L237.578,37.599L238.536,49.079L239.495,48.936L240.453,47.866L241.411,35.477L242.37,34.581L243.328,34.1L244.287,32.722L245.245,30.764L246.204,29.522L247.162,28.472L248.121,27.45L249.079,26.752L250.038,26.195L250.996,24.508L251.955,23.186L252.913,22.453L253.871,21.27L254.829,20.594L255.788,19.795L256.746,19.459L257.705,18.917L258.663,18.407L259.622,17.611L260.58,15.996L261.539,14.744L262.497,13.67L263.456,13.268L264.414,11.688L265.373,10.401L266.331,9.68L267.289,8.634L268.248,7.666L269.206,6.733L270.165,6.447L271.123,6.648L272.082,6.913L273.04,7.142L273.999,6.778L274.957,6.423L275.916,6.221L276.874,6.697L277.832,6.961L278.791,6.967L279.749,6.828L280.708,6.909L281.666,6.72L282.625,6.489L283.583,6.91L284.541,7.019L285.5,7.102L286.459,7.276L287.417,7L288.375,6.7L289.334,6.562L290.292,7.013L291.25,7.419L292.209,7.774L293.167,8.004L294.126,7.824L295.084,7.632L296.043,7.624L297.001,8.608L297.96,9.588L298.918,10.514L299.876,23.998L300.835,24.18L301.793,24.671L302.752,12.251L303.71,13.22L304.669,14.339L305.627,15.249L306.586,15.966L307.545,16.04L308.502,16.588L309.461,17.289L310.419,18.311L311.378,19.453L312.336,20.548L313.295,21.367L314.253,21.895L315.212,22.307L316.17,22.592L317.128,23.508L318.087,24.434L319.045,25.478L320.014,26.376L320.962,26.459L321.921,26.994L322.879,27.342L323.838,28.512L324.796,29.606L325.754,30.551L326.713,30.946L327.671,30.848L328.63,30.833L329.588,30.717L330.547,31.369L331.505,31.672L332.463,32.168L333.422,32.468L334.38,32.252L335.339,32.707L336.297,32.744L337.256,33.391L338.214,33.776L339.173,34.194L340.131,34.264L341.09,33.874L342.048,33.784L343.007,33.23L343.965,33.629L344.923,33.935L345.882,34.376L346.84,34.532L347.799,33.903L348.757,33.763L349.715,33.499L350.674,34.137L351.632,34.408L352.591,34.85L353.549,34.911L354.508,34.408L355.466,34.312L356.425,33.871L357.383,34.43L358.341,34.635L359.3,34.972L360.258,35.029L361.217,34.567L362.175,34.906L363.134,35.273L364.092,36.404L365.051,36.064L366.009,36.193L366.967,36.184L367.926,35.46L368.884,35.25L369.843,34.94L370.801,35.736L371.76,35.958L372.718,36.317L373.677,36.487L374.635,36.016L375.593,36.638L376.552,36.584L377.51,37.003L378.469,37.092L379.428,37.367L380.386,37.441L381.344,36.927L382.302,36.857L383.261,36.367L384.219,36.565L385.178,36.544L386.136,36.812L387.095,36.737L388.053,36.034L389.012,36.394L389.97,36.221L390.929,36.347L391.887,35.854L392.845,35.315L393.804,34.461L394.762,33.782L395.721,33.904L396.68,33.897L397.638,34.39L398.982,34.251L400,34.461" stroke="#f58518" stroke-width="2"/></g></g><path class="foreground" aria-hidden="true" d="" display="none"/></g></g><g class="mark-group role-legend" role="graphics-symbol" aria-roledescription="legend" aria-label="Symbol legend for stroke color with 2 values: disponible, total"><g transform="translate(0,-29)"><path class="background" aria-hidden="true" d="M0,0h108v11h-108Z" pointer-events="none"/><g><g class="mark-group role-legend-entry"><g transform="translate(0,0)"><path class="background" aria-hidden="true" d="M0,0h0v0h0Z" pointer-events="none"/><g><g class="mark-group role-scope" role="graphics-object" aria-roledescription="group mark container"><g transform="translate(0,0)"><path class="background" aria-hidden="true" d="M0,0h61.0341796875v11h-61.0341796875Z" pointer-events="none" opacity="1"/><g><g class="mark-symbol role-legend-symbol" pointer-events="none"><path transform="translate(6,6)" d="M-5,0L5,0" stroke="#4c78a8" stroke-width="1.5" opacity="1"/></g><g class="mark-text role-legend-label" pointer-events="none"><text text-anchor="start" transform="translate(16,9)" font-family="sans-serif" font-size="10px" fill="#000" opacity="1">disponible</text></g></g><path class="foreground" aria-hidden="true" d="" pointer-events="none" display="none"/></g><g transform="translate(73,0)"><path class="background" aria-hidden="true" d="M0,0h34.9013671875v11h-34.9013671875Z" pointer-events="none" opacity="1"/><g><g class="mark-symbol role-legend-symbol" pointer-events="none"><path transform="translate(6,6)" d="M-5,0L5,0" stroke="#f58518" stroke-width="1.5" opacity="1"/></g><g class="mark-text role-legend-label" pointer-events="none"><text text-anchor="start" transform="translate(16,9)" font-family="sans-serif" font-size="10px" fill="#000" opacity="1">total</text></g></g><path class="foreground" aria-hidden="true" d="" pointer-events="none" display="none"/></g></g></g><path class="foreground" aria-hidden="true" d="" pointer-events="none" display="none"/></g></g></g><path class="foreground" aria-hidden="true" d="" pointer-events="none" display="none"/></g></g><g class="mark-group role-title"><g transform="translate(200,-46)"><path class="background" aria-hidden="true" d="M0,0h0v0h0Z" pointer-events="none"/><g><g class="mark-text role-title-text" role="graphics-symbol" aria-roledescription="title" aria-label="Title text 'Historique du nombre de trajets MAXJEUNE et au total, disponibles chaque jour'" pointer-events="none"><text text-anchor="middle" transform="translate(0,10)" font-family="sans-serif" font-size="13px" font-weight="bold" fill="#000" opacity="1">Historique du nombre de trajets MAXJEUNE et au total, disponibles chaque jour</text></g></g><path class="foreground" aria-hidden="true" d="" pointer-events="none" display="none"/></g></g></g><path class="foreground" aria-hidden="true" d="" display="none"/></g></g></g></svg>