<svg xmlns="http://www.w3.org/2000/svg" xmlns:xlink="http://www.w3.org/1999/xlink" version="1.1" class="marks" width="517" height="328" viewBox="0 0 517 328"><rect width="517" height="328" fill="white"/><g fill="none" stroke-miterlimit="10" transform="translate(64,51)"><g class="mark-group role-frame root" role="graphics-object" aria-roledescription="group mark container"><g transform="translate(0,0)"><path class="background" aria-hidden="true" d="M0.5,0.5h400v200h-400Z" stroke="#ddd"/><g><g class="mark-group role-axis" aria-hidden="true"><g transform="translate(0.5,200.5)"><path class="background" aria-hidden="true" d="M0,0h0v0h0Z" pointer-events="none"/><g><g class="mark-rule role-axis-grid" pointer-events="none"><line transform="translate(3,-200)" x2="0" y2="200" stroke="#ddd" stroke-width="1" opacity="1"/><line transform="translate(56,-200)" x2="0" y2="200" stroke="#ddd" stroke-width="1" opacity="1"/><line transform="translate(108,-200)" x2="0" y2="200" stroke="#ddd" stroke-width="1" opacity="1"/><line transform="translate(160,-200)" x2="0" y2="200" stroke="#ddd" stroke-width="1" opacity="1"/><line transform="translate(214,-200)" x2="0" y2="200" stroke="#ddd" stroke-width="1" opacity="1"/><line transform="translate(267,-200)" x2="0" y2="200" stroke="#ddd" stroke-width="1" opacity="1"/><line transform="translate(319,-200)" x2="0" y2="200" stroke="#ddd" stroke-width="1" opacity="1"/><line transform="translate(372,-200)" x2="0" y2="200" stroke="#ddd" stroke-width="1" opacity="1"/></g></g><path class="foreground" aria-hidden="true" d="" pointer-events="none" display="none"/></g></g><g class="mark-group role-axis" aria-hidden="true"><g transform="translate(0.5,0.5)"><path class="background" aria-hidden="true" d="M0,0h0v0h0Z" pointer-events="none"/><g><g class="mark-rule role-axis-grid" pointer-events="none"><line transform="translate(0,200)" x2="400" y2="0" stroke="#ddd" stroke-width="1" opacity="1"/><line transform="translate(0,150)" x2="400" y2="0" stroke="#ddd" stroke-width="1" opacity="1"/><line transform="translate(0,100)" x2="400" y2="0" stroke="#ddd" stroke-width="1" opacity="1"/><line transform="translate(0,50)" x2="400" y2="0" stroke="#ddd" stroke-width="1" opacity="1"/><line transform="translate(0,0)" x2="400" y2="0" stroke="#ddd" stroke-width="1" opacity="1"/></g></g><path class="foreground" aria-hidden="true" d="" pointer-events="none" display="none"/></g></g><g class="mark-group role-axis" role="graphics-symbol" aria-roledescription="axis" aria-label="X-axis titled 'Date de la recherche' for a time scale with values from September 2024 to August 2026"><g transform="translate(0.5,200.5)"><path class="background" aria-hidden="true" d="M0,0h0v0h0Z" pointer-events="none"/><g><g class="mark-rule role-axis-tick" pointer-events="none"><line transform="translate(3,0)" x2="0" y2="5" stroke="#888" stroke-width="1" opacity="1"/><line transform="translate(56,0)" x2="0" y2="5" stroke="#888" stroke-width="1" opacity="1"/><line transform="translate(108,0)" x2="0" y2="5" stroke="#888" stroke-width="1" opacity="1"/><line transform="translate(160,0)" x2="0" y2="5" stroke="#888" stroke-width="1" opacity="1"/><line transform="translate(214,0)" x2="0" y2="5" stroke="#888" stroke-width="1" opacity="1"/><line transform="translate(267,0)" x2="0" y2="5" stroke="#888" stroke-width="1" opacity="1"/><line transform="translate(319,0)" x2="0" y2="5" stroke="#888" stroke-width="1" opacity="1"/><line transform="translate(372,0)" x2="0" y2="5" stroke="#888" stroke-width="1" opacity="1"/></g><g class="mark-text role-axis-label" pointer-events="none"><text text-anchor="start" transform="translate(2.527241028181211,7) rotate(45) translate(0,8)" font-family="sans-serif" font-size="10px" fill="#000" opacity="1">October 2024</text><text text-anchor="start" transform="translate(55.758961618905154,7) rotate(45) translate(0,8)" font-family="sans-serif" font-size="10px" fill="#000" opacity="1">January 2025</text><text text-anchor="start" transform="translate(107.83347089243946,7) rotate(45) translate(0,8)" font-family="sans-serif" font-size="10px" fill="#000" opacity="1">April 2025</text><text text-anchor="start" transform="translate(160.48658582456858,7) rotate(45) translate(0,8)" font-family="sans-serif" font-size="10px" fill="#000" opacity="1">July 2025</text><text text-anchor="start" transform="translate(213.7183064152925,7) rotate(45) translate(0,8)" font-family="sans-serif" font-size="10px" fill="#000" opacity="1">October 2025</text><text text-anchor="start" transform="translate(266.95002700601646,7) rotate(45) translate(0,8)" font-family="sans-serif" font-size="10px" fill="#000" opacity="1">January 2026</text><text text-anchor="start" transform="translate(319.0245362795508,7) rotate(45) translate(0,8)" font-family="sans-serif" font-size="10px" fill="#000" opacity="1">April 2026</text><text text-anchor="start" transform="translate(371.6776512116799,7) rotate(45) translate(0,8)" font-family="sans-serif" font-size="10px" fill="#000" opacity="1">July 2026</text></g><g class="mark-rule role-axis-domain" pointer-events="none"><line transform="translate(0,0)" x2="400" y2="0" stroke="#888" stroke-width="1" opacity="1"/></g><g class="mark-text role-axis-title" pointer-events="none"><text text-anchor="middle" transform="translate(200,69.92215307214985)" font-family="sans-serif" font-size="11px" font-weight="bold" fill="#000" opacity="1">Date de la recherche</text></g></g><path class="foreground" aria-hidden="true" d="" pointer-events="none" display="none"/></g></g><g class="mark-group role-axis" role="graphics-symbol" aria-roledescription="axis" aria-label="Y-axis titled 'Nombre de trajets' for a linear scale with values from 0 to 400,000"><g transform="translate(0.5,0.5)"><path class="background" aria-hidden="true" d="M0,0h0v0h0Z" pointer-events="none"/><g><g class="mark-rule role-axis-tick" pointer-events="none"><line transform="translate(0,200)" x2="-5" y2="0" stroke="#888" stroke-width="1" opacity="1"/><line transform="translate(0,150)" x2="-5" y2="0" stroke="#888" stroke-width="1" opacity="1"/><line transform="translate(0,100)" x2="-5" y2="0" stroke="#888" stroke-width="1" opacity="1"/><line transform="translate(0,50)" x2="-5" y2="0" stroke="#888" stroke-width="1" opacity="1"/><line transform="translate(0,0)" x2="-5" y2="0" stroke="#888" stroke-width="1" opacity="1"/></g><g class="mark-text role-axis-label" pointer-events="none"><text text-anchor="end" transform="translate(-7,203)" font-family="sans-serif" font-size="10px" fill="#000" opacity="1">0</text><text text-anchor="end" transform="translate(-7,153)" font-family="sans-serif" font-size="10px" fill="#000" opacity="1">100,000</text><text text-anchor="end" transform="translate(-7,103)" font-family="sans-serif" font-size="10px" fill="#000" opacity="1">200,000</text><text text-anchor="end" transform="translate(-7,53)" font-family="sans-serif" font-size="10px" fill="#000" opacity="1">300,000</text><text text-anchor="end" transform="translate(-7,3)" font-family="sans-serif" font-size="10px" fill="#000" opacity="1">400,000</text></g><g class="mark-rule role-axis-domain" pointer-events="none"><line transform="translate(0,200)" x2="0" y2="-200" stroke="#888" stroke-width="1" opacity="1"/></g><g class="mark-text role-axis-title" pointer-events="none"><text text-anchor="middle" transform="translate(-47.1474609375,100) rotate(-90) translate(0,-2)" font-family="sans-serif" font-size="11px" font-weight="bold" fill="#000" opacity="1">Nombre de trajets</text></g></g><path class="foreground" aria-hidden="true" d="" pointer-events="none" display="none"/></g></g><g class="mark-group role-scope pathgroup" role="graphics-object" aria-roledescription="group mark container"><g transform="translate(0,0)"><path class="background" aria-hidden="true" d="M0,0h400v200h-400Z"/><g><g class="mark-line role-mark marks" role="graphics-object" aria-roledescription="line mark container"><path aria-label="Date de la recherche: September 2024; Nombre de trajets: 90064; variable: disponible" role="graphics-symbol" aria-roledescription="line mark" d="M0,154.968L0.508,155.733L1.087,155.849L1.666,155.249L2.244,154.706L2.823,155.647L3.402,156.936L3.98,158.611L4.559,159.578L5.137,161.051L5.716,160.232L6.295,158.887L6.873,159.757L7.452,162.622L8.03,161.186L8.609,162.517L9.188,163.314L9.766,164.01L10.345,164.032L10.923,165.467L11.502,166.043L12.081,166.883L12.659,167.187L13.238,167.45L13.816,165.395L14.395,164.165L14.974,164.939L15.552,163.463L16.131,165.186L16.709,163.209L17.288,163.971L17.867,160.982L18.449,159.082L19.024,161.376L19.603,159.478L20.181,161.072L20.76,159.24L21.339,158.471L21.917,156.976L22.495,155.186L23.074,155.206L23.654,154.501L24.231,156.687L24.81,155.87L25.389,155.975L25.967,153.544L26.546,151.81L27.126,149.657L27.703,150.119L28.282,148.968L28.86,149.665L29.44,151.587L30.017,150.725L30.597,150.247L31.175,151.977L31.753,152.725L32.332,153.898L32.91,154.616L33.489,154.978L34.068,155.274L34.646,155.354L35.225,157.015L35.803,158.365L36.382,159.98L36.961,161.327L37.539,162.333L38.118,162.388L38.697,162.251L39.275,163.458L39.854,163.83L40.432,164.564L41.011,164.539L41.59,165.319L42.168,164.379L42.747,163.203L43.325,162.973L43.904,162.518L44.482,162.586L45.061,160.835L45.64,161.142L46.218,159.983L46.797,158.101L47.375,158.467L47.954,157.526L48.533,157.444L49.111,155.239L49.69,154.588L50.268,152.251L50.847,150.225L51.426,148.563L52.004,144.291L52.583,143.67L53.162,141.894L53.74,141.173L54.319,139.108L54.897,136.98L55.476,134.989L56.055,132.763L56.633,132.524L57.212,135.188L57.79,136.135L58.369,132.697L58.948,130.95L59.526,131.578L60.105,131.561L60.683,132.339L61.262,133.284L61.841,135.399L62.419,135.847L62.998,135.858L63.576,137.406L64.155,138.04L64.734,140.126L65.312,141.915L65.891,143.074L66.469,143.981L67.048,143.375L67.627,143.9L68.205,145.535L68.784,146.599L69.362,149.389L69.941,150.987L70.52,151.445L71.098,150.679L71.677,151.062L72.256,151.618L72.834,152.229L73.413,154.046L73.991,154.351L74.57,154.412L75.149,153.406L75.727,153.367L76.306,153.888L76.884,156.04L77.463,156.669L78.042,157.81L78.62,157.313L79.199,157.047L79.777,157.575L80.356,158.166L80.935,159.431L81.513,159.706L82.092,159.848L82.67,158.995L83.249,157.945L83.828,158.136L84.406,156.106L84.985,157.462L85.564,157.265L86.142,157.476L86.721,154.421L87.299,152.787L87.878,152.041L88.456,150.938L89.035,152.365L89.614,152.195L90.192,152.643L90.771,151.262L91.35,150.001L91.928,150.645L92.507,151.037L93.085,153.158L93.664,152.225L94.243,153.922L94.821,152.442L95.4,151.259L95.979,151.191L96.557,151.477L97.136,152.743L97.714,154.781L98.293,155.208L98.871,155.551L99.45,154.8L100.029,155.283L100.607,156.148L101.186,157.605L101.764,158.325L102.343,159.373L102.922,160.304L103.5,160.171L104.079,160.969L104.657,161.308L105.236,162.091L105.815,162.944L106.393,163.317L106.972,163.501L107.55,162.836L108.129,164.858L108.708,164.829L109.286,166.086L109.865,166.43L110.443,167.135L111.022,165.96L111.601,165.495L112.179,166.877L112.758,167.849L113.336,169.688L113.915,170.789L114.494,170.875L115.072,170.221L115.651,168.943L116.23,168.904L116.808,169.053L117.387,169.255L117.965,168.412L118.544,168.02L119.123,166.532L119.701,164.924L120.28,163.313L120.858,163.048L121.437,162.82L122.016,162.997L122.594,162.291L123.173,161.905L123.751,161.49L124.33,162.601L124.909,163.887L125.487,166.459L126.066,165.131L126.644,166.265L127.223,165.732L127.802,164.419L128.38,164.685L128.959,166.554L129.537,166.527L130.116,166.396L130.695,166.035L131.273,165.078L131.852,164.366L132.43,164.313L133.009,164.62L133.588,165.77L134.166,165.935L134.745,166.64L135.324,167.049L135.902,166.921L136.481,167.69L137.059,169.905L137.638,171.652L138.217,171.735L138.795,171.918L139.374,171.688L139.952,171.282L140.531,173.049L141.11,171.97L141.688,172.23L142.267,173.612L142.845,171.945L143.424,171.366L144.003,170.02L144.581,169.554L145.16,170.116L145.738,169.844L146.317,170.659L146.896,170.679L147.474,170.16L148.053,169.553L148.632,168.868L149.21,169.634L149.789,170.104L150.367,172.084L150.946,170.968L151.525,171.455L152.103,171.414L152.682,172.162L153.26,173L153.839,174.038L154.417,174.015L154.996,174.271L155.575,174.377L156.153,173.602L156.732,173.737L157.311,174.319L157.889,174.612L158.468,175.106L159.046,175.429L159.625,175.097L160.204,174.282L160.782,173.871L161.361,174.614L161.939,174.699L162.518,175.073L163.097,175.245L163.675,174.872L164.254,173.92L164.832,173.889L165.411,173.422L165.99,173.601L166.568,173.471L167.147,173.506L167.726,172.75L168.304,172.175L168.883,171.774L169.461,175.505L170.04,176.378L170.619,175.686L171.197,175.588L171.776,174.388L172.354,173.605L172.933,173.373L173.511,173.515L174.09,173.844L174.669,173.947L175.247,173.151L175.826,172.167L176.405,171.187L176.983,171.332L177.562,170.541L178.14,171.215L178.719,170.732L179.298,170.771L179.876,169.151L180.455,167.868L181.033,167.786L181.612,167.82L182.191,168.715L182.769,168.859L183.348,169.08L183.926,167.953L184.505,166.84L185.084,166.977L185.663,166.657L186.241,167.146L186.819,166.484L187.398,166.475L187.977,165.623L188.555,164.178L189.134,163.778L189.712,162.162L190.291,162.437L190.87,162.265L191.448,162.317L192.027,161.742L192.605,160.848L193.19,160.444L193.763,161.271L194.341,162.424L194.92,163.016L195.499,164.217L196.077,164.319L196.656,164.418L197.234,165.054L197.813,166.983L198.392,160.232L198.97,160.738L199.549,162.052L200.127,161.678L200.706,160.509L201.285,159.6L201.863,158.795L202.442,161.033L203.02,160.935L203.599,161.135L204.178,161.704L204.756,160.708L205.335,160.444L205.914,161.365L206.492,162.053L207.071,163.443L207.649,162.892L208.228,163.207L208.806,163.107L209.385,163.285L209.964,163.972L210.542,165.093L211.121,167.142L211.699,166.188L212.278,166.971L212.857,166.514L213.435,166.797L214.014,166.898L214.593,168.219L215.171,169.148L215.75,169.359L216.328,169.754L216.907,168.774L217.486,168.487L218.064,168.685L218.643,170.267L219.221,170.754L219.8,169.882L220.379,169.748L220.957,169.979L221.536,170.59L222.114,170.941L222.693,171.71L223.272,171.203L223.85,170.738L224.429,169.486L225.007,167.974L225.586,168.298L226.165,167.867L226.743,168.346L227.322,167.821L227.9,167.402L228.479,165.689L229.058,164.094L229.636,163.656L230.215,163.5L230.793,163.587L231.372,162.873L231.951,163.597L232.529,162.261L233.108,160.504L233.686,160.572L234.265,160.1L234.844,160.98L235.422,161.035L236.001,160.705L236.579,158.704L237.158,157.564L237.737,157.112L238.315,155.393L238.894,156.323L239.473,156.904L240.051,157.334L240.862,157.028L241.477,155.821L242.036,156.472L242.613,157.061L243.191,158.366L243.523,159.443L244.101,159.592L244.68,159.266L245.259,159.113L245.837,159.8L246.416,160.641L246.994,162.019L247.835,163.283L248.399,164.362L248.978,165.269L249.557,165.269L250.135,165.882L250.714,166.94L251.292,168.382L251.871,169.732L252.45,170.182L253.028,169.737L253.607,168.081L254.187,167.658L254.767,167.31L255.343,167.822L255.922,166.598L256.5,166.586L257.079,165.885L257.409,164.085L257.988,164.059L258.567,164.067L259.145,164.733L259.724,162.967L260.303,163.781L260.881,161.834L261.46,160.089L262.038,158.98L262.617,156.998L263.195,156.787L263.774,155.466L264.353,154.703L264.931,152.749L265.51,150.484L266.088,148.73L266.667,147.071L267.246,146.313L267.824,145.653L268.403,144.94L268.981,142.597L269.56,140.436L270.139,135.323L270.717,136.51L271.296,186.612L271.874,142.499L272.453,144.484L273.032,144.958L273.61,143.886L274.189,142.659L274.768,144.224L275.346,147.405L275.925,149.643L276.503,150.798L277.082,152.713L277.661,151.395L278.239,151.076L279.067,152.824L279.646,156.59L280.223,157.584L280.802,157.599L281.381,158.775L281.96,157.593L282.538,158.066L283.117,159.612L283.698,161.791L284.275,162.439L284.853,161.866L285.432,161.353L286.589,159.422L287.168,158.908L287.746,160.134L288.325,160.994L288.904,160.624L289.483,162.154L290.061,160.64L290.64,160.16L291.218,162.131L291.797,162.968L292.376,165.794L292.955,164.55L293.532,164.01L294.111,162.283L294.691,162.883L295.268,164.48L295.847,166.041L296.425,165.287L297.004,157.145L297.582,155.509L298.162,152.648L298.74,150.842L299.319,151.924L299.897,153.325L300.475,153.163L301.054,153.38L301.632,152.399L302.213,149.456L302.79,147.11L303.369,151.1L303.947,153.679L304.526,155.268L305.104,155.663L305.683,156.453L306.262,154.444L306.897,157.331L307.419,155.027L307.997,157.028L308.576,158.713L309.154,159.183L309.733,159.058L310.313,157.368L310.891,156.17L311.469,157.493L312.049,158.891L312.626,159.772L313.205,159.804L313.783,160.852L314.362,159.328L314.942,159.454L315.52,160.263L316.098,162.363L316.677,163.375L317.255,163.219L317.834,163.618L318.413,162.513L318.991,163.617L319.57,166.213L320.149,167.492L320.729,168.22L321.305,167.684L321.884,166.231L322.463,165.418L323.043,162.63L323.62,162.329L324.199,165.363L324.778,166.432L325.356,167.006L325.935,167.114L326.514,165.606L327.094,166.39L327.671,169.147L328.249,170.416L328.828,171.303L329.406,170.868L329.985,170.361L330.564,168.448L331.142,167.833L331.722,169.48L332.3,171.923L332.878,171.957L333.457,171.626L334.035,171.257L334.615,169.863L335.194,170.026L335.773,171.757L336.351,173.432L336.929,173.786L337.507,172.98L338.086,173.008L338.667,171.686L339.245,171.955L339.824,173.996L340.403,176.16L340.98,176.206L341.558,175.764L342.137,175.52L342.716,174.699L343.296,174.605L343.876,176.335L344.453,177.263L345.031,177.601L345.608,176.626L346.187,175.119L346.767,173.596L347.348,173.364L347.928,174.979L348.506,176.135L349.082,176.146L349.659,175.688L350.239,174.663L350.818,173.213L351.399,171.439L351.979,171.314L352.558,173.985L353.136,174.964L353.71,174.958L354.289,174.471L354.877,172.756L355.455,172.646L356.034,175.347L356.608,176.283L357.184,176.951L357.761,176.495L358.34,176.959L358.922,176.336L359.502,177.427L360.081,179.275L360.66,180.343L361.237,179.645L361.812,179.364L362.392,179.946L362.978,179.177L363.553,179.681L364.131,181.224L364.712,182.289L365.282,182.461L365.863,182.09L366.442,181.819L367.024,181.911L367.599,181.943L368.178,182.117L368.758,182.424L369.335,182.771L369.911,182.943L370.49,182.865L371.068,182.233L371.65,181.968L372.228,182.655L372.805,184.191L373.383,183.772L373.961,183.955L374.54,184.191L375.12,183.16L375.698,183.563L376.276,184.258L376.858,184.504L377.433,183.656L378.01,182.757L378.591,183.347L379.168,182.955L379.747,182.663L380.326,183.048L381.481,183.317L382.06,182.808L382.639,182.046L383.218,180.681L383.797,180.789L384.376,180.965L384.954,182.024L385.534,181.847L386.111,180.594L386.691,180.113L387.27,178.63L387.848,179.719L388.427,181.319L389.006,183.071L389.584,182.819L390.162,181.276L390.741,179.744L391.32,178.025L391.899,177.49L392.495,177.153L393.125,181.051L393.641,178.295L394.217,177.879L394.796,177.201L395.377,176.215L395.959,176.013L396.537,176.876L397.116,177.833L397.686,177.255L398.263,175.954L398.842,175.151L399.421,173.978L400,172.442" stroke="#4c78a8" stroke-width="2"/></g></g><path class="foreground" aria-hidden="true" d="" display="none"/></g><g transform="translate(0,0)"><path class="background" aria-hidden="true" d="M0,0h400v200h-400Z"/><g><g class="mark-line role-mark marks" role="graphics-object" aria-roledescription="line mark container"><path aria-label="Date de la recherche: September 2024; Nombre de trajets: 316947; variable: total" role="graphics-symbol" aria-roledescription="line mark" d="M0,41.527L0.508,41.049L1.087,41.365L1.666,41.288L2.244,41.358L2.823,40.661L3.402,40.8L3.98,41.647L4.559,41.43L5.137,41.781L5.716,41.611L6.295,41.656L6.873,41.43L7.452,41.03L8.03,43.01L8.609,45.596L9.188,47.643L9.766,49.087L10.345,49.384L10.923,49.365L11.502,48.839L12.081,48.832L12.659,48.585L13.238,48.91L13.816,48.899L14.395,49.331L14.974,49.564L15.552,49.321L16.131,50.066L16.709,50.34L17.288,50.805L17.867,50.942L18.449,51.354L19.024,51.45L19.603,50.957L20.181,51.726L20.76,52.334L21.339,51.669L21.917,50.57L22.495,50.564L23.074,50.562L23.654,49.876L24.231,50.093L24.81,38.228L25.389,38.143L25.967,35.371L26.546,32.326L27.126,30.021L27.703,27.456L28.282,27.215L28.86,28.117L29.44,28.444L30.017,28.367L30.597,28.557L31.175,41.151L31.753,40.42L32.332,28.041L32.91,27.611L33.489,27.705L34.068,27.039L34.646,27.306L35.225,27.371L35.803,40.039L36.382,39.766L36.961,25.754L37.539,26.212L38.118,25.675L38.697,26.382L39.275,26.069L39.854,25.719L40.432,25.039L41.011,24.65L41.59,23.12L42.168,22.817L42.747,22.71L43.325,22.94L43.904,22.407L44.482,35.535L45.061,22.16L45.64,22.744L46.218,22.89L46.797,23.04L47.375,23.195L47.954,22.626L48.533,22.355L49.111,22.304L49.69,22.991L50.268,23.55L50.847,24.107L51.426,24.576L52.004,23.818L52.583,23.341L53.162,23.676L53.74,24.5L54.319,25.115L54.897,25.657L55.476,26.126L56.055,25.436L56.633,24.98L57.212,25.17L57.79,25.974L58.369,26.597L58.948,27.242L59.526,27.815L60.105,27.286L60.683,26.791L61.262,26.904L61.841,27.712L62.419,28.178L62.998,28.689L63.576,29.084L64.155,28.919L64.734,40.807L65.312,28.083L65.891,28.901L66.469,29.61L67.048,30.048L67.627,30.29L68.205,29.815L68.784,29.11L69.362,28.935L69.941,29.696L70.52,30.018L71.098,30.221L71.677,30.265L72.256,29.649L72.834,29.249L73.413,29.627L73.991,30.194L74.57,30.682L75.149,30.869L75.727,31.018L76.306,30.63L76.884,29.898L77.463,29.063L78.042,29.787L78.62,30.791L79.199,31.233L79.777,31.43L80.356,30.925L80.935,31.398L81.513,31.486L82.092,32.116L82.67,33.46L83.249,33.938L83.828,34.14L84.406,33.49L84.985,33.675L85.564,34.13L86.142,34.822L86.721,35.822L87.299,36.272L87.878,36.531L88.456,48.092L89.035,48.7L89.614,48.537L90.192,48.953L90.771,49.309L91.35,49.441L91.928,37.403L92.507,36.658L93.085,36.172L93.664,35.573L94.243,35.953L94.821,36.352L95.4,36.749L95.979,36.606L96.557,35.803L97.136,35.27L97.714,34.746L98.293,34.945L98.871,34.238L99.45,34.09L100.029,33.953L100.607,33.214L101.186,33.749L101.764,35.042L102.343,36.193L102.922,35.709L103.5,35.329L104.079,35.163L104.657,34.246L105.236,33.944L105.815,33.472L106.393,33.717L106.972,33.352L107.55,32.816L108.129,32.633L108.708,33.048L109.286,33.438L109.865,34.651L110.443,35.16L111.022,36.488L111.601,36.186L112.179,36.929L112.758,35.987L113.336,37.685L113.915,38.249L114.494,38.674L115.072,39.089L115.651,39.408L116.23,39.365L116.808,38.758L117.387,39.11L117.965,38.964L118.544,39.274L119.123,38.372L119.701,36.711L120.28,36.258L120.858,35.788L121.437,35.793L122.016,35.479L122.594,35.973L123.173,36.414L123.751,36.152L124.33,36.902L124.909,38.521L125.487,40.467L126.066,40.691L126.644,40.384L127.223,40.043L127.802,40.336L128.38,40.649L128.959,40.256L129.537,41.172L130.116,41.592L130.695,40.08L131.273,38.132L131.852,38.1L132.43,38.331L133.009,37.88L133.588,38.948L134.166,39.611L134.745,40.357L135.324,40.06L135.902,40.349L136.481,40.586L137.059,40.189L137.638,40.399L138.217,40.158L138.795,40.715L139.374,40.699L139.952,40.983L140.531,41.231L141.11,41.256L141.688,42.185L142.267,42.09L142.845,40.438L143.424,39.02L144.003,52.049L144.581,51.912L145.16,50.752L145.738,36.969L146.317,35.983L146.896,35.548L147.474,34.173L148.053,32.211L148.632,30.981L149.21,29.89L149.789,28.866L150.367,28.1L150.946,27.683L151.525,25.971L152.103,24.683L152.682,23.962L153.26,22.735L153.839,22.033L154.417,21.19L154.996,20.884L155.575,20.419L156.153,19.985L156.732,19.168L157.311,17.456L157.889,16.19L158.468,15.035L159.046,14.634L159.625,13.064L160.204,11.864L160.782,11.148L161.361,10.03L161.939,9.048L162.518,8.079L163.097,7.898L163.675,8.097L164.254,8.432L164.832,8.631L165.411,8.218L165.99,7.851L166.568,7.582L167.147,8.117L167.726,8.381L168.304,8.445L168.883,8.299L169.461,8.35L170.04,8.168L170.619,7.874L171.197,8.324L171.776,8.467L172.354,8.599L172.933,8.763L173.511,8.411L174.09,8.105L174.669,7.916L175.247,8.394L175.826,8.785L176.405,9.192L176.983,9.444L177.562,9.189L178.14,8.868L178.719,8.691L179.298,9.589L179.876,10.45L180.455,11.298L181.033,26.241L181.612,26.255L182.191,26.615L182.769,12.424L183.348,13.281L183.926,14.295L184.505,15.142L185.084,15.736L185.663,15.622L186.241,16.027L186.819,16.613L187.398,17.571L187.977,18.592L188.555,19.595L189.134,20.28L189.712,21.004L190.291,21.29L190.87,21.409L191.448,22.259L192.027,23.083L192.605,24.075L193.19,24.892L193.763,24.815L194.341,25.244L194.92,25.441L195.499,26.561L196.077,27.699L196.656,28.712L197.234,29.141L197.813,29.038L198.392,28.923L198.97,28.652L199.549,29.351L200.127,29.653L200.706,30.2L201.285,30.52L201.863,30.271L202.442,30.71L203.02,30.667L203.599,31.361L204.178,31.769L204.756,32.228L205.335,32.306L205.914,31.876L206.492,31.782L207.071,31.17L207.649,31.611L208.228,31.946L208.806,32.459L209.385,32.654L209.964,31.981L210.542,31.844L211.121,31.574L211.699,32.295L212.278,32.595L212.857,33.111L213.435,33.202L214.014,32.672L214.593,32.566L215.171,32.081L215.75,32.709L216.328,33.048L216.907,33.56L217.486,33.638L218.064,33.176L218.643,33.573L219.221,33.975L219.8,35.29L220.379,34.936L220.957,35.158L221.536,35.173L222.114,34.383L222.693,34.136L223.272,33.757L223.85,34.643L224.429,34.921L225.007,35.372L225.586,35.572L226.165,35.004L226.743,35.725L227.322,35.591L227.9,36.046L228.479,36.129L229.058,36.411L229.636,36.495L230.215,35.929L230.793,35.871L231.372,35.301L231.951,35.509L232.529,35.509L233.108,35.814L233.686,35.738L234.265,34.966L234.844,35.394L235.422,35.18L236.001,35.303L236.579,34.746L237.158,34.16L237.737,33.165L238.315,32.445L238.894,32.579L239.473,32.374L240.051,32.739L240.862,32.449L241.477,32.556L242.036,32.219L242.613,31.284L243.191,30.231L243.523,29.282L244.101,29.126L244.68,27.921L245.259,27.676L245.837,27.879L246.416,27.284L246.994,26.502L247.835,25.553L248.399,25.661L248.978,24.935L249.557,25.109L250.135,39.657L250.714,25.119L251.292,24.443L251.871,23.78L252.45,24.181L253.028,23.443L253.607,23.422L254.187,23.494L254.767,22.861L255.343,22.395L255.922,21.859L256.5,22.405L257.079,22.175L257.409,22.17L257.988,22.253L258.567,21.71L259.145,21.394L259.724,21.258L260.303,21.857L260.881,22.439L261.46,23.033L262.038,23.395L262.617,23.27L263.195,23.237L263.774,22.803L264.353,23.117L264.931,23.798L265.51,24.517L266.088,24.92L266.667,25.031L267.246,24.564L267.824,24.028L268.403,24.176L268.981,24.738L269.56,25.347L270.139,25.513L270.717,24.879L271.296,178.925L271.874,24.768L272.453,25.453L273.032,25.789L273.61,26.089L274.189,26.18L274.768,25.529L275.346,24.935L275.925,25.871L276.503,26.7L277.082,26.965L277.661,27.343L278.239,27.483L279.067,26.915L279.646,25.784L280.223,25.331L280.802,25.67L281.381,26.047L281.96,26.418L282.538,26.584L283.117,25.747L283.698,24.838L284.275,24.454L284.853,25.225L285.432,25.757L286.589,26.757L287.168,20.622L287.746,19.107L288.325,19.508L288.904,19.581L289.483,22.066L290.061,20.829L290.64,21.273L291.218,22.379L291.797,21.385L292.376,28.397L292.955,29.265L293.532,30.309L294.111,30.947L294.691,31.184L295.268,31.307L295.847,30.804L296.425,43.911L297.004,30.944L297.582,32.2L298.162,32.687L298.74,32.757L299.319,32.246L299.897,32.696L300.475,32.761L301.054,33.153L301.632,33.895L302.213,34.136L302.79,33.849L303.369,46.143L303.947,33.753L304.526,47.188L305.104,34.039L305.683,34.177L306.262,34.329L306.897,33.267L307.419,33.268L307.997,32.668L308.576,32.063L309.154,32.191L309.733,31.584L310.313,31.104L310.891,30.611L311.469,29.618L312.049,28.862L312.626,28.18L313.205,28.195L313.783,27.639L314.362,27.317L314.942,26.919L315.52,26.202L316.098,25.59L316.677,25.094L317.255,24.981L317.834,24.293L318.413,24.025L318.991,23.605L319.57,23.514L320.149,38.195L320.729,23.591L321.305,23.62L321.884,23.126L322.463,22.481L323.043,21.836L323.62,22.956L324.199,24.642L324.778,25.048L325.356,25.572L325.935,25.685L326.514,25.649L327.094,26.46L327.671,28.086L328.249,29.301L328.828,29.777L329.406,30.062L329.985,30.337L330.564,30.683L331.142,30.862L331.722,30.483L332.3,31.076L332.878,32.202L333.457,32.795L334.035,32.826L334.615,33.245L335.194,33.375L335.773,32.973L336.351,34.928L336.929,37.514L337.507,36.911L338.086,36.672L338.667,37.031L339.245,37.233L339.824,36.831L340.403,37.958L340.98,38.688L341.558,37.592L342.137,35.882L342.716,35.505L343.296,35.705L343.876,35.534L344.453,37.132L345.031,36.506L345.608,34.895L346.187,33.21L346.767,32.989L347.348,33.196L347.928,32.891L348.506,34.187L349.082,34.311L349.659,34.83L350.239,34.581L350.818,33.776L351.399,33.948L351.979,33.8L352.558,33.731L353.136,33.793L353.71,33.977L354.289,32.434L354.877,32.262L355.455,32.271L356.034,33.838L356.608,31.081L357.184,29.878L357.761,29.621L358.34,27.811L358.922,26.97L359.502,26.513L360.081,24.832L360.66,22.982L361.237,21.944L361.812,21.636L362.392,19.741L362.978,18.955L363.553,18.282L364.131,17.225L364.712,16.294L365.282,15.385L365.863,15.522L366.442,13.793L367.024,13.233L367.599,12.636L368.178,11.626L368.758,10.479L369.335,9.595L369.911,9.612L370.49,8.875L371.068,8.211L371.65,7.492L372.228,6.448L372.805,5.774L373.383,5.453L373.961,5.497L374.54,5.292L375.12,5.518L375.698,5.651L376.276,5.245L376.858,4.994L377.433,4.767L378.01,5.143L378.591,5.462L379.168,5.791L379.747,5.815L380.326,5.767L381.481,5.376L382.06,5.895L382.639,6.157L383.218,6.451L383.797,6.577L384.376,6.159L384.954,5.872L385.534,5.651L386.111,5.919L386.691,6.223L387.27,6.51L387.848,6.847L388.427,6.71L389.006,6.109L389.584,5.991L390.162,6.075L390.741,6.921L391.32,7.658L391.899,8.129L392.495,8.048L393.125,8.518L393.641,8.483L394.217,9.289L394.796,10.048L395.377,10.722L395.959,11.227L396.537,11.136L397.116,11.641L397.686,11.602L398.263,12.479L398.842,13.244L399.421,14.031L400,14.675" stroke="#f58518" stroke-width="2"/></g></g><path class="foreground" aria-hidden="true" d="" display="none"/></g></g><g class="mark-group role-legend" role="graphics-symbol" aria-roledescription="legend" aria-label="Symbol legend for stroke color with 2 values: disponible, total"><g transform="translate(0,-29)"><path class="background" aria-hidden="true" d="M0,0h108v11h-108Z" pointer-events="none"/><g><g class="mark-group role-legend-entry"><g transform="translate(0,0)"><path class="background" aria-hidden="true" d="M0,0h0v0h0Z" pointer-events="none"/><g><g class="mark-group role-scope" role="graphics-object" aria-roledescription="group mark container"><g transform="translate(0,0)"><path class="background" aria-hidden="true" d="M0,0h61.0341796875v11h-61.0341796875Z" pointer-events="none" opacity="1"/><g><g class="mark-symbol role-legend-symbol" pointer-events="none"><path transform="translate(6,6)" d="M-5,0L5,0" stroke="#4c78a8" stroke-width="1.5" opacity="1"/></g><g class="mark-text role-legend-label" pointer-events="none"><text text-anchor="start" transform="translate(16,9)" font-family="sans-serif" font-size="10px" fill="#000" opacity="1">disponible</text></g></g><path class="foreground" aria-hidden="true" d="" pointer-events="none" display="none"/></g><g transform="translate(73,0)"><path class="background" aria-hidden="true" d="M0,0h34.9013671875v11h-34.9013671875Z" pointer-events="none" opacity="1"/><g><g class="mark-symbol role-legend-symbol" pointer-events="none"><path transform="translate(6,6)" d="M-5,0L5,0" stroke="#f58518" stroke-width="1.5" opacity="1"/></g><g class="mark-text role-legend-label" pointer-events="none"><text text-anchor="start" transform="translate(16,9)" font-family="sans-serif" font-size="10px" fill="#000" opacity="1">total</text></g></g><path class="foreground" aria-hidden="true" d="" pointer-events="none" display="none"/></g></g></g><path class="foreground" aria-hidden="true" d="" pointer-events="none" display="none"/></g></g></g><path class="foreground" aria-hidden="true" d="" pointer-events="none" display="none"/></g></g><g class="mark-group role-title"><g transform="translate(200,-46)"><path class="background" aria-hidden="true" d="M0,0h0v0h0Z" pointer-events="none"/><g><g class="mark-text role-title-text" role="graphics-symbol" aria-roledescription="title" aria-label="Title text 'Historique du nombre de trajets MAXJEUNE et au total, disponibles chaque jour'" pointer-events="none"><text text-anchor="middle" transform="translate(0,10)" font-family="sans-serif" font-size="13px" font-weight="bold" fill="#000" opacity="1">Historique du nombre de trajets MAXJEUNE et au total, disponibles chaque jour</text></g></g><path class="foreground" aria-hidden="true" d="" pointer-events="none" display="none"/></g></g></g><path class="foreground" aria-hidden="true" d="" display="none"/></g></g></g></svg>