<svg xmlns="http://www.w3.org/2000/svg" xmlns:xlink="http://www.w3.org/1999/xlink" version="1.1" class="marks" width="517" height="332" viewBox="0 0 517 332"><rect width="517" height="332" fill="white"/><g fill="none" stroke-miterlimit="10" transform="translate(64,51)"><g class="mark-group role-frame root" role="graphics-object" aria-roledescription="group mark container"><g transform="translate(0,0)"><path class="background" aria-hidden="true" d="M0.5,0.5h400v200h-400Z" stroke="#ddd"/><g><g class="mark-group role-axis" aria-hidden="true"><g transform="translate(0.5,200.5)"><path class="background" aria-hidden="true" d="M0,0h0v0h0Z" pointer-events="none"/><g><g class="mark-rule role-axis-grid" pointer-events="none"><line transform="translate(4,-200)" x2="0" y2="200" stroke="#ddd" stroke-width="1" opacity="1"/><line transform="translate(32,-200)" x2="0" y2="200" stroke="#ddd" stroke-width="1" opacity="1"/><line transform="translate(60,-200)" x2="0" y2="200" stroke="#ddd" stroke-width="1" opacity="1"/><line transform="translate(88,-200)" x2="0" y2="200" stroke="#ddd" stroke-width="1" opacity="1"/><line transform="translate(117,-200)" x2="0" y2="200" stroke="#ddd" stroke-width="1" opacity="1"/><line transform="translate(142,-200)" x2="0" y2="200" stroke="#ddd" stroke-width="1" opacity="1"/><line transform="translate(171,-200)" x2="0" y2="200" stroke="#ddd" stroke-width="1" opacity="1"/><line transform="translate(198,-200)" x2="0" y2="200" stroke="#ddd" stroke-width="1" opacity="1"/><line transform="translate(227,-200)" x2="0" y2="200" stroke="#ddd" stroke-width="1" opacity="1"/><line transform="translate(254,-200)" x2="0" y2="200" stroke="#ddd" stroke-width="1" opacity="1"/><line transform="translate(283,-200)" x2="0" y2="200" stroke="#ddd" stroke-width="1" opacity="1"/><line transform="translate(311,-200)" x2="0" y2="200" stroke="#ddd" stroke-width="1" opacity="1"/><line transform="translate(339,-200)" x2="0" y2="200" stroke="#ddd" stroke-width="1" opacity="1"/><line transform="translate(367,-200)" x2="0" y2="200" stroke="#ddd" stroke-width="1" opacity="1"/><line transform="translate(395,-200)" x2="0" y2="200" stroke="#ddd" stroke-width="1" opacity="1"/></g></g><path class="foreground" aria-hidden="true" d="" pointer-events="none" display="none"/></g></g><g class="mark-group role-axis" aria-hidden="true"><g transform="translate(0.5,0.5)"><path class="background" aria-hidden="true" d="M0,0h0v0h0Z" pointer-events="none"/><g><g class="mark-rule role-axis-grid" pointer-events="none"><line transform="translate(0,200)" x2="400" y2="0" stroke="#ddd" stroke-width="1" opacity="1"/><line transform="translate(0,156)" x2="400" y2="0" stroke="#ddd" stroke-width="1" opacity="1"/><line transform="translate(0,111)" x2="400" y2="0" stroke="#ddd" stroke-width="1" opacity="1"/><line transform="translate(0,67)" x2="400" y2="0" stroke="#ddd" stroke-width="1" opacity="1"/><line transform="translate(0,22)" x2="400" y2="0" stroke="#ddd" stroke-width="1" opacity="1"/></g></g><path class="foreground" aria-hidden="true" d="" pointer-events="none" display="none"/></g></g><g class="mark-group role-axis" role="graphics-symbol" aria-roledescription="axis" aria-label="X-axis titled 'Date de la recherche' for a time scale with values from September 2024 to December 2025"><g transform="translate(0.5,200.5)"><path class="background" aria-hidden="true" d="M0,0h0v0h0Z" pointer-events="none"/><g><g class="mark-rule role-axis-tick" pointer-events="none"><line transform="translate(4,0)" x2="0" y2="5" stroke="#888" stroke-width="1" opacity="1"/><line transform="translate(32,0)" x2="0" y2="5" stroke="#888" stroke-width="1" opacity="1"/><line transform="translate(60,0)" x2="0" y2="5" stroke="#888" stroke-width="1" opacity="1"/><line transform="translate(88,0)" x2="0" y2="5" stroke="#888" stroke-width="1" opacity="1"/><line transform="translate(117,0)" x2="0" y2="5" stroke="#888" stroke-width="1" opacity="1"/><line transform="translate(142,0)" x2="0" y2="5" stroke="#888" stroke-width="1" opacity="1"/><line transform="translate(171,0)" x2="0" y2="5" stroke="#888" stroke-width="1" opacity="1"/><line transform="translate(198,0)" x2="0" y2="5" stroke="#888" stroke-width="1" opacity="1"/><line transform="translate(227,0)" x2="0" y2="5" stroke="#888" stroke-width="1" opacity="1"/><line transform="translate(254,0)" x2="0" y2="5" stroke="#888" stroke-width="1" opacity="1"/><line transform="translate(283,0)" x2="0" y2="5" stroke="#888" stroke-width="1" opacity="1"/><line transform="translate(311,0)" x2="0" y2="5" stroke="#888" stroke-width="1" opacity="1"/><line transform="translate(339,0)" x2="0" y2="5" stroke="#888" stroke-width="1" opacity="1"/><line transform="translate(367,0)" x2="0" y2="5" stroke="#888" stroke-width="1" opacity="1"/><line transform="translate(395,0)" x2="0" y2="5" stroke="#888" stroke-width="1" opacity="1"/></g><g class="mark-text role-axis-label" pointer-events="none"><text text-anchor="start" transform="translate(4.004350930129874,7) rotate(45) translate(0,8)" font-family="sans-serif" font-size="10px" fill="#000" opacity="1">October 2024</text><text text-anchor="start" transform="translate(32.42472814046711,7) rotate(45) translate(0,8)" font-family="sans-serif" font-size="10px" fill="#000" opacity="0">November 2024</text><text text-anchor="start" transform="translate(59.92831898918056,7) rotate(45) translate(0,8)" font-family="sans-serif" font-size="10px" fill="#000" opacity="0">December 2024</text><text text-anchor="start" transform="translate(88.34869619951779,7) rotate(45) translate(0,8)" font-family="sans-serif" font-size="10px" fill="#000" opacity="0">January 2025</text><text text-anchor="start" transform="translate(116.76907340985503,7) rotate(45) translate(0,8)" font-family="sans-serif" font-size="10px" fill="#000" opacity="1">February 2025</text><text text-anchor="start" transform="translate(142.4390915353209,7) rotate(45) translate(0,8)" font-family="sans-serif" font-size="10px" fill="#000" opacity="0">March 2025</text><text text-anchor="start" transform="translate(170.85946874565815,7) rotate(45) translate(0,8)" font-family="sans-serif" font-size="10px" fill="#000" opacity="0">April 2025</text><text text-anchor="start" transform="translate(198.3630595943716,7) rotate(45) translate(0,8)" font-family="sans-serif" font-size="10px" fill="#000" opacity="0">May 2025</text><text text-anchor="start" transform="translate(226.78343680470886,7) rotate(45) translate(0,8)" font-family="sans-serif" font-size="10px" fill="#000" opacity="1">June 2025</text><text text-anchor="start" transform="translate(254.28702765342229,7) rotate(45) translate(0,8)" font-family="sans-serif" font-size="10px" fill="#000" opacity="0">July 2025</text><text text-anchor="start" transform="translate(282.70740486375956,7) rotate(45) translate(0,8)" font-family="sans-serif" font-size="10px" fill="#000" opacity="0">August 2025</text><text text-anchor="start" transform="translate(311.12778207409673,7) rotate(45) translate(0,8)" font-family="sans-serif" font-size="10px" fill="#000" opacity="0">September 2025</text><text text-anchor="start" transform="translate(338.63137292281016,7) rotate(45) translate(0,8)" font-family="sans-serif" font-size="10px" fill="#000" opacity="1">October 2025</text><text text-anchor="start" transform="translate(367.05175013314744,7) rotate(45) translate(0,8)" font-family="sans-serif" font-size="10px" fill="#000" opacity="0">November 2025</text><text text-anchor="start" transform="translate(394.55534098186087,7) rotate(45) translate(0,8)" font-family="sans-serif" font-size="10px" fill="#000" opacity="0">December 2025</text></g><g class="mark-rule role-axis-domain" pointer-events="none"><line transform="translate(0,0)" x2="400" y2="0" stroke="#888" stroke-width="1" opacity="1"/></g><g class="mark-text role-axis-title" pointer-events="none"><text text-anchor="middle" transform="translate(200,73.06062994763117)" font-family="sans-serif" font-size="11px" font-weight="bold" fill="#000" opacity="1">Date de la recherche</text></g></g><path class="foreground" aria-hidden="true" d="" pointer-events="none" display="none"/></g></g><g class="mark-group role-axis" role="graphics-symbol" aria-roledescription="axis" aria-label="Y-axis titled 'Nombre de trajets' for a linear scale with values from 0 to 450,000"><g transform="translate(0.5,0.5)"><path class="background" aria-hidden="true" d="M0,0h0v0h0Z" pointer-events="none"/><g><g class="mark-rule role-axis-tick" pointer-events="none"><line transform="translate(0,200)" x2="-5" y2="0" stroke="#888" stroke-width="1" opacity="1"/><line transform="translate(0,156)" x2="-5" y2="0" stroke="#888" stroke-width="1" opacity="1"/><line transform="translate(0,111)" x2="-5" y2="0" stroke="#888" stroke-width="1" opacity="1"/><line transform="translate(0,67)" x2="-5" y2="0" stroke="#888" stroke-width="1" opacity="1"/><line transform="translate(0,22)" x2="-5" y2="0" stroke="#888" stroke-width="1" opacity="1"/></g><g class="mark-text role-axis-label" pointer-events="none"><text text-anchor="end" transform="translate(-7,203)" font-family="sans-serif" font-size="10px" fill="#000" opacity="1">0</text><text text-anchor="end" transform="translate(-7,158.55555555555557)" font-family="sans-serif" font-size="10px" fill="#000" opacity="1">100,000</text><text text-anchor="end" transform="translate(-7,114.11111111111111)" font-family="sans-serif" font-size="10px" fill="#000" opacity="1">200,000</text><text text-anchor="end" transform="translate(-7,69.66666666666667)" font-family="sans-serif" font-size="10px" fill="#000" opacity="1">300,000</text><text text-anchor="end" transform="translate(-7,25.222222222222232)" font-family="sans-serif" font-size="10px" fill="#000" opacity="1">400,000</text></g><g class="mark-rule role-axis-domain" pointer-events="none"><line transform="translate(0,200)" x2="0" y2="-200" stroke="#888" stroke-width="1" opacity="1"/></g><g class="mark-text role-axis-title" pointer-events="none"><text text-anchor="middle" transform="translate(-47.1474609375,100) rotate(-90) translate(0,-2)" font-family="sans-serif" font-size="11px" font-weight="bold" fill="#000" opacity="1">Nombre de trajets</text></g></g><path class="foreground" aria-hidden="true" d="" pointer-events="none" display="none"/></g></g><g class="mark-group role-scope pathgroup" role="graphics-object" aria-roledescription="group mark container"><g transform="translate(0,0)"><path class="background" aria-hidden="true" d="M0,0h400v200h-400Z"/><g><g class="mark-line role-mark marks" role="graphics-object" aria-roledescription="line mark container"><path aria-label="Date de la recherche: September 2024; Nombre de trajets: 91488; variable: disponible" role="graphics-symbol" aria-roledescription="line mark" d="M0,159.339L0.806,160.009L1.722,160.25L2.639,159.721L3.556,159.224L4.473,160.066L5.39,161.226L6.307,162.729L7.223,163.599L8.14,164.927L9.057,164.272L9.974,163.069L10.89,163.83L11.807,166.394L12.724,165.123L13.641,166.305L14.558,167.015L15.474,167.638L16.391,167.648L17.308,168.931L18.225,169.444L19.141,170.203L20.058,170.474L20.975,170.704L21.892,168.872L22.809,167.766L23.725,168.451L24.642,167.16L25.559,168.696L26.476,166.936L27.393,167.617L28.309,164.943L29.233,163.236L30.143,165.275L31.06,163.601L31.977,165.017L32.893,163.38L33.811,162.688L34.727,161.357L35.643,159.746L36.56,159.755L37.479,159.142L38.394,161.116L39.311,160.392L40.227,160.483L41.145,158.316L42.061,156.748L42.98,154.82L43.895,155.253L44.811,154.239L45.728,154.859L46.648,156.557L47.562,155.787L48.479,155.331L49.395,156.853L50.312,157.538L51.229,158.599L52.146,159.242L53.063,159.566L53.979,159.835L54.896,159.906L55.813,161.397L56.73,162.616L57.647,164.062L58.563,165.294L59.48,166.184L60.397,166.252L61.314,166.133L62.23,167.211L63.148,167.551L64.064,168.202L64.981,168.182L65.898,168.864L66.815,168.023L67.731,166.956L68.648,166.728L69.564,166.308L70.481,166.35L71.398,164.781L72.315,165.02L73.232,163.984L74.149,162.302L75.065,162.622L75.982,161.783L76.899,161.712L77.816,159.731L78.733,159.145L79.649,157.033L80.566,155.203L81.483,153.702L82.4,149.882L83.317,149.315L84.233,147.688L85.15,147.022L86.067,145.158L86.984,143.235L87.9,141.419L88.817,139.417L89.734,139.184L90.651,141.537L91.567,142.381L92.484,139.298L93.401,137.729L94.318,138.287L95.235,138.306L96.151,139.025L97.069,139.891L97.985,141.793L98.902,142.216L99.819,142.23L100.735,143.622L101.652,144.212L102.569,146.113L103.486,147.762L104.402,148.816L105.319,149.653L106.236,149.103L107.153,149.572L108.07,151.036L108.986,152.019L109.903,154.556L110.82,155.987L111.737,156.427L112.653,155.749L113.57,156.068L114.487,156.588L115.404,157.142L116.321,158.761L117.237,159.033L118.154,159.104L119.071,158.219L119.988,158.195L120.905,158.685L121.821,160.639L122.738,161.217L123.655,162.238L124.572,161.805L125.489,161.569L126.405,162.052L127.322,162.612L128.239,163.765L129.156,164.016L130.072,164.144L130.989,163.397L131.906,162.463L132.823,162.635L133.74,160.836L134.656,162.052L135.573,161.876L136.49,162.061L137.407,159.33L138.324,157.85L139.24,157.162L140.157,156.173L141.074,157.449L141.991,157.287L142.907,157.682L143.824,156.434L144.741,155.299L145.658,155.873L146.575,156.232L147.491,158.153L148.408,157.316L149.325,158.821L150.242,157.497L151.159,156.43L152.076,156.36L152.992,156.624L153.909,157.757L154.826,159.565L155.742,159.94L156.659,160.216L157.576,159.533L158.493,159.946L159.41,160.72L160.326,162.035L161.243,162.685L162.16,163.619L163.077,164.437L163.994,164.308L164.91,164.997L165.827,165.332L166.744,166.06L167.661,166.832L168.577,167.163L169.494,167.356L170.411,166.756L171.328,168.562L172.245,168.524L173.161,169.668L174.078,169.96L174.995,170.583L175.912,169.531L176.829,169.106L177.745,170.336L178.662,171.222L179.579,172.901L180.496,173.898L181.412,173.981L182.329,173.399L183.246,172.256L184.163,172.224L185.08,172.383L185.996,172.577L186.913,171.82L187.83,171.468L188.747,170.136L189.664,168.69L190.58,167.228L191.497,166.981L192.414,166.786L193.331,166.962L194.247,166.335L195.164,165.966L196.081,165.59L196.998,166.577L197.915,167.733L198.831,170.02L199.748,168.846L200.665,169.858L201.582,169.379L202.499,168.202L203.415,168.43L204.332,170.075L205.249,170.046L206.166,169.925L207.082,169.592L207.999,168.736L208.916,168.091L209.833,168.04L210.75,168.317L211.666,169.349L212.583,169.497L213.5,170.13L214.417,170.491L215.334,170.374L216.25,171.072L217.167,173.061L218.084,174.635L219.001,174.731L219.917,174.89L220.834,174.699L221.751,174.329L222.668,175.925L223.585,174.959L224.501,175.182L225.418,176.424L226.335,174.932L227.252,174.408L228.169,173.2L229.085,172.78L230.002,173.29L230.919,173.061L231.836,173.79L232.753,173.8L233.669,173.333L234.586,172.788L235.503,172.172L236.42,172.853L237.337,173.283L238.253,175.056L239.17,174.065L240.087,174.497L241.004,174.456L241.921,175.107L242.837,175.869L243.754,176.792L244.671,176.778L245.587,177.009L246.504,177.119L247.421,176.421L248.338,176.539L249.255,177.062L250.172,177.335L251.088,177.774L252.005,178.057L252.922,177.759L253.839,177.03L254.755,176.662L255.672,177.327L256.589,177.417L257.506,177.748L258.423,177.901L259.339,177.574L260.256,176.725L261.173,176.693L262.09,176.283L263.007,176.441L263.923,176.327L264.84,176.355L265.757,175.682L266.674,175.172L267.591,174.815L268.507,178.13L269.424,178.902L270.341,178.285L271.257,178.194L272.174,177.128L273.091,176.427L274.008,176.211L274.925,176.344L275.841,176.647L276.759,176.738L277.675,176.03L278.592,175.164L279.509,174.287L280.425,174.413L281.342,173.714L282.259,174.324L283.176,173.887L284.092,173.912L285.009,172.471L285.926,171.321L286.843,171.24L287.76,171.28L288.676,172.08L289.593,172.211L290.51,172.403L291.427,171.398L292.344,170.396L293.261,170.518L294.179,170.236L295.094,170.683L296.011,170.087L296.928,170.074L297.844,169.3L298.761,168.013L299.678,167.635L300.595,166.205L301.512,166.481L302.428,166.323L303.345,166.3L304.262,165.771L305.179,164.96L306.105,164.593L307.012,165.332L307.929,166.362L308.846,166.83L309.763,167.888L310.679,167.998L311.596,168.088L312.513,168.656L313.43,170.384L314.346,164.386L315.263,164.849L316.18,166.016L317.097,165.694L318.014,164.655L318.93,163.862L319.847,163.137L320.764,165.146L321.681,165.064L322.598,165.244L323.514,165.762L324.431,164.872L325.348,164.64L326.265,165.472L327.182,166.088L328.099,167.32L329.015,166.82L329.932,167.115L330.849,167.029L331.766,167.192L332.682,167.811L333.599,168.811L334.516,170.644L335.433,169.776L336.349,170.481L337.266,170.076L338.183,170.333L339.1,170.433L340.017,171.609L340.933,172.44L341.85,172.626L342.767,172.988L343.684,172.106L344.6,171.847L345.517,172.026L346.434,173.442L347.351,173.866L348.268,173.078L349.184,172.944L350.101,173.152L351.018,173.688L351.935,174.006L352.852,174.688L353.768,174.205L354.685,173.786L355.602,172.674L356.519,171.307L357.436,171.597L358.352,171.21L359.269,171.624L360.186,171.142L361.103,170.751L362.019,169.213L362.937,167.775L363.853,167.387L364.77,167.261L365.687,167.35L366.603,166.703L367.52,167.341L368.437,166.164L369.354,164.592L370.27,164.66L371.187,164.254L372.104,165.054L373.021,165.095L373.938,164.783L374.854,163.01L375.771,162.001L376.688,161.608L377.605,160.09L378.522,160.927L379.439,161.446L380.355,161.809L381.641,161.546L382.615,160.467L383.5,161.036L384.415,161.558L385.331,162.723L385.856,163.683L386.773,163.763L387.69,163.474L388.606,163.335L389.523,163.94L390.44,164.694L391.356,165.922L392.688,167.04L393.582,167.981L394.5,168.795L395.417,168.795L396.333,169.349L397.251,170.304L398.167,171.598L399.084,172.795L400,173.184" stroke="#4c78a8" stroke-width="2"/></g></g><path class="foreground" aria-hidden="true" d="" display="none"/></g><g transform="translate(0,0)"><path class="background" aria-hidden="true" d="M0,0h400v200h-400Z"/><g><g class="mark-line role-mark marks" role="graphics-object" aria-roledescription="line mark container"><path aria-label="Date de la recherche: September 2024; Nombre de trajets: 351801; variable: total" role="graphics-symbol" aria-roledescription="line mark" d="M0,43.644L0.806,43.23L1.722,43.532L2.639,43.471L3.556,43.523L4.473,42.888L5.39,42.975L6.307,43.715L7.223,43.55L8.14,43.967L9.057,43.883L9.974,43.916L10.89,43.705L11.807,43.343L12.724,45.168L13.641,47.57L14.558,49.451L15.474,50.78L16.391,51.056L17.308,51.055L18.225,50.496L19.141,50.482L20.058,50.263L20.975,50.547L21.892,50.55L22.809,50.929L23.725,51.131L24.642,50.923L25.559,51.584L26.476,51.856L27.393,52.263L28.309,52.39L29.233,52.759L30.143,52.836L31.06,52.374L31.977,53.093L32.893,53.62L33.811,53.032L34.727,52.105L35.643,52.092L36.56,52.091L37.479,51.462L38.394,51.622L39.311,41.063L40.227,40.994L41.145,38.53L42.061,35.785L42.98,33.752L43.895,31.452L44.811,31.196L45.728,31.976L46.648,32.224L47.562,32.1L48.479,32.214L49.395,43.381L50.312,42.648L51.229,31.545L52.146,31.141L53.063,31.16L53.979,30.515L54.896,30.687L55.813,30.67L56.73,41.943L57.647,41.649L58.563,29.061L59.48,29.416L60.397,28.902L61.314,29.519L62.23,29.164L63.148,28.757L64.064,28.1L64.981,27.722L65.898,26.185L66.815,25.875L67.731,25.729L68.648,25.856L69.564,25.331L70.481,37.198L71.398,25.074L72.315,25.668L73.232,25.804L74.149,25.909L75.065,26.032L75.982,25.492L76.899,25.271L77.816,25.142L78.733,25.764L79.649,26.482L80.566,26.828L81.483,27.121L82.4,26.415L83.317,25.957L84.233,26.279L85.15,27.016L86.067,27.544L86.984,27.983L87.9,28.387L88.817,27.747L89.734,27.414L90.651,27.669L91.567,28.387L92.484,28.939L93.401,29.468L94.318,29.973L95.235,29.508L96.151,29.126L97.069,29.288L97.985,30.003L98.902,30.398L99.819,30.824L100.735,31.144L101.652,30.97L102.569,41.714L103.486,30.252L104.402,30.988L105.319,31.619L106.236,31.958L107.153,32.143L108.07,31.707L108.986,31.087L109.903,31.152L110.82,31.917L111.737,32.222L112.653,32.403L113.57,32.294L114.487,31.743L115.404,31.524L116.321,31.784L117.237,32.277L118.154,32.624L119.071,32.712L119.988,32.796L120.905,32.445L121.821,31.822L122.738,31.126L123.655,31.789L124.572,32.685L125.489,33.031L126.405,33.212L127.322,32.773L128.239,33.388L129.156,33.592L130.072,34.164L130.989,35.362L131.906,35.763L132.823,35.899L133.74,35.315L134.656,35.592L135.573,36.133L136.49,36.764L137.407,37.632L138.324,37.992L139.24,38.217L140.157,48.657L141.074,49.276L141.991,49.164L142.907,49.493L143.824,49.746L144.741,49.778L145.658,38.859L146.575,38.161L147.491,37.686L148.408,37.108L149.325,37.387L150.242,37.632L151.159,37.878L152.076,37.688L152.992,36.921L153.909,36.403L154.826,35.921L155.742,36.056L156.659,35.163L157.576,34.855L158.493,34.686L159.41,33.996L160.326,34.483L161.243,35.695L162.16,36.783L163.077,36.296L163.994,35.908L164.91,35.731L165.827,34.88L166.744,34.631L167.661,34.328L168.577,34.329L169.494,33.922L170.411,33.396L171.328,33.329L172.245,33.858L173.161,34.476L174.078,35.666L174.995,36.248L175.912,37.45L176.829,37.177L177.745,37.877L178.662,37.17L179.579,38.661L180.496,39.278L181.412,39.69L182.329,40.057L183.246,40.341L184.163,40.363L185.08,39.966L185.996,40.384L186.913,40.357L187.83,40.606L188.747,39.799L189.664,38.261L190.58,37.851L191.497,37.399L192.414,37.4L193.331,37.352L194.247,37.876L195.164,38.551L196.081,38.273L196.998,38.913L197.915,40.323L198.831,42.092L199.748,42.238L200.665,41.801L201.582,41.309L202.499,41.427L203.415,41.43L204.332,40.981L205.249,41.689L206.166,42.137L207.082,40.74L207.999,38.877L208.916,38.676L209.833,38.774L210.75,38.256L211.666,39.166L212.583,39.717L213.5,40.268L214.417,39.847L215.334,39.945L216.25,40.043L217.167,39.415L218.084,39.523L219.001,39.268L219.917,39.68L220.834,39.566L221.751,39.679L222.668,39.789L223.585,39.682L224.501,40.502L225.418,40.502L226.335,38.96L227.252,37.599L228.169,49.079L229.085,48.936L230.002,47.866L230.919,35.477L231.836,34.581L232.753,34.1L233.669,32.722L234.586,30.764L235.503,29.522L236.42,28.472L237.337,27.45L238.253,26.752L239.17,26.195L240.087,24.508L241.004,23.186L241.921,22.453L242.837,21.27L243.754,20.594L244.671,19.795L245.587,19.459L246.504,18.917L247.421,18.407L248.338,17.611L249.255,15.996L250.172,14.744L251.088,13.67L252.005,13.268L252.922,11.688L253.839,10.401L254.755,9.68L255.672,8.634L256.589,7.666L257.506,6.733L258.423,6.447L259.339,6.648L260.256,6.913L261.173,7.142L262.09,6.778L263.007,6.423L263.923,6.221L264.84,6.697L265.757,6.961L266.674,6.967L267.591,6.828L268.507,6.909L269.424,6.72L270.341,6.489L271.257,6.91L272.174,7.019L273.091,7.102L274.008,7.276L274.925,7L275.841,6.7L276.759,6.562L277.675,7.013L278.592,7.419L279.509,7.774L280.425,8.004L281.342,7.824L282.259,7.632L283.176,7.624L284.092,8.608L285.009,9.588L285.926,10.514L286.843,23.998L287.76,24.18L288.676,24.671L289.593,12.251L290.51,13.22L291.427,14.339L292.344,15.249L293.261,15.966L294.179,16.04L295.094,16.588L296.011,17.289L296.928,18.311L297.844,19.453L298.761,20.548L299.678,21.367L300.595,21.895L301.512,22.307L302.428,22.592L303.345,23.508L304.262,24.434L305.179,25.478L306.105,26.376L307.012,26.459L307.929,26.994L308.846,27.342L309.763,28.512L310.679,29.606L311.596,30.551L312.513,30.946L313.43,30.848L314.346,30.833L315.263,30.717L316.18,31.369L317.097,31.672L318.014,32.168L318.93,32.468L319.847,32.252L320.764,32.707L321.681,32.744L322.598,33.391L323.514,33.776L324.431,34.194L325.348,34.264L326.265,33.874L327.182,33.784L328.099,33.23L329.015,33.629L329.932,33.935L330.849,34.376L331.766,34.532L332.682,33.903L333.599,33.763L334.516,33.499L335.433,34.137L336.349,34.408L337.266,34.85L338.183,34.911L339.1,34.408L340.017,34.312L340.933,33.871L341.85,34.43L342.767,34.635L343.684,34.972L344.6,35.029L345.517,34.567L346.434,34.906L347.351,35.273L348.268,36.404L349.184,36.064L350.101,36.193L351.018,36.184L351.935,35.46L352.852,35.25L353.768,34.94L354.685,35.736L355.602,35.958L356.519,36.317L357.436,36.487L358.352,36.016L359.269,36.638L360.186,36.584L361.103,37.003L362.019,37.092L362.937,37.367L363.853,37.441L364.77,36.927L365.687,36.857L366.603,36.367L367.52,36.565L368.437,36.544L369.354,36.812L370.27,36.737L371.187,36.034L372.104,36.394L373.021,36.221L373.938,36.347L374.854,35.854L375.771,35.315L376.688,34.461L377.605,33.782L378.522,33.904L379.439,33.897L380.355,34.39L381.641,34.251L382.615,34.461L383.5,34.308L384.415,33.611L385.331,32.839L385.856,32.159L386.773,32.164L387.69,31.195L388.606,31.053L389.523,31.379L390.44,30.967L391.356,30.417L392.688,29.717L393.582,27.828L394.5,26.715L395.417,26.84L396.333,39.755L397.251,26.792L398.167,26.18L399.084,25.597L400,25.931" stroke="#f58518" stroke-width="2"/></g></g><path class="foreground" aria-hidden="true" d="" display="none"/></g></g><g class="mark-group role-legend" role="graphics-symbol" aria-roledescription="legend" aria-label="Symbol legend for stroke color with 2 values: disponible, total"><g transform="translate(0,-29)"><path class="background" aria-hidden="true" d="M0,0h108v11h-108Z" pointer-events="none"/><g><g class="mark-group role-legend-entry"><g transform="translate(0,0)"><path class="background" aria-hidden="true" d="M0,0h0v0h0Z" pointer-events="none"/><g><g class="mark-group role-scope" role="graphics-object" aria-roledescription="group mark container"><g transform="translate(0,0)"><path class="background" aria-hidden="true" d="M0,0h61.0341796875v11h-61.0341796875Z" pointer-events="none" opacity="1"/><g><g class="mark-symbol role-legend-symbol" pointer-events="none"><path transform="translate(6,6)" d="M-5,0L5,0" stroke="#4c78a8" stroke-width="1.5" opacity="1"/></g><g class="mark-text role-legend-label" pointer-events="none"><text text-anchor="start" transform="translate(16,9)" font-family="sans-serif" font-size="10px" fill="#000" opacity="1">disponible</text></g></g><path class="foreground" aria-hidden="true" d="" pointer-events="none" display="none"/></g><g transform="translate(73,0)"><path class="background" aria-hidden="true" d="M0,0h34.9013671875v11h-34.9013671875Z" pointer-events="none" opacity="1"/><g><g class="mark-symbol role-legend-symbol" pointer-events="none"><path transform="translate(6,6)" d="M-5,0L5,0" stroke="#f58518" stroke-width="1.5" opacity="1"/></g><g class="mark-text role-legend-label" pointer-events="none"><text text-anchor="start" transform="translate(16,9)" font-family="sans-serif" font-size="10px" fill="#000" opacity="1">total</text></g></g><path class="foreground" aria-hidden="true" d="" pointer-events="none" display="none"/></g></g></g><path class="foreground" aria-hidden="true" d="" pointer-events="none" display="none"/></g></g></g><path class="foreground" aria-hidden="true" d="" pointer-events="none" display="none"/></g></g><g class="mark-group role-title"><g transform="translate(200,-46)"><path class="background" aria-hidden="true" d="M0,0h0v0h0Z" pointer-events="none"/><g><g class="mark-text role-title-text" role="graphics-symbol" aria-roledescription="title" aria-label="Title text 'Historique du nombre de trajets MAXJEUNE et au total, disponibles chaque jour'" pointer-events="none"><text text-anchor="middle" transform="translate(0,10)" font-family="sans-serif" font-size="13px" font-weight="bold" fill="#000" opacity="1">Historique du nombre de trajets MAXJEUNE et au total, disponibles chaque jour</text></g></g><path class="foreground" aria-hidden="true" d="" pointer-events="none" display="none"/></g></g></g><path class="foreground" aria-hidden="true" d="" display="none"/></g></g></g></svg>